<svg xmlns="http://www.w3.org/2000/svg" viewBox="0 0 2189.66 1291.15"><defs><style>.cls-1{fill:#af0000;opacity:0.15;}</style></defs><g id="Layer_2" data-name="Layer 2"><path class="cls-1" d="M1202.78,372.33c-108.29-3.17-211.45-32.66-309.94-64.93s-196-68-301.75-85.13c-68-11-145.74-12.55-200.51,18.2-52.72,29.65-69.76,80.68-78.91,128.08-6.89,35.66-10.94,73.18,7.95,106.57,13.1,23.18,36.38,42.66,52.46,64.94,56,77.24,16.43,172.5-44.26,247.93-28.45,35.39-61.5,69.17-83.45,106.8S212.24,975.61,231.45,1014c19.06,38.11,64.46,66.68,113.62,86.8C445,1141.71,562.6,1153.4,677.4,1160c254.06,14.66,509.45,8.31,764.18,2,94.27-2.36,189-4.74,281.68-17,51.5-6.83,104.66-17.66,142.06-43.83,47.46-33.22,59.22-89.47,27.43-131.12-53.36-69.86-200.8-87.21-238.15-162.2-20.51-41.26.57-87.22,30.39-125.51,64-82.1,171.23-154.14,176.89-248,3.88-64.47-47.69-129-127.41-159.52-83.55-32.08-199.44-28-261,24.91C1409.94,354.21,1298.39,375.13,1202.78,372.33Z"/></g></svg>