<svg width="270" height="368" viewBox="0 0 270 368" fill="none" xmlns="http://www.w3.org/2000/svg">
<path d="M200.769 98.0867L190.511 81.6445C190.459 81.5608 190.386 81.4919 190.299 81.444C190.213 81.3962 190.116 81.3711 190.017 81.3711C189.918 81.3711 189.821 81.3962 189.735 81.444C189.649 81.4919 189.576 81.5608 189.523 81.6445L179.457 99.0288L200.769 98.0867Z" fill="#9A3A88"/>
<g opacity="0.3">
<path opacity="0.3" d="M200.769 98.0867L190.511 81.6445C190.459 81.5608 190.386 81.4919 190.299 81.444C190.213 81.3962 190.116 81.3711 190.017 81.3711C189.918 81.3711 189.821 81.3962 189.735 81.444C189.649 81.4919 189.576 81.5608 189.523 81.6445L179.457 99.0288L200.769 98.0867Z" fill="black"/>
</g>
<path d="M190.511 82.4246L200.098 98.0204L197.659 97.6377L181.999 95.1721L187.836 82.9104L190.511 82.4246Z" fill="#EBEBEB"/>
<path d="M191.535 113.086L200.769 98.0867L176.855 93.6707C176.475 93.5997 176.081 93.6478 175.729 93.8085C175.377 93.9693 175.083 94.2347 174.888 94.5686L161.402 117.385C161.306 117.547 161.251 117.73 161.242 117.919C161.232 118.107 161.269 118.295 161.348 118.466C161.426 118.637 161.546 118.787 161.695 118.903C161.844 119.018 162.019 119.096 162.205 119.129L184.682 123.111L191.535 113.086Z" fill="#9A3A88"/>
<path d="M185.153 83.3667L198.426 97.7187L179.155 94.1123L185.153 83.3667Z" fill="#EBEBEB"/>
<path d="M179.155 94.1123C179.173 94.0372 179.203 93.9653 179.243 93.8989L179.538 93.3174L180.717 91.1094C181.778 89.1885 183.252 86.5021 185.013 83.2857L185.124 83.087L185.279 83.2563L193.93 92.5741L198.558 97.5936L198.271 97.8217C195.249 93.5456 192.626 89.8435 190.732 87.1718L188.573 84.0512L188.013 83.2121C187.942 83.1176 187.88 83.0166 187.828 82.9104C187.828 82.9104 187.917 82.9913 188.064 83.1753L188.676 83.9849L190.924 87.032L198.573 97.6083L198.286 97.8438L193.65 92.839L185.035 83.4771H185.301C183.488 86.664 181.977 89.3651 180.879 91.2345L179.619 93.3984L179.28 93.9577C179.206 94.0534 179.162 94.1197 179.155 94.1123Z" fill="#263238"/>
<g opacity="0.3">
<path opacity="0.3" d="M179.42 100.354C179.214 100.663 171.373 113.712 171.373 113.712L184.151 116.097L192.633 102.562L179.42 100.354Z" fill="white"/>
</g>
<path d="M83.2933 322.957L90.3164 313.794L90.6848 313.323L102.653 322.213L91.5986 334.372L92.004 346.678C98.1722 348.275 99.1007 351.352 99.1007 351.352H86.2705L74.5605 328.918L83.2933 322.957Z" fill="#455A64"/>
<path d="M74.5605 328.918L86.2411 351.337H99.0712C98.7361 350.589 98.2315 349.929 97.5973 349.409L87.1622 348.864L76.4103 327.674L74.5605 328.918Z" fill="#EBEBEB"/>
<path d="M91.864 341.04C91.7682 341.173 91.0312 340.753 90.0364 340.775C89.0415 340.797 88.3193 341.217 88.2161 341.085C88.1129 340.952 88.8204 340.223 90.029 340.216C91.2376 340.209 91.9819 340.937 91.864 341.04Z" fill="#263238"/>
<path d="M91.6577 337.986C91.5324 338.074 90.9576 337.323 89.9332 337.117C88.9089 336.911 88.0982 337.39 88.0098 337.257C87.9214 337.125 88.1204 336.985 88.4741 336.786C88.959 336.534 89.5156 336.457 90.0511 336.565C90.5834 336.675 91.0634 336.961 91.4145 337.375C91.665 337.699 91.724 337.949 91.6577 337.986Z" fill="#263238"/>
<path d="M91.7462 334.063C91.6061 334.137 91.1713 333.393 90.2723 333.084C89.3732 332.775 88.5773 333.084 88.511 332.922C88.4446 332.76 88.6436 332.679 88.9973 332.547C89.4742 332.379 89.9944 332.379 90.4712 332.547C90.9432 332.715 91.3453 333.037 91.6135 333.46C91.7977 333.798 91.8125 334.041 91.7462 334.063Z" fill="#263238"/>
<path d="M95.1802 331.031C95.0255 331.082 94.6717 330.354 93.8759 329.838C93.08 329.323 92.2767 329.242 92.2693 329.102C92.262 328.962 93.22 328.734 94.1854 329.382C95.1508 330.03 95.335 331.009 95.1802 331.031Z" fill="#263238"/>
<path d="M96.8604 328.396C96.7941 328.44 96.3667 327.925 95.7403 327.056L94.657 325.518C94.4056 325.205 94.2043 324.855 94.06 324.48C93.9846 324.22 94.0137 323.94 94.1411 323.7C94.2165 323.565 94.3299 323.454 94.4674 323.382C94.6049 323.31 94.7604 323.28 94.9149 323.295C95.3662 323.381 95.7818 323.599 96.1087 323.921C96.4118 324.178 96.6751 324.478 96.8899 324.812C97.2526 325.368 97.482 326 97.5605 326.659C97.6925 327.258 97.5896 327.885 97.2731 328.411C97.2697 327.847 97.2353 327.285 97.1699 326.725C96.9858 325.792 96.4863 324.95 95.755 324.34C95.5043 324.111 95.2005 323.946 94.8707 323.862C94.8236 323.851 94.7744 323.857 94.7305 323.876C94.6866 323.896 94.6504 323.93 94.6275 323.972C94.5853 324.092 94.5853 324.221 94.6275 324.34C94.7581 324.656 94.9264 324.955 95.1286 325.231C95.4602 325.776 95.7845 326.313 96.1087 326.836C96.4349 327.316 96.6882 327.842 96.8604 328.396Z" fill="#263238"/>
<path d="M97.2952 328.779C97.2363 328.779 97.2952 328.101 97.9806 327.307C98.4552 326.797 99.0828 326.456 99.7686 326.334C100.455 326.212 101.162 326.315 101.783 326.629C101.848 326.686 101.899 326.757 101.933 326.836C101.968 326.914 101.984 327 101.982 327.086C101.972 327.233 101.919 327.374 101.827 327.491C101.692 327.646 101.536 327.783 101.363 327.895C101.077 328.093 100.773 328.266 100.457 328.411C99.9237 328.658 99.3536 328.818 98.7691 328.882C98.2383 328.995 97.6854 328.944 97.1847 328.734C97.6857 328.623 98.1925 328.539 98.7028 328.484C99.2357 328.371 99.7512 328.188 100.236 327.94C100.519 327.797 100.79 327.632 101.046 327.446C101.167 327.363 101.278 327.267 101.378 327.159C101.437 327.042 101.422 327.078 101.378 327.042C101.265 326.972 101.14 326.924 101.009 326.902C100.852 326.867 100.692 326.842 100.53 326.828C100.224 326.809 99.9168 326.831 99.6166 326.894C99.1042 327.01 98.6283 327.25 98.2311 327.594C97.59 328.256 97.3984 328.815 97.2952 328.779Z" fill="#263238"/>
<path d="M84.7673 328.536C84.7673 328.837 84.6778 329.132 84.5102 329.382C84.3426 329.633 84.1043 329.828 83.8256 329.943C83.5468 330.059 83.2401 330.089 82.9442 330.03C82.6483 329.971 82.3765 329.826 82.1631 329.613C81.9498 329.4 81.8045 329.128 81.7456 328.833C81.6868 328.537 81.717 328.231 81.8324 327.953C81.9479 327.674 82.1434 327.436 82.3943 327.269C82.6452 327.102 82.9401 327.012 83.2418 327.012C83.6464 327.012 84.0344 327.173 84.3205 327.458C84.6066 327.744 84.7673 328.132 84.7673 328.536Z" fill="#EBEBEB"/>
<g opacity="0.3">
<path opacity="0.3" d="M101.503 323.435L99.0418 326.136L88.6804 315.891L90.1248 314.014L101.503 323.435Z" fill="black"/>
</g>
<path d="M133.486 327.616L132.175 343.197C132.175 343.197 147.591 348.452 147.65 351.352L117.311 351.212L118.357 326.85L133.486 327.616Z" fill="#455A64"/>
<path d="M122.852 341.43C122.556 341.505 122.297 341.688 122.127 341.942C121.957 342.196 121.887 342.504 121.931 342.807C121.995 343.104 122.171 343.365 122.421 343.538C122.672 343.71 122.979 343.78 123.28 343.734C123.596 343.654 123.871 343.458 124.051 343.186C124.231 342.914 124.303 342.584 124.253 342.262C124.154 341.957 123.941 341.702 123.657 341.551C123.374 341.4 123.043 341.364 122.734 341.452" fill="#EBEBEB"/>
<path d="M117.288 351.212L117.392 348.783L146.132 349.468C146.132 349.468 147.658 350.689 147.643 351.352L117.288 351.212Z" fill="#EBEBEB"/>
<path d="M132.668 343.064C132.668 343.212 131.931 343.248 131.194 343.69C130.458 344.132 130.023 344.728 129.89 344.669C129.757 344.61 130.015 343.756 130.937 343.241C131.858 342.726 132.713 342.932 132.668 343.064Z" fill="#263238"/>
<path d="M135.793 344.536C135.793 344.676 135.159 344.897 134.629 345.5C134.098 346.104 133.892 346.759 133.774 346.744C133.656 346.73 133.568 345.891 134.246 345.155C134.924 344.419 135.793 344.389 135.793 344.536Z" fill="#263238"/>
<path d="M137.414 348.422C137.274 348.422 137.105 347.686 137.525 346.906C137.945 346.126 138.652 345.824 138.711 345.949C138.77 346.075 138.321 346.494 137.974 347.149C137.628 347.804 137.562 348.415 137.414 348.422Z" fill="#263238"/>
<path d="M132.573 339.48C132.506 339.612 131.836 339.377 130.996 339.392C130.155 339.406 129.522 339.642 129.418 339.509C129.315 339.377 130.001 338.884 130.988 338.876C131.976 338.869 132.668 339.37 132.573 339.48Z" fill="#263238"/>
<path d="M132.779 336.352C132.275 336.458 131.751 336.43 131.261 336.271C130.719 336.145 130.195 335.954 129.699 335.704C129.401 335.557 129.115 335.387 128.844 335.197C128.678 335.094 128.529 334.968 128.402 334.821C128.315 334.708 128.268 334.57 128.268 334.427C128.268 334.285 128.315 334.147 128.402 334.034C128.481 333.933 128.583 333.852 128.7 333.798C128.816 333.745 128.944 333.719 129.072 333.725C129.263 333.732 129.451 333.767 129.632 333.828C129.952 333.924 130.262 334.047 130.561 334.196C131.063 334.453 131.522 334.786 131.924 335.182C132.595 335.866 132.808 336.433 132.757 336.462C132.705 336.492 132.366 336.028 131.674 335.454C131.27 335.123 130.827 334.844 130.354 334.622C130.078 334.497 129.792 334.394 129.5 334.313C129.183 334.218 128.903 334.203 128.814 334.313C128.726 334.424 128.777 334.394 128.814 334.49C128.91 334.595 129.019 334.686 129.138 334.762C129.389 334.945 129.649 335.112 129.92 335.263C130.389 335.521 130.883 335.733 131.394 335.896C131.867 336.011 132.33 336.164 132.779 336.352V336.352Z" fill="#263238"/>
<path d="M132.58 336.536C132.521 336.536 132.256 336.014 132.248 335.064C132.25 334.502 132.348 333.945 132.536 333.415C132.651 333.101 132.794 332.798 132.963 332.51C133.056 332.313 133.198 332.142 133.374 332.013C133.55 331.885 133.756 331.803 133.973 331.774C134.107 331.787 134.235 331.837 134.342 331.917C134.45 331.997 134.534 332.106 134.584 332.23C134.656 332.412 134.701 332.603 134.717 332.797C134.752 333.139 134.735 333.484 134.665 333.82C134.553 334.384 134.299 334.911 133.929 335.351C133.295 336.087 132.668 336.256 132.661 336.205C132.654 336.153 133.147 335.866 133.634 335.138C133.917 334.714 134.106 334.235 134.186 333.732C134.227 333.441 134.227 333.147 134.186 332.856C134.15 332.532 134.046 332.267 133.921 332.289C133.796 332.311 133.501 332.51 133.368 332.768C133.203 333.021 133.062 333.289 132.948 333.57C132.76 334.042 132.636 334.537 132.58 335.042C132.528 335.955 132.668 336.521 132.58 336.536Z" fill="#263238"/>
<path d="M195.014 117.988C195.309 117.115 195.272 116.164 194.91 115.316C193.658 112.372 190.71 105.748 189.641 105.932C188.698 106.102 188.005 107.898 189.081 109.877L185.61 106.933C185.455 106.8 185.262 106.718 185.058 106.697C184.855 106.676 184.649 106.719 184.47 106.818C184.291 106.917 184.147 107.069 184.057 107.253C183.967 107.437 183.936 107.644 183.967 107.846C184.054 108.292 184.198 108.725 184.394 109.134C185.47 111.416 188.462 113.55 188.462 113.55L182.419 113.587C182.419 113.587 181.292 115.162 183.363 116.222C183.825 116.448 184.324 116.587 184.836 116.634L187.961 116.95C187.961 116.95 182.316 123.184 182.125 123.766C181.848 124.7 181.68 125.663 181.623 126.636L170.79 138.67L173.687 156.967L193.26 123.111L195.014 117.988Z" fill="#B78876"/>
<path d="M193.444 115.236C193.392 115.272 193.193 114.985 192.766 114.661C192.199 114.254 191.546 113.982 190.857 113.867C190.153 113.757 189.44 113.717 188.728 113.749C188.422 113.788 188.113 113.77 187.814 113.697C187.814 113.646 188.145 113.557 188.705 113.476C189.438 113.363 190.184 113.363 190.916 113.476C191.669 113.595 192.37 113.93 192.935 114.441C193.363 114.868 193.481 115.221 193.444 115.236Z" fill="#AA6550"/>
<path d="M193.54 113.344C192.652 112.89 191.827 112.324 191.086 111.659C190.264 111.094 189.521 110.423 188.875 109.664C189.762 110.124 190.589 110.693 191.336 111.357C192.151 111.924 192.892 112.592 193.54 113.344V113.344Z" fill="#AA6550"/>
<path d="M140.111 203.578C140.274 203.578 140.848 239.642 141.084 255.885C141.158 261.001 139.839 266.04 137.267 270.465L102.004 332.333L81.7457 315.501L114.503 260.213L102.454 201.936L126.331 181.431L140.111 203.578Z" fill="#263238"/>
<path d="M157.245 196.21C157.142 198.286 138.085 332.032 138.085 332.032L114.503 330.354L123.154 195.379L157.245 196.21Z" fill="#263238"/>
<path d="M137.495 205.594C137.495 205.594 137.495 205.719 137.54 205.948C137.584 206.176 137.599 206.536 137.643 206.978C137.716 207.905 137.834 209.237 137.974 210.952C138.247 214.419 138.645 219.402 139.124 225.555C139.603 231.708 140.126 239.075 140.731 247.23C140.863 249.276 141.001 251.366 141.143 253.501C141.202 254.568 141.298 255.657 141.261 256.754C141.23 257.866 141.121 258.975 140.937 260.073C140.556 262.325 139.866 264.515 138.888 266.579C138.402 267.632 137.82 268.633 137.252 269.656L135.535 272.725L111.894 314.92C108.858 320.292 106.396 324.65 104.694 327.682C103.839 329.154 103.176 330.339 102.712 331.141L102.196 332.039L102.004 332.333C102.004 332.333 102.048 332.223 102.159 332.017L102.645 331.104L104.561 327.608L111.658 314.787C117.686 303.961 126.006 289.027 135.203 272.541C135.778 271.51 136.346 270.48 136.921 269.464C137.495 268.449 138.07 267.448 138.542 266.417C139.505 264.382 140.187 262.225 140.568 260.007C140.751 258.929 140.856 257.839 140.885 256.746C140.929 255.664 140.834 254.59 140.782 253.523C140.645 251.388 140.509 249.3 140.377 247.259C139.802 239.097 139.286 231.752 138.859 225.577C138.431 219.402 138.07 214.434 137.827 210.96C137.716 209.252 137.628 207.913 137.562 206.985C137.562 206.544 137.517 206.198 137.503 205.948C137.488 205.697 137.495 205.594 137.495 205.594Z" fill="#455A64"/>
<path d="M121.378 268.846C121.215 268.848 121.053 268.821 120.899 268.765C120.472 268.657 120.057 268.504 119.661 268.309C118.348 267.66 117.207 266.712 116.33 265.541C115.453 264.369 114.865 263.008 114.613 261.567C114.54 261.132 114.51 260.691 114.525 260.25C114.525 259.94 114.525 259.771 114.584 259.771C114.643 259.771 114.65 260.456 114.879 261.515C115.193 262.889 115.792 264.182 116.638 265.31C117.483 266.438 118.556 267.377 119.787 268.066C120.737 268.588 121.393 268.78 121.378 268.846Z" fill="#455A64"/>
<path d="M124.046 264.82C123.479 264.93 122.896 264.93 122.329 264.82C120.948 264.632 119.618 264.172 118.416 263.466C117.215 262.762 116.163 261.829 115.321 260.721C114.95 260.287 114.662 259.787 114.473 259.249C114.532 259.249 114.864 259.779 115.535 260.573C117.291 262.647 119.703 264.06 122.373 264.577C123.39 264.739 124.046 264.754 124.046 264.82Z" fill="#455A64"/>
<path d="M107.421 207.552C107.421 207.552 107.583 207.758 107.988 207.942C108.279 208.054 108.591 208.101 108.901 208.079C109.212 208.057 109.514 207.968 109.786 207.817C110.607 207.334 111.384 206.78 112.108 206.161C112.955 205.484 113.854 204.689 114.768 203.857C116.318 202.386 117.763 200.81 119.094 199.139C120.111 197.859 120.693 197.02 120.737 197.056C120.656 197.283 120.541 197.496 120.398 197.689C120.163 198.08 119.794 198.639 119.308 199.309C118.031 201.043 116.6 202.659 115.033 204.137C114.112 204.998 113.191 205.771 112.329 206.441C111.575 207.061 110.76 207.603 109.897 208.06C109.59 208.213 109.252 208.292 108.909 208.292C108.567 208.292 108.229 208.213 107.922 208.06C107.495 207.81 107.406 207.552 107.421 207.552Z" fill="#455A64"/>
<path d="M120.553 206.441C120.321 207.166 120.007 207.862 119.617 208.516C118.778 210.166 117.627 211.638 116.227 212.851C114.782 214.072 112.961 214.763 111.069 214.809C110.505 214.817 109.943 214.738 109.403 214.573C109.199 214.529 109.006 214.443 108.836 214.323C109.563 214.47 110.304 214.542 111.047 214.537C112.846 214.41 114.56 213.717 115.94 212.557C117.299 211.367 118.448 209.956 119.337 208.384C119.705 207.714 120.111 207.065 120.553 206.441V206.441Z" fill="#455A64"/>
<path d="M157.245 196.21C157.245 196.21 139.043 204.696 132.514 201.774C125.984 198.852 121.71 192.111 116.986 193.678C112.262 195.246 105.055 196.622 102.579 203.342C102.052 202.774 101.641 202.108 101.372 201.382C101.103 200.656 100.98 199.884 101.009 199.11C101.009 196.49 103.22 192.935 103.22 192.935L100.272 162.568L100.398 111.504C100.398 111.504 105.468 103.96 119.197 104.409L138.159 107.132C138.159 107.132 147.835 110.076 150.532 115C153.229 119.924 152.109 155.097 152.109 155.097C152.109 155.097 158.108 189.218 158.108 191.897C158.142 193.382 157.853 194.856 157.26 196.218" fill="#9A3A88"/>
<path d="M168.042 138.169L160.223 145.132L150.539 115.007L142.433 133.15L145.705 162.59C145.961 164.892 146.92 167.06 148.452 168.799C149.984 170.538 152.015 171.765 154.268 172.312C156.04 172.74 157.89 172.734 159.659 172.294C161.429 171.855 163.065 170.995 164.431 169.788L172.684 162.737C173.268 162.245 173.714 161.609 173.979 160.893C174.244 160.178 174.318 159.405 174.195 158.652L171.122 139.281C171.074 138.948 170.936 138.635 170.723 138.375C170.511 138.115 170.231 137.917 169.915 137.803C169.599 137.689 169.258 137.663 168.928 137.727C168.598 137.792 168.291 137.945 168.042 138.169V138.169Z" fill="#9A3A88"/>
<path d="M108.821 130.014C108.821 130.684 105.188 163.569 105.188 163.569L120.583 196.829C119.109 199.964 116.22 202.812 113.044 205.594C113.044 205.594 109.108 202.003 108.88 194.356C108.88 194.356 91.3849 173.829 89.5868 168.434C87.7887 163.039 92.7409 126.195 92.7409 126.195L108.821 130.014Z" fill="#B78876"/>
<path d="M147.93 135.74C147.857 135.977 147.75 136.203 147.614 136.41C147.385 136.83 147.046 137.426 146.619 138.162C146.138 139.038 145.612 139.888 145.042 140.708C144.688 141.205 144.24 141.628 143.723 141.952C143.149 142.289 142.501 142.479 141.836 142.504C140.568 142.532 139.326 142.138 138.306 141.386C137.495 140.768 136.791 140.022 136.22 139.178C135.831 138.627 135.474 138.055 135.152 137.463C135.015 137.257 134.906 137.034 134.828 136.8C134.887 136.764 135.425 137.669 136.434 139.008C137.019 139.793 137.717 140.488 138.505 141.069C139.472 141.757 140.634 142.116 141.821 142.092C142.421 142.073 143.006 141.903 143.524 141.599C144.004 141.303 144.424 140.918 144.762 140.466C145.425 139.59 145.919 138.692 146.39 137.985C146.862 137.279 147.223 136.697 147.488 136.307C147.611 136.1 147.76 135.91 147.93 135.74V135.74Z" fill="#263238"/>
<path d="M159.272 163.017C159.145 162.809 159.046 162.587 158.977 162.354C158.744 161.732 158.549 161.095 158.395 160.448C157.337 156.149 157.565 151.635 159.051 147.465C159.273 146.84 159.532 146.228 159.825 145.632C159.917 145.406 160.038 145.194 160.186 144.999C160.252 144.999 159.81 145.964 159.309 147.553C158.657 149.621 158.268 151.762 158.152 153.927C158.049 156.093 158.218 158.264 158.653 160.389C158.999 162.016 159.338 162.995 159.272 163.017Z" fill="#263238"/>
<path d="M163.391 156.989C163.006 156.505 162.687 155.973 162.441 155.406C161.109 152.733 160.33 149.82 160.149 146.839C160.069 146.229 160.069 145.61 160.149 144.999C160.277 145.598 160.355 146.206 160.385 146.817C160.55 148.278 160.821 149.724 161.195 151.145C161.589 152.561 162.081 153.949 162.669 155.296C162.953 155.841 163.194 156.407 163.391 156.989V156.989Z" fill="#263238"/>
<path d="M147.407 141.908C147.407 141.908 147.481 142.019 147.577 142.232C147.719 142.553 147.842 142.883 147.945 143.218C148.337 144.454 148.502 145.751 148.432 147.045C148.334 148.994 147.572 150.851 146.272 152.308C145.504 153.174 144.542 153.847 143.465 154.273C142.292 154.729 141.012 154.836 139.78 154.582C138.545 154.349 137.414 153.737 136.545 152.83C135.775 151.963 135.24 150.915 134.99 149.783C134.76 148.786 134.612 147.772 134.548 146.751C134.474 145.802 134.4 144.918 134.334 144.101C134.223 142.534 134.135 141.238 134.061 140.274C134.061 139.855 134.024 139.538 134.01 139.229C133.993 139.107 133.993 138.983 134.01 138.861C134.045 138.979 134.067 139.099 134.076 139.222C134.076 139.501 134.157 139.847 134.201 140.26C134.304 141.224 134.437 142.512 134.599 144.079C134.68 144.896 134.761 145.78 134.857 146.722C134.936 147.713 135.091 148.698 135.321 149.666C135.561 150.734 136.068 151.724 136.795 152.543C137.614 153.388 138.675 153.959 139.831 154.177C140.985 154.41 142.181 154.311 143.28 153.89C144.303 153.49 145.219 152.858 145.955 152.043C147.219 150.648 147.976 148.87 148.107 146.994C148.203 145.727 148.084 144.453 147.754 143.226C147.584 142.387 147.407 141.923 147.407 141.908Z" fill="#263238"/>
<g opacity="0.2">
<path opacity="0.2" d="M110.125 174.226C110.406 171.829 110.995 169.479 111.879 167.234C112.94 164.444 114.326 161.677 114.37 158.689C114.309 156.809 113.976 154.947 113.383 153.162L108.01 133.827C107.804 138.822 107.6 143.822 107.399 148.827C107.238 150.043 107.432 151.28 107.959 152.389C108.755 153.684 110.383 154.251 111.29 155.465C111.635 155.937 111.86 156.486 111.946 157.064C112.032 157.642 111.976 158.233 111.783 158.785C111.385 159.881 110.398 160.161 109.27 160.433C108.756 160.568 108.234 160.673 107.708 160.75C106.971 160.868 105.822 160.698 105.497 161.397C104.606 163.134 105.556 164.187 105.932 165.019C107.642 168.809 110.155 174.226 110.155 174.226" fill="black"/>
</g>
<path d="M103.552 108.928C103.552 108.928 87.715 116.921 85.5041 159.668C85.4678 160.355 85.5882 161.042 85.8564 161.677C86.1245 162.311 86.5334 162.876 87.0521 163.33C87.5708 163.783 88.1859 164.113 88.8509 164.295C89.5159 164.477 90.2135 164.505 90.8912 164.378C97.3984 163.142 107.259 161.228 107.192 160.963C107.104 160.573 110.877 123.346 110.877 123.346L103.552 108.928Z" fill="#9A3A88"/>
<path d="M110.56 122.684C110.56 122.684 110.56 122.883 110.56 123.258C110.56 123.633 110.56 124.185 110.56 124.892C110.56 126.312 110.442 128.373 110.273 130.912C110.103 133.452 109.845 136.469 109.492 139.811C109.307 141.481 109.108 143.233 108.909 145.051C108.799 145.964 108.688 146.884 108.57 147.826C108.453 148.768 108.172 149.717 108.025 150.644C107.94 151.097 107.94 151.561 108.025 152.013C108.133 152.444 108.352 152.84 108.659 153.162C109.263 153.824 110.133 154.17 110.87 154.84C111.529 155.518 111.952 156.39 112.078 157.327C112.145 157.776 112.145 158.233 112.078 158.682C112.063 159.146 111.87 159.588 111.537 159.914C111.205 160.24 110.76 160.426 110.295 160.433L109.101 160.661L106.831 161.11L102.808 161.92L96.912 163.149L95.9835 163.333L95.615 163.407H95.556C95.556 163.407 95.556 163.237 95.556 163.318H95.6371H95.7771C95.9626 163.269 96.1528 163.239 96.3446 163.23C96.1684 163.301 95.9857 163.355 95.7992 163.392H95.6518H95.5708C95.5708 163.473 95.5708 163.282 95.5708 163.304H95.615L95.9835 163.215L96.9046 162.995L102.8 161.648L106.868 160.764L109.138 160.293L110.332 160.051C110.679 160.032 111.014 159.914 111.297 159.712C111.53 159.383 111.687 159.006 111.757 158.609C111.827 158.212 111.808 157.805 111.702 157.416C111.585 156.56 111.198 155.763 110.597 155.141C109.971 154.538 109.064 154.185 108.386 153.449C108.029 153.079 107.775 152.622 107.649 152.124C107.553 151.625 107.553 151.113 107.649 150.615C107.804 149.629 108.114 148.738 108.195 147.804C108.276 146.869 108.423 145.941 108.534 145.036C108.747 143.226 108.946 141.474 109.145 139.803C109.514 136.462 109.801 133.452 110 130.92C110.199 128.388 110.332 126.334 110.413 124.914L110.501 123.28C110.499 123.08 110.518 122.88 110.56 122.684V122.684Z" fill="#263238"/>
<path d="M104.053 148.893C104.049 149.066 104.016 149.238 103.957 149.401C103.912 149.598 103.848 149.79 103.766 149.975C103.669 150.227 103.556 150.473 103.427 150.711C103.101 151.335 102.695 151.914 102.218 152.433C101.631 153.061 100.965 153.611 100.236 154.067C99.4987 154.513 98.7057 154.86 97.8775 155.097C97.2004 155.285 96.5019 155.384 95.7993 155.392C95.5294 155.411 95.2585 155.411 94.9887 155.392C94.7876 155.379 94.588 155.349 94.3917 155.303C94.2181 155.28 94.0491 155.231 93.8906 155.156C93.8906 155.083 94.6276 155.23 95.7846 155.156C96.459 155.109 97.1262 154.988 97.7743 154.796C98.5649 154.545 99.324 154.204 100.037 153.78C100.736 153.338 101.381 152.817 101.96 152.227C102.43 151.738 102.842 151.197 103.191 150.615C103.788 149.577 103.979 148.871 104.053 148.893Z" fill="#263238"/>
<g opacity="0.2">
<path opacity="0.2" d="M121.15 187.032C128.52 191.397 137.554 192.442 146.037 191.154C147.443 191.001 148.812 190.605 150.082 189.984C150.713 189.665 151.267 189.213 151.704 188.658C152.142 188.104 152.454 187.461 152.618 186.775C152.759 186.081 152.655 185.36 152.325 184.733C151.994 184.107 151.457 183.614 150.805 183.338C149.456 182.881 148.026 183.617 146.751 184.258C138.692 188.277 129.438 189.21 120.737 186.878" fill="black"/>
</g>
<path d="M155.513 187.68C155.418 187.773 155.311 187.854 155.197 187.923C154.975 188.07 154.666 188.313 154.224 188.563C153.002 189.297 151.708 189.904 150.362 190.374C145.88 191.855 141.114 192.276 136.441 191.603C131.801 190.904 127.255 189.684 122.889 187.967C121.209 187.334 119.86 186.797 118.932 186.414L117.863 185.965C117.737 185.916 117.616 185.855 117.502 185.781C117.635 185.806 117.766 185.843 117.893 185.891L118.983 186.274L122.985 187.709C127.353 189.347 131.88 190.523 136.493 191.22C141.112 191.885 145.82 191.507 150.274 190.116C151.614 189.671 152.911 189.107 154.15 188.431C155.027 187.967 155.513 187.68 155.513 187.68Z" fill="#263238"/>
<g opacity="0.2">
<path opacity="0.2" d="M155.093 172.437C157.304 170.229 157.304 166.248 156.862 163.149C156.42 160.051 155.219 157.077 154.799 153.964C154.401 151.02 154.688 148.01 154.556 145.029C154.423 142.048 153.782 138.942 151.844 136.683C150.699 148.699 151.801 160.823 155.093 172.437" fill="black"/>
</g>
<g opacity="0.2">
<path opacity="0.2" d="M134.142 140.098C133.803 142.055 134.142 144.109 133.973 146.111C133.741 148.108 133.741 150.126 133.973 152.124C134.214 154.14 135.143 156.011 136.604 157.423C137.339 158.113 138.253 158.585 139.243 158.785C140.232 158.985 141.258 158.906 142.204 158.556C143.122 158.111 143.884 157.399 144.389 156.514C144.894 155.629 145.119 154.611 145.034 153.596C143.703 154.246 142.222 154.526 140.745 154.405C139.264 154.281 137.882 153.615 136.862 152.536C135.49 150.845 134.73 148.743 134.702 146.567C134.562 144.418 134.297 142.217 134.12 140.098" fill="black"/>
</g>
<path d="M109.543 134.578C109.287 134.672 109.019 134.731 108.747 134.754C108.231 134.835 107.487 134.946 106.536 135.056C104.111 135.381 101.652 135.381 99.226 135.056C96.7735 134.72 94.4583 133.725 92.5272 132.178C91.9521 131.703 91.4374 131.159 90.9944 130.559C90.8226 130.347 90.6812 130.111 90.5743 129.86C91.2167 130.626 91.9271 131.333 92.6967 131.972C94.6302 133.413 96.896 134.345 99.285 134.681C101.681 134.987 104.104 135.016 106.507 134.769L108.718 134.592C108.991 134.555 109.268 134.551 109.543 134.578V134.578Z" fill="#FAFAFA"/>
<path d="M108.504 140.23C108.255 140.353 107.993 140.447 107.723 140.51C107.413 140.608 107.098 140.69 106.78 140.753C106.411 140.826 105.991 140.929 105.512 140.988C104.402 141.153 103.281 141.227 102.159 141.209C100.784 141.173 99.4158 141.015 98.0691 140.738C96.7269 140.437 95.4148 140.016 94.1485 139.479C93.1237 139.034 92.1377 138.505 91.2008 137.897C90.7955 137.654 90.4639 137.382 90.147 137.161C89.8889 136.973 89.6428 136.769 89.41 136.55C89.1883 136.384 88.9878 136.191 88.8131 135.976C88.8647 135.917 89.749 136.712 91.3703 137.669C92.3153 138.231 93.3006 138.723 94.318 139.141C96.8217 140.18 99.4935 140.756 102.203 140.841C103.306 140.875 104.409 140.828 105.505 140.701C107.354 140.495 108.482 140.156 108.504 140.23Z" fill="#FAFAFA"/>
<path d="M133.545 139.31C133.545 139.413 128.195 139.362 121.607 139.192C115.019 139.023 109.668 138.802 109.676 138.692C109.683 138.581 115.019 138.64 121.614 138.81C128.21 138.979 133.545 139.2 133.545 139.31Z" fill="#FAFAFA"/>
<path d="M134.312 145.25C133.997 145.386 133.668 145.49 133.332 145.559C132.698 145.735 131.769 145.949 130.605 146.177C127.58 146.758 124.51 147.066 121.43 147.097C118.349 147.124 115.271 146.878 112.233 146.361C111.069 146.155 110.133 145.964 109.499 145.794C109.161 145.732 108.83 145.636 108.511 145.507C108.854 145.526 109.194 145.572 109.528 145.647C110.17 145.772 111.113 145.927 112.277 146.089C118.345 146.967 124.513 146.903 130.561 145.897C131.718 145.706 132.654 145.529 133.302 145.397C133.634 145.319 133.972 145.27 134.312 145.25Z" fill="#FAFAFA"/>
<path d="M148.144 144.16C148.097 144.355 148.015 144.54 147.901 144.705C147.616 145.176 147.249 145.592 146.818 145.934C145.352 147.036 143.519 147.534 141.696 147.325C139.914 147.084 138.203 146.475 136.67 145.537C136.012 145.2 135.396 144.788 134.835 144.308C135.509 144.597 136.164 144.929 136.795 145.301C138.33 146.146 140.005 146.705 141.74 146.95C143.477 147.153 145.229 146.719 146.67 145.728C147.228 145.272 147.723 144.745 148.144 144.16V144.16Z" fill="#FAFAFA"/>
<path d="M151.475 139.641C150.884 139.956 150.239 140.158 149.574 140.237C148.936 140.437 148.265 140.512 147.599 140.458C148.189 140.142 148.834 139.939 149.5 139.862C150.138 139.663 150.809 139.588 151.475 139.641V139.641Z" fill="#FAFAFA"/>
<path d="M158.601 139.877C157.555 140.617 156.399 141.189 155.175 141.57C154.001 142.062 152.758 142.37 151.49 142.482C151.49 142.372 153.111 141.93 155.071 141.209C157.032 140.488 158.55 139.781 158.601 139.877Z" fill="#FAFAFA"/>
<path d="M156.25 132.826C155.519 133.118 154.762 133.34 153.988 133.488C153.251 133.767 152.489 133.972 151.711 134.099C153.061 133.228 154.644 132.785 156.25 132.826V132.826Z" fill="#FAFAFA"/>
<path d="M152.234 130.132C152.25 130.276 152.25 130.422 152.234 130.566L152.124 131.803C152.072 132.34 152.013 132.995 151.961 133.761C151.91 134.526 151.829 135.395 151.792 136.351C151.667 138.28 151.608 140.569 151.593 143.115C151.578 145.662 151.674 148.466 151.851 151.395C152.028 154.324 152.337 157.114 152.654 159.646C152.971 162.178 153.354 164.437 153.723 166.329C153.892 167.278 154.077 168.124 154.231 168.875C154.386 169.626 154.519 170.274 154.644 170.796C154.769 171.319 154.836 171.694 154.909 172.011C154.951 172.149 154.973 172.293 154.976 172.437C154.912 172.306 154.865 172.168 154.836 172.025L154.497 170.833C154.349 170.31 154.187 169.67 154.018 168.919C153.848 168.169 153.642 167.322 153.457 166.38C153.052 164.489 152.676 162.222 152.308 159.69C151.939 157.158 151.667 154.361 151.468 151.425C151.269 148.488 151.225 145.669 151.239 143.115C151.254 140.561 151.357 138.265 151.519 136.337C151.578 135.372 151.674 134.504 151.748 133.739C151.821 132.973 151.903 132.318 151.976 131.788C152.05 131.258 152.109 130.876 152.153 130.559C152.161 130.414 152.188 130.27 152.234 130.132V130.132Z" fill="#263238"/>
<g opacity="0.2">
<path opacity="0.2" d="M136.154 138.773C137.266 139.48 138.536 139.901 139.85 139.998C141.165 140.094 142.483 139.863 143.686 139.325C143.964 139.177 144.262 139.068 144.57 139.001C144.725 138.973 144.884 138.988 145.031 139.043C145.177 139.099 145.306 139.194 145.403 139.317C145.487 139.517 145.509 139.737 145.467 139.95C145.425 140.162 145.32 140.357 145.167 140.51C144.592 141.186 143.836 141.683 142.987 141.944C142.138 142.205 141.233 142.218 140.377 141.982C138.663 141.467 137.204 140.33 136.287 138.795" fill="black"/>
</g>
<path d="M122.351 75.9037C121.9 74.2311 121.618 72.5174 121.511 70.7885C121.399 69.0474 121.809 67.3125 122.69 65.8058C123.135 65.0596 123.756 64.433 124.498 63.9803C125.24 63.5276 126.082 63.2624 126.95 63.2077C128.018 63.2077 129.094 63.5536 130.148 63.3622C131.364 63.1414 132.315 62.2214 133.354 61.5517C134.988 60.4857 136.926 59.9817 138.873 60.1165C139.886 60.164 140.863 60.5013 141.688 61.088C142.104 61.3737 142.441 61.7596 142.668 62.2099C142.894 62.6602 143.004 63.1603 142.986 63.664C144.215 63.4243 145.471 63.3451 146.722 63.4285C147.983 63.5229 149.158 64.1067 149.994 65.055C150.395 65.5362 150.631 66.1324 150.67 66.7571C150.708 67.3817 150.546 68.0024 150.208 68.529C150.772 68.3695 151.375 68.4232 151.903 68.6798C152.43 68.9363 152.845 69.3778 153.067 69.92C153.266 70.475 153.302 71.0752 153.172 71.6501C153.041 72.225 152.749 72.7508 152.33 73.1658C151.285 74.041 149.965 74.5205 148.601 74.52C147.37 74.5387 146.15 74.2875 145.027 73.784" fill="#263238"/>
<path d="M126.441 114.904C127.649 115.185 128.903 115.204 130.12 114.962C131.336 114.72 132.486 114.221 133.494 113.499C134.502 112.778 135.344 111.85 135.964 110.777C136.584 109.704 136.968 108.512 137.09 107.279C137.37 104.475 137.613 102.127 137.665 101.752C137.665 101.752 144.717 101.884 146.007 95.047C147.297 88.2096 148.866 72.231 148.866 72.231C145.259 69.8736 141.086 68.5208 136.78 68.3125C132.473 68.1042 128.19 69.0479 124.37 71.0461L123.213 71.6496L119.742 105.506C119.518 107.619 120.076 109.741 121.31 111.472C122.543 113.203 124.369 114.424 126.441 114.904Z" fill="#B78876"/>
<path d="M137.672 101.656C134.494 101.162 131.535 99.7324 129.175 97.5494C129.175 97.5494 130.421 102.856 137.377 103.437L137.672 101.656Z" fill="#AA6550"/>
<path d="M122.793 78.9287C122.683 78.8551 118.32 76.7207 117.635 81.4237C116.949 86.1267 121.835 85.8397 121.865 85.6998C121.894 85.56 122.793 78.9287 122.793 78.9287Z" fill="#B78876"/>
<path d="M120.693 83.7126C120.693 83.7126 120.605 83.7568 120.457 83.801C120.249 83.8566 120.027 83.8303 119.838 83.7274C119.561 83.4908 119.352 83.1847 119.233 82.8405C119.114 82.4963 119.089 82.1266 119.16 81.7696C119.202 81.3634 119.338 80.9727 119.558 80.6288C119.626 80.4837 119.728 80.3579 119.857 80.2627C119.986 80.1676 120.137 80.1062 120.295 80.0842C120.393 80.073 120.491 80.0963 120.573 80.1501C120.655 80.2039 120.716 80.2847 120.745 80.3786C120.789 80.5184 120.745 80.6141 120.745 80.6214C120.745 80.6288 120.855 80.5552 120.84 80.3565C120.833 80.2354 120.784 80.1208 120.7 80.0326C120.583 79.9195 120.428 79.8539 120.266 79.8486C120.066 79.861 119.873 79.9235 119.704 80.0303C119.536 80.1371 119.397 80.2847 119.3 80.4595C119.038 80.8375 118.876 81.2755 118.829 81.7328C118.745 82.1491 118.787 82.5806 118.948 82.9734C119.109 83.3662 119.383 83.7027 119.735 83.9408C119.856 83.9994 119.988 84.0298 120.122 84.0298C120.256 84.0298 120.388 83.9994 120.509 83.9408C120.671 83.823 120.708 83.72 120.693 83.7126Z" fill="#AA6550"/>
<path d="M145.395 82.7632C145.352 83.0182 145.211 83.2462 145.001 83.3988C144.792 83.5513 144.532 83.6164 144.275 83.5802C144.149 83.5692 144.026 83.533 143.915 83.4738C143.803 83.4145 143.704 83.3333 143.624 83.2351C143.544 83.1369 143.485 83.0236 143.45 82.9021C143.415 82.7806 143.405 82.6532 143.42 82.5277C143.46 82.2714 143.599 82.041 143.807 81.8856C144.015 81.7302 144.276 81.6622 144.533 81.696C144.661 81.7079 144.784 81.7451 144.897 81.8055C145.01 81.866 145.109 81.9484 145.19 82.0478C145.27 82.1473 145.33 82.2619 145.365 82.3847C145.4 82.5076 145.411 82.6363 145.395 82.7632V82.7632Z" fill="#263238"/>
<path d="M145.852 81.696C145.705 81.8064 145.064 81.1219 144.003 80.96C142.941 80.7981 142.086 81.1661 141.991 81.0189C141.895 80.8717 142.109 80.7392 142.492 80.5552C143.003 80.3204 143.574 80.2485 144.128 80.3491C144.685 80.4305 145.202 80.6885 145.602 81.0851C145.852 81.3795 145.933 81.6298 145.852 81.696Z" fill="#263238"/>
<path d="M135.167 80.96C135.123 81.2155 134.982 81.4442 134.773 81.5979C134.564 81.7517 134.304 81.8185 134.047 81.7843C133.92 81.7725 133.797 81.7354 133.685 81.6754C133.573 81.6153 133.475 81.5335 133.395 81.4347C133.315 81.3359 133.256 81.2221 133.221 81.1001C133.186 80.9782 133.176 80.8504 133.192 80.7245C133.233 80.4696 133.373 80.241 133.581 80.0871C133.788 79.9332 134.048 79.8662 134.304 79.9002C134.431 79.9121 134.554 79.9491 134.667 80.0091C134.779 80.069 134.878 80.1507 134.958 80.2494C135.038 80.3481 135.098 80.4617 135.134 80.5838C135.17 80.7058 135.181 80.8337 135.167 80.96V80.96Z" fill="#263238"/>
<path d="M135.447 80.0547C135.307 80.1651 134.658 79.488 133.604 79.3187C132.55 79.1494 131.681 79.5248 131.592 79.3776C131.504 79.2304 131.71 79.1053 132.086 78.9213C132.598 78.6801 133.173 78.6055 133.73 78.7078C134.275 78.7952 134.778 79.0529 135.167 79.4438C135.447 79.7603 135.52 80.0105 135.447 80.0547Z" fill="#263238"/>
<path d="M137.908 88.5408C138.495 88.4635 139.09 88.4635 139.677 88.5408C139.949 88.5408 140.215 88.5408 140.288 88.3716C140.375 88.1036 140.375 87.8152 140.288 87.5472C140.148 86.8112 140.001 86.1194 139.854 85.3392C139.257 82.2333 138.873 79.6941 138.999 79.672C139.124 79.6499 139.736 82.1523 140.303 85.2583C140.443 85.9943 140.583 86.7303 140.708 87.4663C140.818 87.8213 140.803 88.2033 140.664 88.5482C140.609 88.6373 140.533 88.7122 140.444 88.7671C140.354 88.8221 140.253 88.8555 140.148 88.8647C139.994 88.884 139.838 88.884 139.684 88.8647C139.081 88.8317 138.484 88.7229 137.908 88.5408Z" fill="#263238"/>
<path d="M134.673 88.7248C134.85 88.7248 134.673 89.8877 135.491 90.8739C136.309 91.8602 137.569 91.9411 137.547 92.103C137.525 92.265 137.237 92.2797 136.722 92.1987C136.047 92.0945 135.433 91.7525 134.99 91.2346C134.565 90.7407 134.347 90.1034 134.378 89.4534C134.422 88.9677 134.599 88.7027 134.673 88.7248Z" fill="#263238"/>
<path d="M145.786 79.753C145.558 79.9591 144.88 79.5837 144.01 79.4218C143.14 79.2598 142.366 79.2966 142.241 79.017C142.182 78.8845 142.344 78.6637 142.706 78.4944C143.187 78.2986 143.716 78.2501 144.225 78.3549C144.734 78.4597 145.2 78.7132 145.565 79.0832C145.83 79.385 145.889 79.6499 145.786 79.753Z" fill="#263238"/>
<path d="M134.747 76.0067C134.607 76.1171 134.341 76.0067 134.01 75.8889C133.598 75.7216 133.174 75.5862 132.742 75.4841C132.304 75.4046 131.861 75.3579 131.416 75.3443C131.054 75.3443 130.774 75.3443 130.679 75.1603C130.583 74.9763 130.752 74.7334 131.172 74.4979C131.739 74.2262 132.38 74.1511 132.994 74.2844C133.608 74.4177 134.16 74.7519 134.562 75.2339C134.879 75.5872 134.879 75.911 134.747 76.0067Z" fill="#263238"/>
<path d="M148.815 74.4243C145.35 74.7417 141.873 73.9504 138.888 72.1648C135.572 70.1997 131.615 69.0663 130.679 69.6919C129.743 70.3175 129.301 73.8503 125.815 74.6378C125.815 74.6378 125.557 81.4163 122.867 80.9821C120.177 80.5479 122.631 70.1923 122.631 70.1923L129.47 67.4471L136.781 66.6154L143.531 67.1085L149.67 69.4931L148.815 74.4243Z" fill="#263238"/>
<path d="M39.8139 156.768L41.2435 158.586C41.2435 158.586 48.3182 147.274 56.5277 146.111C56.7598 146.22 57.0145 146.272 57.2709 146.263C57.5272 146.254 57.7777 146.184 58.0016 146.059L60.6545 144.521C60.9302 144.351 61.148 144.102 61.2795 143.807C61.411 143.511 61.4501 143.183 61.3915 142.865V142.865C61.3915 142.865 65.3489 135.851 73.7868 134.769L76.8672 134.188L55.6949 114.816L22.7316 128.204L39.8139 156.768Z" fill="#9A3A88"/>
<path d="M36.2986 155.252L38.7968 158.586C38.7968 158.586 44.5524 145.625 58.8711 144.712L44.7808 130.169C44.7808 130.169 34.611 151.255 36.2986 155.252Z" fill="#EBEBEB"/>
<path d="M17.0055 131.965C17.0055 131.965 22.4662 114.367 40.5876 120.8L58.9006 144.712C58.9006 144.712 40.116 141.312 35.7017 156.768L17.0055 131.965Z" fill="#F5F5F5"/>
<path d="M58.8712 144.712C58.8712 144.712 64.5309 130.89 76.8894 132.59L58.8712 111.673L41.1846 121.624L58.8712 144.712Z" fill="#EBEBEB"/>
<path d="M40.5507 120.829C40.5507 120.829 38.4947 110.378 46.5789 105.822L51.8775 103.069L70.4116 123.795C70.4116 123.795 57.6109 130.78 58.8637 144.742L40.5507 120.829Z" fill="#F5F5F5"/>
<path d="M58.8711 144.712C58.597 144.438 58.3502 144.137 58.1342 143.814C57.6183 143.167 56.9551 142.342 56.1444 141.283C54.4495 139.075 52.1723 136.131 49.6594 132.892L43.1522 124.509L41.1698 121.977C40.9114 121.679 40.6796 121.359 40.4771 121.02C40.7655 121.29 41.0363 121.577 41.2877 121.882C41.7888 122.448 42.4963 123.295 43.3659 124.34C45.0977 126.43 47.4338 129.374 49.9615 132.657C52.4892 135.939 54.7516 138.935 56.3655 141.121L58.2521 143.726C58.485 144.037 58.692 144.367 58.8711 144.712V144.712Z" fill="#263238"/>
<path d="M52.2829 109.164C51.5558 109.448 50.8469 109.778 50.1605 110.15C48.5605 111.141 47.1709 112.436 46.0705 113.962C44.935 115.466 44.1153 117.183 43.6607 119.011C43.3438 120.417 43.388 121.33 43.3069 121.33C43.2583 121.12 43.2384 120.904 43.248 120.689C43.2322 120.107 43.2816 119.524 43.3954 118.952C43.7834 117.058 44.5918 115.275 45.761 113.734C46.8862 112.164 48.3428 110.86 50.0279 109.914C50.5403 109.632 51.0846 109.412 51.6491 109.259C51.8544 109.196 52.068 109.163 52.2829 109.164V109.164Z" fill="#263238"/>
<path d="M61.4136 117.907C61.4136 117.981 60.5808 118.356 59.3575 119.239C58.6477 119.755 57.9844 120.331 57.3751 120.962C56.6322 121.741 55.9681 122.591 55.3927 123.501C54.8341 124.418 54.3652 125.386 53.9926 126.393C53.6992 127.219 53.4773 128.069 53.3293 128.932C53.0787 130.404 53.1156 131.361 53.0419 131.361C52.9871 131.145 52.9623 130.922 52.9682 130.699C52.9538 130.441 52.9538 130.183 52.9682 129.926C52.9724 129.581 52.9995 129.237 53.0493 128.896C53.1639 128.005 53.3663 127.127 53.6536 126.275C54.0207 125.249 54.4924 124.262 55.0611 123.331C55.6507 122.403 56.3375 121.539 57.1098 120.755C57.7467 120.121 58.4453 119.551 59.1954 119.055C59.4805 118.861 59.7757 118.682 60.0797 118.518C60.3165 118.385 60.5628 118.269 60.8166 118.172C61.0017 118.055 61.2028 117.966 61.4136 117.907Z" fill="#263238"/>
<path d="M64.3687 120.402C64.3687 120.476 63.4549 120.888 62.1578 121.874C61.3912 122.449 60.6716 123.084 60.006 123.773C59.1993 124.625 58.4601 125.538 57.7952 126.504C57.1518 127.482 56.5898 128.511 56.1149 129.58C55.7364 130.459 55.4404 131.37 55.2306 132.303C54.8769 133.893 54.9285 134.924 54.8548 134.924C54.7932 134.683 54.7708 134.435 54.7884 134.188C54.7678 133.906 54.7678 133.623 54.7884 133.341C54.8096 132.968 54.8589 132.596 54.9358 132.23C55.1108 131.269 55.3849 130.33 55.7538 129.426C56.2208 128.324 56.7882 127.267 57.4488 126.268C58.1205 125.281 58.8775 124.355 59.7112 123.501C60.3923 122.815 61.132 122.189 61.922 121.631C62.2277 121.415 62.545 121.216 62.8727 121.035C63.1093 120.889 63.3555 120.759 63.6096 120.645C63.8504 120.53 64.1058 120.449 64.3687 120.402Z" fill="#263238"/>
<path d="M66.2184 122.772C66.2184 122.838 65.3045 123.251 64.0075 124.244C63.2513 124.837 62.5462 125.491 61.8999 126.202C61.1188 127.082 60.4114 128.025 59.7849 129.021C59.1701 130.024 58.6378 131.075 58.1931 132.164C57.8416 133.057 57.5655 133.977 57.3677 134.916C57.0361 136.521 57.0877 137.551 57.0066 137.551C56.9561 137.309 56.9363 137.062 56.9477 136.815C56.923 136.533 56.923 136.25 56.9477 135.969C56.9638 135.593 57.0081 135.219 57.0803 134.85C57.2349 133.884 57.4817 132.935 57.8172 132.016C58.2548 130.901 58.7874 129.825 59.409 128.8C60.0591 127.786 60.799 126.833 61.6199 125.952C62.2904 125.235 63.031 124.586 63.8307 124.016C64.1293 123.787 64.4446 123.58 64.7739 123.398C65.009 123.247 65.2554 123.114 65.5109 123C65.7325 122.886 65.9716 122.809 66.2184 122.772Z" fill="#263238"/>
<path d="M50.9269 140.848C50.9269 140.915 49.9025 140.561 48.215 140.414C46.0197 140.231 43.8121 140.562 41.7667 141.378C39.7335 142.226 37.9285 143.54 36.4976 145.213C35.3995 146.501 34.9279 147.421 34.8616 147.421C34.9244 147.178 35.0265 146.947 35.1637 146.736C35.4852 146.14 35.8601 145.573 36.2839 145.044C37.6857 143.267 39.5237 141.883 41.6195 141.025C43.7152 140.167 45.9974 139.866 48.2444 140.149C48.9188 140.23 49.5847 140.37 50.2342 140.569C50.4778 140.627 50.7113 140.721 50.9269 140.848V140.848Z" fill="#263238"/>
<path d="M48.5023 137.831C48.5023 137.897 47.4779 137.544 45.7904 137.396C43.5936 137.195 41.3807 137.526 39.3395 138.362C37.2983 139.197 35.4891 140.512 34.0656 142.195C32.9676 143.483 32.496 144.44 32.437 144.403C32.4998 144.16 32.6019 143.929 32.7392 143.719C33.0607 143.122 33.4356 142.555 33.8593 142.026C35.2611 140.249 37.0992 138.865 39.1949 138.007C41.2906 137.15 43.5728 136.848 45.8198 137.132C46.4942 137.212 47.1601 137.353 47.8096 137.551C48.0532 137.609 48.2867 137.703 48.5023 137.831V137.831Z" fill="#263238"/>
<path d="M46.0778 134.806C46.0778 134.879 45.0534 134.526 43.3658 134.379C41.1691 134.177 38.9562 134.508 36.9149 135.344C34.8737 136.179 33.0646 137.494 31.6411 139.178C30.5431 140.466 30.0714 141.386 30.0125 141.386C30.0727 141.143 30.1723 140.912 30.3072 140.701C30.6314 140.102 31.0088 139.533 31.4347 139.001C32.8383 137.227 34.6769 135.845 36.7723 134.988C38.8677 134.132 41.1491 133.831 43.3953 134.114C44.0697 134.195 44.7356 134.335 45.3851 134.533C45.6276 134.591 45.8607 134.683 46.0778 134.806Z" fill="#263238"/>
<path d="M43.6533 131.788C43.6533 131.862 42.6216 131.509 40.9413 131.361C38.7444 131.158 36.5309 131.488 34.4893 132.324C32.4478 133.159 30.6388 134.475 29.2166 136.16C28.1185 137.448 27.6469 138.368 27.5806 138.368C27.6529 138.131 27.7544 137.903 27.8827 137.691C28.2042 137.09 28.5817 136.521 29.0102 135.991C30.4131 134.218 32.2505 132.836 34.3445 131.98C36.4385 131.124 38.7184 130.822 40.9634 131.104C41.6408 131.181 42.3094 131.321 42.9606 131.523C43.2027 131.579 43.4359 131.668 43.6533 131.788Z" fill="#263238"/>
<path d="M41.2213 128.8C41.2213 128.874 40.197 128.52 38.5094 128.373C36.3137 128.171 34.1016 128.502 32.0615 129.337C30.0213 130.173 28.2135 131.488 26.792 133.172C25.694 134.452 25.2223 135.38 25.156 135.38C25.2241 135.141 25.3258 134.913 25.4581 134.703C25.7793 134.103 26.1542 133.534 26.5783 133.003C27.978 131.221 29.8143 129.831 31.9096 128.966C34.0049 128.1 36.2883 127.79 38.5389 128.064C39.2136 128.146 39.8795 128.289 40.5286 128.491C40.7753 128.554 41.0095 128.659 41.2213 128.8V128.8Z" fill="#263238"/>
<path d="M38.7968 125.753C38.7968 125.819 37.7725 125.473 36.0849 125.326C33.8844 125.119 31.6665 125.448 29.6208 126.283C27.5751 127.119 25.7625 128.437 24.338 130.125C23.24 131.405 22.7684 132.333 22.702 132.333C22.7663 132.09 22.8682 131.859 23.0042 131.648C23.3275 131.053 23.7023 130.486 24.1243 129.956C25.5293 128.171 27.3743 126.781 29.4785 125.921C31.5828 125.062 33.8744 124.763 36.1291 125.054C36.8038 125.136 37.4697 125.279 38.1188 125.481C38.3575 125.536 38.5862 125.628 38.7968 125.753Z" fill="#263238"/>
<path d="M45.5325 122.051L50.5879 127.659C50.5879 127.659 52.1649 119.902 59.0406 116.958L53.6978 111.268C51.4929 112.168 49.5711 113.644 48.1344 115.541C46.6976 117.438 45.7989 119.687 45.5325 122.051Z" fill="#EBEBEB"/>
<path d="M63.6907 65.3274L62.9537 66.9686C62.9537 66.9686 73.3372 67.815 77.0882 73.0848C77.0918 73.2895 77.1461 73.4902 77.2464 73.6687C77.3468 73.8473 77.4899 73.9982 77.6631 74.1078L79.6823 75.3958C79.8984 75.5276 80.1496 75.5904 80.4024 75.576C80.6552 75.5615 80.8976 75.4704 81.0972 75.3149V75.3149C83.0861 75.481 85.0155 76.0748 86.7531 77.0556C88.4907 78.0363 89.9953 79.3808 91.1638 80.9968L92.6745 82.9178L99.3733 60.5875L77.3978 43.2841L63.6907 65.3274Z" fill="#9A3A88"/>
<path d="M63.4918 62.3613L62.0695 65.3053C62.0695 65.3053 73.1236 64.6502 78.8864 74.233L83.9419 59.2701C83.9419 59.2701 65.6584 59.7632 63.4918 62.3613Z" fill="#EBEBEB"/>
<path d="M72.7476 40.6714C72.7476 40.6714 86.919 38.1469 88.9603 52.9773L78.8716 74.2182C78.8716 74.2182 74.5015 60.0282 62.2094 62.4938L72.7476 40.6714Z" fill="#F5F5F5"/>
<path d="M78.8717 74.2182C78.8717 74.2182 90.5006 73.1878 93.7432 82.3142L101.85 62.3466L88.5846 53.728L78.8717 74.2182Z" fill="#EBEBEB"/>
<path d="M88.9088 52.992C88.9088 52.992 95.4308 47.84 101.488 51.7923L105.291 54.464L97.5458 74.7114C97.5458 74.7114 88.113 68.3597 78.8717 74.2256L88.9088 52.992Z" fill="#F5F5F5"/>
<path d="M78.8717 74.2182C78.9542 73.9201 79.0678 73.6315 79.2107 73.3571C79.4834 72.7462 79.8297 71.9808 80.2424 71.0755L83.7355 63.5683L87.236 56.0685L88.2898 53.7942C88.4033 53.5063 88.5492 53.2323 88.7246 52.9773C88.6573 53.2787 88.5585 53.5723 88.4298 53.8531C88.2235 54.4125 87.8918 55.2 87.4792 56.1789C86.6538 58.1293 85.4526 60.8009 84.0819 63.7302C82.7112 66.6595 81.4363 69.2944 80.4856 71.1933C80.014 72.1354 79.6234 72.9008 79.3433 73.4013C79.2211 73.6923 79.0626 73.9668 78.8717 74.2182V74.2182Z" fill="#263238"/>
<path d="M101.474 56.4954C101.429 56.5469 100.855 56.0979 99.8008 55.5754C97.0554 54.211 93.8912 53.9477 90.9575 54.8394C89.8447 55.1853 89.1962 55.5754 89.1668 55.4797C89.1373 55.384 89.2994 55.3546 89.5868 55.1779C89.9958 54.9419 90.4249 54.7424 90.8691 54.5818C92.3452 54.0394 93.9223 53.8259 95.4897 53.9562C97.0571 54.0789 98.5799 54.5357 99.9556 55.2957C100.369 55.5256 100.761 55.7916 101.127 56.0906C101.356 56.3482 101.488 56.4733 101.474 56.4954Z" fill="#263238"/>
<path d="M100.884 58.9389C100.84 58.9904 100.258 58.5414 99.2112 58.0189C96.4658 56.6545 93.3016 56.3912 90.3679 57.2829C89.2478 57.6288 88.6066 58.0189 88.5698 57.9232C88.5329 57.8275 88.7098 57.7981 88.9972 57.6214C89.4055 57.384 89.8347 57.1844 90.2795 57.0253C91.7553 56.4817 93.3326 56.2681 94.9001 56.3997C96.4654 56.5212 97.986 56.978 99.3586 57.7392C99.773 57.9672 100.165 58.2334 100.53 58.5341C100.766 58.7917 100.899 58.9168 100.884 58.9389Z" fill="#263238"/>
<path d="M99.7787 61.3677C99.7419 61.4266 99.1597 60.9702 98.1133 60.4477C96.7435 59.7809 95.2617 59.3741 93.7432 59.248C92.2241 59.1306 90.6965 59.3004 89.2405 59.7485C88.1277 60.1017 87.4792 60.4845 87.4497 60.3961C87.4202 60.3078 87.5897 60.2637 87.8771 60.0944C88.2833 59.851 88.7129 59.6488 89.1594 59.4909C90.6346 58.955 92.2078 58.7416 93.7727 58.8653C95.3415 58.9854 96.8653 59.445 98.2385 60.2121C98.6535 60.4394 99.0458 60.7056 99.4103 61.007C99.6682 61.2205 99.8008 61.3456 99.7787 61.3677Z" fill="#263238"/>
<path d="M99.0933 63.7965C99.0491 63.8554 98.4669 63.3991 97.4204 62.8765C94.675 61.5121 91.5108 61.2488 88.5771 62.1405C87.457 62.4938 86.8158 62.8765 86.779 62.7882C86.7422 62.6999 86.919 62.6557 87.2064 62.4864C87.6126 62.243 88.0422 62.0408 88.4887 61.8829C89.9663 61.3464 91.5421 61.133 93.1093 61.2573C94.6758 61.3774 96.1973 61.837 97.5678 62.6042C97.9839 62.8296 98.3764 63.0959 98.7396 63.3991C98.9754 63.6493 99.108 63.7744 99.0933 63.7965Z" fill="#263238"/>
<path d="M98.4006 66.3798C98.3638 66.4313 97.7816 65.9824 96.7352 65.4598C95.3658 64.792 93.8838 64.3852 92.3651 64.2601C90.8484 64.1422 89.3232 64.312 87.8697 64.7606C86.7496 65.1065 86.1085 65.4966 86.0716 65.4009C86.0348 65.3052 86.2116 65.2758 86.499 65.0992C86.9073 64.8617 87.3365 64.6621 87.7813 64.503C89.2589 63.9665 90.8346 63.7532 92.4019 63.8774C93.9558 64.0027 95.4642 64.4622 96.8236 65.2243C97.2524 65.4476 97.6574 65.7139 98.0322 66.0192C98.2901 66.24 98.4228 66.3577 98.4006 66.3798Z" fill="#263238"/>
<path d="M97.7301 69.3165C97.6859 69.3753 97.0595 68.8822 95.9098 68.3376C95.2367 68.0161 94.5394 67.7478 93.8243 67.5354C92.9474 67.2892 92.0532 67.1096 91.1492 66.9981C90.2413 66.9003 89.3268 66.8781 88.4151 66.9319C87.6692 66.9843 86.9294 67.1025 86.2043 67.2851C84.9736 67.6016 84.2735 68.0211 84.2367 67.9328C84.3763 67.8032 84.5354 67.6964 84.7083 67.6163C84.8985 67.5034 85.0983 67.4074 85.3053 67.3293C85.5728 67.2092 85.8487 67.1084 86.1306 67.0275C86.8506 66.8041 87.5913 66.6537 88.3415 66.5786C89.2741 66.5069 90.2114 66.5193 91.1418 66.6154C92.071 66.7281 92.9884 66.9227 93.8832 67.1968C94.6099 67.4299 95.3131 67.7305 95.9835 68.0947C96.2392 68.2273 96.4854 68.3773 96.7205 68.5437C96.9078 68.6588 97.0853 68.7893 97.2511 68.9337C97.6048 69.184 97.7448 69.3017 97.7301 69.3165Z" fill="#263238"/>
<path d="M96.7499 71.4435C96.7057 71.5024 96.0793 71.0019 94.9149 70.4793C94.2309 70.1775 93.5236 69.9314 92.7999 69.7433C91.9114 69.524 91.0071 69.3739 90.0953 69.2944C89.183 69.2202 88.2662 69.2202 87.3539 69.2944C86.6067 69.366 85.8671 69.5014 85.143 69.6992C83.9124 70.0304 83.2123 70.4352 83.1754 70.3616C83.1386 70.288 83.3302 70.2291 83.6471 70.0451C83.8385 69.9324 84.038 69.834 84.244 69.7507C84.5124 69.6285 84.788 69.5228 85.0694 69.4342C85.7891 69.2005 86.5293 69.0354 87.2802 68.9411C88.2126 68.838 89.1524 68.8208 90.0879 68.8896C91.0249 68.9675 91.9526 69.1326 92.8588 69.3827C93.5979 69.5923 94.3139 69.8759 94.996 70.2291C95.2502 70.3589 95.4962 70.5039 95.7329 70.6633C95.9225 70.7786 96.1024 70.9091 96.2709 71.0534C96.6246 71.2889 96.772 71.4288 96.7499 71.4435Z" fill="#263238"/>
<path d="M78.7316 67.3366C78.6653 67.3366 78.5327 66.527 78.0315 65.3126C77.3742 63.7398 76.366 62.3377 75.0838 61.2131C73.7712 60.1126 72.2192 59.3338 70.5516 58.9389C69.2693 58.6297 68.444 58.6297 68.444 58.5635C68.6332 58.5109 68.8306 58.4935 69.0261 58.512C69.5581 58.5175 70.0885 58.5717 70.6106 58.6739C72.3524 59.0033 73.9783 59.7798 75.3286 60.927C76.6788 62.0742 77.7068 63.5527 78.3116 65.2169C78.4983 65.7147 78.6341 66.2301 78.7169 66.7552C78.7558 66.9466 78.7608 67.1434 78.7316 67.3366V67.3366Z" fill="#263238"/>
<path d="M79.955 64.5767C79.8887 64.5767 79.7634 63.7671 79.2549 62.5527C78.6038 60.9691 77.5833 59.5639 76.2783 58.4539C74.9734 57.344 73.4218 56.5615 71.7528 56.1715C70.4706 55.8698 69.6378 55.8698 69.6378 55.8035C69.8271 55.7509 70.0244 55.7335 70.22 55.752C70.7516 55.7581 71.2817 55.8098 71.8044 55.9066C73.5471 56.2366 75.1736 57.0142 76.5239 58.1628C77.8742 59.3114 78.9018 60.7913 79.5055 62.457C79.6905 62.9558 79.8286 63.4708 79.9182 63.9952C79.9674 64.1849 79.9799 64.3823 79.955 64.5767Z" fill="#263238"/>
<path d="M81.1858 61.824C81.1194 61.824 80.9868 61.0144 80.4488 59.8C79.8015 58.2185 78.7859 56.814 77.4863 55.703C76.1867 54.5919 74.6406 53.8064 72.9762 53.4115C71.694 53.1098 70.8612 53.1098 70.8686 53.0435C71.0579 52.9909 71.2552 52.9735 71.4508 52.992C71.9824 52.9981 72.5125 53.0498 73.0352 53.1466C74.7765 53.4797 76.4016 54.2582 77.7516 55.4061C79.0976 56.5579 80.1252 58.0353 80.7362 59.697C80.9195 60.1958 81.0552 60.7109 81.1416 61.2352C81.1912 61.4273 81.2062 61.6267 81.1858 61.824Z" fill="#263238"/>
<path d="M82.4091 59.0567C82.3427 59.0567 82.2175 58.2471 81.6721 57.0327C81.0208 55.4479 79.9993 54.0418 78.693 52.9317C77.3866 51.8216 75.8333 51.0398 74.1627 50.6515C72.8878 50.3497 72.0551 50.3497 72.0551 50.2835C72.2443 50.2309 72.4416 50.2135 72.6372 50.232C73.169 50.2343 73.6995 50.2861 74.2217 50.3865C75.9657 50.7132 77.5939 51.4895 78.9447 52.6385C80.2956 53.7876 81.3222 55.2694 81.9227 56.937C82.1066 57.4337 82.2447 57.9461 82.3354 58.4679C82.3971 58.6577 82.4221 58.8575 82.4091 59.0567Z" fill="#263238"/>
<path d="M83.6397 56.2966C83.5733 56.2966 83.4407 55.487 82.9027 54.2726C82.2516 52.6891 81.2311 51.2839 79.9262 50.1739C78.6212 49.064 77.0697 48.2815 75.4007 47.8915C74.1184 47.5898 73.2856 47.5898 73.293 47.5235C73.4823 47.4709 73.6796 47.4535 73.8752 47.472C74.4072 47.4706 74.938 47.5224 75.4596 47.6266C77.2025 47.9559 78.8294 48.7333 80.1798 49.8819C81.5302 51.0306 82.5576 52.5109 83.1607 54.177C83.3394 54.6747 83.475 55.1869 83.566 55.7078C83.6248 55.8983 83.6497 56.0976 83.6397 56.2966Z" fill="#263238"/>
<path d="M84.863 53.5293C84.7967 53.5293 84.6714 52.7271 84.1629 51.5126C83.5123 49.9288 82.492 48.5232 81.187 47.4132C79.8819 46.3032 78.3301 45.5209 76.6609 45.1315C75.3786 44.8224 74.5532 44.8298 74.5532 44.7635C74.7425 44.7109 74.9398 44.6935 75.1354 44.712C75.6674 44.7106 76.1982 44.7624 76.7198 44.8666C78.4627 45.1959 80.0896 45.9733 81.44 47.1219C82.7905 48.2706 83.8178 49.7509 84.4209 51.417C84.6066 51.9125 84.7423 52.4254 84.8262 52.9479C84.8726 53.138 84.8851 53.3348 84.863 53.5293Z" fill="#263238"/>
<path d="M199.951 135.203L198.713 137.161C198.713 137.161 211.742 140.053 215.582 147.399C215.553 147.66 215.588 147.925 215.684 148.17C215.78 148.415 215.935 148.633 216.134 148.804L218.471 150.792C218.721 150.997 219.028 151.121 219.35 151.147C219.673 151.173 219.996 151.101 220.276 150.939C220.276 150.939 228.213 152.33 232.067 159.911L233.629 162.656L246.069 135.424L221.249 109.664L199.951 135.203Z" fill="#9A3A88"/>
<path d="M200.224 131.413L197.902 134.879C197.902 134.879 212.059 135.983 217.689 149.158L226.724 131.045C226.724 131.045 203.415 128.491 200.224 131.413Z" fill="#EBEBEB"/>
<path d="M215.781 105.491C215.781 105.491 234.204 104.755 234.204 123.95L217.726 149.158C217.726 149.158 214.661 130.375 198.632 131.361L215.781 105.491Z" fill="#F5F5F5"/>
<path d="M217.689 149.158C217.689 149.158 232.627 149.894 235.133 162.089L248.884 138.155L233.629 124.818L217.689 149.158Z" fill="#EBEBEB"/>
<path d="M234.138 123.964C234.138 123.964 243.32 118.54 250.314 124.642L254.676 128.712L241.286 153.088C241.286 153.088 230.424 143.365 217.66 149.195L234.138 123.964Z" fill="#F5F5F5"/>
<path d="M217.689 149.158C217.855 148.8 218.052 148.457 218.279 148.135L220.003 145.426C221.521 143.093 223.541 139.972 225.774 136.521L231.522 127.6L233.246 124.892C233.442 124.55 233.666 124.225 233.917 123.92C233.767 124.283 233.587 124.633 233.379 124.965C233.01 125.635 232.45 126.577 231.75 127.748C230.35 130.073 228.353 133.253 226.098 136.727C223.843 140.201 221.765 143.351 220.202 145.559L218.375 148.208C218.173 148.543 217.944 148.861 217.689 149.158V149.158Z" fill="#263238"/>
<path d="M249.474 130.611C249.422 130.662 248.773 129.978 247.535 129.139C246.811 128.64 246.044 128.207 245.244 127.843C244.262 127.407 243.24 127.067 242.193 126.828C241.141 126.605 240.07 126.485 238.994 126.467C238.115 126.464 237.237 126.538 236.371 126.688C234.897 126.945 234.013 127.299 233.99 127.225C234.173 127.099 234.375 127.002 234.587 126.938C234.828 126.837 235.074 126.751 235.324 126.68C235.651 126.577 235.983 126.491 236.319 126.423C237.198 126.231 238.095 126.128 238.994 126.114C240.096 126.113 241.195 126.226 242.274 126.452C243.35 126.696 244.398 127.054 245.398 127.519C246.208 127.911 246.978 128.379 247.698 128.918C248.007 129.139 248.258 129.374 248.493 129.573C248.69 129.741 248.875 129.923 249.046 130.117C249.21 130.262 249.354 130.428 249.474 130.611V130.611Z" fill="#263238"/>
<path d="M248.294 133.613C248.236 133.665 247.558 132.981 246.356 132.141C245.632 131.643 244.865 131.21 244.064 130.846C242.102 129.953 239.972 129.486 237.815 129.477C236.936 129.471 236.058 129.543 235.192 129.691C233.718 129.948 232.833 130.301 232.804 130.235C232.989 130.109 233.193 130.012 233.408 129.948C233.645 129.839 233.892 129.753 234.145 129.691C234.474 129.582 234.808 129.493 235.147 129.426C236.027 129.237 236.923 129.136 237.823 129.124C238.924 129.117 240.024 129.228 241.102 129.455C242.176 129.702 243.221 130.063 244.219 130.53C245.032 130.912 245.802 131.379 246.518 131.921C246.796 132.126 247.062 132.347 247.314 132.583C247.515 132.747 247.702 132.927 247.874 133.12C248.037 133.264 248.178 133.43 248.294 133.613V133.613Z" fill="#263238"/>
<path d="M246.467 136.506C246.415 136.557 245.767 135.873 244.529 135.034C243.803 134.538 243.036 134.105 242.237 133.739C241.254 133.306 240.232 132.966 239.186 132.723C238.134 132.503 237.063 132.385 235.988 132.37C235.109 132.368 234.231 132.44 233.364 132.583C231.89 132.848 231.006 133.194 230.984 133.128C231.168 133.003 231.369 132.907 231.581 132.841C231.82 132.737 232.066 132.65 232.318 132.583C232.644 132.477 232.976 132.388 233.312 132.318C234.192 132.13 235.088 132.029 235.988 132.016C237.089 132.012 238.188 132.123 239.267 132.347C240.343 132.597 241.39 132.957 242.392 133.422C243.202 133.812 243.972 134.28 244.691 134.82C244.97 135.021 245.236 135.24 245.487 135.476C245.685 135.642 245.872 135.821 246.047 136.013C246.334 136.307 246.489 136.484 246.467 136.506Z" fill="#263238"/>
<path d="M218.692 140.392C218.625 140.392 218.618 139.332 218.198 137.698C217.658 135.561 216.608 133.587 215.139 131.943C213.67 130.298 211.824 129.033 209.76 128.255C208.183 127.652 207.122 127.519 207.136 127.453C207.383 127.435 207.631 127.452 207.873 127.505C208.544 127.614 209.205 127.779 209.848 127.998C211.994 128.725 213.914 129.994 215.423 131.682C216.931 133.371 217.976 135.42 218.456 137.632C218.609 138.294 218.698 138.969 218.721 139.649C218.752 139.896 218.742 140.148 218.692 140.392V140.392Z" fill="#263238"/>
<path d="M220.733 137.102C220.667 137.102 220.659 136.042 220.239 134.408C219.699 132.273 218.651 130.299 217.183 128.655C215.715 127.011 213.871 125.745 211.808 124.965C210.224 124.362 209.163 124.229 209.178 124.163C209.424 124.145 209.673 124.162 209.914 124.215C210.585 124.324 211.246 124.489 211.889 124.708C214.034 125.436 215.953 126.706 217.46 128.394C218.967 130.082 220.011 132.131 220.49 134.342C220.643 135.004 220.732 135.68 220.755 136.359C220.793 136.606 220.786 136.858 220.733 137.102V137.102Z" fill="#263238"/>
<path d="M222.774 133.812C222.708 133.812 222.7 132.752 222.28 131.118C221.741 128.983 220.692 127.009 219.224 125.365C217.756 123.721 215.913 122.455 213.85 121.676C212.265 121.072 211.204 120.94 211.219 120.873C211.466 120.855 211.714 120.873 211.956 120.925C212.627 121.034 213.287 121.199 213.931 121.418C216.082 122.142 218.009 123.41 219.523 125.098C221.038 126.786 222.09 128.838 222.575 131.052C222.721 131.716 222.81 132.39 222.84 133.069C222.863 133.319 222.84 133.57 222.774 133.812Z" fill="#263238"/>
<path d="M224.823 130.522C224.749 130.522 224.742 129.462 224.322 127.829C223.782 125.693 222.733 123.719 221.266 122.075C219.798 120.431 217.954 119.165 215.891 118.386C214.307 117.782 213.253 117.65 213.26 117.583C213.507 117.565 213.755 117.583 213.997 117.635C214.668 117.744 215.329 117.909 215.972 118.128C218.116 118.857 220.036 120.128 221.544 121.815C223.052 123.503 224.098 125.552 224.58 127.762C224.725 128.426 224.814 129.1 224.845 129.779C224.874 130.026 224.866 130.277 224.823 130.522Z" fill="#263238"/>
<path d="M226.864 127.232C226.791 127.232 226.783 126.172 226.363 124.539C225.823 122.403 224.775 120.429 223.307 118.785C221.839 117.141 219.995 115.875 217.933 115.096C216.348 114.492 215.294 114.36 215.302 114.293C215.549 114.275 215.797 114.293 216.039 114.345C216.71 114.453 217.37 114.618 218.014 114.838C220.158 115.567 222.077 116.838 223.585 118.526C225.093 120.213 226.139 122.262 226.621 124.472C226.767 125.136 226.856 125.81 226.886 126.489C226.915 126.737 226.908 126.987 226.864 127.232Z" fill="#263238"/>
<path d="M228.906 123.943C228.832 123.943 228.825 122.883 228.404 121.249C227.865 119.113 226.816 117.139 225.348 115.495C223.88 113.851 222.037 112.585 219.974 111.806C218.389 111.202 217.336 111.07 217.343 111.004C217.59 110.985 217.838 111.003 218.08 111.055C218.751 111.164 219.412 111.329 220.055 111.548C222.199 112.277 224.118 113.548 225.626 115.236C227.134 116.924 228.18 118.972 228.662 121.182C228.808 121.846 228.897 122.521 228.928 123.199C228.957 123.447 228.949 123.697 228.906 123.943V123.943Z" fill="#263238"/>
<path d="M230.409 136.506L225.604 143.454C225.604 143.454 232.973 142.593 239.385 146.67L243.807 139.229C243.807 139.229 236.997 133.886 230.379 136.506" fill="#EBEBEB"/>
<path d="M185.861 53.6029C186.052 52.5051 185.903 51.3751 185.433 50.3645C185.011 49.3581 184.285 48.5087 183.355 47.9357C182.853 47.6503 182.3 47.4681 181.726 47.3998C181.153 47.3315 180.572 47.3786 180.017 47.5382C179.359 47.7386 178.76 48.0946 178.27 48.576C178.139 47.9654 177.872 47.392 177.489 46.8979C177.134 46.4412 176.689 46.0615 176.183 45.7819C175.676 45.5023 175.117 45.3286 174.541 45.2714C173.453 45.1897 172.367 45.4468 171.431 46.0074C170.469 46.5594 169.698 47.3912 169.221 48.392C168.624 49.6798 168.462 51.1257 168.756 52.5136C169.15 53.9551 169.885 55.2806 170.901 56.3776C172.515 58.2323 174.667 60.5949 174.667 60.5949C174.667 60.5949 177.445 59.6454 179.825 59.1229C181.29 58.8208 182.662 58.1749 183.827 57.2387C184.876 56.2747 185.589 55.0006 185.861 53.6029V53.6029Z" fill="#9A3A88"/>
<path d="M169.803 73.2025C169.62 72.7027 169.285 72.2728 168.845 71.9734C168.431 71.6604 167.927 71.4877 167.408 71.4803C166.968 71.4783 166.541 71.6216 166.191 71.8879C165.842 72.1542 165.591 72.5285 165.477 72.9523C165.187 72.6402 164.806 72.4274 164.388 72.3442C163.97 72.2609 163.536 72.3115 163.148 72.4886C162.682 72.7224 162.301 73.0954 162.058 73.5558C161.789 74.0136 161.671 74.5437 161.719 75.072C161.783 75.7442 162.065 76.377 162.522 76.8752C163.031 77.3714 163.653 77.7375 164.335 77.9424C165.448 78.3104 166.907 78.7594 166.907 78.7594C166.907 78.7594 167.813 77.7069 168.661 76.8973C169.19 76.4187 169.597 75.8206 169.847 75.1529C170.041 74.5148 170.026 73.8313 169.803 73.2025V73.2025Z" fill="#9A3A88"/>
<path d="M65.2899 181.888C65.3954 181.368 65.3389 180.829 65.1277 180.342C64.9377 179.858 64.6032 179.445 64.1697 179.157C63.7935 178.927 63.352 178.826 62.9128 178.869C62.4736 178.913 62.0609 179.1 61.7378 179.4C61.6547 178.984 61.4428 178.605 61.132 178.315C60.8213 178.026 60.4274 177.842 60.006 177.788C59.4928 177.739 58.9771 177.852 58.5321 178.112C58.062 178.36 57.6789 178.745 57.4341 179.216C57.1352 179.823 57.042 180.51 57.1688 181.174C57.3392 181.865 57.6727 182.506 58.1415 183.043C58.8785 183.941 59.8881 185.097 59.8881 185.097C59.8881 185.097 61.2219 184.677 62.3642 184.434C63.0661 184.31 63.7281 184.02 64.295 183.588C64.798 183.14 65.1463 182.545 65.2899 181.888V181.888Z" fill="#9A3A88"/>
<path d="M211.669 182.786C211.542 182.487 211.333 182.231 211.064 182.05C210.8 181.857 210.484 181.749 210.158 181.74C210.172 181.94 210.121 182.138 210.013 182.306C209.905 182.474 209.745 182.602 209.558 182.673C209.371 182.743 209.166 182.751 208.974 182.696C208.782 182.641 208.613 182.525 208.492 182.366C208.333 182.297 208.161 182.261 207.987 182.261C207.814 182.261 207.642 182.297 207.483 182.366C207.191 182.51 206.951 182.742 206.797 183.028C206.628 183.317 206.554 183.652 206.584 183.985C206.627 184.408 206.805 184.805 207.092 185.119C207.414 185.43 207.805 185.66 208.234 185.788L209.848 186.304C209.848 186.304 210.416 185.634 210.946 185.126C211.277 184.828 211.53 184.454 211.683 184.037C211.813 183.629 211.808 183.19 211.669 182.786V182.786Z" fill="#9A3A88"/>
<path d="M73.4036 158.071C73.2879 157.756 73.0766 157.486 72.7993 157.298C72.5387 157.099 72.2206 156.991 71.8929 156.989C71.7197 156.989 71.5484 157.025 71.3898 157.095C71.2313 157.164 71.0889 157.266 70.9717 157.394C70.8329 157.544 70.7318 157.726 70.6769 157.923C70.5484 157.787 70.3928 157.679 70.22 157.607C70.0615 157.54 69.8911 157.505 69.7189 157.505C69.5467 157.505 69.3763 157.54 69.2178 157.607C68.9241 157.752 68.6841 157.987 68.5324 158.277C68.3636 158.563 68.2888 158.895 68.3187 159.226C68.3605 159.649 68.539 160.047 68.8272 160.36C69.1468 160.674 69.5392 160.904 69.9695 161.029C70.6622 161.265 71.5834 161.545 71.5834 161.545C71.5834 161.545 72.1508 160.882 72.6814 160.374C73.0112 160.073 73.2639 159.697 73.4184 159.278C73.5399 158.884 73.5347 158.462 73.4036 158.071V158.071Z" fill="#9A3A88"/>
<path d="M202.589 65.401C202.465 65.1014 202.255 64.8453 201.985 64.665C201.721 64.4727 201.405 64.3649 201.079 64.3558C200.906 64.3586 200.735 64.3959 200.577 64.4654C200.419 64.5349 200.276 64.6353 200.157 64.7606C200.02 64.9111 199.921 65.0931 199.87 65.2906C199.741 65.1573 199.585 65.0521 199.413 64.9814C199.253 64.914 199.082 64.8793 198.908 64.8793C198.735 64.8793 198.563 64.914 198.404 64.9814C198.117 65.1372 197.881 65.372 197.725 65.6577C197.568 65.9435 197.497 66.2682 197.519 66.5933C197.563 67.0158 197.741 67.4132 198.028 67.7267C198.349 68.0382 198.741 68.2679 199.17 68.3965L200.784 68.9117C200.784 68.9117 201.351 68.2419 201.882 67.7341C202.212 67.4359 202.465 67.0621 202.619 66.6448C202.742 66.2377 202.732 65.8018 202.589 65.401V65.401Z" fill="#9A3A88"/>
<path d="M201.123 165.335C201.183 164.369 200.943 163.408 200.438 162.582C199.97 161.757 199.257 161.098 198.396 160.698C197.658 160.379 196.836 160.31 196.055 160.501C195.274 160.693 194.577 161.134 194.07 161.758C193.892 161.247 193.606 160.78 193.23 160.389C192.877 160.032 192.456 159.751 191.991 159.561C191.526 159.371 191.028 159.277 190.526 159.285C189.578 159.324 188.668 159.662 187.924 160.249C187.137 160.817 186.545 161.614 186.229 162.531C185.846 163.703 185.846 164.966 186.229 166.137C186.709 167.335 187.467 168.402 188.44 169.251C190.025 170.723 192.125 172.511 192.125 172.511C192.125 172.511 194.424 171.414 196.436 170.693C197.67 170.284 198.789 169.588 199.701 168.662C200.52 167.734 201.019 166.568 201.123 165.335Z" fill="#9A3A88"/>
</svg>
