<svg
          width="500"
          height="500"
          viewBox="0 0 500 500"
          fill="none"
          xmlns="http://www.w3.org/2000/svg"
        >
          <path
            d="M454.47 477.46C454.47 477.6 361.3 477.72 246.4 477.72C131.5 477.72 38.3 477.6 38.3 477.46C38.3 477.32 131.45 477.2 246.4 477.2C361.35 477.2 454.47 477.31 454.47 477.46Z"
            fill="#263238"
          />
          <path d="M376.14 294.59H332.3V346.71H376.14V294.59Z" fill="#F5F5F5" />
          <path d="M333.81 291.2H135.68V350H333.81V291.2Z" fill="#9A3A88" />
          <path
            d="M377.47 296.14H328.47V291.2H377.47C377.795 291.199 378.116 291.262 378.417 291.385C378.717 291.509 378.99 291.691 379.219 291.92C379.449 292.15 379.631 292.423 379.755 292.723C379.878 293.023 379.941 293.345 379.94 293.67C379.94 294.325 379.68 294.953 379.217 295.417C378.753 295.88 378.125 296.14 377.47 296.14Z"
            fill="#9A3A88"
          />
          <path
            d="M377.47 350H328.47V345.06H377.47C378.125 345.06 378.753 345.32 379.217 345.783C379.68 346.247 379.94 346.875 379.94 347.53C379.941 347.855 379.878 348.176 379.755 348.477C379.631 348.777 379.449 349.05 379.219 349.279C378.99 349.509 378.717 349.691 378.417 349.815C378.116 349.938 377.795 350.001 377.47 350Z"
            fill="#9A3A88"
          />
          <g opacity="0.4">
            <path
              opacity="0.4"
              d="M318.24 291.2H294.83V350H318.24V291.2Z"
              fill="black"
            />
          </g>
          <g opacity="0.4">
            <path
              opacity="0.4"
              d="M176.67 291.2H153.26V350H176.67V291.2Z"
              fill="black"
            />
          </g>
          <path
            d="M376.14 303.22C376.14 303.36 366.65 303.48 354.95 303.48C343.25 303.48 333.76 303.36 333.76 303.22C333.76 303.08 343.25 303 355 303C366.75 303 376.14 303.07 376.14 303.22Z"
            fill="#E0E0E0"
          />
          <path
            d="M376.14 311C376.14 311.15 366.65 311.26 354.95 311.26C343.25 311.26 333.76 311.15 333.76 311C333.76 310.85 343.25 310.74 354.95 310.74C366.65 310.74 376.14 310.89 376.14 311Z"
            fill="#E0E0E0"
          />
          <path
            d="M376.14 320.65C376.14 320.8 366.65 320.92 354.95 320.92C343.25 320.92 333.76 320.8 333.76 320.65C333.76 320.5 343.25 320.39 354.95 320.39C366.65 320.39 376.14 320.51 376.14 320.65Z"
            fill="#E0E0E0"
          />
          <path
            d="M376.14 330.28C376.14 330.42 366.65 330.54 354.95 330.54C343.25 330.54 333.76 330.42 333.76 330.28C333.76 330.14 343.25 330 355 330C366.75 330 376.14 330.13 376.14 330.28Z"
            fill="#E0E0E0"
          />
          <path
            d="M376.14 339.9C376.14 340.05 366.65 340.16 354.95 340.16C343.25 340.16 333.76 340.05 333.76 339.9C333.76 339.75 343.25 339.64 354.95 339.64C366.65 339.64 376.14 339.76 376.14 339.9Z"
            fill="#E0E0E0"
          />
          <g opacity="0.2">
            <path
              opacity="0.2"
              d="M282.24 315.36H193.1V325.95H282.24V315.36Z"
              fill="black"
            />
          </g>
          <path
            d="M375.69 351.15H331.18V382.91H375.69V351.15Z"
            fill="#FAFAFA"
          />
          <path
            d="M331.68 349.99H142.24V384.05H331.68V349.99Z"
            fill="#455A64"
          />
          <path
            d="M330.3 352.3H378.15C378.455 352.3 378.748 352.179 378.963 351.963C379.179 351.747 379.3 351.455 379.3 351.15C379.301 350.998 379.273 350.848 379.215 350.707C379.158 350.566 379.074 350.438 378.967 350.33C378.86 350.223 378.733 350.137 378.592 350.078C378.452 350.02 378.302 349.99 378.15 349.99H330.3V352.3Z"
            fill="#455A64"
          />
          <path
            d="M330.3 381.75H378.15C378.455 381.75 378.748 381.871 378.963 382.087C379.179 382.302 379.3 382.595 379.3 382.9C379.3 383.205 379.179 383.497 378.963 383.713C378.748 383.929 378.455 384.05 378.15 384.05H330.3V381.75Z"
            fill="#455A64"
          />
          <path
            d="M375.7 357.18C375.7 357.32 365.84 357.44 353.7 357.44C341.56 357.44 331.7 357.32 331.7 357.18C331.7 357.04 341.55 356.92 353.7 356.92C365.85 356.92 375.7 357 375.7 357.18Z"
            fill="#E0E0E0"
          />
          <path
            d="M375.7 363.19C375.7 363.33 365.84 363.45 353.7 363.45C341.56 363.45 331.7 363.33 331.7 363.19C331.7 363.05 341.55 362.93 353.7 362.93C365.85 362.93 375.7 363 375.7 363.19Z"
            fill="#E0E0E0"
          />
          <path
            d="M375.7 369.19C375.7 369.34 365.84 369.45 353.7 369.45C341.56 369.45 331.7 369.34 331.7 369.19C331.7 369.04 341.55 368.93 353.7 368.93C365.85 368.93 375.7 369.05 375.7 369.19Z"
            fill="#E0E0E0"
          />
          <path
            d="M375.7 375.2C375.7 375.35 365.84 375.46 353.7 375.46C341.56 375.46 331.7 375.35 331.7 375.2C331.7 375.05 341.55 374.94 353.7 374.94C365.85 374.94 375.7 375.06 375.7 375.2Z"
            fill="#E0E0E0"
          />
          <path
            d="M302.41 362.19H171.77V371.08H302.41V362.19Z"
            fill="#263238"
          />
          <path
            d="M382.45 387.08H337.01V473.17H382.45V387.08Z"
            fill="#EBEBEB"
          />
          <path d="M337.01 384.06H123.74V477.4H337.01V384.06Z" fill="#9A3A88" />
          <path
            d="M386 477.4H331.18V471.4H386C386.796 471.4 387.559 471.716 388.121 472.279C388.684 472.841 389 473.604 389 474.4C389 475.196 388.684 475.959 388.121 476.521C387.559 477.084 386.796 477.4 386 477.4Z"
            fill="#9A3A88"
          />
          <path
            d="M331.18 384.06H386C386.796 384.06 387.559 384.376 388.121 384.939C388.684 385.501 389 386.264 389 387.06C389 387.856 388.684 388.619 388.121 389.181C387.559 389.744 386.796 390.06 386 390.06H331.18V384.01V384.06Z"
            fill="#9A3A88"
          />
          <g opacity="0.4">
            <path
              opacity="0.4"
              d="M291.14 384.06L246.28 477.4H284.18L326.71 384.06H291.14Z"
              fill="white"
            />
          </g>
          <g opacity="0.4">
            <path
              opacity="0.4"
              d="M220.38 384.06L175.52 477.4H213.41L255.95 384.06H220.38Z"
              fill="white"
            />
          </g>
          <path
            d="M382.45 398.62C382.45 398.77 372.28 398.88 359.73 398.88C347.18 398.88 337.01 398.77 337.01 398.62C337.01 398.47 347.18 398.36 359.73 398.36C372.28 398.36 382.45 398.48 382.45 398.62Z"
            fill="#E0E0E0"
          />
          <path
            d="M382.45 409.66C382.45 409.81 372.28 409.92 359.73 409.92C347.18 409.92 337.01 409.81 337.01 409.66C337.01 409.51 347.18 409.4 359.73 409.4C372.28 409.4 382.45 409.52 382.45 409.66Z"
            fill="#E0E0E0"
          />
          <path
            d="M382.45 420.71C382.45 420.85 372.28 420.97 359.73 420.97C347.18 420.97 337.01 420.85 337.01 420.71C337.01 420.57 347.18 420.45 359.73 420.45C372.28 420.45 382.45 420.56 382.45 420.71Z"
            fill="#E0E0E0"
          />
          <path
            d="M382.45 431.75C382.45 431.89 372.28 432.01 359.73 432.01C347.18 432.01 337.01 431.89 337.01 431.75C337.01 431.61 347.18 431.49 359.73 431.49C372.28 431.49 382.45 431.6 382.45 431.75Z"
            fill="#E0E0E0"
          />
          <path
            d="M382.45 442.79C382.45 442.93 372.28 443.05 359.73 443.05C347.18 443.05 337.01 442.93 337.01 442.79C337.01 442.65 347.18 442.53 359.73 442.53C372.28 442.53 382.45 442.65 382.45 442.79Z"
            fill="#E0E0E0"
          />
          <path
            d="M382.45 453.83C382.45 453.97 372.28 454.09 359.73 454.09C347.18 454.09 337 454 337 453.83C337 453.66 347.17 453.57 359.72 453.57C372.27 453.57 382.45 453.69 382.45 453.83Z"
            fill="#E0E0E0"
          />
          <path
            d="M382.45 464.87C382.45 465.02 372.28 465.13 359.73 465.13C347.18 465.13 337 465 337 464.87C337 464.74 347.17 464.61 359.72 464.61C372.27 464.61 382.45 464.73 382.45 464.87Z"
            fill="#E0E0E0"
          />
          <path
            d="M355.41 133.27L341.49 110.93C341.419 110.816 341.32 110.723 341.203 110.658C341.086 110.593 340.954 110.559 340.82 110.559C340.686 110.559 340.554 110.593 340.437 110.658C340.32 110.723 340.221 110.816 340.15 110.93L326.49 134.55L355.41 133.27Z"
            fill="#9A3A88"
          />
          <g opacity="0.3">
            <path
              opacity="0.3"
              d="M355.41 133.27L341.49 110.93C341.419 110.816 341.32 110.723 341.203 110.658C341.086 110.593 340.954 110.559 340.82 110.559C340.686 110.559 340.554 110.593 340.437 110.658C340.32 110.723 340.221 110.816 340.15 110.93L326.49 134.55L355.41 133.27Z"
              fill="black"
            />
          </g>
          <path
            d="M341.49 111.99L354.5 133.18L351.19 132.66L329.94 129.31L337.86 112.65L341.49 111.99Z"
            fill="#EBEBEB"
          />
          <path
            d="M342.88 153.65L355.41 133.27L322.96 127.27C322.443 127.173 321.91 127.239 321.432 127.457C320.954 127.676 320.555 128.036 320.29 128.49L301.99 159.49C301.86 159.711 301.786 159.96 301.773 160.216C301.76 160.472 301.81 160.727 301.917 160.959C302.024 161.192 302.185 161.396 302.388 161.552C302.59 161.709 302.828 161.815 303.08 161.86L333.58 167.27L342.88 153.65Z"
            fill="#9A3A88"
          />
          <path
            d="M334.22 113.27L352.23 132.77L326.08 127.87L334.22 113.27Z"
            fill="#EBEBEB"
          />
          <path
            d="M326.08 127.87C326.106 127.768 326.146 127.67 326.2 127.58L326.6 126.79L328.2 123.79C329.64 121.18 331.64 117.53 334.03 113.16L334.18 112.89L334.39 113.12L346.13 125.78L352.41 132.6L352.02 132.91C347.92 127.1 344.36 122.07 341.79 118.44L338.86 114.2L338.1 113.06C338.004 112.932 337.92 112.794 337.85 112.65C337.85 112.65 337.97 112.76 338.17 113.01L339 114.11L342.05 118.25L352.43 132.62L352.04 132.94L345.75 126.14L334.06 113.42H334.42C331.96 117.75 329.91 121.42 328.42 123.96L326.71 126.9L326.25 127.66C326.15 127.79 326.09 127.88 326.08 127.87Z"
            fill="#263238"
          />
          <g opacity="0.3">
            <path
              opacity="0.3"
              d="M326.44 136.35C326.16 136.77 315.52 154.5 315.52 154.5L332.86 157.74L344.37 139.35L326.44 136.35Z"
              fill="white"
            />
          </g>
          <path
            d="M196 438.8L205.53 426.35L206.03 425.71L222.27 437.79L207.27 454.31L207.82 471.03C216.19 473.2 217.45 477.38 217.45 477.38H200.04L184.15 446.9L196 438.8Z"
            fill="#455A64"
          />
          <path
            d="M184.15 446.9L200 477.36H217.41C216.955 476.344 216.271 475.447 215.41 474.74L201.25 474L186.66 445.21L184.15 446.9Z"
            fill="#EBEBEB"
          />
          <path
            d="M207.63 463.37C207.5 463.55 206.5 462.98 205.15 463.01C203.8 463.04 202.82 463.61 202.68 463.43C202.54 463.25 203.5 462.26 205.14 462.25C206.78 462.24 207.79 463.23 207.63 463.37Z"
            fill="#263238"
          />
          <path
            d="M207.35 459.22C207.18 459.34 206.4 458.32 205.01 458.04C203.62 457.76 202.52 458.41 202.4 458.23C202.28 458.05 202.55 457.86 203.03 457.59C203.688 457.248 204.443 457.142 205.17 457.29C205.892 457.44 206.544 457.827 207.02 458.39C207.36 458.83 207.44 459.17 207.35 459.22Z"
            fill="#263238"
          />
          <path
            d="M207.47 453.89C207.28 453.99 206.69 452.98 205.47 452.56C204.25 452.14 203.17 452.56 203.08 452.34C202.99 452.12 203.26 452.01 203.74 451.83C204.387 451.601 205.093 451.601 205.74 451.83C206.381 452.059 206.926 452.495 207.29 453.07C207.54 453.53 207.56 453.86 207.47 453.89Z"
            fill="#263238"
          />
          <path
            d="M212.13 449.77C211.92 449.84 211.44 448.85 210.36 448.15C209.28 447.45 208.19 447.34 208.18 447.15C208.17 446.96 209.47 446.65 210.78 447.53C212.09 448.41 212.34 449.74 212.13 449.77Z"
            fill="#263238"
          />
          <path
            d="M214.41 446.19C214.32 446.25 213.74 445.55 212.89 444.37L211.42 442.28C211.079 441.855 210.806 441.379 210.61 440.87C210.508 440.516 210.547 440.136 210.72 439.81C210.822 439.626 210.976 439.476 211.163 439.378C211.349 439.28 211.56 439.239 211.77 439.26C212.382 439.376 212.946 439.672 213.39 440.11C213.801 440.459 214.158 440.866 214.45 441.32C214.942 442.076 215.253 442.935 215.36 443.83C215.539 444.644 215.399 445.496 214.97 446.21C214.965 445.445 214.919 444.68 214.83 443.92C214.58 442.652 213.902 441.508 212.91 440.68C212.57 440.368 212.157 440.144 211.71 440.03C211.646 440.016 211.579 440.022 211.52 440.05C211.46 440.077 211.411 440.122 211.38 440.18C211.323 440.342 211.323 440.518 211.38 440.68C211.557 441.109 211.786 441.515 212.06 441.89C212.51 442.63 212.95 443.36 213.39 444.07C213.833 444.723 214.176 445.437 214.41 446.19Z"
            fill="#263238"
          />
          <path
            d="M215 446.71C214.92 446.71 215 445.79 215.93 444.71C216.574 444.018 217.426 443.554 218.356 443.388C219.287 443.222 220.247 443.363 221.09 443.79C221.178 443.867 221.247 443.963 221.294 444.07C221.34 444.177 221.363 444.293 221.36 444.41C221.347 444.61 221.274 444.802 221.15 444.96C220.967 445.172 220.755 445.357 220.52 445.51C220.132 445.779 219.72 446.013 219.29 446.21C218.567 446.547 217.793 446.763 217 446.85C216.28 447.004 215.53 446.934 214.85 446.65C215.53 446.499 216.218 446.385 216.91 446.31C217.633 446.157 218.333 445.908 218.99 445.57C219.374 445.376 219.742 445.152 220.09 444.9C220.254 444.787 220.405 444.656 220.54 444.51C220.62 444.35 220.6 444.4 220.54 444.35C220.387 444.255 220.217 444.19 220.04 444.16C219.826 444.112 219.609 444.079 219.39 444.06C218.975 444.034 218.557 444.064 218.15 444.15C217.455 444.307 216.809 444.633 216.27 445.1C215.4 446 215.14 446.76 215 446.71Z"
            fill="#263238"
          />
          <path
            d="M198 446.38C198 446.789 197.879 447.19 197.651 447.53C197.424 447.87 197.1 448.136 196.722 448.292C196.344 448.449 195.928 448.49 195.526 448.41C195.125 448.33 194.756 448.133 194.466 447.844C194.177 447.554 193.98 447.185 193.9 446.784C193.82 446.382 193.861 445.966 194.018 445.588C194.174 445.21 194.44 444.886 194.78 444.659C195.12 444.431 195.521 444.31 195.93 444.31C196.479 444.31 197.005 444.528 197.394 444.916C197.782 445.304 198 445.831 198 446.38Z"
            fill="#EBEBEB"
          />
          <g opacity="0.3">
            <path
              opacity="0.3"
              d="M220.71 439.45L217.37 443.12L203.31 429.2L205.27 426.65L220.71 439.45Z"
              fill="black"
            />
          </g>
          <path
            d="M264.11 445.13L262.33 466.3C262.33 466.3 283.25 473.44 283.33 477.38L242.16 477.19L243.58 444.09L264.11 445.13Z"
            fill="#455A64"
          />
          <path
            d="M249.68 463.9C249.277 464.002 248.927 464.25 248.696 464.595C248.465 464.94 248.37 465.359 248.43 465.77C248.517 466.174 248.755 466.529 249.095 466.763C249.435 466.997 249.852 467.093 250.26 467.03C250.69 466.921 251.063 466.655 251.307 466.285C251.551 465.915 251.648 465.468 251.58 465.03C251.446 464.615 251.157 464.269 250.772 464.063C250.388 463.858 249.939 463.81 249.52 463.93"
            fill="#EBEBEB"
          />
          <path
            d="M242.13 477.19L242.27 473.89L281.27 474.82C281.27 474.82 283.34 476.48 283.32 477.38L242.13 477.19Z"
            fill="#EBEBEB"
          />
          <path
            d="M263 466.12C263 466.32 262 466.37 261 466.97C260 467.57 259.41 468.38 259.23 468.3C259.05 468.22 259.4 467.06 260.65 466.36C261.9 465.66 263.06 465.94 263 466.12Z"
            fill="#263238"
          />
          <path
            d="M267.24 468.12C267.24 468.31 266.38 468.61 265.66 469.43C264.94 470.25 264.66 471.14 264.5 471.12C264.34 471.1 264.22 469.96 265.14 468.96C266.06 467.96 267.24 467.92 267.24 468.12Z"
            fill="#263238"
          />
          <path
            d="M269.44 473.4C269.25 473.4 269.02 472.4 269.59 471.34C270.16 470.28 271.12 469.87 271.2 470.04C271.28 470.21 270.67 470.78 270.2 471.67C269.73 472.56 269.64 473.39 269.44 473.4Z"
            fill="#263238"
          />
          <path
            d="M262.87 461.25C262.78 461.43 261.87 461.11 260.73 461.13C259.59 461.15 258.73 461.47 258.59 461.29C258.45 461.11 259.38 460.44 260.72 460.43C262.06 460.42 263 461.1 262.87 461.25Z"
            fill="#263238"
          />
          <path
            d="M263.15 457C262.466 457.144 261.755 457.106 261.09 456.89C260.355 456.718 259.644 456.46 258.97 456.12C258.566 455.92 258.179 455.689 257.81 455.43C257.586 455.291 257.383 455.119 257.21 454.92C257.092 454.766 257.029 454.578 257.029 454.385C257.029 454.192 257.092 454.004 257.21 453.85C257.318 453.713 257.456 453.603 257.614 453.53C257.773 453.457 257.946 453.423 258.12 453.43C258.379 453.44 258.635 453.487 258.88 453.57C259.313 453.701 259.735 453.868 260.14 454.07C260.821 454.42 261.445 454.872 261.99 455.41C262.9 456.34 263.19 457.11 263.12 457.15C263.05 457.19 262.59 456.56 261.65 455.78C261.103 455.33 260.501 454.951 259.86 454.65C259.485 454.48 259.097 454.34 258.7 454.23C258.27 454.1 257.89 454.08 257.77 454.23C257.65 454.38 257.72 454.34 257.77 454.47C257.9 454.612 258.048 454.737 258.21 454.84C258.549 455.088 258.903 455.315 259.27 455.52C259.907 455.871 260.577 456.159 261.27 456.38C261.912 456.537 262.541 456.744 263.15 457Z"
            fill="#263238"
          />
          <path
            d="M262.88 457.25C262.8 457.25 262.44 456.54 262.43 455.25C262.433 454.487 262.565 453.729 262.82 453.01C262.976 452.583 263.17 452.172 263.4 451.78C263.526 451.512 263.718 451.28 263.957 451.105C264.197 450.93 264.476 450.819 264.77 450.78C264.952 450.798 265.125 450.865 265.272 450.974C265.418 451.083 265.532 451.231 265.6 451.4C265.697 451.647 265.758 451.906 265.78 452.17C265.828 452.634 265.804 453.103 265.71 453.56C265.557 454.326 265.213 455.042 264.71 455.64C263.85 456.64 263 456.87 262.99 456.8C262.98 456.73 263.65 456.34 264.31 455.35C264.695 454.775 264.95 454.123 265.06 453.44C265.115 453.045 265.115 452.645 265.06 452.25C265.01 451.81 264.87 451.45 264.7 451.48C264.53 451.51 264.13 451.78 263.95 452.13C263.725 452.474 263.534 452.839 263.38 453.22C263.124 453.861 262.956 454.534 262.88 455.22C262.81 456.46 263 457.23 262.88 457.25Z"
            fill="#263238"
          />
          <path
            d="M347.6 160.31C348 159.124 347.951 157.832 347.46 156.68C345.76 152.68 341.76 143.68 340.31 143.93C339.03 144.16 338.09 146.6 339.55 149.29L334.84 145.29C334.629 145.109 334.368 144.997 334.091 144.969C333.815 144.941 333.536 144.998 333.293 145.133C333.05 145.268 332.854 145.475 332.732 145.724C332.61 145.974 332.567 146.255 332.61 146.53C332.728 147.136 332.923 147.724 333.19 148.28C334.65 151.38 338.71 154.28 338.71 154.28L330.51 154.33C330.51 154.33 328.98 156.47 331.79 157.91C332.417 158.217 333.095 158.406 333.79 158.47L338.03 158.9C338.03 158.9 330.37 167.37 330.11 168.16C329.735 169.43 329.507 170.738 329.43 172.06L314.73 188.41L318.66 213.27L345.22 167.27L347.6 160.31Z"
            fill="#B78876"
          />
          <path
            d="M345.47 156.57C345.4 156.62 345.13 156.23 344.55 155.79C343.781 155.236 342.895 154.866 341.96 154.71C341.004 154.561 340.036 154.507 339.07 154.55C338.656 154.603 338.236 154.579 337.83 154.48C337.83 154.41 338.28 154.29 339.04 154.18C340.034 154.026 341.046 154.026 342.04 154.18C343.061 154.342 344.013 154.797 344.78 155.49C345.36 156.07 345.52 156.55 345.47 156.57Z"
            fill="#AA6550"
          />
          <path
            d="M345.6 154C344.396 153.384 343.276 152.614 342.27 151.71C341.155 150.942 340.147 150.031 339.27 149C340.474 149.625 341.596 150.398 342.61 151.3C343.716 152.071 344.721 152.978 345.6 154Z"
            fill="#AA6550"
          />
          <path
            d="M273.1 276.6C273.32 276.6 274.1 325.6 274.42 347.67C274.52 354.621 272.73 361.468 269.24 367.48L221.39 451.54L193.9 428.67L238.35 353.55L222 274.37L254.4 246.51L273.1 276.6Z"
            fill="#263238"
          />
          <path
            d="M296.35 266.59C296.21 269.41 270.35 451.13 270.35 451.13L238.35 448.85L250.09 265.46L296.35 266.59Z"
            fill="#263238"
          />
          <path
            d="M269.55 279.34C269.55 279.34 269.55 279.51 269.61 279.82C269.67 280.13 269.69 280.62 269.75 281.22C269.85 282.48 270.01 284.29 270.2 286.62C270.57 291.33 271.11 298.1 271.76 306.46C272.41 314.82 273.12 324.83 273.94 335.91C274.12 338.69 274.307 341.53 274.5 344.43C274.58 345.88 274.71 347.36 274.66 348.85C274.618 350.362 274.471 351.869 274.22 353.36C273.703 356.42 272.767 359.395 271.44 362.2C270.78 363.63 269.99 364.99 269.22 366.38L266.89 370.55L234.81 427.88C230.69 435.18 227.35 441.1 225.04 445.22C223.88 447.22 222.98 448.83 222.35 449.92L221.65 451.14L221.39 451.54C221.39 451.54 221.45 451.39 221.6 451.11L222.26 449.87L224.86 445.12L234.49 427.7C242.67 412.99 253.96 392.7 266.44 370.3C267.22 368.9 267.99 367.5 268.77 366.12C269.55 364.74 270.33 363.38 270.97 361.98C272.277 359.215 273.202 356.284 273.72 353.27C273.967 351.805 274.111 350.325 274.15 348.84C274.21 347.37 274.08 345.91 274.01 344.46C273.823 341.56 273.64 338.723 273.46 335.95C272.68 324.86 271.98 314.88 271.4 306.49C270.82 298.1 270.33 291.35 270 286.63C269.85 284.31 269.73 282.49 269.64 281.23C269.64 280.63 269.58 280.16 269.56 279.82C269.54 279.48 269.55 279.34 269.55 279.34Z"
            fill="#455A64"
          />
          <path
            d="M247.68 365.28C247.459 365.282 247.238 365.245 247.03 365.17C246.45 365.022 245.887 364.815 245.35 364.55C243.569 363.669 242.02 362.381 240.83 360.789C239.64 359.198 238.841 357.348 238.5 355.39C238.4 354.799 238.36 354.199 238.38 353.6C238.38 353.18 238.38 352.95 238.46 352.95C238.54 352.95 238.55 353.88 238.86 355.32C239.287 357.186 240.1 358.943 241.247 360.476C242.394 362.009 243.85 363.284 245.52 364.22C246.81 364.93 247.7 365.19 247.68 365.28Z"
            fill="#455A64"
          />
          <path
            d="M251.3 359.81C250.531 359.959 249.74 359.959 248.97 359.81C247.096 359.555 245.291 358.929 243.66 357.97C242.03 357.013 240.603 355.746 239.46 354.24C238.956 353.65 238.566 352.972 238.31 352.24C238.39 352.24 238.84 352.96 239.75 354.04C242.133 356.858 245.407 358.777 249.03 359.48C250.41 359.7 251.3 359.72 251.3 359.81Z"
            fill="#455A64"
          />
          <path
            d="M228.74 282C228.74 282 228.96 282.28 229.51 282.53C229.904 282.682 230.327 282.745 230.749 282.716C231.171 282.686 231.581 282.565 231.95 282.36C233.064 281.704 234.118 280.951 235.1 280.11C236.25 279.19 237.47 278.11 238.71 276.98C240.813 274.982 242.774 272.84 244.58 270.57C245.96 268.83 246.75 267.69 246.81 267.74C246.699 268.047 246.544 268.337 246.35 268.6C246.03 269.13 245.53 269.89 244.87 270.8C243.137 273.156 241.196 275.352 239.07 277.36C237.82 278.53 236.57 279.58 235.4 280.49C234.377 281.333 233.271 282.07 232.1 282.69C231.684 282.898 231.225 283.006 230.76 283.006C230.295 283.006 229.836 282.898 229.42 282.69C228.84 282.35 228.72 282 228.74 282Z"
            fill="#455A64"
          />
          <path
            d="M246.56 280.49C246.245 281.475 245.819 282.421 245.29 283.31C244.151 285.552 242.589 287.552 240.69 289.2C238.729 290.859 236.259 291.798 233.69 291.86C232.925 291.872 232.162 291.764 231.43 291.54C231.153 291.479 230.892 291.363 230.66 291.2C231.647 291.4 232.653 291.497 233.66 291.49C236.102 291.318 238.427 290.377 240.3 288.8C242.145 287.183 243.704 285.266 244.91 283.13C245.41 282.22 245.961 281.338 246.56 280.49Z"
            fill="#455A64"
          />
          <path
            d="M296.35 266.59C296.35 266.59 271.65 278.12 262.79 274.15C253.93 270.18 248.13 261.02 241.72 263.15C235.31 265.28 225.53 267.15 222.17 276.28C221.454 275.509 220.898 274.604 220.532 273.617C220.167 272.63 219.999 271.581 220.04 270.53C220.04 266.97 223.04 262.14 223.04 262.14L219.04 220.88L219.21 151.5C219.21 151.5 226.09 141.25 244.72 141.86L270.45 145.56C270.45 145.56 283.58 149.56 287.24 156.25C290.9 162.94 289.38 210.73 289.38 210.73C289.38 210.73 297.52 257.09 297.52 260.73C297.566 262.747 297.174 264.75 296.37 266.6"
            fill="#9A3A88"
          />
          <path
            d="M311 187.73L300.39 197.19L287.25 156.26L276.25 180.91L280.69 220.91C281.038 224.038 282.339 226.983 284.418 229.346C286.497 231.709 289.252 233.376 292.31 234.12C294.715 234.701 297.225 234.693 299.625 234.096C302.026 233.498 304.248 232.33 306.1 230.69L317.3 221.11C318.092 220.441 318.697 219.578 319.057 218.605C319.416 217.633 319.517 216.583 319.35 215.56L315.18 189.24C315.114 188.788 314.927 188.363 314.639 188.01C314.351 187.656 313.972 187.388 313.542 187.233C313.113 187.078 312.65 187.042 312.202 187.13C311.755 187.217 311.339 187.425 311 187.73Z"
            fill="#9A3A88"
          />
          <path
            d="M230.64 176.65C230.64 177.56 225.71 222.24 225.71 222.24L246.6 267.43C244.6 271.69 240.68 275.56 236.37 279.34C236.37 279.34 231.03 274.46 230.72 264.07C230.72 264.07 206.98 236.18 204.54 228.85C202.1 221.52 208.82 171.46 208.82 171.46L230.64 176.65Z"
            fill="#B78876"
          />
          <path
            d="M283.71 184.43C283.61 184.752 283.465 185.058 283.28 185.34C282.97 185.91 282.51 186.72 281.93 187.72C281.278 188.91 280.564 190.065 279.79 191.18C279.31 191.855 278.702 192.429 278 192.87C277.222 193.328 276.342 193.586 275.44 193.62C273.719 193.657 272.035 193.123 270.65 192.1C269.55 191.26 268.594 190.247 267.82 189.1C267.292 188.352 266.808 187.574 266.37 186.77C266.184 186.491 266.036 186.188 265.93 185.87C266.01 185.82 266.74 187.05 268.11 188.87C268.904 189.936 269.851 190.88 270.92 191.67C272.232 192.605 273.81 193.092 275.42 193.06C276.234 193.034 277.028 192.803 277.73 192.39C278.382 191.988 278.953 191.465 279.41 190.85C280.31 189.66 280.98 188.44 281.62 187.48C282.26 186.52 282.75 185.73 283.11 185.2C283.276 184.919 283.478 184.66 283.71 184.43Z"
            fill="#263238"
          />
          <path
            d="M299.1 221.49C298.928 221.208 298.794 220.906 298.7 220.59C298.383 219.744 298.119 218.879 297.91 218C296.474 212.16 296.784 206.026 298.8 200.36C299.102 199.51 299.452 198.679 299.85 197.87C299.975 197.563 300.14 197.274 300.34 197.01C300.43 197.01 299.83 198.32 299.15 200.48C298.265 203.289 297.738 206.199 297.58 209.14C297.441 212.084 297.67 215.033 298.26 217.92C298.73 220.13 299.19 221.46 299.1 221.49Z"
            fill="#263238"
          />
          <path
            d="M304.69 213.3C304.167 212.643 303.734 211.92 303.4 211.15C301.593 207.518 300.535 203.559 300.29 199.51C300.181 198.68 300.181 197.84 300.29 197.01C300.463 197.823 300.57 198.649 300.61 199.48C300.834 201.464 301.202 203.429 301.71 205.36C302.244 207.285 302.912 209.169 303.71 211C304.095 211.741 304.422 212.509 304.69 213.3Z"
            fill="#263238"
          />
          <path
            d="M283 192.81C283 192.81 283.1 192.96 283.23 193.25C283.423 193.687 283.59 194.134 283.73 194.59C284.262 196.269 284.485 198.031 284.39 199.79C284.258 202.438 283.224 204.961 281.46 206.94C280.418 208.117 279.112 209.032 277.65 209.61C276.059 210.229 274.322 210.375 272.65 210.03C270.974 209.714 269.439 208.881 268.26 207.65C267.216 206.472 266.49 205.047 266.15 203.51C265.838 202.155 265.638 200.777 265.55 199.39C265.45 198.1 265.35 196.9 265.26 195.79C265.11 193.66 264.99 191.9 264.89 190.59C264.89 190.02 264.84 189.59 264.82 189.17C264.797 189.004 264.797 188.836 264.82 188.67C264.868 188.829 264.898 188.994 264.91 189.16C264.91 189.54 265.02 190.01 265.08 190.57C265.22 191.88 265.4 193.63 265.62 195.76C265.73 196.87 265.84 198.07 265.97 199.35C266.077 200.698 266.288 202.035 266.6 203.35C266.925 204.802 267.613 206.147 268.6 207.26C269.711 208.407 271.15 209.183 272.72 209.48C274.285 209.796 275.909 209.661 277.4 209.09C278.788 208.546 280.031 207.687 281.03 206.58C282.744 204.685 283.772 202.269 283.95 199.72C284.08 197.998 283.918 196.267 283.47 194.6C283.24 193.46 283 192.83 283 192.81Z"
            fill="#263238"
          />
          <g opacity="0.2">
            <path
              opacity="0.2"
              d="M232.41 236.72C232.79 233.464 233.59 230.271 234.79 227.22C236.23 223.43 238.11 219.67 238.17 215.61C238.087 213.055 237.636 210.526 236.83 208.1L229.54 181.83C229.26 188.617 228.983 195.41 228.71 202.21C228.492 203.863 228.756 205.544 229.47 207.05C230.55 208.81 232.76 209.58 233.99 211.23C234.458 211.871 234.764 212.617 234.88 213.402C234.997 214.188 234.921 214.99 234.66 215.74C234.12 217.23 232.78 217.61 231.25 217.98C230.552 218.163 229.844 218.306 229.13 218.41C228.13 218.57 226.57 218.34 226.13 219.29C224.92 221.65 226.21 223.08 226.72 224.21C229.04 229.36 232.45 236.72 232.45 236.72"
              fill="black"
            />
          </g>
          <path
            d="M223.49 148C223.49 148 202 158.86 199 216.94C198.951 217.874 199.114 218.807 199.478 219.669C199.842 220.531 200.397 221.299 201.101 221.916C201.804 222.532 202.639 222.98 203.541 223.227C204.444 223.474 205.391 223.512 206.31 223.34C215.14 221.66 228.52 219.06 228.43 218.7C228.31 218.17 233.43 167.59 233.43 167.59L223.49 148Z"
            fill="#9A3A88"
          />
          <path
            d="M233 166.69C233 166.69 233 166.96 233 167.47C233 167.98 233 168.73 233 169.69C233 171.62 232.84 174.42 232.61 177.87C232.38 181.32 232.03 185.42 231.55 189.96C231.3 192.23 231.03 194.61 230.76 197.08C230.61 198.32 230.46 199.57 230.3 200.85C230.14 202.13 229.76 203.42 229.56 204.68C229.445 205.295 229.445 205.925 229.56 206.54C229.707 207.126 230.003 207.663 230.42 208.1C231.24 209 232.42 209.47 233.42 210.38C234.314 211.302 234.889 212.487 235.06 213.76C235.15 214.37 235.15 214.99 235.06 215.6C235.04 216.232 234.777 216.831 234.326 217.274C233.876 217.717 233.272 217.97 232.64 217.98L231.02 218.29L227.94 218.9L222.48 220L214.48 221.67L213.22 221.92L212.72 222.02H212.64C212.64 222.02 212.64 221.79 212.64 221.9H212.75H212.94C213.192 221.833 213.45 221.793 213.71 221.78C213.471 221.877 213.223 221.95 212.97 222H212.77H212.66C212.66 222.11 212.66 221.85 212.66 221.88H212.72L213.22 221.76L214.47 221.46L222.47 219.63L227.99 218.43L231.07 217.79L232.69 217.46C233.162 217.435 233.616 217.275 234 217C234.316 216.552 234.529 216.041 234.624 215.501C234.719 214.962 234.694 214.408 234.55 213.88C234.391 212.717 233.865 211.635 233.05 210.79C232.2 209.97 230.97 209.49 230.05 208.49C229.565 207.988 229.221 207.367 229.05 206.69C228.92 206.013 228.92 205.317 229.05 204.64C229.26 203.3 229.68 202.09 229.79 200.82C229.9 199.55 230.1 198.29 230.25 197.06C230.54 194.6 230.81 192.22 231.08 189.95C231.58 185.41 231.97 181.32 232.24 177.88C232.51 174.44 232.69 171.65 232.8 169.72L232.92 167.5C232.917 167.228 232.943 166.956 233 166.69Z"
            fill="#263238"
          />
          <path
            d="M224.17 202.3C224.164 202.535 224.12 202.768 224.04 202.99C223.979 203.258 223.892 203.519 223.78 203.77C223.649 204.113 223.495 204.447 223.32 204.77C222.878 205.618 222.327 206.405 221.68 207.11C220.884 207.964 219.979 208.71 218.99 209.33C217.99 209.936 216.914 210.407 215.79 210.73C214.871 210.985 213.923 211.119 212.97 211.13C212.604 211.157 212.236 211.157 211.87 211.13C211.597 211.112 211.326 211.072 211.06 211.01C210.824 210.979 210.595 210.911 210.38 210.81C210.38 210.71 211.38 210.91 212.95 210.81C213.865 210.745 214.77 210.581 215.65 210.32C216.723 209.979 217.753 209.516 218.72 208.94C219.669 208.34 220.545 207.632 221.33 206.83C221.967 206.165 222.527 205.43 223 204.64C223.81 203.23 224.07 202.27 224.17 202.3Z"
            fill="#263238"
          />
          <g opacity="0.2">
            <path
              opacity="0.2"
              d="M247.37 254.12C257.37 260.05 269.63 261.47 281.14 259.72C283.048 259.513 284.906 258.975 286.63 258.13C287.486 257.697 288.237 257.082 288.831 256.329C289.425 255.576 289.848 254.703 290.07 253.77C290.262 252.827 290.121 251.847 289.673 250.996C289.225 250.145 288.496 249.475 287.61 249.1C285.78 248.48 283.84 249.48 282.11 250.35C271.174 255.812 258.616 257.078 246.81 253.91"
              fill="black"
            />
          </g>
          <path
            d="M294 255C293.87 255.126 293.726 255.237 293.57 255.33C293.27 255.53 292.85 255.86 292.25 256.2C290.592 257.198 288.836 258.022 287.01 258.66C280.928 260.673 274.461 261.245 268.12 260.33C261.824 259.38 255.655 257.723 249.73 255.39C247.45 254.53 245.62 253.8 244.36 253.28L242.91 252.67C242.739 252.604 242.574 252.52 242.42 252.42C242.601 252.454 242.778 252.504 242.95 252.57L244.43 253.09L249.86 255.04C255.787 257.265 261.93 258.863 268.19 259.81C274.457 260.713 280.847 260.2 286.89 258.31C288.708 257.706 290.469 256.939 292.15 256.02C293.34 255.39 294 255 294 255Z"
            fill="#263238"
          />
          <g opacity="0.2">
            <path
              opacity="0.2"
              d="M293.43 234.29C296.43 231.29 296.43 225.88 295.83 221.67C295.23 217.46 293.6 213.42 293.03 209.19C292.49 205.19 292.88 201.1 292.7 197.05C292.52 193 291.65 188.78 289.02 185.71C287.467 202.037 288.963 218.51 293.43 234.29Z"
              fill="black"
            />
          </g>
          <g opacity="0.2">
            <path
              opacity="0.2"
              d="M265 190.35C264.54 193.01 265 195.8 264.77 198.52C264.455 201.234 264.455 203.976 264.77 206.69C265.097 209.429 266.358 211.972 268.34 213.89C269.339 214.828 270.579 215.468 271.921 215.74C273.264 216.012 274.655 215.905 275.94 215.43C277.185 214.825 278.219 213.858 278.904 212.655C279.589 211.452 279.895 210.07 279.78 208.69C277.974 209.573 275.964 209.953 273.96 209.79C271.951 209.621 270.074 208.717 268.69 207.25C266.83 204.953 265.797 202.096 265.76 199.14C265.57 196.22 265.21 193.23 264.97 190.35"
              fill="black"
            />
          </g>
          <path
            d="M231.62 182.85C231.272 182.978 230.909 183.059 230.54 183.09C229.84 183.2 228.83 183.35 227.54 183.5C224.248 183.941 220.912 183.941 217.62 183.5C214.292 183.043 211.15 181.692 208.53 179.59C207.75 178.944 207.051 178.205 206.45 177.39C206.217 177.101 206.025 176.782 205.88 176.44C206.752 177.481 207.716 178.442 208.76 179.31C211.384 181.268 214.458 182.534 217.7 182.99C220.951 183.406 224.24 183.446 227.5 183.11L230.5 182.87C230.871 182.82 231.247 182.813 231.62 182.85Z"
            fill="#FAFAFA"
          />
          <path
            d="M230.21 190.53C229.872 190.697 229.517 190.825 229.15 190.91C228.73 191.044 228.303 191.154 227.87 191.24C227.37 191.34 226.8 191.48 226.15 191.56C224.644 191.784 223.122 191.885 221.6 191.86C219.735 191.811 217.877 191.597 216.05 191.22C214.229 190.811 212.448 190.239 210.73 189.51C209.339 188.906 208.001 188.186 206.73 187.36C206.18 187.03 205.73 186.66 205.3 186.36C204.95 186.104 204.616 185.827 204.3 185.53C203.999 185.304 203.727 185.042 203.49 184.75C203.56 184.67 204.76 185.75 206.96 187.05C208.242 187.814 209.579 188.482 210.96 189.05C214.357 190.462 217.983 191.244 221.66 191.36C223.156 191.406 224.653 191.342 226.14 191.17C228.65 190.89 230.18 190.43 230.21 190.53Z"
            fill="#FAFAFA"
          />
          <path
            d="M264.19 189.28C264.19 189.42 256.93 189.35 247.99 189.12C239.05 188.89 231.79 188.59 231.8 188.44C231.81 188.29 239.05 188.37 248 188.6C256.95 188.83 264.19 189.13 264.19 189.28Z"
            fill="#FAFAFA"
          />
          <path
            d="M265.23 197.35C264.802 197.536 264.357 197.677 263.9 197.77C263.04 198.01 261.78 198.3 260.2 198.61C256.096 199.399 251.929 199.818 247.75 199.86C243.569 199.897 239.392 199.563 235.27 198.86C233.69 198.58 232.42 198.32 231.56 198.09C231.101 198.006 230.652 197.875 230.22 197.7C230.684 197.725 231.146 197.788 231.6 197.89C232.47 198.06 233.75 198.27 235.33 198.49C243.564 199.684 251.933 199.596 260.14 198.23C261.71 197.97 262.98 197.73 263.86 197.55C264.31 197.445 264.768 197.378 265.23 197.35Z"
            fill="#FAFAFA"
          />
          <path
            d="M284 195.87C283.936 196.135 283.824 196.386 283.67 196.61C283.284 197.25 282.786 197.815 282.2 198.28C280.211 199.778 277.723 200.454 275.25 200.17C272.833 199.843 270.51 199.015 268.43 197.74C267.537 197.283 266.702 196.722 265.94 196.07C266.855 196.463 267.743 196.914 268.6 197.42C270.682 198.568 272.956 199.327 275.31 199.66C277.668 199.936 280.045 199.346 282 198C282.757 197.38 283.429 196.664 284 195.87Z"
            fill="#FAFAFA"
          />
          <path
            d="M288.52 189.73C287.718 190.158 286.843 190.433 285.94 190.54C285.074 190.811 284.164 190.913 283.26 190.84C284.061 190.41 284.937 190.135 285.84 190.03C286.706 189.759 287.616 189.657 288.52 189.73Z"
            fill="#FAFAFA"
          />
          <path
            d="M298.19 190.05C296.77 191.056 295.201 191.832 293.54 192.35C291.947 193.019 290.261 193.437 288.54 193.59C288.54 193.44 290.74 192.84 293.4 191.86C296.06 190.88 298.12 189.92 298.19 190.05Z"
            fill="#FAFAFA"
          />
          <path
            d="M295 180.47C294.008 180.867 292.98 181.169 291.93 181.37C290.93 181.749 289.895 182.027 288.84 182.2C290.673 181.017 292.819 180.414 295 180.47Z"
            fill="#FAFAFA"
          />
          <path
            d="M289.55 176.81C289.572 177.006 289.572 177.204 289.55 177.4L289.4 179.08C289.33 179.81 289.25 180.7 289.18 181.74C289.11 182.78 289 183.96 288.95 185.26C288.78 187.88 288.7 190.99 288.68 194.45C288.66 197.91 288.79 201.72 289.03 205.7C289.27 209.68 289.69 213.47 290.12 216.91C290.55 220.35 291.07 223.42 291.57 225.99C291.8 227.28 292.05 228.43 292.26 229.45C292.47 230.47 292.65 231.35 292.82 232.06C292.99 232.77 293.08 233.28 293.18 233.71C293.237 233.898 293.267 234.093 293.27 234.29C293.184 234.112 293.12 233.924 293.08 233.73L292.62 232.11C292.42 231.4 292.2 230.53 291.97 229.51C291.74 228.49 291.46 227.34 291.21 226.06C290.66 223.49 290.15 220.41 289.65 216.97C289.15 213.53 288.78 209.73 288.51 205.74C288.24 201.75 288.18 197.92 288.2 194.45C288.22 190.98 288.36 187.86 288.58 185.24C288.66 183.93 288.79 182.75 288.89 181.71C288.99 180.67 289.1 179.78 289.2 179.06C289.3 178.34 289.38 177.82 289.44 177.39C289.451 177.193 289.488 176.998 289.55 176.81Z"
            fill="#263238"
          />
          <g opacity="0.2">
            <path
              opacity="0.2"
              d="M267.73 188.55C269.238 189.512 270.962 190.083 272.745 190.214C274.529 190.345 276.318 190.031 277.95 189.3C278.328 189.099 278.732 188.951 279.15 188.86C279.36 188.822 279.576 188.842 279.775 188.918C279.974 188.993 280.149 189.122 280.28 189.29C280.394 189.561 280.424 189.86 280.367 190.149C280.31 190.437 280.168 190.702 279.96 190.91C279.18 191.828 278.154 192.504 277.002 192.859C275.85 193.213 274.621 193.231 273.46 192.91C271.134 192.211 269.154 190.666 267.91 188.58"
              fill="black"
            />
          </g>
          <path
            d="M249 103.13C248.387 100.858 248.005 98.5291 247.86 96.18C247.708 93.8144 248.265 91.4571 249.46 89.41C250.064 88.3961 250.906 87.5448 251.913 86.9297C252.92 86.3146 254.062 85.9543 255.24 85.88C256.69 85.88 258.15 86.35 259.58 86.09C261.23 85.79 262.52 84.54 263.93 83.63C266.148 82.1816 268.778 81.4969 271.42 81.68C272.794 81.7446 274.12 82.2028 275.24 83C275.804 83.3882 276.261 83.9125 276.569 84.5243C276.877 85.1361 277.025 85.8156 277 86.5C278.669 86.1743 280.373 86.0667 282.07 86.18C283.782 86.3083 285.376 87.1015 286.51 88.39C287.054 89.0437 287.375 89.8538 287.427 90.7025C287.479 91.5513 287.26 92.3946 286.8 93.11C287.566 92.8934 288.385 92.9663 289.101 93.3149C289.816 93.6635 290.378 94.2633 290.68 95C290.95 95.754 291 96.5695 290.822 97.3506C290.645 98.1318 290.249 98.8462 289.68 99.41C288.262 100.599 286.471 101.251 284.62 101.25C282.95 101.275 281.294 100.934 279.77 100.25"
            fill="#263238"
          />
          <path
            d="M254.55 156.12C256.189 156.501 257.891 156.528 259.541 156.198C261.192 155.869 262.753 155.192 264.12 154.211C265.488 153.231 266.631 151.97 267.472 150.512C268.314 149.055 268.835 147.435 269 145.76C269.38 141.95 269.71 138.76 269.78 138.25C269.78 138.25 279.35 138.43 281.1 129.14C282.85 119.85 284.98 98.14 284.98 98.14C280.084 94.9369 274.422 93.0989 268.579 92.8159C262.735 92.5329 256.922 93.815 251.74 96.53L250.17 97.35L245.46 143.35C245.156 146.221 245.912 149.104 247.587 151.457C249.261 153.809 251.738 155.467 254.55 156.12Z"
            fill="#B78876"
          />
          <path
            d="M269.79 138.12C265.477 137.449 261.462 135.506 258.26 132.54C258.26 132.54 259.95 139.75 269.39 140.54L269.79 138.12Z"
            fill="#AA6550"
          />
          <path
            d="M249.6 107.24C249.45 107.14 243.53 104.24 242.6 110.63C241.67 117.02 248.3 116.63 248.34 116.44C248.38 116.25 249.6 107.24 249.6 107.24Z"
            fill="#B78876"
          />
          <path
            d="M246.75 113.74C246.75 113.74 246.63 113.8 246.43 113.86C246.148 113.936 245.847 113.9 245.59 113.76C245.214 113.439 244.93 113.023 244.769 112.555C244.607 112.087 244.573 111.585 244.67 111.1C244.726 110.548 244.911 110.017 245.21 109.55C245.302 109.353 245.441 109.182 245.616 109.053C245.79 108.923 245.995 108.84 246.21 108.81C246.342 108.795 246.476 108.827 246.587 108.9C246.699 108.973 246.781 109.083 246.82 109.21C246.88 109.4 246.82 109.53 246.82 109.54C246.82 109.55 246.97 109.45 246.95 109.18C246.94 109.016 246.873 108.86 246.76 108.74C246.601 108.586 246.391 108.497 246.17 108.49C245.899 108.507 245.637 108.592 245.408 108.737C245.179 108.882 244.991 109.083 244.86 109.32C244.504 109.834 244.284 110.429 244.22 111.05C244.107 111.616 244.163 112.202 244.382 112.736C244.601 113.269 244.972 113.727 245.45 114.05C245.614 114.13 245.793 114.171 245.975 114.171C246.157 114.171 246.336 114.13 246.5 114.05C246.72 113.89 246.77 113.75 246.75 113.74Z"
            fill="#AA6550"
          />
          <path
            d="M280.27 112.45C280.211 112.796 280.019 113.106 279.735 113.314C279.451 113.521 279.098 113.609 278.75 113.56C278.579 113.545 278.412 113.496 278.261 113.415C278.109 113.335 277.975 113.225 277.867 113.091C277.758 112.958 277.678 112.804 277.63 112.639C277.583 112.474 277.569 112.301 277.59 112.13C277.644 111.782 277.833 111.469 278.115 111.258C278.397 111.046 278.751 110.954 279.1 111C279.273 111.016 279.441 111.067 279.594 111.149C279.747 111.231 279.882 111.343 279.991 111.478C280.1 111.613 280.181 111.769 280.229 111.936C280.277 112.103 280.291 112.278 280.27 112.45Z"
            fill="#263238"
          />
          <path
            d="M280.89 111C280.69 111.15 279.82 110.22 278.38 110C276.94 109.78 275.78 110.28 275.65 110.08C275.52 109.88 275.81 109.7 276.33 109.45C277.024 109.131 277.799 109.033 278.55 109.17C279.307 109.281 280.008 109.631 280.55 110.17C280.89 110.57 281 110.91 280.89 111Z"
            fill="#263238"
          />
          <path
            d="M266.39 110C266.331 110.347 266.14 110.658 265.856 110.867C265.573 111.076 265.219 111.166 264.87 111.12C264.698 111.104 264.532 111.054 264.38 110.972C264.228 110.89 264.094 110.779 263.986 110.645C263.878 110.511 263.798 110.356 263.75 110.19C263.703 110.025 263.689 109.851 263.71 109.68C263.767 109.334 263.956 109.023 264.238 108.814C264.52 108.605 264.872 108.514 265.22 108.56C265.392 108.576 265.559 108.626 265.711 108.708C265.864 108.789 265.998 108.9 266.107 109.034C266.216 109.169 266.297 109.323 266.346 109.489C266.394 109.655 266.409 109.828 266.39 110Z"
            fill="#263238"
          />
          <path
            d="M266.77 108.77C266.58 108.92 265.7 108 264.27 107.77C262.84 107.54 261.66 108.05 261.54 107.85C261.42 107.65 261.7 107.48 262.21 107.23C262.905 106.902 263.685 106.801 264.44 106.94C265.179 107.059 265.862 107.409 266.39 107.94C266.77 108.37 266.87 108.71 266.77 108.77Z"
            fill="#263238"
          />
          <path
            d="M270.11 120.3C270.907 120.195 271.713 120.195 272.51 120.3C272.88 120.3 273.24 120.3 273.34 120.07C273.458 119.706 273.458 119.314 273.34 118.95C273.15 117.95 272.95 117.01 272.75 115.95C271.94 111.73 271.42 108.28 271.59 108.25C271.76 108.22 272.59 111.62 273.36 115.84C273.55 116.84 273.74 117.84 273.91 118.84C274.059 119.322 274.038 119.841 273.85 120.31C273.775 120.431 273.672 120.533 273.551 120.607C273.429 120.682 273.292 120.727 273.15 120.74C272.941 120.766 272.729 120.766 272.52 120.74C271.701 120.695 270.892 120.547 270.11 120.3Z"
            fill="#263238"
          />
          <path
            d="M265.72 120.55C265.96 120.55 265.72 122.13 266.83 123.47C267.94 124.81 269.65 124.92 269.62 125.14C269.59 125.36 269.2 125.38 268.5 125.27C267.585 125.128 266.752 124.664 266.15 123.96C265.574 123.289 265.277 122.423 265.32 121.54C265.38 120.88 265.62 120.52 265.72 120.55Z"
            fill="#263238"
          />
          <path
            d="M280.8 108.36C280.49 108.64 279.57 108.13 278.39 107.91C277.21 107.69 276.16 107.74 275.99 107.36C275.91 107.18 276.13 106.88 276.62 106.65C277.273 106.384 277.991 106.318 278.682 106.46C279.372 106.603 280.005 106.947 280.5 107.45C280.86 107.86 280.94 108.22 280.8 108.36Z"
            fill="#263238"
          />
          <path
            d="M265.82 103.27C265.63 103.42 265.27 103.27 264.82 103.11C264.262 102.883 263.687 102.699 263.1 102.56C262.506 102.452 261.904 102.388 261.3 102.37C260.81 102.37 260.43 102.37 260.3 102.12C260.17 101.87 260.4 101.54 260.97 101.22C261.739 100.851 262.609 100.749 263.442 100.93C264.275 101.111 265.024 101.565 265.57 102.22C266 102.7 266 103.14 265.82 103.27Z"
            fill="#263238"
          />
          <path
            d="M284.91 101.12C280.208 101.551 275.491 100.476 271.44 98.05C266.94 95.38 261.57 93.84 260.3 94.69C259.03 95.54 258.43 100.34 253.7 101.41C253.7 101.41 253.35 110.62 249.7 110.03C246.05 109.44 249.38 95.37 249.38 95.37L258.66 91.64L268.58 90.51L277.74 91.18L286.07 94.42L284.91 101.12Z"
            fill="#263238"
          />
          <path
            d="M137 213L138.94 215.47C138.94 215.47 148.54 200.1 159.68 198.52C159.995 198.668 160.341 198.739 160.689 198.727C161.036 198.715 161.376 198.62 161.68 198.45L165.28 196.36C165.654 196.129 165.95 195.791 166.128 195.39C166.307 194.988 166.36 194.542 166.28 194.11C166.28 194.11 171.65 184.58 183.1 183.11L187.28 182.32L158.55 156L113.82 174.19L137 213Z"
            fill="#9A3A88"
          />
          <path
            d="M132.23 210.94L135.62 215.47C135.62 215.47 143.43 197.86 162.86 196.62L143.74 176.86C143.74 176.86 129.94 205.51 132.23 210.94Z"
            fill="#EBEBEB"
          />
          <path
            d="M106.05 179.3C106.05 179.3 113.46 155.39 138.05 164.13L162.9 196.62C162.9 196.62 137.41 192 131.42 213L106.05 179.3Z"
            fill="#F5F5F5"
          />
          <path
            d="M162.86 196.62C162.86 196.62 170.54 177.84 187.31 180.15L162.86 151.73L138.86 165.25L162.86 196.62Z"
            fill="#EBEBEB"
          />
          <path
            d="M138 164.17C138 164.17 135.21 149.97 146.18 143.78L153.37 140.04L178.52 168.2C178.52 168.2 161.15 177.69 162.85 196.66L138 164.17Z"
            fill="#F5F5F5"
          />
          <path
            d="M162.86 196.62C162.488 196.247 162.153 195.838 161.86 195.4C161.16 194.52 160.26 193.4 159.16 191.96C156.86 188.96 153.77 184.96 150.36 180.56L141.53 169.17L138.84 165.73C138.489 165.325 138.175 164.89 137.9 164.43C138.291 164.796 138.659 165.187 139 165.6C139.68 166.37 140.64 167.52 141.82 168.94C144.17 171.78 147.34 175.78 150.77 180.24C154.2 184.7 157.27 188.77 159.46 191.74L162.02 195.28C162.336 195.703 162.617 196.151 162.86 196.62Z"
            fill="#263238"
          />
          <path
            d="M153.92 148.32C152.933 148.707 151.971 149.154 151.04 149.66C148.869 151.007 146.983 152.767 145.49 154.84C143.949 156.883 142.837 159.216 142.22 161.7C141.79 163.61 141.85 164.85 141.74 164.85C141.674 164.565 141.647 164.272 141.66 163.98C141.639 163.188 141.706 162.397 141.86 161.62C142.387 159.046 143.483 156.624 145.07 154.53C146.597 152.397 148.573 150.625 150.86 149.34C151.555 148.957 152.294 148.658 153.06 148.45C153.338 148.364 153.628 148.32 153.92 148.32Z"
            fill="#263238"
          />
          <path
            d="M166.31 160.2C166.31 160.3 165.18 160.81 163.52 162.01C162.557 162.71 161.657 163.493 160.83 164.35C159.822 165.409 158.921 166.564 158.14 167.8C157.382 169.046 156.746 170.362 156.24 171.73C155.842 172.852 155.541 174.006 155.34 175.18C155 177.18 155.05 178.48 154.95 178.48C154.876 178.186 154.842 177.883 154.85 177.58C154.83 177.23 154.83 176.88 154.85 176.53C154.856 176.061 154.892 175.594 154.96 175.13C155.116 173.919 155.39 172.727 155.78 171.57C156.278 170.175 156.918 168.835 157.69 167.57C158.49 166.308 159.422 165.135 160.47 164.07C161.334 163.208 162.282 162.434 163.3 161.76C163.687 161.496 164.087 161.252 164.5 161.03C164.821 160.849 165.156 160.692 165.5 160.56C165.751 160.401 166.024 160.28 166.31 160.2Z"
            fill="#263238"
          />
          <path
            d="M170.32 163.59C170.32 163.69 169.08 164.25 167.32 165.59C166.28 166.371 165.303 167.234 164.4 168.17C163.305 169.327 162.302 170.568 161.4 171.88C160.527 173.209 159.764 174.607 159.12 176.06C158.606 177.254 158.205 178.492 157.92 179.76C157.44 181.92 157.51 183.32 157.41 183.32C157.326 182.994 157.296 182.656 157.32 182.32C157.292 181.937 157.292 181.553 157.32 181.17C157.349 180.662 157.416 180.158 157.52 179.66C157.758 178.355 158.129 177.078 158.63 175.85C159.264 174.353 160.034 172.917 160.93 171.56C161.842 170.219 162.869 168.961 164 167.8C164.924 166.868 165.928 166.018 167 165.26C167.415 164.966 167.845 164.696 168.29 164.45C168.611 164.251 168.945 164.074 169.29 163.92C169.617 163.764 169.963 163.653 170.32 163.59Z"
            fill="#263238"
          />
          <path
            d="M172.83 166.81C172.83 166.9 171.59 167.46 169.83 168.81C168.804 169.615 167.847 170.505 166.97 171.47C165.91 172.666 164.95 173.947 164.1 175.3C163.266 176.663 162.543 178.091 161.94 179.57C161.463 180.783 161.088 182.034 160.82 183.31C160.37 185.49 160.44 186.89 160.33 186.89C160.262 186.561 160.235 186.225 160.25 185.89C160.217 185.507 160.217 185.123 160.25 184.74C160.272 184.23 160.332 183.721 160.43 183.22C160.64 181.908 160.975 180.618 161.43 179.37C162.024 177.854 162.746 176.392 163.59 175C164.472 173.623 165.476 172.328 166.59 171.13C167.5 170.156 168.505 169.274 169.59 168.5C169.995 168.189 170.423 167.908 170.87 167.66C171.189 167.455 171.523 167.274 171.87 167.12C172.171 166.965 172.495 166.86 172.83 166.81Z"
            fill="#263238"
          />
          <path
            d="M152.08 191.37C152.08 191.46 150.69 190.98 148.4 190.78C145.421 190.532 142.426 190.98 139.65 192.09C136.891 193.242 134.442 195.027 132.5 197.3C131.01 199.05 130.37 200.3 130.28 200.3C130.365 199.97 130.504 199.656 130.69 199.37C131.126 198.559 131.635 197.789 132.21 197.07C134.112 194.656 136.606 192.775 139.45 191.61C142.294 190.445 145.391 190.035 148.44 190.42C149.355 190.53 150.259 190.72 151.14 190.99C151.471 191.069 151.788 191.197 152.08 191.37Z"
            fill="#263238"
          />
          <path
            d="M148.79 187.27C148.79 187.36 147.4 186.88 145.11 186.68C142.129 186.406 139.126 186.856 136.356 187.991C133.587 189.126 131.132 190.913 129.2 193.2C127.71 194.95 127.07 196.25 126.99 196.2C127.075 195.87 127.214 195.556 127.4 195.27C127.836 194.459 128.345 193.689 128.92 192.97C130.822 190.556 133.316 188.675 136.16 187.51C139.004 186.345 142.101 185.935 145.15 186.32C146.065 186.43 146.969 186.62 147.85 186.89C148.181 186.969 148.497 187.097 148.79 187.27Z"
            fill="#263238"
          />
          <path
            d="M145.5 183.16C145.5 183.26 144.11 182.78 141.82 182.58C138.839 182.306 135.836 182.756 133.066 183.891C130.297 185.026 127.842 186.813 125.91 189.1C124.42 190.85 123.78 192.1 123.7 192.1C123.782 191.77 123.917 191.456 124.1 191.17C124.54 190.356 125.052 189.583 125.63 188.86C127.535 186.449 130.029 184.572 132.873 183.408C135.716 182.245 138.812 181.836 141.86 182.22C142.775 182.33 143.679 182.52 144.56 182.79C144.889 182.869 145.206 182.993 145.5 183.16Z"
            fill="#263238"
          />
          <path
            d="M142.21 179.06C142.21 179.16 140.81 178.68 138.53 178.48C135.549 178.204 132.545 178.652 129.775 179.788C127.005 180.923 124.55 182.711 122.62 185C121.13 186.75 120.49 188 120.4 188C120.498 187.678 120.636 187.369 120.81 187.08C121.246 186.264 121.759 185.49 122.34 184.77C124.244 182.361 126.737 180.484 129.578 179.321C132.42 178.158 135.514 177.747 138.56 178.13C139.479 178.235 140.387 178.426 141.27 178.7C141.599 178.776 141.915 178.897 142.21 179.06Z"
            fill="#263238"
          />
          <path
            d="M138.91 175C138.91 175.1 137.52 174.62 135.23 174.42C132.251 174.145 129.249 174.595 126.481 175.73C123.712 176.865 121.259 178.653 119.33 180.94C117.84 182.68 117.2 183.94 117.11 183.94C117.202 183.615 117.341 183.306 117.52 183.02C117.956 182.206 118.465 181.432 119.04 180.71C120.94 178.29 123.431 176.4 126.274 175.225C129.118 174.05 132.216 173.628 135.27 174C136.186 174.112 137.089 174.306 137.97 174.58C138.305 174.666 138.623 174.808 138.91 175Z"
            fill="#263238"
          />
          <path
            d="M135.62 170.86C135.62 170.95 134.23 170.48 131.94 170.28C128.954 169.999 125.944 170.445 123.169 171.58C120.393 172.716 117.933 174.507 116 176.8C114.51 178.54 113.87 179.8 113.78 179.8C113.867 179.47 114.006 179.157 114.19 178.87C114.629 178.061 115.137 177.291 115.71 176.57C117.617 174.145 120.12 172.256 122.976 171.089C125.831 169.921 128.941 169.515 132 169.91C132.916 170.022 133.819 170.216 134.7 170.49C135.024 170.565 135.334 170.69 135.62 170.86Z"
            fill="#263238"
          />
          <path
            d="M144.76 165.83L151.62 173.45C151.62 173.45 153.76 162.91 163.09 158.91L155.84 151.18C152.848 152.402 150.24 154.408 148.291 156.985C146.341 159.563 145.122 162.618 144.76 165.83Z"
            fill="#EBEBEB"
          />
          <path
            d="M169.4 88.76L168.4 90.99C168.4 90.99 182.49 92.14 187.58 99.3C187.585 99.5782 187.659 99.8508 187.795 100.093C187.931 100.336 188.125 100.541 188.36 100.69L191.1 102.44C191.393 102.619 191.734 102.704 192.077 102.685C192.42 102.665 192.749 102.541 193.02 102.33C195.719 102.556 198.337 103.363 200.695 104.695C203.053 106.028 205.094 107.854 206.68 110.05L208.73 112.66L217.82 82.32L188 58.81L169.4 88.76Z"
            fill="#9A3A88"
          />
          <path
            d="M169.13 84.73L167.2 88.73C167.2 88.73 182.2 87.84 190.02 100.86L196.88 80.53C196.88 80.53 172.07 81.2 169.13 84.73Z"
            fill="#EBEBEB"
          />
          <path
            d="M181.69 55.26C181.69 55.26 200.92 51.83 203.69 71.98L190 100.84C190 100.84 184.07 81.56 167.39 84.91L181.69 55.26Z"
            fill="#F5F5F5"
          />
          <path
            d="M190 100.84C190 100.84 205.78 99.44 210.18 111.84L221.18 84.71L203.18 73L190 100.84Z"
            fill="#EBEBEB"
          />
          <path
            d="M203.62 72C203.62 72 212.47 65 220.69 70.37L225.85 74L215.34 101.51C215.34 101.51 202.54 92.88 190 100.85L203.62 72Z"
            fill="#F5F5F5"
          />
          <path
            d="M190 100.84C190.112 100.435 190.266 100.043 190.46 99.67C190.83 98.84 191.3 97.8 191.86 96.57L196.6 86.37L201.35 76.18L202.78 73.09C202.934 72.6989 203.132 72.3265 203.37 71.98C203.279 72.3896 203.145 72.7884 202.97 73.17C202.69 73.93 202.24 75 201.68 76.33C200.56 78.98 198.93 82.61 197.07 86.59C195.21 90.57 193.48 94.15 192.19 96.73C191.55 98.01 191.02 99.05 190.64 99.73C190.474 100.125 190.259 100.498 190 100.84Z"
            fill="#263238"
          />
          <path
            d="M220.67 76.76C220.61 76.83 219.83 76.22 218.4 75.51C214.675 73.6562 210.381 73.2984 206.4 74.51C204.89 74.98 204.01 75.51 203.97 75.38C203.93 75.25 204.15 75.21 204.54 74.97C205.095 74.6493 205.677 74.3783 206.28 74.16C208.283 73.423 210.423 73.1329 212.55 73.31C214.677 73.4767 216.743 74.0974 218.61 75.13C219.171 75.4424 219.703 75.8038 220.2 76.21C220.51 76.56 220.69 76.73 220.67 76.76Z"
            fill="#263238"
          />
          <path
            d="M219.87 80.08C219.81 80.15 219.02 79.54 217.6 78.83C213.875 76.9763 209.581 76.6185 205.6 77.83C204.08 78.3 203.21 78.83 203.16 78.7C203.11 78.57 203.35 78.53 203.74 78.29C204.294 77.9674 204.876 77.6962 205.48 77.48C207.483 76.7415 209.623 76.4513 211.75 76.63C213.874 76.7951 215.937 77.4159 217.8 78.45C218.362 78.7599 218.895 79.1214 219.39 79.53C219.71 79.88 219.89 80.05 219.87 80.08Z"
            fill="#263238"
          />
          <path
            d="M218.37 83.38C218.32 83.46 217.53 82.84 216.11 82.13C214.251 81.224 212.241 80.6713 210.18 80.5C208.119 80.3405 206.046 80.5712 204.07 81.18C202.56 81.66 201.68 82.18 201.64 82.06C201.6 81.94 201.83 81.88 202.22 81.65C202.771 81.3193 203.354 81.0446 203.96 80.83C205.962 80.1019 208.097 79.812 210.22 79.98C212.349 80.1433 214.417 80.7677 216.28 81.81C216.843 82.1188 217.375 82.4804 217.87 82.89C218.22 83.18 218.4 83.35 218.37 83.38Z"
            fill="#263238"
          />
          <path
            d="M217.44 86.68C217.38 86.76 216.59 86.14 215.17 85.43C211.445 83.5762 207.151 83.2184 203.17 84.43C201.65 84.91 200.78 85.43 200.73 85.31C200.68 85.19 200.92 85.13 201.31 84.9C201.861 84.5693 202.444 84.2946 203.05 84.08C205.055 83.3511 207.193 83.0612 209.32 83.23C211.446 83.3932 213.51 84.0176 215.37 85.06C215.935 85.3663 216.467 85.7281 216.96 86.14C217.28 86.48 217.46 86.65 217.44 86.68Z"
            fill="#263238"
          />
          <path
            d="M216.5 90.19C216.45 90.26 215.66 89.65 214.24 88.94C212.382 88.0327 210.371 87.4799 208.31 87.31C206.252 87.1498 204.182 87.3805 202.21 87.99C200.69 88.46 199.82 88.99 199.77 88.86C199.72 88.73 199.96 88.69 200.35 88.45C200.904 88.1274 201.486 87.8562 202.09 87.64C204.095 86.9111 206.233 86.6212 208.36 86.79C210.469 86.9603 212.515 87.5845 214.36 88.62C214.942 88.9234 215.491 89.2853 216 89.7C216.35 90 216.53 90.16 216.5 90.19Z"
            fill="#263238"
          />
          <path
            d="M215.59 94.18C215.53 94.26 214.68 93.59 213.12 92.85C212.207 92.4132 211.26 92.0487 210.29 91.76C209.1 91.4255 207.887 91.1815 206.66 91.03C205.428 90.8971 204.187 90.867 202.95 90.94C201.938 91.0112 200.934 91.1718 199.95 91.42C198.28 91.85 197.33 92.42 197.28 92.3C197.469 92.1239 197.685 91.9788 197.92 91.87C198.178 91.7166 198.449 91.5861 198.73 91.48C199.093 91.3169 199.467 91.1798 199.85 91.07C200.827 90.7664 201.832 90.5621 202.85 90.46C204.116 90.3627 205.387 90.3794 206.65 90.51C207.911 90.6632 209.156 90.9276 210.37 91.3C211.356 91.6167 212.31 92.0251 213.22 92.52C213.567 92.7001 213.901 92.9039 214.22 93.13C214.474 93.2865 214.715 93.4638 214.94 93.66C215.42 94 215.61 94.16 215.59 94.18Z"
            fill="#263238"
          />
          <path
            d="M214.26 97.07C214.2 97.15 213.35 96.47 211.77 95.76C210.842 95.3499 209.882 95.0155 208.9 94.76C207.694 94.462 206.467 94.2581 205.23 94.15C203.992 94.0492 202.748 94.0492 201.51 94.15C200.496 94.2473 199.493 94.4313 198.51 94.7C196.84 95.15 195.89 95.7 195.84 95.6C195.79 95.5 196.05 95.42 196.48 95.17C196.74 95.0169 197.011 94.8832 197.29 94.77C197.654 94.604 198.028 94.4604 198.41 94.34C199.387 94.0225 200.391 93.7982 201.41 93.67C202.675 93.53 203.951 93.5065 205.22 93.6C206.492 93.7059 207.75 93.9302 208.98 94.27C209.983 94.5548 210.955 94.9401 211.88 95.42C212.225 95.5964 212.559 95.7934 212.88 96.01C213.137 96.1667 213.382 96.3439 213.61 96.54C214.09 96.86 214.29 97.05 214.26 97.07Z"
            fill="#263238"
          />
          <path
            d="M189.81 91.49C189.72 91.49 189.54 90.39 188.86 88.74C187.968 86.6031 186.6 84.698 184.86 83.17C183.079 81.6748 180.973 80.6167 178.71 80.08C176.97 79.66 175.85 79.66 175.85 79.57C176.107 79.4986 176.375 79.4749 176.64 79.5C177.362 79.5076 178.082 79.5812 178.79 79.72C181.154 80.1676 183.36 81.2226 185.192 82.7813C187.024 84.34 188.42 86.3488 189.24 88.61C189.493 89.2864 189.678 89.9866 189.79 90.7C189.843 90.9602 189.85 91.2276 189.81 91.49Z"
            fill="#263238"
          />
          <path
            d="M191.47 87.74C191.38 87.74 191.21 86.64 190.52 84.99C189.637 82.8385 188.252 80.9292 186.481 79.4211C184.71 77.913 182.605 76.8498 180.34 76.32C178.6 75.91 177.47 75.91 177.47 75.82C177.727 75.7486 177.995 75.7249 178.26 75.75C178.981 75.7583 179.701 75.8286 180.41 75.96C182.775 76.4085 184.982 77.465 186.814 79.0256C188.647 80.5861 190.041 82.5969 190.86 84.86C191.111 85.5378 191.299 86.2375 191.42 86.95C191.487 87.2078 191.504 87.4759 191.47 87.74Z"
            fill="#263238"
          />
          <path
            d="M193.14 84C193.05 84 192.87 82.9 192.14 81.25C191.262 79.1013 189.884 77.193 188.12 75.6834C186.357 74.1739 184.259 73.1065 182 72.57C180.26 72.16 179.13 72.16 179.14 72.07C179.397 71.9986 179.665 71.9749 179.93 72C180.651 72.0083 181.371 72.0786 182.08 72.21C184.443 72.6627 186.648 73.7204 188.48 75.28C190.307 76.845 191.701 78.8523 192.53 81.11C192.779 81.7879 192.963 82.4876 193.08 83.2C193.147 83.461 193.168 83.7319 193.14 84Z"
            fill="#263238"
          />
          <path
            d="M194.8 80.24C194.71 80.24 194.54 79.14 193.8 77.49C192.916 75.3369 191.53 73.4264 189.757 71.9181C187.985 70.4099 185.877 69.3476 183.61 68.82C181.88 68.41 180.75 68.41 180.75 68.32C181.007 68.2486 181.275 68.2249 181.54 68.25C182.262 68.2532 182.981 68.3235 183.69 68.46C186.057 68.9038 188.266 69.9586 190.099 71.5198C191.932 73.081 193.325 75.0943 194.14 77.36C194.39 78.0349 194.577 78.7311 194.7 79.44C194.784 79.698 194.818 79.9694 194.8 80.24Z"
            fill="#263238"
          />
          <path
            d="M196.47 76.49C196.38 76.49 196.2 75.39 195.47 73.74C194.586 71.5885 193.202 69.6792 191.431 68.1711C189.66 66.663 187.555 65.5998 185.29 65.07C183.55 64.66 182.42 64.66 182.43 64.57C182.687 64.4986 182.955 64.4749 183.22 64.5C183.942 64.4981 184.662 64.5685 185.37 64.71C187.735 65.1576 189.943 66.2137 191.775 67.7744C193.608 69.3351 195.002 71.3464 195.82 73.61C196.062 74.2864 196.246 74.9822 196.37 75.69C196.45 75.9488 196.484 76.2196 196.47 76.49Z"
            fill="#263238"
          />
          <path
            d="M198.13 72.73C198.04 72.73 197.87 71.64 197.18 69.99C196.297 67.838 194.913 65.9283 193.142 64.4201C191.371 62.912 189.265 61.849 187 61.32C185.26 60.9 184.14 60.91 184.14 60.82C184.397 60.7486 184.665 60.7249 184.93 60.75C185.652 60.7481 186.372 60.8185 187.08 60.96C189.445 61.4076 191.653 62.4637 193.485 64.0244C195.318 65.5851 196.712 67.5964 197.53 69.86C197.782 70.5334 197.966 71.2302 198.08 71.94C198.143 72.1984 198.16 72.4658 198.13 72.73Z"
            fill="#263238"
          />
          <path
            d="M354.3 183.7L352.62 186.36C352.62 186.36 370.3 190.29 375.51 200.27C375.47 200.625 375.518 200.985 375.649 201.318C375.779 201.651 375.989 201.947 376.26 202.18L379.43 204.88C379.77 205.158 380.186 205.327 380.624 205.363C381.062 205.398 381.5 205.3 381.88 205.08C381.88 205.08 392.65 206.97 397.88 217.27L400 221L416.88 184L383.2 149L354.3 183.7Z"
            fill="#9A3A88"
          />
          <path
            d="M354.67 178.55L351.52 183.26C351.52 183.26 370.73 184.76 378.37 202.66L390.63 178.05C390.63 178.05 359 174.58 354.67 178.55Z"
            fill="#EBEBEB"
          />
          <path
            d="M375.78 143.33C375.78 143.33 400.78 142.33 400.78 168.41L378.42 202.66C378.42 202.66 374.26 177.14 352.51 178.48L375.78 143.33Z"
            fill="#F5F5F5"
          />
          <path
            d="M378.37 202.66C378.37 202.66 398.64 203.66 402.04 220.23L420.7 187.71L400 169.59L378.37 202.66Z"
            fill="#EBEBEB"
          />
          <path
            d="M400.69 168.43C400.69 168.43 413.15 161.06 422.64 169.35L428.56 174.88L410.39 208C410.39 208 395.65 194.79 378.33 202.71L400.69 168.43Z"
            fill="#F5F5F5"
          />
          <path
            d="M378.37 202.66C378.595 202.174 378.862 201.708 379.17 201.27L381.51 197.59C383.57 194.42 386.31 190.18 389.34 185.49L397.14 173.37L399.48 169.69C399.746 169.225 400.05 168.784 400.39 168.37C400.187 168.863 399.943 169.338 399.66 169.79C399.16 170.7 398.4 171.98 397.45 173.57C395.55 176.73 392.84 181.05 389.78 185.77C386.72 190.49 383.9 194.77 381.78 197.77L379.3 201.37C379.027 201.825 378.716 202.257 378.37 202.66Z"
            fill="#263238"
          />
          <path
            d="M421.5 177.46C421.43 177.53 420.55 176.6 418.87 175.46C417.887 174.783 416.846 174.194 415.76 173.7C414.428 173.107 413.041 172.645 411.62 172.32C410.192 172.018 408.739 171.854 407.28 171.83C406.087 171.826 404.896 171.926 403.72 172.13C401.72 172.48 400.52 172.96 400.49 172.86C400.738 172.688 401.011 172.557 401.3 172.47C401.626 172.333 401.96 172.216 402.3 172.12C402.743 171.979 403.194 171.863 403.65 171.77C404.843 171.51 406.059 171.369 407.28 171.35C408.775 171.349 410.267 171.503 411.73 171.81C413.191 172.141 414.612 172.627 415.97 173.26C417.069 173.792 418.113 174.428 419.09 175.16C419.51 175.46 419.85 175.78 420.17 176.05C420.437 176.279 420.688 176.526 420.92 176.79C421.143 176.986 421.338 177.211 421.5 177.46Z"
            fill="#263238"
          />
          <path
            d="M419.9 181.54C419.82 181.61 418.9 180.68 417.27 179.54C416.287 178.863 415.247 178.274 414.16 177.78C411.497 176.567 408.607 175.933 405.68 175.92C404.487 175.912 403.296 176.009 402.12 176.21C400.12 176.56 398.92 177.04 398.88 176.95C399.131 176.778 399.408 176.646 399.7 176.56C400.022 176.412 400.356 176.295 400.7 176.21C401.146 176.062 401.6 175.942 402.06 175.85C403.254 175.594 404.47 175.456 405.69 175.44C407.185 175.431 408.677 175.581 410.14 175.89C411.598 176.226 413.016 176.715 414.37 177.35C415.473 177.87 416.518 178.504 417.49 179.24C417.867 179.519 418.228 179.82 418.57 180.14C418.842 180.363 419.096 180.607 419.33 180.87C419.551 181.066 419.742 181.291 419.9 181.54Z"
            fill="#263238"
          />
          <path
            d="M417.42 185.47C417.35 185.54 416.47 184.61 414.79 183.47C413.805 182.797 412.765 182.208 411.68 181.71C410.346 181.122 408.96 180.66 407.54 180.33C406.112 180.031 404.659 179.871 403.2 179.85C402.007 179.848 400.817 179.945 399.64 180.14C397.64 180.5 396.44 180.97 396.41 180.88C396.66 180.711 396.932 180.58 397.22 180.49C397.544 180.349 397.878 180.232 398.22 180.14C398.663 179.996 399.114 179.876 399.57 179.78C400.764 179.524 401.98 179.387 403.2 179.37C404.695 179.365 406.186 179.515 407.65 179.82C409.11 180.159 410.531 180.648 411.89 181.28C412.99 181.809 414.035 182.446 415.01 183.18C415.389 183.453 415.75 183.75 416.09 184.07C416.359 184.296 416.613 184.54 416.85 184.8C417.24 185.2 417.45 185.44 417.42 185.47Z"
            fill="#263238"
          />
          <path
            d="M379.73 190.75C379.64 190.75 379.63 189.31 379.06 187.09C378.327 184.187 376.903 181.504 374.91 179.27C372.916 177.036 370.412 175.317 367.61 174.26C365.47 173.44 364.03 173.26 364.05 173.17C364.385 173.145 364.722 173.169 365.05 173.24C365.96 173.389 366.857 173.613 367.73 173.91C370.642 174.897 373.248 176.622 375.295 178.916C377.342 181.21 378.759 183.995 379.41 187C379.618 187.9 379.738 188.817 379.77 189.74C379.812 190.077 379.799 190.418 379.73 190.75Z"
            fill="#263238"
          />
          <path
            d="M382.5 186.28C382.41 186.28 382.4 184.84 381.83 182.62C381.097 179.718 379.675 177.036 377.683 174.802C375.691 172.569 373.189 170.849 370.39 169.79C368.24 168.97 366.8 168.79 366.82 168.7C367.155 168.675 367.492 168.699 367.82 168.77C368.73 168.919 369.627 169.143 370.5 169.44C373.41 170.429 376.014 172.154 378.059 174.448C380.104 176.742 381.52 179.526 382.17 182.53C382.378 183.43 382.498 184.347 382.53 185.27C382.582 185.606 382.572 185.948 382.5 186.28Z"
            fill="#263238"
          />
          <path
            d="M385.27 181.81C385.18 181.81 385.17 180.37 384.6 178.15C383.868 175.248 382.445 172.566 380.453 170.333C378.461 168.099 375.959 166.379 373.16 165.32C371.01 164.5 369.57 164.32 369.59 164.23C369.925 164.205 370.262 164.229 370.59 164.3C371.5 164.449 372.397 164.673 373.27 164.97C376.189 165.954 378.803 167.676 380.859 169.97C382.915 172.264 384.341 175.051 385 178.06C385.198 178.961 385.318 179.878 385.36 180.8C385.39 181.139 385.36 181.481 385.27 181.81Z"
            fill="#263238"
          />
          <path
            d="M388.05 177.34C387.95 177.34 387.94 175.9 387.37 173.68C386.637 170.778 385.215 168.096 383.223 165.862C381.231 163.629 378.729 161.909 375.93 160.85C373.78 160.03 372.35 159.85 372.36 159.76C372.695 159.735 373.032 159.759 373.36 159.83C374.27 159.979 375.167 160.203 376.04 160.5C378.95 161.491 381.554 163.217 383.6 165.51C385.647 167.804 387.066 170.587 387.72 173.59C387.918 174.491 388.038 175.408 388.08 176.33C388.119 176.666 388.109 177.007 388.05 177.34Z"
            fill="#263238"
          />
          <path
            d="M390.82 172.87C390.72 172.87 390.71 171.43 390.14 169.21C389.408 166.308 387.985 163.626 385.993 161.393C384.001 159.159 381.499 157.439 378.7 156.38C376.55 155.56 375.12 155.38 375.13 155.29C375.465 155.265 375.802 155.289 376.13 155.36C377.041 155.507 377.937 155.732 378.81 156.03C381.72 157.021 384.324 158.747 386.37 161.04C388.417 163.334 389.836 166.117 390.49 169.12C390.688 170.021 390.808 170.938 390.85 171.86C390.889 172.196 390.879 172.537 390.82 172.87Z"
            fill="#263238"
          />
          <path
            d="M393.59 168.4C393.49 168.4 393.48 166.96 392.91 164.74C392.177 161.838 390.755 159.156 388.763 156.922C386.771 154.689 384.269 152.969 381.47 151.91C379.32 151.09 377.89 150.91 377.9 150.82C378.235 150.795 378.572 150.819 378.9 150.89C379.811 151.037 380.707 151.262 381.58 151.56C384.49 152.551 387.094 154.277 389.14 156.57C391.187 158.864 392.606 161.647 393.26 164.65C393.458 165.551 393.578 166.468 393.62 167.39C393.659 167.726 393.649 168.067 393.59 168.4Z"
            fill="#263238"
          />
          <path
            d="M395.63 185.47L389.11 194.91C389.11 194.91 399.11 193.74 407.81 199.28L413.81 189.17C413.81 189.17 404.57 181.91 395.59 185.47"
            fill="#EBEBEB"
          />
          <path
            d="M335.18 72.83C335.44 71.3385 335.238 69.8032 334.6 68.43C334.028 67.0626 333.042 65.9086 331.78 65.13C331.099 64.7422 330.348 64.4947 329.57 64.4019C328.792 64.3092 328.003 64.3731 327.25 64.59C326.358 64.8623 325.545 65.346 324.88 66C324.701 65.1704 324.339 64.3913 323.82 63.72C323.338 63.0995 322.735 62.5836 322.047 62.2037C321.36 61.8237 320.602 61.5877 319.82 61.51C318.344 61.3991 316.87 61.7484 315.6 62.51C314.294 63.26 313.248 64.3902 312.6 65.75C311.791 67.4998 311.57 69.4643 311.97 71.35C312.504 73.3086 313.502 75.1095 314.88 76.6C317.07 79.12 319.99 82.33 319.99 82.33C319.99 82.33 323.76 81.04 326.99 80.33C328.978 79.9196 330.839 79.042 332.42 77.77C333.844 76.4602 334.811 74.7291 335.18 72.83Z"
            fill="#9A3A88"
          />
          <path
            d="M313.39 99.46C313.142 98.7809 312.688 98.1967 312.09 97.79C311.528 97.3648 310.845 97.13 310.14 97.12C309.544 97.1173 308.963 97.312 308.489 97.6738C308.016 98.0356 307.675 98.5441 307.52 99.12C307.127 98.696 306.609 98.4068 306.042 98.2937C305.475 98.1806 304.886 98.2493 304.36 98.49C303.728 98.8076 303.211 99.3145 302.88 99.94C302.516 100.562 302.355 101.282 302.42 102C302.508 102.913 302.891 103.773 303.51 104.45C304.201 105.124 305.045 105.622 305.97 105.9C307.48 106.4 309.46 107.01 309.46 107.01C309.46 107.01 310.69 105.58 311.84 104.48C312.558 103.83 313.11 103.017 313.45 102.11C313.714 101.243 313.693 100.314 313.39 99.46Z"
            fill="#9A3A88"
          />
          <path
            d="M171.57 247.13C171.713 246.424 171.637 245.691 171.35 245.03C171.092 244.373 170.638 243.811 170.05 243.42C169.54 243.107 168.94 242.969 168.344 243.029C167.748 243.089 167.188 243.342 166.75 243.75C166.637 243.185 166.35 242.669 165.928 242.276C165.506 241.883 164.972 241.633 164.4 241.56C163.704 241.493 163.004 241.647 162.4 242C161.762 242.337 161.242 242.86 160.91 243.5C160.504 244.324 160.378 245.258 160.55 246.16C160.781 247.1 161.234 247.971 161.87 248.7C162.87 249.92 164.24 251.49 164.24 251.49C164.24 251.49 166.05 250.92 167.6 250.59C168.553 250.421 169.451 250.027 170.22 249.44C170.903 248.832 171.375 248.023 171.57 247.13Z"
            fill="#9A3A88"
          />
          <path
            d="M370.2 248.35C370.029 247.945 369.744 247.597 369.38 247.35C369.022 247.089 368.593 246.942 368.15 246.93C368.169 247.201 368.1 247.47 367.953 247.698C367.807 247.926 367.591 248.101 367.337 248.197C367.083 248.292 366.805 248.303 366.544 248.228C366.284 248.153 366.054 247.996 365.89 247.78C365.674 247.686 365.441 247.638 365.205 247.638C364.969 247.638 364.736 247.686 364.52 247.78C364.124 247.976 363.799 248.291 363.59 248.68C363.361 249.073 363.259 249.527 363.3 249.98C363.359 250.554 363.601 251.094 363.99 251.52C364.426 251.943 364.958 252.255 365.54 252.43L367.73 253.13C367.73 253.13 368.5 252.22 369.22 251.53C369.668 251.125 370.011 250.617 370.22 250.05C370.396 249.496 370.389 248.9 370.2 248.35Z"
            fill="#9A3A88"
          />
          <path
            d="M182.58 214.77C182.423 214.343 182.136 213.976 181.76 213.72C181.406 213.45 180.975 213.303 180.53 213.3C180.295 213.3 180.063 213.349 179.847 213.444C179.632 213.539 179.439 213.677 179.28 213.85C179.092 214.055 178.955 214.302 178.88 214.57C178.706 214.385 178.494 214.238 178.26 214.14C178.045 214.049 177.814 214.002 177.58 214.002C177.346 214.002 177.115 214.049 176.9 214.14C176.501 214.337 176.176 214.656 175.97 215.05C175.741 215.439 175.639 215.89 175.68 216.34C175.737 216.915 175.979 217.455 176.37 217.88C176.804 218.307 177.336 218.619 177.92 218.79C178.86 219.11 180.11 219.49 180.11 219.49C180.11 219.49 180.88 218.59 181.6 217.9C182.048 217.49 182.39 216.979 182.6 216.41C182.765 215.875 182.758 215.301 182.58 214.77Z"
            fill="#9A3A88"
          />
          <path
            d="M357.88 88.86C357.711 88.453 357.426 88.105 357.06 87.86C356.702 87.5988 356.273 87.4523 355.83 87.44C355.596 87.4438 355.364 87.4944 355.149 87.5888C354.935 87.6833 354.741 87.8197 354.58 87.99C354.393 88.1944 354.259 88.4417 354.19 88.71C354.014 88.529 353.803 88.386 353.57 88.29C353.353 88.1984 353.12 88.1512 352.885 88.1512C352.65 88.1512 352.417 88.1984 352.2 88.29C351.811 88.5017 351.491 88.8206 351.279 89.2089C351.066 89.5971 350.969 90.0384 351 90.48C351.059 91.0541 351.301 91.594 351.69 92.02C352.126 92.4432 352.658 92.7553 353.24 92.93L355.43 93.63C355.43 93.63 356.2 92.72 356.92 92.03C357.368 91.6249 357.711 91.117 357.92 90.55C358.087 89.9968 358.073 89.4047 357.88 88.86Z"
            fill="#9A3A88"
          />
          <path
            d="M355.89 224.64C355.971 223.327 355.646 222.022 354.96 220.9C354.326 219.779 353.358 218.884 352.19 218.34C351.189 217.907 350.073 217.813 349.013 218.073C347.953 218.333 347.007 218.932 346.32 219.78C346.078 219.085 345.69 218.451 345.18 217.92C344.701 217.435 344.129 217.053 343.498 216.795C342.868 216.537 342.191 216.41 341.51 216.42C340.225 216.474 338.989 216.932 337.98 217.73C336.912 218.502 336.109 219.584 335.68 220.83C335.16 222.422 335.16 224.138 335.68 225.73C336.331 227.358 337.359 228.807 338.68 229.96C340.83 231.96 343.68 234.39 343.68 234.39C343.68 234.39 346.8 232.9 349.53 231.92C351.205 231.365 352.724 230.419 353.96 229.16C355.072 227.9 355.749 226.315 355.89 224.64Z"
            fill="#9A3A88"
          />
        </svg>