<svg width="369" height="301" viewBox="0 0 369 301" fill="none" xmlns="http://www.w3.org/2000/svg">
<path d="M327.595 104.68C322.892 102.114 320.756 104.25 319.01 102.114C317.265 99.9774 323.713 94.4167 310.884 88.8561C310.884 88.8561 310.035 76.8859 292.504 76.4567C274.973 76.0275 279.742 88.4364 274.973 91.4218C270.204 94.4072 268.984 89.7145 264.281 92.7094C259.579 95.7044 261.716 101.685 257.872 102.543C254.028 103.402 248.897 98.7279 244.194 101.685C239.492 104.641 239.492 107.245 237.346 107.245C235.2 107.245 230.936 105.538 228.371 107.245C225.805 108.953 222.81 111.061 222.81 111.061H331.019C331.019 111.061 332.306 107.245 327.595 104.68Z" fill="#9A3A88"/>
<path opacity="0.5" d="M327.595 104.68C322.892 102.114 320.756 104.25 319.01 102.114C317.265 99.9774 323.713 94.4167 310.884 88.8561C310.884 88.8561 310.035 76.8859 292.504 76.4567C274.973 76.0275 279.742 88.4364 274.973 91.4218C270.204 94.4072 268.984 89.7145 264.281 92.7094C259.579 95.7044 261.716 101.685 257.872 102.543C254.028 103.402 248.897 98.7279 244.194 101.685C239.492 104.641 239.492 107.245 237.346 107.245C235.2 107.245 230.936 105.538 228.371 107.245C225.805 108.953 222.81 111.061 222.81 111.061H331.019C331.019 111.061 332.306 107.245 327.595 104.68Z" fill="#9A3A88"/>
<path d="M163.827 49.9886C161.042 48.4721 159.773 49.7407 158.762 48.4721C157.751 47.2036 161.547 43.9129 153.993 40.6128C153.993 40.6128 153.488 33.5165 143.101 33.2685C132.714 33.0205 135.47 40.3648 132.714 42.1389C129.958 43.9129 129.166 41.1278 126.371 42.8924C123.577 44.6569 124.855 48.2146 122.556 48.7296C120.257 49.2447 117.234 46.4405 114.449 48.2146C111.664 49.9886 111.664 51.5147 110.395 51.5147C109.126 51.5147 106.58 50.4942 105.073 51.5147C103.566 52.5353 101.782 53.7943 101.782 53.7943H165.859C165.859 53.7943 166.622 51.5433 163.827 49.9886Z" fill="#9A3A88"/>
<path opacity="0.5" d="M163.827 49.9886C161.042 48.4721 159.773 49.7407 158.762 48.4721C157.751 47.2036 161.547 43.9129 153.993 40.6128C153.993 40.6128 153.488 33.5165 143.101 33.2685C132.714 33.0205 135.47 40.3648 132.714 42.1389C129.958 43.9129 129.166 41.1278 126.371 42.8924C123.577 44.6569 124.855 48.2146 122.556 48.7296C120.257 49.2447 117.234 46.4405 114.449 48.2146C111.664 49.9886 111.664 51.5147 110.395 51.5147C109.126 51.5147 106.58 50.4942 105.073 51.5147C103.566 52.5353 101.782 53.7943 101.782 53.7943H165.859C165.859 53.7943 166.622 51.5433 163.827 49.9886Z" fill="#9A3A88"/>
<path d="M202.904 261.284C194.892 256.906 191.249 260.55 188.33 256.906C185.411 253.263 196.342 243.801 174.49 234.33C174.49 234.33 173.031 213.928 143.168 213.203C113.304 212.478 121.306 233.595 113.295 238.698C105.283 243.801 103.098 235.78 95.0864 240.882C87.0745 245.985 90.7085 256.143 84.1559 257.641C77.6033 259.138 68.8951 251.078 60.845 256.181C52.7949 261.284 52.8331 265.653 49.1896 265.653C45.5461 265.653 38.259 262.734 33.9288 265.653C29.5985 268.571 24.4575 272.205 24.4575 272.205H208.732C208.732 272.205 210.916 265.653 202.904 261.284Z" fill="#9A3A88"/>
<path opacity="0.5" d="M202.904 261.284C194.892 256.906 191.249 260.55 188.33 256.906C185.411 253.263 196.342 243.801 174.49 234.33C174.49 234.33 173.031 213.928 143.168 213.203C113.304 212.478 121.306 233.595 113.295 238.698C105.283 243.801 103.098 235.78 95.0864 240.882C87.0745 245.985 90.7085 256.143 84.1559 257.641C77.6033 259.138 68.8951 251.078 60.845 256.181C52.7949 261.284 52.8331 265.653 49.1896 265.653C45.5461 265.653 38.259 262.734 33.9288 265.653C29.5985 268.571 24.4575 272.205 24.4575 272.205H208.732C208.732 272.205 210.916 265.653 202.904 261.284Z" fill="#9A3A88"/>
<g opacity="0.5">
<path opacity="0.5" d="M327.595 104.68C322.892 102.114 320.756 104.25 319.01 102.114C317.265 99.9774 323.713 94.4167 310.884 88.8561C310.884 88.8561 310.035 76.8859 292.504 76.4567C274.973 76.0275 279.742 88.4364 274.973 91.4218C270.204 94.4072 268.984 89.7145 264.281 92.7094C259.579 95.7044 261.716 101.685 257.872 102.543C254.028 103.402 248.897 98.7279 244.194 101.685C239.492 104.641 239.492 107.245 237.346 107.245C235.2 107.245 230.936 105.538 228.371 107.245C225.805 108.953 222.81 111.061 222.81 111.061H331.019C331.019 111.061 332.306 107.245 327.595 104.68Z" fill="white"/>
<path opacity="0.5" d="M327.595 104.68C322.892 102.114 320.756 104.25 319.01 102.114C317.265 99.9774 323.713 94.4167 310.884 88.8561C310.884 88.8561 310.035 76.8859 292.504 76.4567C274.973 76.0275 279.742 88.4364 274.973 91.4218C270.204 94.4072 268.984 89.7145 264.281 92.7094C259.579 95.7044 261.716 101.685 257.872 102.543C254.028 103.402 248.897 98.7279 244.194 101.685C239.492 104.641 239.492 107.245 237.346 107.245C235.2 107.245 230.936 105.538 228.371 107.245C225.805 108.953 222.81 111.061 222.81 111.061H331.019C331.019 111.061 332.306 107.245 327.595 104.68Z" fill="white"/>
</g>
<g opacity="0.5">
<path opacity="0.5" d="M163.827 49.9886C161.042 48.4721 159.773 49.7407 158.762 48.4721C157.751 47.2036 161.547 43.9129 153.993 40.6128C153.993 40.6128 153.488 33.5165 143.101 33.2685C132.714 33.0205 135.47 40.3648 132.714 42.1389C129.958 43.9129 129.166 41.1278 126.371 42.8924C123.577 44.6569 124.855 48.2146 122.556 48.7296C120.257 49.2447 117.234 46.4405 114.449 48.2146C111.664 49.9886 111.664 51.5147 110.395 51.5147C109.126 51.5147 106.58 50.4942 105.073 51.5147C103.566 52.5353 101.782 53.7943 101.782 53.7943H165.859C165.859 53.7943 166.622 51.5433 163.827 49.9886Z" fill="white"/>
<path opacity="0.5" d="M163.827 49.9886C161.042 48.4721 159.773 49.7407 158.762 48.4721C157.751 47.2036 161.547 43.9129 153.993 40.6128C153.993 40.6128 153.488 33.5165 143.101 33.2685C132.714 33.0205 135.47 40.3648 132.714 42.1389C129.958 43.9129 129.166 41.1278 126.371 42.8924C123.577 44.6569 124.855 48.2146 122.556 48.7296C120.257 49.2447 117.234 46.4405 114.449 48.2146C111.664 49.9886 111.664 51.5147 110.395 51.5147C109.126 51.5147 106.58 50.4942 105.073 51.5147C103.566 52.5353 101.782 53.7943 101.782 53.7943H165.859C165.859 53.7943 166.622 51.5433 163.827 49.9886Z" fill="white"/>
</g>
<g opacity="0.5">
<path opacity="0.5" d="M202.904 261.284C194.892 256.906 191.249 260.55 188.33 256.906C185.411 253.263 196.342 243.801 174.49 234.33C174.49 234.33 173.031 213.928 143.168 213.203C113.304 212.478 121.306 233.595 113.295 238.698C105.283 243.801 103.098 235.78 95.0864 240.882C87.0745 245.985 90.7085 256.143 84.1559 257.641C77.6033 259.138 68.8951 251.078 60.845 256.181C52.7949 261.284 52.8331 265.653 49.1896 265.653C45.5461 265.653 38.259 262.734 33.9288 265.653C29.5985 268.571 24.4575 272.205 24.4575 272.205H208.732C208.732 272.205 210.916 265.653 202.904 261.284Z" fill="white"/>
<path opacity="0.5" d="M202.904 261.284C194.892 256.906 191.249 260.55 188.33 256.906C185.411 253.263 196.342 243.801 174.49 234.33C174.49 234.33 173.031 213.928 143.168 213.203C113.304 212.478 121.306 233.595 113.295 238.698C105.283 243.801 103.098 235.78 95.0864 240.882C87.0745 245.985 90.7085 256.143 84.1559 257.641C77.6033 259.138 68.8951 251.078 60.845 256.181C52.7949 261.284 52.8331 265.653 49.1896 265.653C45.5461 265.653 38.259 262.734 33.9288 265.653C29.5985 268.571 24.4575 272.205 24.4575 272.205H208.732C208.732 272.205 210.916 265.653 202.904 261.284Z" fill="white"/>
</g>
<path d="M184.811 77.5154C184.811 77.5154 172.316 83.5529 167.318 90.8686C162.32 98.1842 163.779 111.69 171.477 116.058C179.174 120.427 206.042 136.47 224.994 134.181C243.946 131.892 241.028 112.52 231.451 104.813C221.875 97.1064 208.961 90.2391 208.961 90.2391C208.961 90.2391 208.341 86.0805 207.502 84.6212C206.662 83.1619 197.096 73.7669 184.811 77.5154Z" fill="#263238" stroke="#263238" stroke-linecap="round" stroke-linejoin="round"/>
<path d="M235.534 109.372C207.168 100.693 188.483 116.23 182.626 122.182C194.358 128.277 211.641 135.764 224.994 134.152C240.846 132.235 241.39 118.357 235.534 109.372Z" fill="white" stroke="#263238" stroke-linecap="round" stroke-linejoin="round"/>
<path d="M216.248 107.083C216.248 107.083 232.911 120.436 227.074 133.732" stroke="#263238" stroke-linecap="round" stroke-linejoin="round"/>
<path d="M161.557 71.6971L154.88 102.839H160.25L173.489 78.2974C173.489 78.2974 170.904 70.4286 161.557 71.6971Z" fill="white" stroke="#263238" stroke-linecap="round" stroke-linejoin="round"/>
<path d="M245.473 56.5889C240.007 49.9123 232.787 43.7222 219.558 42.6635C219.558 42.6635 208.284 42.3106 192.947 48.8345C180.957 53.9278 168.148 65.0492 161.557 71.7258C167.452 73.2232 170.962 75.6363 173.499 78.3261C176.112 75.8366 178.392 73.6715 180.07 72.3076C185.717 67.7198 194.005 63.8474 194.005 63.8474C194.005 63.8474 185.011 76.18 183.247 79.3562C181.482 82.5323 182.722 87.6447 192.06 89.0563C201.397 90.4679 203.696 88.7034 207.397 86.586C211.098 84.4685 215.685 82.5323 217.45 82.5323C220.976 82.7823 224.476 81.7678 227.322 79.6709C231.9 76.4948 233.846 67.51 235.429 66.8042C236.516 66.3177 246.14 78.8697 253.637 88.2933L254.286 87.9594C257.548 86.2808 260.094 82.8566 261.84 79.8426C255.774 70.9818 249.011 60.9192 245.473 56.5889Z" fill="#9A3A88" stroke="#263238" stroke-linecap="round" stroke-linejoin="round"/>
<path d="M213.873 48.5865C213.873 48.5865 210.134 57.5809 217.621 60.986" stroke="#263238" stroke-linecap="round" stroke-linejoin="round"/>
<path d="M194.005 63.8187L202.132 61.4152" stroke="#263238" stroke-linecap="round" stroke-linejoin="round"/>
<path d="M193.9 79.5088C193.9 79.5088 199.022 84.0299 211.012 78.9175" stroke="#263238" stroke-linecap="round" stroke-linejoin="round"/>
<path d="M240.685 63.38C237.728 63.7711 235.429 66.8137 235.429 66.8137C238.841 66.0868 242.31 65.6623 245.797 65.5451" stroke="#263238" stroke-linecap="round" stroke-linejoin="round"/>
<path d="M194.272 64.5627C194.272 64.5627 199.776 64.5627 205.089 64.3624" stroke="#263238" stroke-linecap="round" stroke-linejoin="round"/>
<path d="M197.22 77.1433C197.22 77.1433 197.811 80.6915 205.48 80.2909" stroke="#263238" stroke-linecap="round" stroke-linejoin="round"/>
<path d="M217.622 45.6584C217.622 45.6584 216.391 52.0012 217.269 55.349C218.146 58.6968 221.322 62.5788 223.621 58.5252C225.92 54.4715 227.141 49.9409 227.141 47.7758C227.141 45.6107 219.205 41.6047 217.622 45.6584Z" fill="white" stroke="#263238" stroke-linecap="round" stroke-linejoin="round"/>
<path d="M235.429 37.7228C235.429 37.7228 240.36 36.6641 244.595 31.1988C248.83 25.7335 243.364 25.0372 241.6 19.7532C239.835 14.4691 246.045 16.2241 237.06 7.05808C228.075 -2.10795 213.434 1.06821 206.538 4.06315C199.642 7.05808 199.862 17.1111 194.911 17.8169C189.961 18.5228 187.853 13.7633 181.863 13.7633C175.874 13.7633 169.521 20.1061 171.992 25.3901C174.462 30.6742 179.221 28.3946 179.574 27.5076C179.927 26.6205 177.104 27.6888 176.923 25.0372C176.741 22.3857 183.265 23.8068 185.211 27.3359C186.785 30.1973 183.895 34.2605 183.99 37.2649C184.191 43.293 191.573 47.1463 196.313 47.9761C202.713 49.0921 210.496 48.701 216.296 45.5249C223.42 41.6143 220.111 33.507 225.357 31.3895C230.603 29.2721 233.292 32.4483 233.292 32.4483L235.429 37.7228Z" fill="#263238" stroke="#263238" stroke-linecap="round" stroke-linejoin="round"/>
<path d="M181.549 17.0348C180.641 16.6402 179.641 16.5035 178.66 16.6398C177.679 16.7761 176.755 17.1801 175.988 17.8074" stroke="white" stroke-linecap="round" stroke-linejoin="round"/>
<path d="M228.59 21.9755C228.59 21.9755 228.59 11.4837 221.227 9.34722C213.864 7.21071 205.451 16.7106 201.197 22.7004C196.943 28.6903 190.705 27.2596 186.118 20.9454C185.686 20.3367 185.208 19.7627 184.687 19.2286" stroke="white" stroke-linecap="round" stroke-linejoin="round"/>
<path d="M186.861 41.6525C190.677 44.1037 193.538 44.8095 199.137 43.0545C204.736 41.2996 204.049 32.1812 208.951 27.2787C213.854 22.3761 222.629 24.1216 222.629 24.1216C222.629 24.1216 212.814 18.8566 205.098 24.465C197.382 30.0733 198.078 39.5446 191.068 41.2996" stroke="white" stroke-linecap="round" stroke-linejoin="round"/>
<path d="M233.502 23.0629C233.502 23.0629 240.179 21.3079 239.817 15.3466" stroke="white" stroke-linecap="round" stroke-linejoin="round"/>
<path d="M178.563 90.6492C178.563 90.6492 196.686 92.9383 205.842 99.2334" stroke="white" stroke-linecap="round" stroke-linejoin="round"/>
<path d="M229.678 25.3329C228.549 25.0092 227.351 25.0169 226.226 25.3551C225.102 25.6934 224.098 26.3478 223.335 27.2405C220.34 30.4071 220.474 32.0095 217.975 33.9839C217.229 34.6355 216.29 35.0232 215.302 35.087C214.314 35.1508 213.332 34.8871 212.509 34.3368C211.451 33.8122 210.22 34.1651 209.867 36.6259C209.514 39.0867 212.862 41.0325 213.396 41.0325C213.927 41.0613 214.456 41.1218 214.98 41.2137C214.98 41.2137 214.98 45.6203 217.975 48.2623C220.97 50.9043 226.969 55.1392 231.023 54.2617C235.076 53.3842 236.66 44.0369 236.66 39.2775C236.511 34.4516 235.56 29.6842 233.846 25.1708C232.606 22.3857 229.678 25.3329 229.678 25.3329Z" fill="white" stroke="#263238" stroke-linecap="round" stroke-linejoin="round"/>
<path d="M226.33 36.0441C226.33 36.9979 225.986 37.8181 225.548 37.8181C225.109 37.8181 224.756 37.0265 224.756 36.0441C224.756 35.0617 225.109 34.2795 225.548 34.2795C225.986 34.2795 226.33 35.0712 226.33 36.0441Z" fill="#263238"/>
<path d="M232.615 35.4527C232.615 36.4065 232.262 37.2268 231.833 37.2268C231.404 37.2268 231.042 36.4351 231.042 35.4527C231.042 34.4703 231.394 33.6882 231.833 33.6882C232.272 33.6882 232.615 34.4798 232.615 35.4527Z" fill="#263238"/>
<path d="M222.591 32.4673C222.591 32.4673 223.764 30.7028 226.721 31.5135" stroke="#263238" stroke-linecap="round" stroke-linejoin="round"/>
<path d="M230.059 31.5135C230.059 31.5135 232.024 29.3484 233.798 31.5135" stroke="#263238" stroke-linecap="round" stroke-linejoin="round"/>
<path d="M229.868 35.4527C229.868 35.4527 230.059 39.3919 231.242 39.3919C232.424 39.3919 232.024 41.1564 230.45 41.7478" stroke="#263238" stroke-linecap="round" stroke-linejoin="round"/>
<path d="M228.876 45.687C228.876 45.687 225.338 47.2608 223.964 43.7126" stroke="#263238" stroke-linecap="round" stroke-linejoin="round"/>
<path d="M229.706 132.75C229.706 132.75 209.676 115.181 188.921 109.201C168.167 103.22 144.284 106.034 123.538 100.416C102.793 94.7982 90.8517 87.0629 90.8517 87.0629L89.793 105.691L229.048 143.308L324.313 116.945L333.804 97.6119C333.804 97.6119 322.206 103.583 301.46 108.504C280.715 113.426 257.471 113.416 244.452 118.309C231.432 123.202 229.706 132.75 229.706 132.75Z" fill="white" stroke="#263238" stroke-linecap="round" stroke-linejoin="round"/>
<path d="M87.6851 91.2692C87.6851 91.2692 110.92 105.338 163.264 110.259C197.744 113.493 229.706 132.75 229.706 132.75C243.711 123.796 259.835 118.702 276.442 117.985C303.864 116.936 335.149 106.034 335.149 106.034L329.187 118.309L226.892 138.339L85.5771 101.427L87.6851 91.2692Z" fill="white" stroke="#263238" stroke-linecap="round" stroke-linejoin="round"/>
<path d="M83.8225 95.4945C103.598 104.426 124.764 109.885 146.392 111.633C184 114.447 228.648 132.721 228.648 132.721C228.648 132.721 252.197 120.074 278.245 120.074C297.592 119.909 316.842 117.31 335.54 112.339C334.959 114.282 334.815 116.329 335.118 118.334C335.421 120.34 336.165 122.253 337.295 123.937L228.295 147.162L83.1167 104.956L83.8225 95.4945Z" fill="white" stroke="#263238" stroke-linecap="round" stroke-linejoin="round"/>
<path d="M84.5282 103.84L223.726 138.73V143.652L235.677 144.005V138.339L340.433 121.819C340.433 121.819 345.002 120.761 341.139 126.035C337.276 131.31 269.775 190.016 269.775 190.016L194.902 197.751L81.3521 172.829L82.0293 105.767C82.0314 105.463 82.1027 105.163 82.2378 104.891C82.373 104.618 82.5683 104.38 82.8092 104.195C83.05 104.009 83.33 103.88 83.6278 103.819C83.9257 103.758 84.2336 103.765 84.5282 103.84Z" fill="#9A3A88"/>
<path opacity="0.3" d="M223.726 143.652V138.73L82.0581 103.23L81.3618 172.829L194.902 197.79L196.934 197.58L226.902 143.747L223.726 143.652Z" fill="black"/>
<path d="M84.5282 103.84L223.726 138.73V143.652L235.677 144.005V138.339L340.433 121.819C340.433 121.819 345.002 120.761 341.139 126.035C337.276 131.31 269.775 190.016 269.775 190.016L194.902 197.751L81.3521 172.829L82.0293 105.767C82.0314 105.463 82.1027 105.163 82.2378 104.891C82.373 104.618 82.5683 104.38 82.8092 104.195C83.05 104.009 83.33 103.88 83.6278 103.819C83.9257 103.758 84.2336 103.765 84.5282 103.84Z" stroke="#263238" stroke-linecap="round" stroke-linejoin="round"/>
<path d="M223.726 143.652L192.441 197.79L198.422 198.133L235.677 144.005L223.726 143.652Z" fill="#9A3A88" stroke="#263238" stroke-linecap="round" stroke-linejoin="round"/>
<path d="M328.139 124.032C328.139 124.032 337.476 125.778 335.531 132.006L341.139 126.054C341.139 126.054 343.705 122.859 342.532 122.239C341.358 121.619 328.139 124.032 328.139 124.032Z" fill="#263238"/>
<path d="M97.4334 107.379C97.4334 107.379 84.2232 111.032 82.1726 120.904L82.0581 105.767C82.0581 105.767 82.4587 103.487 84.5475 103.859C86.6363 104.231 97.4334 107.379 97.4334 107.379Z" fill="#263238"/>
<path d="M81.4858 168.193L88.1243 174.517L81.3618 172.829L81.4858 168.193Z" fill="#263238"/>
<path d="M264.997 190.464L274.001 186.039L269.261 190.15L264.997 190.464Z" fill="#263238"/>
<path d="M261.84 79.8522L287.173 110.221L280.792 111.232L253.637 88.341C253.637 88.341 260.667 83.7341 261.84 79.8522Z" fill="white" stroke="#263238" stroke-linecap="round" stroke-linejoin="round"/>
<path d="M149.501 100.054C149.501 100.054 148.233 98.518 147.908 99.8915C147.584 101.265 144.713 106.034 146.955 106.368C149.196 106.702 150.465 101.255 150.465 101.255L149.501 100.054Z" fill="white" stroke="#263238" stroke-linecap="round" stroke-linejoin="round"/>
<path d="M152.534 99.8725C152.534 99.8725 151.256 98.3368 150.941 99.7008C150.627 101.065 147.746 105.843 149.988 106.187C152.229 106.53 153.507 101.065 153.507 101.065L152.534 99.8725Z" fill="white" stroke="#263238" stroke-linecap="round" stroke-linejoin="round"/>
<path d="M155.577 99.758C155.577 99.758 154.06 98.0507 153.669 99.5672C153.278 101.084 149.854 106.387 152.534 106.768C155.215 107.15 156.702 101.046 156.702 101.046L155.577 99.758Z" fill="white" stroke="#263238" stroke-linecap="round" stroke-linejoin="round"/>
<path d="M158.228 100.33L163.341 105.252H157.284L158.228 100.33Z" fill="white" stroke="#263238" stroke-linecap="round" stroke-linejoin="round"/>
<path d="M158.228 100.33C158.228 100.33 156.712 98.6229 156.321 100.139C155.93 101.656 152.506 106.959 155.186 107.331C157.866 107.703 159.354 101.608 159.354 101.608L158.228 100.33Z" fill="white" stroke="#263238" stroke-linecap="round" stroke-linejoin="round"/>
<path d="M294.049 104.746C294.049 104.746 295.07 103.03 295.604 104.327C296.138 105.624 299.715 109.897 297.569 110.584C295.423 111.27 293.296 106.082 293.296 106.082L294.049 104.746Z" fill="white" stroke="#263238" stroke-linecap="round" stroke-linejoin="round"/>
<path d="M291.055 105.032C291.055 105.032 292.075 103.316 292.609 104.613C293.144 105.91 296.73 110.183 294.574 110.87C292.419 111.556 290.301 106.368 290.301 106.368L291.055 105.032Z" fill="white" stroke="#263238" stroke-linecap="round" stroke-linejoin="round"/>
<path d="M288.041 105.404C288.041 105.404 289.271 103.497 289.881 104.918C290.492 106.339 294.65 111.061 292.132 111.852C289.614 112.644 287.125 106.892 287.125 106.892L288.041 105.404Z" fill="white" stroke="#263238" stroke-linecap="round" stroke-linejoin="round"/>
<path d="M285.513 106.387L281.23 112.052L287.22 111.099L285.513 106.387Z" fill="white" stroke="#263238" stroke-linecap="round" stroke-linejoin="round"/>
<path d="M285.513 106.387C285.513 106.387 286.734 104.479 287.354 105.9C287.974 107.322 292.123 112.033 289.605 112.825C287.087 113.617 284.598 107.875 284.598 107.875L285.513 106.387Z" fill="white" stroke="#263238" stroke-linecap="round" stroke-linejoin="round"/>
<path d="M111.75 157.329L117.854 156.376L111.75 155.422C111.212 155.34 110.715 155.089 110.33 154.705C109.946 154.32 109.695 153.823 109.613 153.285L108.659 147.171L107.706 153.285C107.625 153.821 107.375 154.318 106.992 154.702C106.61 155.086 106.114 155.338 105.579 155.422L99.4648 156.376L105.579 157.329C106.113 157.417 106.606 157.67 106.987 158.054C107.369 158.437 107.621 158.931 107.706 159.466L108.659 165.58L109.613 159.466C109.699 158.93 109.952 158.435 110.335 158.051C110.719 157.668 111.214 157.415 111.75 157.329Z" fill="white"/>
<path d="M66.1485 198.743L72.2624 197.79L66.1485 196.836C65.6133 196.749 65.119 196.496 64.7356 196.112C64.3521 195.729 64.099 195.235 64.012 194.699L63.0582 188.585L62.1044 194.699C62.0215 195.236 61.7698 195.733 61.3856 196.117C61.0014 196.501 60.5048 196.753 59.9679 196.836L53.854 197.79L59.9679 198.743C60.5048 198.826 61.0014 199.078 61.3856 199.462C61.7698 199.846 62.0215 200.343 62.1044 200.88L63.0582 206.994L64.012 200.88C64.099 200.345 64.3521 199.85 64.7356 199.467C65.119 199.084 65.6133 198.83 66.1485 198.743Z" fill="#9A3A88"/>
<path opacity="0.5" d="M66.1485 198.743L72.2624 197.79L66.1485 196.836C65.6133 196.749 65.119 196.496 64.7356 196.112C64.3521 195.729 64.099 195.235 64.012 194.699L63.0582 188.585L62.1044 194.699C62.0215 195.236 61.7698 195.733 61.3856 196.117C61.0014 196.501 60.5048 196.753 59.9679 196.836L53.854 197.79L59.9679 198.743C60.5048 198.826 61.0014 199.078 61.3856 199.462C61.7698 199.846 62.0215 200.343 62.1044 200.88L63.0582 206.994L64.012 200.88C64.099 200.345 64.3521 199.85 64.7356 199.467C65.119 199.084 65.6133 198.83 66.1485 198.743Z" fill="white"/>
<path d="M218.375 224.239L224.489 223.285L218.375 222.331C217.839 222.249 217.344 221.998 216.96 221.616C216.576 221.234 216.323 220.739 216.239 220.204L215.285 214.09L214.331 220.204C214.246 220.739 213.994 221.234 213.61 221.616C213.226 221.998 212.73 222.249 212.194 222.331L206.081 223.285L212.194 224.239C212.73 224.321 213.226 224.571 213.61 224.954C213.994 225.336 214.246 225.83 214.331 226.365L215.285 232.479L216.239 226.365C216.323 225.83 216.576 225.336 216.96 224.954C217.344 224.571 217.839 224.321 218.375 224.239Z" fill="#9A3A88"/>
<path opacity="0.5" d="M218.375 224.239L224.489 223.285L218.375 222.331C217.839 222.249 217.344 221.998 216.96 221.616C216.576 221.234 216.323 220.739 216.239 220.204L215.285 214.09L214.331 220.204C214.246 220.739 213.994 221.234 213.61 221.616C213.226 221.998 212.73 222.249 212.194 222.331L206.081 223.285L212.194 224.239C212.73 224.321 213.226 224.571 213.61 224.954C213.994 225.336 214.246 225.83 214.331 226.365L215.285 232.479L216.239 226.365C216.323 225.83 216.576 225.336 216.96 224.954C217.344 224.571 217.839 224.321 218.375 224.239Z" fill="white"/>
<path d="M58.3273 166.219L62.3714 165.58L58.3273 164.941C57.9725 164.886 57.6443 164.72 57.3905 164.466C57.1367 164.212 56.9703 163.884 56.9157 163.529L56.2862 159.495L55.6471 163.529C55.5925 163.884 55.4262 164.212 55.1723 164.466C54.9185 164.72 54.5903 164.886 54.2355 164.941L50.1914 165.58L54.2355 166.219C54.5903 166.273 54.9185 166.44 55.1723 166.694C55.4262 166.947 55.5925 167.276 55.6471 167.63L56.2862 171.665L56.9157 167.63C56.9703 167.276 57.1367 166.947 57.3905 166.694C57.6443 166.44 57.9725 166.273 58.3273 166.219Z" fill="#9A3A88"/>
<path opacity="0.5" d="M58.3273 166.219L62.3714 165.58L58.3273 164.941C57.9725 164.886 57.6443 164.72 57.3905 164.466C57.1367 164.212 56.9703 163.884 56.9157 163.529L56.2862 159.495L55.6471 163.529C55.5925 163.884 55.4262 164.212 55.1723 164.466C54.9185 164.72 54.5903 164.886 54.2355 164.941L50.1914 165.58L54.2355 166.219C54.5903 166.273 54.9185 166.44 55.1723 166.694C55.4262 166.947 55.5925 167.276 55.6471 167.63L56.2862 171.665L56.9157 167.63C56.9703 167.276 57.1367 166.947 57.3905 166.694C57.6443 166.44 57.9725 166.273 58.3273 166.219Z" fill="white"/>
<path d="M320.68 175.146L324.724 174.517L320.68 173.878C320.326 173.822 319.998 173.655 319.745 173.401C319.491 173.148 319.324 172.82 319.268 172.466L318.629 168.422L318 172.466C317.944 172.82 317.777 173.148 317.523 173.401C317.27 173.655 316.942 173.822 316.588 173.878L312.544 174.517L316.588 175.146C316.942 175.202 317.27 175.369 317.523 175.623C317.777 175.876 317.944 176.204 318 176.558L318.629 180.602L319.268 176.558C319.324 176.204 319.491 175.876 319.745 175.623C319.998 175.369 320.326 175.202 320.68 175.146Z" fill="#9A3A88"/>
<path opacity="0.5" d="M320.68 175.146L324.724 174.517L320.68 173.878C320.326 173.822 319.998 173.655 319.745 173.401C319.491 173.148 319.324 172.82 319.268 172.466L318.629 168.422L318 172.466C317.944 172.82 317.777 173.148 317.523 173.401C317.27 173.655 316.942 173.822 316.588 173.878L312.544 174.517L316.588 175.146C316.942 175.202 317.27 175.369 317.523 175.623C317.777 175.876 317.944 176.204 318 176.558L318.629 180.602L319.268 176.558C319.324 176.204 319.491 175.876 319.745 175.623C319.998 175.369 320.326 175.202 320.68 175.146Z" fill="white"/>
<path d="M135.862 141.534L139.82 140.915L135.862 140.295C135.514 140.24 135.193 140.077 134.945 139.828C134.696 139.58 134.533 139.259 134.479 138.912L133.849 134.944L133.229 138.912C133.173 139.258 133.01 139.579 132.762 139.827C132.513 140.075 132.193 140.239 131.846 140.295L127.878 140.915L131.846 141.534C132.193 141.59 132.513 141.754 132.762 142.002C133.01 142.251 133.173 142.571 133.229 142.918L133.811 146.923L134.441 142.956C134.489 142.596 134.655 142.262 134.912 142.005C135.168 141.749 135.502 141.583 135.862 141.534Z" fill="white"/>
<path d="M267 180.698L270.967 180.068L267 179.448C266.653 179.392 266.333 179.229 266.084 178.98C265.836 178.732 265.672 178.412 265.617 178.065L264.997 174.097L264.377 178.065C264.321 178.412 264.157 178.732 263.909 178.98C263.661 179.229 263.34 179.392 262.994 179.448L259.026 180.068L262.994 180.698C263.341 180.752 263.662 180.915 263.911 181.164C264.159 181.412 264.322 181.733 264.377 182.081L264.997 186.039L265.617 182.081C265.671 181.733 265.834 181.412 266.083 181.164C266.331 180.915 266.652 180.752 267 180.698Z" fill="white"/>
</svg>
