<svg width="201" height="220" viewBox="0 0 201 220" fill="none" xmlns="http://www.w3.org/2000/svg">
<path d="M91.6483 171.648C88.2629 171.511 86.7708 171.848 87.2922 175.426C87.8137 179.004 87.9741 181.764 87.9741 181.764C87.9741 181.764 93.9988 181.94 96.7985 180.376C99.5983 178.812 96.7344 171.848 91.6483 171.648Z" fill="#9A3A88"/>
<path opacity="0.5" d="M91.6483 171.648C88.2629 171.511 86.7708 171.848 87.2922 175.426C87.8137 179.004 87.9741 181.764 87.9741 181.764C87.9741 181.764 93.9988 181.94 96.7985 180.376C99.5983 178.812 96.7344 171.848 91.6483 171.648Z" fill="black"/>
<path d="M92.1858 187.018C91.9651 187.017 91.7449 186.995 91.528 186.954C90.6402 186.778 89.8586 186.256 89.3547 185.504C88.8509 184.752 88.666 183.831 88.8405 182.943C89.715 178.499 90.5814 175.065 91.3515 172.041C92.5149 167.832 93.3596 163.541 93.8785 159.205C94.5177 152.474 93.0667 145.709 89.723 139.832C89.4949 139.447 89.3448 139.021 89.2812 138.579C89.2177 138.136 89.2419 137.686 89.3525 137.252C89.4631 136.819 89.658 136.412 89.926 136.054C90.1939 135.696 90.5298 135.395 90.9143 135.167C91.2988 134.939 91.7245 134.788 92.167 134.725C92.6096 134.661 93.0603 134.686 93.4935 134.796C93.9267 134.907 94.3338 135.102 94.6917 135.37C95.0496 135.638 95.3511 135.973 95.5792 136.358C99.6847 143.5 101.457 151.745 100.649 159.943C100.103 164.589 99.2021 169.186 97.9538 173.693C97.2158 176.638 96.3494 179.975 95.5471 184.243C95.3991 185.025 94.982 185.731 94.368 186.238C93.7541 186.745 92.982 187.021 92.1858 187.018V187.018Z" fill="#455A64"/>
<path d="M84.0352 191.623C83.8763 192.279 83.8763 192.964 84.0352 193.621C84.5085 194.503 87.1318 195.586 88.5116 196.156C90.419 196.89 91.9742 198.325 92.8597 200.167C94.3999 202.983 97.2077 204.884 100.344 206.079C104.554 207.559 109.115 207.724 113.421 206.552C118.787 205.213 119.036 201.98 119.036 201.98C119.036 201.98 119.116 198.947 117.737 198.562C116.357 198.177 84.0352 191.623 84.0352 191.623Z" fill="#455A64"/>
<path d="M86.2012 180.36C86.0484 181.315 85.8313 182.258 85.5514 183.184C84.7492 185.727 83.5057 188.35 84.0352 191.623C84.9176 193.228 86.7628 193.789 88.1426 194.399C89.9957 195.201 91.3515 195.771 92.6591 197.375C95.0658 200.255 97.32 203.897 104.524 204.836C111.728 205.774 116.974 203.151 118.162 201.033C119.349 198.915 118.017 197.094 113.292 194.944C110.886 193.845 105.422 189.329 104.797 188.751C104.218 188.162 103.701 187.514 103.256 186.818C102.263 185.377 101.606 183.732 101.331 182.004C101.119 180.176 101.209 178.325 101.596 176.525C101.676 176.108 101.885 175.675 101.708 175.298C101.251 174.287 99.6705 174.552 98.7961 174.624C97.4883 174.758 96.1911 174.98 94.9133 175.29C94.4895 175.339 94.0887 175.509 93.7581 175.779C93.4951 176.097 93.3207 176.479 93.2527 176.886C93.0843 177.488 92.9078 178.09 92.7152 178.675C92.6724 178.888 92.588 179.091 92.4669 179.271C92.3457 179.451 92.1902 179.606 92.0093 179.726C91.808 179.804 91.5877 179.818 91.3781 179.767C91.1685 179.715 90.98 179.6 90.838 179.437C90.5641 179.107 90.4087 178.695 90.3968 178.266C90.3968 177.833 90.3968 177.408 90.4449 176.983C90.4909 176.572 90.4097 176.158 90.2123 175.795C89.739 175.049 88.5437 174.929 88.2388 174.103C88.1732 173.875 88.1721 173.634 88.2359 173.405C88.2997 173.177 88.4257 172.972 88.5998 172.811C88.9641 172.503 89.416 172.318 89.8914 172.281C90.3588 172.249 90.8279 172.249 91.2953 172.281L91.552 171.287C90.4407 171.124 89.3061 171.268 88.2709 171.704C87.618 171.98 87.0856 172.481 86.7708 173.116C86.4897 173.907 86.4478 174.764 86.6504 175.579C86.851 177.456 86.506 178.483 86.2012 180.36Z" fill="#9A3A88"/>
<path opacity="0.35" d="M86.2012 180.36C86.0484 181.315 85.8313 182.258 85.5514 183.184C84.7492 185.727 83.5057 188.35 84.0352 191.623C84.9176 193.228 86.7628 193.789 88.1426 194.399C89.9957 195.201 91.3515 195.771 92.6591 197.375C95.0658 200.255 97.32 203.897 104.524 204.836C111.728 205.774 116.974 203.151 118.162 201.033C119.349 198.915 118.017 197.094 113.292 194.944C110.886 193.845 105.422 189.329 104.797 188.751C104.218 188.162 103.701 187.514 103.256 186.818C102.263 185.377 101.606 183.732 101.331 182.004C101.119 180.176 101.209 178.325 101.596 176.525C101.676 176.108 101.885 175.675 101.708 175.298C101.251 174.287 99.6705 174.552 98.7961 174.624C97.4883 174.758 96.1911 174.98 94.9133 175.29C94.4895 175.339 94.0887 175.509 93.7581 175.779C93.4951 176.097 93.3207 176.479 93.2527 176.886C93.0843 177.488 92.9078 178.09 92.7152 178.675C92.6724 178.888 92.588 179.091 92.4669 179.271C92.3457 179.451 92.1902 179.606 92.0093 179.726C91.808 179.804 91.5877 179.818 91.3781 179.767C91.1685 179.715 90.98 179.6 90.838 179.437C90.5641 179.107 90.4087 178.695 90.3968 178.266C90.3968 177.833 90.3968 177.408 90.4449 176.983C90.4909 176.572 90.4097 176.158 90.2123 175.795C89.739 175.049 88.5437 174.929 88.2388 174.103C88.1732 173.875 88.1721 173.634 88.2359 173.405C88.2997 173.177 88.4257 172.972 88.5998 172.811C88.9641 172.503 89.416 172.318 89.8914 172.281C90.3588 172.249 90.8279 172.249 91.2953 172.281L91.552 171.287C90.4407 171.124 89.3061 171.268 88.2709 171.704C87.618 171.98 87.0856 172.481 86.7708 173.116C86.4897 173.907 86.4478 174.764 86.6504 175.579C86.851 177.456 86.506 178.483 86.2012 180.36Z" fill="black"/>
<path d="M99.7427 203.584C99.7362 201.909 100.179 200.264 101.026 198.819C101.873 197.374 103.092 196.182 104.556 195.369C109.73 192.273 113.108 193.821 114.833 194.888C116.878 196.164 119.871 198.899 118.314 201.161C116.638 203.568 113.774 204.876 108.31 205.309C102.847 205.742 99.7427 203.584 99.7427 203.584Z" fill="#FAFAFA"/>
<path d="M92.6029 184.997C92.6983 185.007 92.7948 184.995 92.8843 184.96C92.9737 184.925 93.0533 184.869 93.1163 184.796C93.8303 184.034 98.1703 181.411 101.451 182.758C101.532 182.638 101.668 181.836 101.275 181.587C99.6791 181.233 98.0215 181.267 96.4414 181.685C94.8613 182.104 93.4046 182.896 92.1937 183.994C92.097 184.109 92.0488 184.257 92.0593 184.406C92.0698 184.556 92.1381 184.696 92.2499 184.796C92.3438 184.898 92.4672 184.968 92.6029 184.997V184.997Z" fill="#FAFAFA"/>
<path d="M102.831 186.192C102.832 185.962 102.785 185.734 102.694 185.523C102.603 185.312 102.47 185.122 102.302 184.965C98.5635 184.435 94.8091 186.786 93.9828 187.676C93.8871 187.792 93.8402 187.941 93.8522 188.09C93.8642 188.24 93.934 188.379 94.047 188.478C94.1456 188.564 94.2696 188.615 94.4 188.623C94.4946 188.633 94.5904 188.621 94.6795 188.587C94.7687 188.554 94.8488 188.5 94.9134 188.43C95.6033 187.716 99.8791 185.237 102.831 186.192Z" fill="#FAFAFA"/>
<path d="M108.487 191.751C108.431 191.366 107.685 190.789 107.051 190.628C102.919 190.348 99.4298 193.492 98.7479 194.535C98.706 194.6 98.6777 194.673 98.6647 194.749C98.6516 194.825 98.6542 194.903 98.6722 194.978C98.6902 195.053 98.7233 195.123 98.7694 195.185C98.8155 195.247 98.8737 195.299 98.9404 195.337C99.054 195.405 99.1857 195.436 99.3175 195.426C99.4117 195.418 99.5031 195.39 99.585 195.343C99.6669 195.296 99.7372 195.231 99.7908 195.153C100.4 194.23 104.572 190.709 108.487 191.751Z" fill="#FAFAFA"/>
<path d="M96.55 192.217C96.6445 192.212 96.7371 192.188 96.8215 192.145C96.9058 192.102 96.9801 192.042 97.0393 191.968C97.641 191.126 101.267 187.957 104.997 188.912C104.997 188.583 104.34 187.933 104.003 187.845C100.304 187.508 96.7265 190.307 95.9804 191.294C95.8943 191.421 95.8619 191.576 95.8905 191.727C95.9191 191.877 96.0062 192.01 96.1328 192.096C96.2542 192.183 96.4013 192.225 96.55 192.217Z" fill="#FAFAFA"/>
<path d="M53.9999 183.48C50.6306 183.208 49.1144 183.481 49.4914 187.074C49.8685 190.668 49.9086 193.436 49.9086 193.436C49.9086 193.436 55.9172 193.861 58.7812 192.417C61.6451 190.973 59.086 183.898 53.9999 183.48Z" fill="#9A3A88"/>
<path opacity="0.5" d="M53.9999 183.48C50.6306 183.208 49.1144 183.481 49.4914 187.074C49.8685 190.668 49.9086 193.436 49.9086 193.436C49.9086 193.436 55.9172 193.861 58.7812 192.417C61.6451 190.973 59.086 183.898 53.9999 183.48Z" fill="black"/>
<path d="M53.8957 198.859C53.6742 198.849 53.4541 198.82 53.2379 198.771C52.8023 198.666 52.3916 198.477 52.0295 198.213C51.6673 197.95 51.3607 197.617 51.1274 197.235C50.8941 196.852 50.7386 196.428 50.6699 195.985C50.6012 195.542 50.6206 195.091 50.7269 194.655C51.7859 190.251 52.7967 186.866 53.6871 183.866C55.0301 179.717 56.0546 175.471 56.7516 171.166C57.6722 164.469 56.5069 157.651 53.4144 151.64C53.0559 150.852 53.0111 149.956 53.289 149.136C53.5668 148.315 54.1466 147.631 54.9104 147.223C55.6743 146.814 56.565 146.712 57.4017 146.936C58.2383 147.161 58.9582 147.695 59.415 148.431C63.2016 155.727 64.6257 164.02 63.4903 172.161C62.7503 176.784 61.656 181.344 60.2172 185.799C59.3508 188.711 58.3721 192.008 57.3533 196.228C57.1729 197 56.729 197.685 56.0979 198.166C55.4669 198.646 54.6881 198.891 53.8957 198.859V198.859Z" fill="#455A64"/>
<path d="M45.5607 203.119C45.3644 203.766 45.3286 204.452 45.4564 205.116C45.8896 206.015 48.4567 207.21 49.8124 207.836C51.6912 208.658 53.1839 210.168 53.984 212.056C55.412 214.928 58.1395 216.949 61.204 218.273C65.3483 219.927 69.8973 220.282 74.2481 219.292C79.6631 218.185 80.0241 214.96 80.0241 214.96C80.0241 214.96 80.2327 211.935 78.8689 211.494C77.5052 211.053 45.5607 203.119 45.5607 203.119Z" fill="#455A64"/>
<path d="M48.1919 191.96C47.985 192.907 47.717 193.839 47.3897 194.752C46.5072 197.263 45.1274 199.822 45.5205 203.119C46.3227 204.723 48.1438 205.397 49.5316 206.071C51.3527 206.97 52.6603 207.571 53.9198 209.232C56.182 212.208 58.2999 215.946 65.4638 217.182C72.6276 218.417 77.9784 216.019 79.2459 213.973C80.5134 211.927 79.2459 210.034 74.6332 207.684C72.2826 206.488 67.004 201.763 66.4024 201.145C64.6912 199.209 63.5768 196.818 63.1935 194.262C63.0599 192.427 63.2252 190.582 63.6828 188.799C63.7871 188.39 64.0117 187.997 63.8513 187.572C63.4341 186.545 61.8457 186.77 60.9713 186.77C59.6587 186.846 58.3532 187.015 57.0645 187.275C56.6375 187.307 56.2284 187.46 55.8852 187.716C55.611 188.024 55.4204 188.397 55.3317 188.799C55.1472 189.393 54.9466 189.987 54.722 190.572C54.6169 190.995 54.3486 191.358 53.9759 191.583C53.7728 191.653 53.5532 191.659 53.3467 191.6C53.1402 191.541 52.9566 191.42 52.8207 191.254C52.5561 190.913 52.4173 190.491 52.4276 190.059C52.4381 189.629 52.473 189.201 52.5319 188.775C52.5898 188.367 52.5256 187.951 52.3474 187.58C51.9062 186.818 50.743 186.649 50.4462 185.807C50.386 185.578 50.3934 185.336 50.4674 185.112C50.5415 184.887 50.6789 184.688 50.8633 184.539C51.2335 184.239 51.6942 184.072 52.1709 184.066C52.641 184.035 53.1127 184.035 53.5828 184.066L53.8716 183.087C52.7682 182.878 51.6286 182.972 50.5745 183.36C49.9103 183.611 49.3581 184.092 49.0182 184.716C48.7078 185.493 48.6298 186.343 48.7936 187.163C48.962 189.088 48.577 190.091 48.1919 191.96Z" fill="#9A3A88"/>
<path opacity="0.35" d="M48.1919 191.96C47.985 192.907 47.717 193.839 47.3897 194.752C46.5072 197.263 45.1274 199.822 45.5205 203.119C46.3227 204.723 48.1438 205.397 49.5316 206.071C51.3527 206.97 52.6603 207.571 53.9198 209.232C56.182 212.208 58.2999 215.946 65.4638 217.182C72.6276 218.417 77.9784 216.019 79.2459 213.973C80.5134 211.927 79.2459 210.034 74.6332 207.684C72.2826 206.488 67.004 201.763 66.4024 201.145C64.6912 199.209 63.5768 196.818 63.1935 194.262C63.0599 192.427 63.2252 190.582 63.6828 188.799C63.7871 188.39 64.0117 187.997 63.8513 187.572C63.4341 186.545 61.8457 186.77 60.9713 186.77C59.6587 186.846 58.3532 187.015 57.0645 187.275C56.6375 187.307 56.2284 187.46 55.8852 187.716C55.611 188.024 55.4204 188.397 55.3317 188.799C55.1472 189.393 54.9466 189.987 54.722 190.572C54.6169 190.995 54.3486 191.358 53.9759 191.583C53.7728 191.653 53.5532 191.659 53.3467 191.6C53.1402 191.541 52.9566 191.42 52.8207 191.254C52.5561 190.913 52.4173 190.491 52.4276 190.059C52.4381 189.629 52.473 189.201 52.5319 188.775C52.5898 188.367 52.5256 187.951 52.3474 187.58C51.9062 186.818 50.743 186.649 50.4462 185.807C50.386 185.578 50.3934 185.336 50.4674 185.112C50.5415 184.887 50.6789 184.688 50.8633 184.539C51.2335 184.239 51.6942 184.072 52.1709 184.066C52.641 184.035 53.1127 184.035 53.5828 184.066L53.8716 183.087C52.7682 182.878 51.6286 182.972 50.5745 183.36C49.9103 183.611 49.3581 184.092 49.0182 184.716C48.7078 185.493 48.6298 186.343 48.7936 187.163C48.962 189.088 48.577 190.091 48.1919 191.96Z" fill="black"/>
<path d="M60.7466 215.73C60.807 214.054 61.317 212.425 62.223 211.013C63.1291 209.602 64.398 208.46 65.8968 207.708C71.1995 204.828 74.5127 206.512 76.1894 207.659C78.1789 209.015 81.0508 211.887 79.3983 214.077C77.6173 216.428 74.7052 217.599 69.2261 217.8C63.7469 218 60.7466 215.73 60.7466 215.73Z" fill="#FAFAFA"/>
<path d="M54.4011 196.821C54.4952 196.836 54.5913 196.828 54.6818 196.799C54.7724 196.77 54.8548 196.72 54.9226 196.653C55.6606 195.915 60.1049 193.444 63.3299 194.968C63.4181 194.84 63.5866 194.054 63.2015 193.789C61.6204 193.369 59.9616 193.335 58.3646 193.69C56.7676 194.045 55.2791 194.777 54.0241 195.827C53.9183 195.933 53.8589 196.078 53.8589 196.228C53.8589 196.378 53.9183 196.522 54.0241 196.629C54.1232 196.736 54.2567 196.804 54.4011 196.821Z" fill="#FAFAFA"/>
<path d="M64.5653 198.49C64.58 198.259 64.5447 198.028 64.4616 197.812C64.3785 197.596 64.2497 197.4 64.0839 197.239C60.3777 196.549 56.527 198.739 55.6686 199.597C55.5628 199.704 55.5034 199.848 55.5034 199.998C55.5034 200.149 55.5628 200.293 55.6686 200.399C55.786 200.509 55.9409 200.571 56.1018 200.571C56.2627 200.571 56.4176 200.509 56.535 200.399C57.2811 199.701 61.6532 197.407 64.5653 198.49Z" fill="#FAFAFA"/>
<path d="M69.9803 204.25C69.9803 203.865 69.1781 203.255 68.5925 203.071C64.4771 202.614 60.8591 205.614 60.129 206.625C60.0861 206.688 60.0563 206.759 60.0415 206.834C60.0267 206.909 60.0272 206.987 60.0429 207.061C60.0586 207.136 60.0893 207.207 60.133 207.27C60.1768 207.333 60.2327 207.386 60.2975 207.427C60.4063 207.5 60.5356 207.536 60.6665 207.531C60.7619 207.527 60.8553 207.502 60.9399 207.457C61.0244 207.413 61.0982 207.351 61.1559 207.274C61.7977 206.416 66.1136 203.071 69.9803 204.25Z" fill="#FAFAFA"/>
<path d="M58.0272 204.25C58.1233 204.251 58.2184 204.23 58.3057 204.19C58.393 204.15 58.4704 204.091 58.5326 204.017C59.1743 203.215 62.9207 200.183 66.6109 201.298C66.6511 200.969 65.9932 200.303 65.6643 200.191C61.9821 199.701 58.2919 202.349 57.5458 203.303C57.5005 203.364 57.4677 203.433 57.4492 203.506C57.4307 203.579 57.427 203.655 57.4382 203.73C57.4494 203.804 57.4753 203.876 57.5144 203.941C57.5536 204.005 57.6052 204.061 57.6662 204.106C57.7675 204.192 57.8943 204.243 58.0272 204.25V204.25Z" fill="#FAFAFA"/>
<path d="M140.961 124.349C137.704 124.349 133.645 123.202 129.136 120.129C128.604 119.764 128.239 119.203 128.121 118.569C128.003 117.935 128.142 117.28 128.506 116.748C128.871 116.216 129.433 115.851 130.067 115.732C130.701 115.614 131.356 115.753 131.888 116.118C137.953 120.257 142.317 119.776 143.921 118.837C144.304 118.541 144.62 118.167 144.848 117.74C145.076 117.312 145.211 116.842 145.245 116.359C145.63 113.952 144.844 110.085 141.49 106.299C134.399 98.2765 125.502 94.1771 111.736 92.5326C111.098 92.456 110.516 92.129 110.119 91.6235C109.722 91.118 109.542 90.4754 109.618 89.8371C109.695 89.1988 110.022 88.6171 110.527 88.2199C111.033 87.8227 111.675 87.6426 112.314 87.7192C127.171 89.4841 137.287 94.2253 145.132 103.09C148.935 107.382 150.748 112.636 150.058 117.145C149.927 118.342 149.528 119.495 148.891 120.517C148.253 121.539 147.394 122.405 146.376 123.049C144.719 123.957 142.849 124.406 140.961 124.349V124.349Z" fill="#455A64"/>
<path d="M110.172 61.9198C113.854 58.4461 117.103 48.2419 115.426 37.5242C113.75 26.8065 103.85 16.7867 99.9032 14.6127C95.9563 12.4387 93.1806 15.2465 94.2877 19.2496C95.7477 24.6806 97.5688 36.8985 87.4207 42.2974C88.5495 47.5205 90.8389 52.4228 94.1192 56.6411C99.3497 62.9546 110.172 61.9198 110.172 61.9198Z" fill="#9A3A88"/>
<path opacity="0.75" d="M110.172 61.9198C113.854 58.4461 117.103 48.2419 115.426 37.5242C113.75 26.8065 103.85 16.7867 99.9032 14.6127C95.9563 12.4387 93.1806 15.2465 94.2877 19.2496C95.7477 24.6806 97.5688 36.8985 87.4207 42.2974C88.5495 47.5205 90.8389 52.4228 94.1192 56.6411C99.3497 62.9546 110.172 61.9198 110.172 61.9198Z" fill="white"/>
<path d="M96.4053 21.3434C95.5245 21.3465 94.6482 21.2167 93.8061 20.9583C93.6825 20.9178 93.5796 20.8304 93.5196 20.7149C93.4596 20.5994 93.4473 20.4651 93.4852 20.3406C93.5052 20.2795 93.5371 20.2229 93.5789 20.1741C93.6208 20.1253 93.6719 20.0852 93.7293 20.0561C93.7866 20.0271 93.8492 20.0096 93.9133 20.0047C93.9774 19.9998 94.0418 20.0077 94.103 20.0277C97.3118 21.0465 101.604 19.8592 102.687 16.522C102.706 16.4614 102.737 16.4053 102.779 16.3568C102.82 16.3083 102.87 16.2684 102.927 16.2393C102.983 16.2102 103.045 16.1926 103.109 16.1875C103.172 16.1823 103.236 16.1896 103.296 16.2091C103.357 16.2286 103.413 16.2599 103.462 16.301C103.51 16.3422 103.55 16.3926 103.579 16.4492C103.608 16.5058 103.626 16.5676 103.631 16.631C103.636 16.6944 103.629 16.7583 103.609 16.8188C102.639 19.8272 99.4698 21.3434 96.4053 21.3434Z" fill="#9A3A88"/>
<path d="M100.056 28.09C98.1682 28.0787 96.3182 27.5636 94.6967 26.5979C94.5916 26.5303 94.5164 26.425 94.4864 26.3036C94.4565 26.1823 94.4741 26.0541 94.5357 25.9454C94.5972 25.8366 94.6981 25.7555 94.8175 25.7187C94.9369 25.682 95.0659 25.6923 95.178 25.7475C96.2492 26.3987 97.4393 26.8298 98.679 27.0158C99.9187 27.2017 101.183 27.1387 102.398 26.8305C106.826 25.7636 107.773 23.1724 107.973 22.1055C107.977 22.0361 107.996 21.9683 108.028 21.9067C108.06 21.845 108.105 21.7909 108.16 21.748C108.214 21.705 108.277 21.6742 108.345 21.6576C108.412 21.641 108.483 21.6389 108.551 21.6515C108.619 21.6642 108.684 21.6912 108.741 21.7309C108.798 21.7705 108.846 21.8219 108.882 21.8815C108.918 21.9412 108.94 22.0077 108.948 22.0768C108.956 22.1458 108.949 22.2158 108.928 22.2819C108.687 23.5334 107.604 26.5738 102.623 27.7772C101.782 27.98 100.92 28.0849 100.056 28.09Z" fill="#9A3A88"/>
<path d="M105.093 36.5294C103.066 36.5537 101.055 36.1602 99.1865 35.3735C97.3178 34.5868 95.631 33.4237 94.2314 31.9568C94.1403 31.8651 94.0891 31.7411 94.0891 31.6118C94.0891 31.4825 94.1403 31.3585 94.2314 31.2668C94.2762 31.2208 94.3299 31.1841 94.3891 31.1591C94.4484 31.1341 94.512 31.1212 94.5763 31.1212C94.6406 31.1212 94.7043 31.1341 94.7636 31.1591C94.8228 31.1841 94.8764 31.2208 94.9213 31.2668C96.2292 32.6385 97.8065 33.7249 99.5542 34.458C101.302 35.1911 103.182 35.5549 105.077 35.5266C111.335 35.5266 113.188 32.5905 113.982 31.339C114.016 31.284 114.06 31.2363 114.112 31.1988C114.165 31.1612 114.224 31.1345 114.287 31.1203C114.35 31.1061 114.415 31.1046 114.478 31.116C114.542 31.1274 114.602 31.1514 114.656 31.1866C114.765 31.2559 114.843 31.3658 114.871 31.4921C114.9 31.6184 114.877 31.7509 114.808 31.8605C114.014 33.1521 111.88 36.5294 105.093 36.5294Z" fill="#9A3A88"/>
<path d="M107.645 46.3165C105.714 46.3174 103.796 46.0058 101.965 45.394C97.3602 43.8377 94.031 41.1663 92.0816 37.46C92.0372 37.3482 92.0356 37.2239 92.0771 37.111C92.1186 36.998 92.2002 36.9043 92.3064 36.8478C92.4126 36.7912 92.5359 36.7757 92.6528 36.8043C92.7696 36.8329 92.8719 36.9035 92.9399 37.0027C94.8011 40.5405 97.8495 42.9793 102.278 44.4714C108.375 46.5251 114.199 44.4714 115.827 42.9793C115.924 42.9104 116.043 42.8792 116.162 42.8916C116.28 42.904 116.39 42.9592 116.471 43.0467C116.551 43.1343 116.597 43.2482 116.6 43.3672C116.603 43.4862 116.562 43.6022 116.485 43.6933C115.242 44.8725 111.824 46.3165 107.645 46.3165Z" fill="#9A3A88"/>
<path opacity="0.1" d="M95.3385 53.2157C104.075 43.244 100.697 27.5445 98.5473 23.02C95.523 16.6824 96.8065 13.8987 99.4539 14.3961C95.7556 12.6794 93.2286 15.4069 94.2554 19.2094C95.7155 24.6405 97.5365 36.8583 87.3884 42.2573C88.4248 46.9541 90.3825 51.3986 93.1484 55.3335C93.9338 54.6872 94.6662 53.979 95.3385 53.2157V53.2157Z" fill="black"/>
<path d="M118.194 121.1C115.226 113.88 113.75 93.8964 114.359 80.772C116.349 80.3548 118.78 77.6433 117.801 74.1376C116.918 70.9849 116.06 70.5677 113.397 67.1663C111.503 64.7596 110.188 61.5507 108.487 58.9195C102.647 49.9827 95.2263 44.0222 84.3 41.4471C83.8557 41.3412 83.4376 41.1463 83.0707 40.8743C82.7039 40.6022 82.3961 40.2585 82.1659 39.8641C81.9357 39.4697 81.7878 39.0326 81.7313 38.5794C81.6748 38.1262 81.7109 37.6663 81.8372 37.2274C82.5351 34.8207 83.1288 31.676 82.3988 29.3656C81.043 25.0978 78.3475 24.6646 76.5666 25.4588C74.7857 26.253 74.6493 28.0179 75.1868 30.8818C75.7243 33.7457 74.8819 34.2511 73.9273 33.9463C72.9726 33.6414 72.2587 28.427 65.5922 25.9802C58.9257 23.5334 54.4253 26.7824 54.5376 29.4939C54.6579 32.5023 56.84 32.7028 61.4688 33.2323C63.4786 33.4217 65.3703 34.2675 66.8517 35.639C67.2692 36.0764 67.5622 36.6174 67.7004 37.2061C67.8386 37.7948 67.817 38.4097 67.6379 38.9872C67.4587 39.5647 67.1285 40.0839 66.6814 40.491C66.2343 40.8981 65.6866 41.1783 65.0948 41.3027C48.1439 45.0651 35.0195 59.1922 31.2571 78.253C30.6446 81.6769 30.2481 85.136 30.0698 88.6097V88.6097C28.8887 86.603 26.9722 85.1355 24.727 84.5184C21.4539 83.7161 20.1543 85.2805 20.2025 86.7405C20.2506 88.2006 22.0636 88.8985 23.9007 89.6606C26.8449 90.88 27.3262 92.0111 27.3262 92.0111C25.7931 91.7757 24.2253 91.933 22.7696 92.4684C20.756 93.3589 20.2265 95.5329 22.1759 96.3672C23.2589 96.8245 24.9195 95.9982 26.6283 95.565C27.7032 95.3163 29.6927 94.9152 29.8371 96.2068C29.8371 99.2311 29.8371 102.384 29.9093 105.633C30.158 114.786 31.7625 121.052 30.3024 129.355C29.1874 135.644 23.6841 140.586 29.2114 145.808C30.2181 146.747 31.4366 147.43 32.7635 147.797C34.0903 148.164 35.4862 148.206 36.8325 147.918C37.7157 147.758 38.6266 147.945 39.3744 148.442C40.1222 148.939 40.6487 149.705 40.8436 150.581C41.4614 153.189 43.3466 156.365 48.6733 157.801C53.5829 159.101 56.6955 157.609 58.6449 155.788C58.9632 155.469 59.3433 155.218 59.7618 155.051C60.1804 154.883 60.6287 154.803 61.0793 154.815C61.5298 154.827 61.9732 154.931 62.3823 155.12C62.7913 155.31 63.1575 155.581 63.4583 155.916C65.5039 158.363 69.2985 160.986 76.1575 160.954C83.0165 160.922 86.466 157.946 88.1908 155.411C88.6615 154.682 89.393 154.16 90.2356 153.953C91.0782 153.746 91.9682 153.868 92.7233 154.296C95.3225 155.836 99.5102 157.071 104.757 154.296C108.631 152.226 109.634 148.512 109.73 145.471C109.745 145.002 109.858 144.542 110.063 144.119C110.267 143.697 110.558 143.322 110.917 143.019C111.275 142.717 111.694 142.493 112.144 142.363C112.595 142.232 113.068 142.198 113.533 142.262C115.071 142.58 116.67 142.421 118.116 141.808C119.562 141.195 120.787 140.155 121.627 138.829C125.294 133.245 120.857 127.606 118.194 121.1Z" fill="#9A3A88"/>
<g opacity="0.1">
<path opacity="0.1" d="M23.9007 89.6606C26.8449 90.88 27.3262 92.0111 27.3262 92.0111C25.7931 91.7757 24.2253 91.933 22.7696 92.4684C20.756 93.3589 20.2265 95.5329 22.1759 96.3672C23.2589 96.8245 24.9195 95.9982 26.6283 95.565C27.7032 95.3163 29.6927 94.9152 29.8371 96.2068C29.8371 99.2311 29.8371 102.384 29.9093 105.633C30.158 114.786 31.7625 121.052 30.3024 129.355C29.1874 135.644 23.6841 140.586 29.2114 145.808C30.3405 146.889 31.7589 147.619 33.2947 147.91C33.1263 147.822 30.5431 143.666 33.5915 137.674C37.8754 129.242 37.6027 123.972 36.4876 106.892C35.1158 86.0346 37.6749 77.0738 45.2559 62.3129C53.0294 47.183 65.3836 46.4529 70.6302 42.4418C73.4861 40.2598 72.5074 36.3048 70.0124 33.7939C67.9186 31.684 64.6456 30.8256 62.7122 30.6251C58.4925 30.1919 54.5697 29.4538 55.3639 27.344C54.8452 27.9242 54.5595 28.6757 54.5616 29.4538C54.682 32.4622 56.864 32.6627 61.4928 33.1922C63.5027 33.3816 65.3944 34.2274 66.8758 35.5989C67.2932 36.0363 67.5862 36.5773 67.7245 37.166C67.8627 37.7546 67.8411 38.3695 67.662 38.9471C67.4828 39.5246 67.1526 40.0438 66.7055 40.4509C66.2584 40.8579 65.7106 41.1382 65.1189 41.2626C48.1439 45.0651 35.0195 59.1922 31.2571 78.253C30.6446 81.677 30.2481 85.136 30.0698 88.6097V88.6097C28.8887 86.603 26.9722 85.1355 24.727 84.5184C21.4539 83.7162 20.1543 85.2805 20.2025 86.7405C20.2506 88.2006 22.0636 88.8985 23.9007 89.6606Z" fill="black"/>
<path opacity="0.1" d="M45.2239 150.702C43.0739 147.862 41.3331 147.397 38.3408 148.03C38.9515 148.193 39.506 148.52 39.9443 148.975C40.3826 149.431 40.6881 149.997 40.8277 150.613C41.4454 153.221 43.3306 156.397 48.6574 157.833C52.123 158.756 54.7142 158.275 56.6074 157.272C48.8981 158.924 47.3819 153.534 45.2239 150.702Z" fill="black"/>
<path opacity="0.1" d="M82.1902 159.975C78.3957 160.473 74.8419 159.614 70.8468 156.686C66.5389 153.534 64.429 153.83 61.7656 154.897C62.425 155.045 63.0173 155.406 63.4503 155.924C65.496 158.371 69.2905 160.994 76.1495 160.962C78.2046 160.98 80.2476 160.646 82.1902 159.975V159.975Z" fill="black"/>
<path opacity="0.1" d="M76.9517 29.6383C76.8073 27.1033 78.4198 25.194 80.4093 26.0283C79.8922 25.5725 79.2541 25.2762 78.5722 25.1751C77.8903 25.074 77.1938 25.1726 76.5666 25.4588C74.7777 26.261 74.6493 28.0178 75.1868 30.8818C75.7243 33.7457 74.882 34.2511 73.9273 33.9463C73.7392 33.846 73.5875 33.6887 73.4941 33.497V33.497C74.2322 35.1015 74.9462 36.7059 76.6148 35.8395C78.2834 34.9731 77.0961 32.1653 76.9517 29.6383Z" fill="black"/>
</g>
<path opacity="0.2" d="M60.8108 87.4705C61.1135 88.6103 61.7943 89.6136 62.7416 90.3161C63.6889 91.0185 64.8466 91.3786 66.0252 91.3372C70.3171 91.2811 70.7904 89.3317 72.5473 86.6683C74.3042 84.0049 78.0826 83.4113 81.3717 83.3551C82.2413 83.3118 83.087 83.0563 83.8351 82.6109C84.5832 82.1656 85.211 81.5439 85.6635 80.8002C86.1161 80.0564 86.3798 79.2132 86.4316 78.3441C86.4833 77.475 86.3216 76.6064 85.9605 75.8142C86.0479 76.6793 85.8896 77.5515 85.5036 78.3305C85.1176 79.1096 84.5196 79.764 83.7784 80.2184C81.1471 81.9352 77.6494 80.3869 74.2079 82.0315C70.7664 83.676 70.4695 87.3903 67.9425 88.5696C66.7675 89.0589 65.4804 89.2152 64.2224 89.0213C62.9644 88.8275 61.784 88.2909 60.8108 87.4705Z" fill="black"/>
<path d="M80.9144 85.2484C80.7787 86.5969 80.2196 87.8677 79.3172 88.8789C78.4149 89.8901 77.2155 90.5897 75.8912 90.8773C74.5668 91.165 73.1853 91.026 71.9447 90.4803C70.7042 89.9346 69.6682 89.0102 68.9854 87.8396C70.6861 86.2351 71.3278 83.5076 74.1998 82.0315C76.4701 80.8763 78.2109 81.4058 80.0961 81.3496C80.7724 82.5307 81.0588 83.8951 80.9144 85.2484Z" fill="#455A64"/>
<path d="M65.3034 89.5323C63.9818 89.617 62.6664 89.2909 61.5375 88.5986C60.4087 87.9064 59.5216 86.8818 58.9979 85.6655C58.9465 85.5474 58.9438 85.4137 58.9903 85.2935C59.0369 85.1734 59.129 85.0764 59.2466 85.0238C59.3049 84.9972 59.368 84.9826 59.4321 84.9808C59.4962 84.9789 59.56 84.9899 59.6198 85.0131C59.6796 85.0362 59.7341 85.0711 59.7802 85.1157C59.8264 85.1602 59.8631 85.2135 59.8884 85.2725C60.6264 86.9411 62.295 88.8584 66.1537 88.5215C68.3117 88.3369 69.146 87.0454 70.1648 85.4088C71.0406 83.8001 72.3496 82.4689 73.9433 81.5662C75.4045 80.8467 77.0435 80.5679 78.6604 80.764C80.4214 81.0296 82.2174 80.6136 83.6823 79.6007C84.2178 79.2543 84.6578 78.779 84.962 78.2183C85.2661 77.6577 85.4247 77.0297 85.4231 76.3918C85.4401 75.6538 85.3114 74.9196 85.0443 74.2313C84.7773 73.5431 84.3771 72.9142 83.8668 72.3807C83.7629 72.3039 83.6936 72.189 83.6741 72.0613C83.6545 71.9335 83.6863 71.8032 83.7625 71.6989C83.7991 71.6468 83.8459 71.6026 83.9 71.569C83.954 71.5355 84.0143 71.5131 84.0773 71.5034C84.1402 71.4937 84.2044 71.4967 84.2661 71.5124C84.3278 71.528 84.3857 71.556 84.4364 71.5946C85.4071 72.3005 86.4259 74.3943 86.3938 76.4079C86.3923 77.2034 86.1937 77.9862 85.8157 78.6861C85.4377 79.3861 84.8922 79.9815 84.2278 80.419C82.5888 81.5506 80.5848 82.0259 78.6122 81.7507C77.1682 81.5526 75.6978 81.7842 74.3845 82.4165C72.9445 83.2396 71.7657 84.4518 70.9831 85.9142C69.9242 87.5187 68.8251 89.2435 66.1698 89.4681C65.913 89.5323 65.6002 89.5323 65.3034 89.5323Z" fill="#455A64"/>
<path d="M79.2379 84.5505C79.2347 84.9014 79.1274 85.2435 78.9296 85.5335C78.7317 85.8234 78.4523 86.0481 78.1267 86.1791C77.8011 86.3101 77.4439 86.3414 77.1004 86.2693C76.757 86.1971 76.4426 86.0246 76.1973 85.7736C75.9519 85.5226 75.7866 85.2045 75.7222 84.8594C75.6578 84.5144 75.6973 84.158 75.8357 83.8355C75.974 83.5129 76.205 83.2386 76.4993 83.0475C76.7936 82.8563 77.1381 82.7567 77.489 82.7615C77.7215 82.7636 77.9513 82.8116 78.1651 82.9027C78.379 82.9939 78.5727 83.1264 78.7352 83.2926C78.8977 83.4588 79.0258 83.6555 79.112 83.8714C79.1983 84.0872 79.2411 84.318 79.2379 84.5505V84.5505Z" fill="#F5F5F5"/>
<path opacity="0.2" d="M114.351 80.9886L113.926 80.772C113.053 80.7131 112.217 80.4009 111.519 79.8735C110.661 79.0713 109.698 76.4801 106.955 75.8143C104.211 75.1484 102.671 76.4801 99.6223 76.6165C96.5739 76.7529 95.5551 74.643 94.9454 72.8781C94.6165 75.8704 95.4668 77.876 97.6328 78.7584C100.04 79.7371 104.404 77.6834 106.265 78.7584C108.126 79.8334 109.201 82.0555 111.519 82.3123C112.478 82.4577 113.458 82.2618 114.287 81.7587C114.327 81.51 114.343 81.2453 114.351 80.9886Z" fill="black"/>
<path d="M111.552 79.9056C111.171 81.4244 110.227 82.7418 108.912 83.5906C107.596 84.4394 106.006 84.7561 104.466 84.4766C102.925 84.197 101.549 83.3421 100.615 82.0851C99.6813 80.8282 99.2605 79.2632 99.438 77.7075C99.4776 77.346 99.5501 76.9889 99.6546 76.6405C101.917 76.5844 103.979 75.0361 106.987 75.8383C109.626 76.5443 109.811 78.6381 111.552 79.9056Z" fill="#455A64"/>
<path d="M114.287 81.2614C113.613 81.2295 112.95 81.0886 112.321 80.8442C111.19 80.3425 110.242 79.5015 109.61 78.4375C109.009 77.3774 108.019 76.5922 106.85 76.2475C105.331 75.9039 103.745 76.0098 102.286 76.5523C100.609 77.0256 98.8762 77.515 96.8145 76.2715C95.878 75.7118 95.1553 74.8552 94.7614 73.8377C94.3675 72.8203 94.325 71.7004 94.6405 70.656C94.6612 70.5957 94.6936 70.5401 94.736 70.4924C94.7784 70.4448 94.8298 70.406 94.8872 70.3784C94.9447 70.3508 95.0071 70.3349 95.0708 70.3315C95.1344 70.3282 95.1981 70.3376 95.2582 70.3592C95.3188 70.3807 95.3745 70.414 95.4222 70.4571C95.47 70.5002 95.5087 70.5524 95.5363 70.6105C95.5639 70.6686 95.5797 70.7316 95.5829 70.7958C95.5861 70.8601 95.5766 70.9243 95.555 70.9849C95.3224 71.8171 95.3682 72.7025 95.6853 73.5062C96.0025 74.31 96.5737 74.9881 97.3118 75.4372C99.0206 76.4641 100.408 76.071 102.021 75.6217C103.651 75.018 105.423 74.9091 107.115 75.3089C108.513 75.7108 109.701 76.6397 110.428 77.9C110.963 78.7977 111.761 79.5091 112.715 79.9377C113.246 80.1403 113.807 80.2568 114.375 80.2826C114.502 80.2822 114.625 80.3299 114.719 80.4162C114.813 80.5025 114.87 80.621 114.881 80.7479C114.884 80.8118 114.874 80.8757 114.852 80.9358C114.831 80.996 114.797 81.0512 114.754 81.0983C114.711 81.1453 114.658 81.1833 114.6 81.2099C114.542 81.2365 114.479 81.2513 114.415 81.2533L114.287 81.2614Z" fill="#455A64"/>
<path d="M108.88 79.5446C108.877 79.8728 108.776 80.1925 108.59 80.4631C108.404 80.7337 108.142 80.9428 107.837 81.0639C107.532 81.1849 107.198 81.2124 106.877 81.1429C106.557 81.0733 106.264 80.9098 106.036 80.6733C105.809 80.4367 105.657 80.1378 105.6 79.8146C105.543 79.4914 105.584 79.1585 105.717 78.8585C105.85 78.5584 106.069 78.3047 106.346 78.1298C106.624 77.9548 106.948 77.8664 107.276 77.876C107.492 77.8758 107.706 77.9193 107.905 78.0039C108.104 78.0886 108.284 78.2125 108.433 78.3684C108.583 78.5242 108.7 78.7087 108.777 78.9109C108.854 79.113 108.889 79.3286 108.88 79.5446Z" fill="#F5F5F5"/>
<path d="M89.418 93.2546C81.0829 96.9849 73.7586 104.357 70.3732 112.508C68.2874 117.522 69.4266 121.685 72.2183 122.632C77.7376 124.493 83.9228 115.893 90.0758 112.893C96.2289 109.893 101.235 112.797 104.355 110.783C108.03 108.417 107.492 102.376 105.519 98.0679C103.32 93.2385 97.7611 89.5323 89.418 93.2546Z" fill="#455A64"/>
<path d="M104.147 110.879C101.09 100.25 91.1107 96.9368 80.9866 98.5412C76.3845 102.276 72.7449 107.06 70.3732 112.492C68.2874 117.506 69.4266 121.669 72.2183 122.616C77.7376 124.477 83.9228 115.877 90.0758 112.877C96.0283 109.973 101.01 112.644 104.147 110.879Z" fill="#F28F8F"/>
<path opacity="0.1" d="M97.5928 111.433C87.3484 108.681 80.7461 117.482 77.4971 117.401C74.2481 117.321 72.6838 114.489 77.1842 107.31C81.6847 100.13 91.3114 98.1642 95.515 100.266C91.3194 98.1963 86.1932 97.7229 81.0188 98.5412C76.4167 102.276 72.7771 107.06 70.4054 112.492C68.3197 117.498 69.4588 121.669 72.2506 122.616C77.7699 124.477 83.955 115.877 90.108 112.877C92.4451 111.784 95.0168 111.288 97.5928 111.433Z" fill="black"/>
<path d="M101.492 101.261C99.518 102.119 99.5421 104.742 97.9136 110.318C97.8013 110.711 97.689 111.12 97.5767 111.441C100.32 111.505 102.639 111.874 104.355 110.767C104.699 110.538 105.014 110.268 105.294 109.965C105.695 105.753 103.577 100.354 101.492 101.261Z" fill="#F5F5F5"/>
<path d="M105.294 109.981C105.34 109.48 105.353 108.976 105.334 108.473C104.771 109.233 103.959 109.772 103.04 109.997C101.99 110.167 100.92 110.167 99.871 109.997C99.871 109.997 100.384 106.74 100.898 103.94C101.235 102.063 102.358 101.245 103.256 101.895C102.703 101.277 102.101 100.996 101.492 101.261C99.518 102.119 99.5421 104.742 97.9136 110.318C97.8013 110.711 97.689 111.12 97.5767 111.441C100.32 111.505 102.639 111.874 104.355 110.767C104.698 110.543 105.013 110.279 105.294 109.981V109.981Z" fill="#E0E0E0"/>
<path d="M80.3209 108.184C78.3394 109.042 78.3715 111.666 76.743 117.241C76.029 119.648 75.4194 121.477 74.946 122.76C77.8902 122.199 80.9788 119.551 84.1154 117.008C84.5567 112.797 82.4228 107.269 80.3209 108.184Z" fill="#F5F5F5"/>
<path d="M84.1153 117C84.1757 116.304 84.1757 115.603 84.1153 114.907C80.9947 116.928 79.1175 119.094 78.6201 118.821C78.1227 118.549 78.5559 116.359 78.7645 113.952C79.0212 111.04 79.3822 108.023 81.3236 108.232C81.1664 108.149 80.993 108.102 80.8155 108.094C80.6381 108.085 80.461 108.116 80.2968 108.184C78.3153 109.042 78.3474 111.666 76.7188 117.241C76.0049 119.648 75.3952 121.477 74.9219 122.76C77.866 122.199 80.9546 119.551 84.0913 117.008L84.1153 117Z" fill="#E0E0E0"/>
<path d="M12.3646 144.396C12.0921 144.395 11.8215 144.352 11.5623 144.268C11.2574 144.169 10.9753 144.011 10.7325 143.802C10.4896 143.592 10.291 143.337 10.1483 143.05C10.0056 142.763 9.92162 142.45 9.90132 142.131C9.88102 141.811 9.9248 141.49 10.0301 141.187C16.5682 121.862 26.0585 113.695 39.3273 106.78C39.6106 106.633 39.9203 106.542 40.2386 106.515C40.5568 106.487 40.8774 106.522 41.1821 106.618C41.4868 106.714 41.7696 106.869 42.0143 107.075C42.259 107.28 42.4609 107.532 42.6083 107.815C42.7558 108.098 42.8461 108.408 42.8739 108.726C42.9017 109.044 42.8665 109.365 42.7704 109.67C42.6743 109.974 42.5192 110.257 42.3138 110.502C42.1084 110.747 41.8569 110.949 41.5735 111.096C29.0668 117.61 20.6595 124.878 14.675 142.736C14.511 143.219 14.2002 143.639 13.786 143.936C13.3717 144.234 12.8747 144.395 12.3646 144.396V144.396Z" fill="#455A64"/>
<path d="M10.6479 139.447C9.62904 142.094 8.07274 143.161 6.58862 144.725C5.10451 146.289 3.50007 147.236 1.95178 149.675C0.403488 152.114 -0.326533 156.253 0.138756 158.186C0.395467 159.277 1.91167 159.285 1.99991 158.331C2.32882 154.769 2.92247 151.704 5.41738 149.803C4.42321 151.871 3.77548 154.088 3.50007 156.365C3.27544 159.494 3.6926 163.232 4.98418 163.417C6.27576 163.601 6.23564 162.278 6.05113 160.393C5.86662 158.507 5.69816 153.534 8.20911 149.964C8.20911 149.964 7.31062 155.21 8.20911 158.563C9.1076 161.917 10.8404 164.307 11.8031 163.898C12.7657 163.489 12.7176 162.847 11.6747 160.272C10.8725 158.275 10.8725 155.74 11.1132 153.59C11.1633 151.63 11.9412 149.76 13.2952 148.343C13.8018 147.796 14.4396 147.387 15.1483 147.156C15.5478 147.105 15.9535 147.144 16.3363 147.269C16.7192 147.394 17.0696 147.602 17.3625 147.878C18.445 148.879 19.1361 150.233 19.3119 151.696C19.5365 153.381 22.3202 153.534 21.2853 148.8C20.2505 144.067 14.4183 143.233 15.8784 139.366L10.6479 139.447Z" fill="#455A64"/>
<path d="M131.824 121.725L134.046 117.426C130.596 115.629 134.543 110.342 132.546 105.922C130.548 101.501 128.414 103.282 129.232 104.766C129.629 105.387 129.897 106.081 130.019 106.808C130.142 107.534 130.117 108.278 129.946 108.994C129.609 110.173 128.847 110.863 128.037 110.165C127.227 109.467 126.705 107.173 123.729 104.646C121.965 103.028 119.701 102.06 117.311 101.903C114.985 101.903 115.803 103.507 116.918 103.964C121.732 105.89 122.325 106.965 123.529 108.537C124.732 110.109 124.579 111.008 123.954 110.823C123.328 110.639 122.349 109.275 119.445 107.927C116.541 106.579 113.26 106.588 112.755 107.205C112.249 107.823 112.305 108.617 113.701 108.946C115.755 109.375 117.75 110.046 119.646 110.944C121.691 112.123 122.622 113.647 122.285 114.088C121.948 114.53 120.199 113.286 117.536 112.805C114.873 112.323 113.525 112.315 112.402 112.749C111.6 113.061 111.88 114.706 114.319 114.826C116.795 115.031 119.19 115.808 121.314 117.097C122.585 118.017 123.945 118.807 125.374 119.455C127.48 120.331 129.633 121.089 131.824 121.725Z" fill="#455A64"/>
<path d="M52.1709 56.7775C54.9867 58.2536 59.5032 65.9389 53.9678 74.1135C52.2046 76.8965 49.6395 79.0798 46.6107 80.3759C43.5818 81.6719 40.2313 82.0198 37.0008 81.3737C34.7546 80.2826 22.994 75.1805 22.4164 58.9114C21.8388 42.6424 31.8105 36.4492 34.3455 34.9811C36.8805 33.5131 41.8382 33.112 41.2205 38.6794C40.6028 44.2468 40.0172 49.1885 44.0604 52.7664C47.2372 55.5982 52.1709 56.7775 52.1709 56.7775Z" fill="#9A3A88"/>
<path opacity="0.75" d="M52.1709 56.7775C54.9867 58.2536 59.5032 65.9389 53.9678 74.1135C52.2046 76.8965 49.6395 79.0798 46.6107 80.3759C43.5818 81.6719 40.2313 82.0198 37.0008 81.3737C34.7546 80.2826 22.994 75.1805 22.4164 58.9114C21.8388 42.6424 31.8105 36.4492 34.3455 34.9811C36.8805 33.5131 41.8382 33.112 41.2205 38.6794C40.6028 44.2468 40.0172 49.1885 44.0604 52.7664C47.2372 55.5982 52.1709 56.7775 52.1709 56.7775Z" fill="white"/>
<path d="M31.1125 77.9161C30.7187 77.9172 30.3251 77.8984 29.9332 77.8599C29.8046 77.8458 29.6868 77.7813 29.6057 77.6806C29.5245 77.5799 29.4865 77.4511 29.5 77.3224C29.5141 77.1938 29.5786 77.0761 29.6793 76.9949C29.78 76.9137 29.9088 76.8757 30.0375 76.8892C32.4441 77.154 39.9369 76.6085 45.0952 70.9849C50.3658 65.2329 50.5824 59.6254 49.8283 55.9352C49.8154 55.873 49.815 55.8089 49.827 55.7466C49.839 55.6842 49.8632 55.6249 49.8983 55.5719C49.9333 55.519 49.9785 55.4735 50.0312 55.4381C50.0839 55.4027 50.1431 55.378 50.2053 55.3656C50.3319 55.3395 50.4637 55.3644 50.5719 55.4351C50.6801 55.5057 50.756 55.6163 50.7829 55.7427C51.5852 59.6495 51.3605 65.5859 45.8092 71.6427C41.052 76.8331 34.4096 77.9161 31.1125 77.9161Z" fill="#9A3A88"/>
<path d="M28.1283 67.1823C26.3453 67.1908 24.566 67.0188 22.8176 66.6689C22.7555 66.6552 22.6966 66.6294 22.6444 66.593C22.5923 66.5565 22.5478 66.5102 22.5135 66.4566C22.4792 66.4029 22.4559 66.3431 22.4447 66.2804C22.4336 66.2177 22.4349 66.1535 22.4486 66.0913C22.4623 66.0292 22.4881 65.9703 22.5245 65.9181C22.561 65.866 22.6073 65.8214 22.661 65.7872C22.7146 65.7529 22.7745 65.7295 22.8371 65.7184C22.8998 65.7073 22.9641 65.7086 23.0262 65.7223C23.3952 65.8025 32.1234 67.6958 38.3727 63.5001C44.0364 59.7056 44.5338 55.1249 44.7424 53.1675C44.7565 53.0389 44.821 52.9212 44.9217 52.84C45.0224 52.7588 45.1512 52.7208 45.2799 52.7343C45.3437 52.7402 45.4056 52.759 45.4619 52.7895C45.5183 52.8201 45.5678 52.8617 45.6076 52.912C45.6473 52.9622 45.6765 53.02 45.6932 53.0819C45.71 53.1437 45.714 53.2084 45.705 53.2718C45.5045 55.1811 44.959 60.2592 38.9182 64.3104C35.4767 66.6208 31.3453 67.1823 28.1283 67.1823Z" fill="#9A3A88"/>
<path d="M30.4548 54.2345C27.5198 54.3198 24.6244 53.5416 22.1277 51.9963C22.0712 51.9633 22.022 51.9191 21.9831 51.8665C21.9442 51.8138 21.9165 51.7538 21.9016 51.6901C21.8867 51.6264 21.8849 51.5603 21.8964 51.4958C21.9079 51.4314 21.9325 51.37 21.9685 51.3154C22.0046 51.2607 22.0514 51.214 22.1061 51.1781C22.1608 51.1422 22.2223 51.1178 22.2867 51.1065C22.3512 51.0951 22.4173 51.097 22.481 51.1121C22.5447 51.1271 22.6046 51.155 22.6572 51.194C24.2616 52.253 27.8556 53.8975 33.6557 53.0151C38.2363 52.3172 40.2259 50.8411 41.6779 49.357C41.7227 49.3117 41.7759 49.2756 41.8346 49.2509C41.8933 49.2262 41.9563 49.2133 42.02 49.2129C42.0837 49.2125 42.1468 49.2247 42.2058 49.2487C42.2648 49.2728 42.3185 49.3082 42.3638 49.3529C42.4091 49.3977 42.4451 49.451 42.4698 49.5097C42.4946 49.5684 42.5075 49.6314 42.5078 49.6951C42.5082 49.7588 42.496 49.8219 42.472 49.8809C42.448 49.9399 42.4126 49.9935 42.3678 50.0388C40.7633 51.6433 38.6615 53.2477 33.8001 53.9778C32.6931 54.1477 31.5748 54.2335 30.4548 54.2345Z" fill="#9A3A88"/>
<path d="M35.565 44.8485C34.5735 44.8437 33.5867 44.7116 32.6289 44.4554C31.4468 44.1958 30.3362 43.6797 29.3755 42.9436C28.4149 42.2076 27.6276 41.2694 27.0695 40.1956C27.0405 40.1382 27.023 40.0756 27.0182 40.0115C27.0134 39.9473 27.0213 39.8829 27.0414 39.8218C27.0615 39.7607 27.0935 39.7041 27.1355 39.6554C27.1774 39.6067 27.2286 39.5667 27.2861 39.5378C27.3429 39.5089 27.4049 39.4916 27.4684 39.4869C27.5319 39.4822 27.5958 39.4901 27.6562 39.5103C27.7167 39.5304 27.7725 39.5624 27.8205 39.6043C27.8685 39.6462 27.9077 39.6972 27.9359 39.7544C28.4269 40.7088 29.1245 41.5417 29.9779 42.1926C30.8314 42.8434 31.8192 43.2958 32.8695 43.5168C34.2199 43.8962 35.6366 43.9779 37.0217 43.7563C38.4067 43.5347 39.7272 43.015 40.8918 42.2332C40.9444 42.1962 41.004 42.1703 41.067 42.1571C41.13 42.1439 41.195 42.1436 41.2581 42.1564C41.3211 42.1692 41.3809 42.1947 41.4338 42.2313C41.4867 42.268 41.5316 42.315 41.5656 42.3696C41.6016 42.4226 41.6266 42.4822 41.6392 42.545C41.6518 42.6078 41.6517 42.6724 41.639 42.7352C41.6263 42.7979 41.6012 42.8575 41.5652 42.9105C41.5292 42.9634 41.483 43.0086 41.4293 43.0435C39.6967 44.2133 37.6555 44.8416 35.565 44.8485V44.8485Z" fill="#9A3A88"/>
<path opacity="0.1" d="M43.3463 75.5736C39.8005 75.2447 35.3241 74.2419 31.5136 68.3536C27.703 62.4653 26.4756 50.1833 29.9813 42.7868C32.2917 37.9173 36.9045 33.4569 40.2337 34.9491C38.7496 33.5612 36.006 34.0586 34.3454 35.0132C31.8425 36.4572 21.8388 42.6745 22.4164 58.9355C22.994 75.1965 34.7545 80.2907 37.0008 81.3977C40.2313 82.0439 43.5817 81.696 46.6106 80.3999C49.6395 79.1039 52.2045 76.9205 53.9678 74.1376C57.674 68.6665 56.8718 63.4119 55.0989 60.0907C57.8746 68.7868 48.657 76.0549 43.3463 75.5736Z" fill="black"/>
<path d="M50.6307 73.8889C50.6307 73.8889 46.4431 78.5017 46.411 82.93C46.3862 83.499 46.4768 84.0673 46.6775 84.6004C46.8781 85.1335 47.1847 85.6204 47.5786 86.0319C47.9725 86.4434 48.4456 86.7708 48.9695 86.9946C49.4933 87.2183 50.0571 87.3336 50.6267 87.3336C51.1963 87.3336 51.76 87.2183 52.2839 86.9946C52.8077 86.7708 53.2809 86.4434 53.6748 86.0319C54.0687 85.6204 54.3752 85.1335 54.5759 84.6004C54.7765 84.0673 54.8672 83.499 54.8424 82.93C54.8103 78.5017 50.6307 73.8889 50.6307 73.8889Z" fill="#FAFAFA"/>
<path d="M193.859 0.236893L142.148 30.0715C141.863 30.255 141.626 30.5033 141.456 30.7962C141.286 31.089 141.188 31.418 141.169 31.7562V64.2783C141.188 64.6153 141.287 64.9429 141.457 65.2344C141.627 65.5258 141.864 65.7728 142.148 65.9549L145.638 67.9043C145.94 68.0567 146.274 68.136 146.613 68.136C146.951 68.136 147.285 68.0567 147.587 67.9043L199.323 38.0777C199.605 37.8924 199.84 37.6435 200.008 37.3509C200.177 37.0583 200.275 36.7302 200.293 36.3931V3.86294C200.274 3.52599 200.176 3.19833 200.006 2.90687C199.835 2.61541 199.599 2.36846 199.314 2.18629L195.825 0.228872C195.519 0.0769937 195.182 -0.00137458 194.841 1.82458e-05C194.5 0.00141107 194.164 0.0825251 193.859 0.236893V0.236893Z" fill="#9A3A88"/>
<path d="M146.617 67.3348V34.8127C146.635 34.4755 146.733 34.1474 146.902 33.8548C147.07 33.5622 147.305 33.3133 147.587 33.128L199.323 3.30139C199.86 2.98853 200.293 3.24524 200.293 3.86295V36.385C200.275 36.7222 200.177 37.0503 200.009 37.3429C199.84 37.6355 199.605 37.8844 199.323 38.0697L147.587 67.8723C147.05 68.2092 146.617 67.9525 146.617 67.3348Z" fill="#9A3A88"/>
<path opacity="0.2" d="M147.587 67.8723C147.285 68.0265 146.951 68.1069 146.613 68.1069C146.274 68.1069 145.94 68.0265 145.638 67.8723L142.148 65.9068C141.864 65.7269 141.627 65.4816 141.456 65.1913C141.286 64.901 141.188 64.5742 141.169 64.2382V31.7723C141.182 31.4185 141.29 31.0747 141.482 30.7775L146.905 33.8741C146.725 34.1606 146.625 34.4903 146.617 34.8287V67.3508C146.617 67.8723 147.018 68.2333 147.587 67.8723Z" fill="black"/>
<path opacity="0.4" d="M200.277 3.69446C200.205 3.2051 199.804 3.02861 199.315 3.30939L147.595 33.136C147.308 33.3174 147.07 33.5685 146.905 33.866L141.474 30.7695C141.637 30.4858 141.868 30.2484 142.148 30.0796L193.859 0.23688C194.162 0.0863565 194.496 0.00802612 194.834 0.00802612C195.172 0.00802612 195.506 0.0863565 195.809 0.23688L199.299 2.1943C199.56 2.3589 199.783 2.57821 199.952 2.83716C200.121 3.09612 200.232 3.38859 200.277 3.69446Z" fill="white"/>
<path d="M141.17 43.3082L133.34 51.2743C133.25 51.3658 133.182 51.476 133.14 51.597C133.098 51.7181 133.083 51.8469 133.097 51.9743C133.111 52.1016 133.153 52.2244 133.22 52.3336C133.287 52.4428 133.377 52.5359 133.484 52.606C133.645 52.7183 138.907 55.7266 138.907 55.7266L146.617 46.4449L141.17 43.3082Z" fill="#9A3A88"/>
<path opacity="0.1" d="M141.17 43.3082L133.34 51.2743C133.25 51.3658 133.182 51.476 133.14 51.597C133.098 51.7181 133.083 51.8469 133.097 51.9743C133.111 52.1016 133.153 52.2244 133.22 52.3336C133.287 52.4428 133.377 52.5359 133.484 52.606C133.645 52.7183 138.907 55.7266 138.907 55.7266L146.617 46.4449L141.17 43.3082Z" fill="black"/>
<path d="M146.617 46.4449L138.787 54.411C138.662 54.5404 138.581 54.7054 138.554 54.8832C138.527 55.0609 138.557 55.2426 138.638 55.403C138.719 55.5635 138.848 55.6947 139.007 55.7785C139.166 55.8624 139.347 55.8947 139.525 55.871L146.617 54.8442C147.379 54.8442 147.379 46.4449 146.617 46.4449Z" fill="#9A3A88"/>
<path d="M152.946 43.8056C152.981 42.8809 153.108 41.9619 153.323 41.062C153.539 40.1652 153.857 39.2959 154.27 38.4708C154.672 37.6634 155.174 36.9089 155.762 36.2246C156.332 35.5514 157.016 34.9839 157.783 34.5479C158.384 34.155 159.08 33.9306 159.797 33.8981C160.342 33.8809 160.874 34.0668 161.289 34.4196C161.736 34.8235 162.064 35.3424 162.236 35.9197C162.476 36.664 162.603 37.4401 162.613 38.2221C162.613 38.888 162.613 39.6019 162.613 40.348C162.613 41.0941 162.613 41.8 162.613 42.4659C162.585 43.3886 162.459 44.3057 162.236 45.2015C162.018 46.103 161.701 46.9775 161.289 47.8087C160.892 48.6194 160.39 49.3746 159.797 50.0549C159.222 50.7181 158.542 51.2819 157.783 51.7235C157.178 52.1146 156.482 52.3438 155.762 52.3894C155.217 52.4066 154.685 52.2207 154.27 51.8679C153.824 51.453 153.498 50.9269 153.323 50.3437C153.091 49.6004 152.964 48.828 152.946 48.0493C152.946 47.4076 152.946 46.7177 152.946 45.9636C152.946 45.2095 152.946 44.5115 152.946 43.8056ZM159.749 43.9981C159.749 43.7093 159.749 43.3884 159.749 43.0274C159.749 42.6664 159.749 42.3135 159.749 41.9444C159.749 41.5754 159.749 41.2305 159.749 40.8935C159.749 40.5566 159.749 40.2598 159.749 39.995C159.739 39.6552 159.685 39.3181 159.588 38.9923C159.522 38.744 159.392 38.5174 159.211 38.3344C159.052 38.1813 158.839 38.0952 158.618 38.0938C158.332 38.1088 158.054 38.2002 157.816 38.3585C157.515 38.5496 157.244 38.7849 157.013 39.0564C156.778 39.341 156.578 39.6535 156.42 39.987C156.259 40.3366 156.135 40.7024 156.051 41.078C155.961 41.4684 155.905 41.8656 155.882 42.2653C155.882 42.5461 155.882 42.859 155.882 43.2039C155.882 43.5489 155.882 43.9099 155.882 44.2709C155.882 44.6319 155.882 44.9929 155.882 45.3459C155.882 45.6988 155.882 46.0037 155.882 46.2764C155.871 46.8769 156.06 47.464 156.42 47.9451C156.733 48.29 157.222 48.274 157.856 47.9049C158.493 47.5417 158.993 46.9775 159.276 46.3005C159.573 45.5737 159.736 44.7991 159.757 44.0142L159.749 43.9981Z" fill="#FBFBFB"/>
<path d="M172.344 35.9919C172.344 36.2246 172.344 36.5294 172.344 36.8985C172.344 37.2675 172.344 37.5803 172.344 37.829C172.318 38.6204 172.203 39.4063 171.999 40.1715C171.795 40.948 171.51 41.7008 171.149 42.4177C170.794 43.1134 170.355 43.7628 169.841 44.3511C169.352 44.9174 168.772 45.3974 168.124 45.771C167.61 46.0978 167.023 46.2909 166.416 46.3326C165.941 46.3506 165.475 46.2 165.1 45.9074C164.711 45.5695 164.418 45.1351 164.25 44.6479C164.027 44.0192 163.913 43.3573 163.913 42.6905C163.913 42.4579 163.913 42.161 163.913 41.784C163.913 41.4069 163.913 41.1021 163.913 40.8534C163.927 40.0653 164.035 39.2817 164.233 38.5189C164.439 37.7408 164.73 36.9876 165.1 36.2727C165.457 35.5688 165.898 34.9114 166.416 34.3153C166.901 33.7469 167.479 33.2642 168.124 32.8873C168.64 32.5608 169.231 32.3729 169.841 32.3418C170.316 32.3315 170.781 32.4844 171.157 32.775C171.551 33.1079 171.846 33.5439 172.007 34.0345C172.222 34.6652 172.335 35.3258 172.344 35.9919V35.9919ZM166.728 40.9657C166.714 41.1805 166.745 41.3959 166.82 41.5977C166.894 41.7996 167.011 41.9834 167.162 42.137C167.41 42.3375 167.747 42.3135 168.156 42.0728C168.589 41.8138 168.937 41.4348 169.159 40.9818C169.417 40.4645 169.561 39.8985 169.584 39.3212C169.584 39.0645 169.584 38.7917 169.584 38.5189C169.584 38.2462 169.584 37.9574 169.584 37.7167C169.595 37.503 169.563 37.2893 169.49 37.0881C169.417 36.887 169.305 36.7025 169.159 36.5455C169.006 36.4506 168.827 36.4058 168.647 36.4173C168.468 36.4288 168.296 36.4961 168.156 36.6097C167.726 36.8692 167.38 37.2482 167.162 37.7007C166.898 38.2189 166.75 38.7883 166.728 39.3693C166.728 39.618 166.728 39.8907 166.728 40.1715C166.728 40.4523 166.68 40.7411 166.696 40.9657H166.728Z" fill="#FBFBFB"/>
<path d="M178.665 39.6902C178.416 39.8369 178.146 39.9426 177.863 40.0031C177.67 40.0447 177.47 40.0447 177.277 40.0031C177.124 39.9623 176.982 39.8883 176.86 39.7865C176.756 39.6953 176.662 39.5931 176.58 39.4816V44.5597C176.579 44.7438 176.535 44.9252 176.451 45.0892C176.39 45.2341 176.29 45.3591 176.162 45.4502L174.205 46.5733C174.165 46.6072 174.113 46.6258 174.061 46.6258C174.008 46.6258 173.957 46.6072 173.916 46.5733C173.869 46.5217 173.833 46.4608 173.811 46.3944C173.789 46.3281 173.781 46.2578 173.788 46.1882V30.4967C173.787 30.3151 173.832 30.1361 173.916 29.9753C173.972 29.8277 174.073 29.7014 174.205 29.6143L176.09 28.5634C176.13 28.5256 176.183 28.5045 176.239 28.5045C176.294 28.5045 176.347 28.5256 176.387 28.5634C176.476 28.6708 176.52 28.8092 176.507 28.9485V29.494L176.812 28.8201C176.921 28.574 177.055 28.34 177.213 28.1222C177.39 27.882 177.586 27.6566 177.799 27.4483C178.061 27.2051 178.352 26.995 178.665 26.8226C179.062 26.5725 179.513 26.4212 179.981 26.3813C180.178 26.3674 180.375 26.3936 180.561 26.4584C180.747 26.5232 180.918 26.6253 181.064 26.7584C181.422 27.1078 181.682 27.5448 181.818 28.0259C182.033 28.7577 182.139 29.5174 182.131 30.2801C182.131 30.5128 182.131 30.8337 182.131 31.2348C182.131 31.6359 182.131 31.9648 182.131 32.2135C182.123 33.0941 182.018 33.9711 181.818 34.8287C181.646 35.5683 181.393 36.2866 181.064 36.9707C180.779 37.5531 180.415 38.0931 179.981 38.5751C179.604 39.0136 179.16 39.3899 178.665 39.6902ZM179.363 33.5131C179.395 33.0671 179.395 32.6194 179.363 32.1734C179.361 31.7333 179.236 31.3026 179.002 30.9299C178.794 30.6304 178.449 30.6304 177.967 30.9299C177.738 31.0576 177.536 31.2294 177.374 31.4353C177.211 31.6459 177.074 31.8748 176.965 32.1172C176.859 32.3612 176.773 32.6134 176.708 32.8713C176.647 33.1352 176.607 33.4034 176.588 33.6735C176.588 33.9222 176.588 34.211 176.588 34.5239C176.574 34.7911 176.574 35.0589 176.588 35.3261C176.605 35.5384 176.646 35.7482 176.708 35.9518C176.764 36.1192 176.851 36.2744 176.965 36.4091C177.071 36.525 177.217 36.5966 177.374 36.6097C177.584 36.6142 177.791 36.5555 177.967 36.4412C178.441 36.1646 178.806 35.7344 179.002 35.2218C179.214 34.6756 179.336 34.0985 179.363 33.5131V33.5131Z" fill="#FBFBFB"/>
<path d="M188.18 30.232C188.18 30.0555 188.14 29.9432 188.059 29.8951C187.933 29.8438 187.792 29.8438 187.666 29.8951C187.415 29.9567 187.169 30.0344 186.928 30.1277C186.623 30.24 186.246 30.3604 185.789 30.4967C185.491 30.6261 185.162 30.6677 184.84 30.6165C184.519 30.5653 184.219 30.4236 183.976 30.2079C183.482 29.5661 183.255 28.7587 183.342 27.9537C183.346 27.3899 183.435 26.83 183.607 26.2931C183.788 25.7309 184.036 25.1923 184.345 24.6886C184.663 24.1494 185.046 23.6511 185.484 23.2045C185.924 22.7535 186.423 22.3648 186.968 22.0493C187.423 21.7691 187.926 21.5785 188.452 21.4878C188.847 21.4187 189.252 21.449 189.632 21.576C189.963 21.6821 190.247 21.9006 190.434 22.1937C190.629 22.4984 190.738 22.8507 190.747 23.2126C190.759 23.3935 190.72 23.5742 190.634 23.734C190.57 23.8834 190.464 24.0114 190.33 24.103L188.485 25.162C188.372 25.2342 188.284 25.2422 188.22 25.2021L187.979 25.0817C187.863 25.0314 187.736 25.012 187.61 25.0256C187.386 25.0605 187.172 25.1455 186.984 25.2743C186.756 25.3999 186.554 25.5689 186.391 25.7716C186.235 25.952 186.149 26.1829 186.15 26.4214C186.138 26.5462 186.163 26.6717 186.222 26.7824C186.276 26.8466 186.38 26.8627 186.535 26.8306C186.756 26.7791 186.973 26.7121 187.185 26.63L188.284 26.261C189.223 25.9562 189.888 26.0524 190.338 26.5418C190.807 27.1621 191.035 27.9319 190.979 28.7078C190.975 29.2735 190.888 29.8355 190.723 30.3764C190.526 30.9715 190.257 31.54 189.92 32.0691C189.573 32.6523 189.155 33.1911 188.677 33.6735C188.183 34.1651 187.627 34.5911 187.024 34.941C186.534 35.2471 185.989 35.4567 185.42 35.5588C185.019 35.6226 184.609 35.5754 184.233 35.4224C183.924 35.2784 183.666 35.0433 183.495 34.7485C183.322 34.4414 183.226 34.0976 183.214 33.7457C183.202 33.5648 183.24 33.3841 183.326 33.2243C183.393 33.0762 183.498 32.9487 183.631 32.8553L185.548 31.7482C185.669 31.684 185.749 31.676 185.797 31.7482C185.859 31.8102 185.926 31.8666 185.998 31.9167C186.108 31.977 186.233 32.0048 186.359 31.9969C186.609 31.9587 186.847 31.8656 187.057 31.7241C187.358 31.5498 187.629 31.3276 187.859 31.0663C188.072 30.8416 188.187 30.5416 188.18 30.232V30.232Z" fill="#FBFBFB"/>
<path d="M195.167 24.1511C195.165 24.3326 195.121 24.5112 195.039 24.6726C194.983 24.8202 194.881 24.9465 194.75 25.0336L192.792 26.1567C192.754 26.194 192.702 26.2148 192.648 26.2148C192.594 26.2148 192.542 26.194 192.504 26.1567C192.456 26.1051 192.42 26.0442 192.398 25.9778C192.376 25.9115 192.368 25.8412 192.375 25.7716V15.4791C192.376 15.295 192.42 15.1136 192.504 14.9496C192.56 14.802 192.661 14.6758 192.792 14.5886L194.75 13.4655C194.789 13.4283 194.84 13.4075 194.894 13.4075C194.948 13.4075 195 13.4283 195.039 13.4655C195.086 13.5171 195.122 13.578 195.144 13.6444C195.166 13.7107 195.174 13.781 195.167 13.8506V24.1511ZM195.167 29.2773C195.167 29.459 195.123 29.638 195.039 29.7988C194.983 29.9464 194.881 30.0727 194.75 30.1598L192.792 31.2909C192.753 31.3264 192.701 31.3461 192.648 31.3461C192.595 31.3461 192.543 31.3264 192.504 31.2909C192.456 31.2412 192.42 31.1817 192.398 31.1166C192.376 31.0514 192.368 30.9823 192.375 30.9139V28.5072C192.377 28.3258 192.421 28.1472 192.504 27.9858C192.56 27.8382 192.661 27.7119 192.792 27.6248L194.75 26.4936C194.79 26.4581 194.841 26.4385 194.894 26.4385C194.947 26.4385 194.999 26.4581 195.039 26.4936C195.086 26.5452 195.122 26.6061 195.144 26.6725C195.166 26.7388 195.174 26.8091 195.167 26.8787V29.2773Z" fill="#FBFBFB"/>
</svg>
