<svg xmlns="http://www.w3.org/2000/svg" viewBox="0 0 1269.74 1269.74"><defs><style>.cls-1{fill:#9b3a89;}.cls-2{fill:#f6f6f6;}</style></defs><g id="logo"><rect class="cls-1" x="39.6" y="41.05" width="1190.55" height="1190.55" rx="595.27"/><path class="cls-2" d="M715.49,768.25a13,13,0,0,1-9.2-3.79C628,686.76,536,599.26,472.69,539.53c-5.82-5.48-19.24-18.67-20.53-20.16C431.1,495,391.9,449.49,398,399.49c3.31-27.18,19.63-51.32,48.48-71.77,103.79-73.52,301.58,17,309.95,20.89a13.07,13.07,0,1,1-11,23.71c-1.91-.88-192.38-88-283.81-23.26-22.59,16-35.26,34-37.64,53.6-4.69,38.38,29.34,78,47.81,99.41,1.67,1.71,12.56,12.5,18.86,18.44C554.07,580.34,646.18,668,724.7,745.9a13.07,13.07,0,0,1-9.21,22.35Z"/><path class="cls-2" d="M826.18,320.58a13,13,0,0,1-8-2.78h0c-1.2-.94-122.13-93.39-307.5-68.87A13.08,13.08,0,0,1,507.2,223C704,197,829,293.12,834.26,297.22a13.08,13.08,0,0,1-8.08,23.36Z"/><path class="cls-2" d="M465.33,1048.43c-7.39,0-14.73-1.73-19.93-7-4.51-4.55-8.78-13-3.59-27.05,5.66-15.33,11.3-32.95,16.27-48.49,5.17-16.14,9.63-30.08,13.11-38.43,11-26.35,27.57-31.15,52.68-38.42,3.33-1,6.9-2,10.73-3.15,31.21-9.42,171.72-55.9,173.14-56.37A13.08,13.08,0,1,1,716,854.36c-5.79,1.92-142.26,47-173.79,56.57-3.94,1.19-7.61,2.25-11,3.24-24.47,7.08-29.86,9.08-35.81,23.36-3.06,7.32-7.57,21.42-12.35,36.34-4.92,15.39-10.49,32.78-16.18,48.33a62.16,62.16,0,0,0,14.18-3.14c.28-.1.57-.19.86-.27,2.29-.64,229.83-64.6,295.22-106.28C810.45,891.23,845,845.45,845,805.69c0-44.84-19.87-65.34-52.79-99.31l-8-8.31c-52.63-54.77-108.6-106.32-158-151.81-31.47-29-58.65-54-79.93-75.25-37.54-37.43-26.38-69.35-15.24-81a13.07,13.07,0,0,1,19.08,17.88c-1.55,1.83-12.91,17.15,14.62,44.61,20.92,20.87,47.92,45.74,79.18,74.53C693.54,572.77,749.83,624.6,803,680q4.07,4.23,8,8.23c33.62,34.68,60.16,62.08,60.16,117.51,0,51.12-40.25,103.52-80,128.87-67.85,43.25-287.55,105.29-301.82,109.29C483.94,1045.72,474.59,1048.43,465.33,1048.43Z"/></g></svg>