<?xml version="1.0" standalone="no"?>
<!DOCTYPE svg PUBLIC "-//W3C//DTD SVG 20010904//EN"
 "http://www.w3.org/TR/2001/REC-SVG-20010904/DTD/svg10.dtd">
<svg version="1.0" xmlns="http://www.w3.org/2000/svg"
 width="700.000000pt" height="700.000000pt" viewBox="0 0 700.000000 700.000000"
 preserveAspectRatio="xMidYMid meet">
<metadata>
Created by potrace 1.14, written by Peter Selinger 2001-2017
</metadata>
<g transform="translate(0.000000,700.000000) scale(0.100000,-0.100000)"
fill="#000000" stroke="none">
<path d="M3325 6774 c-163 -12 -296 -28 -415 -50 -1020 -184 -1886 -834 -2350
-1763 -492 -986 -454 -2180 101 -3127 221 -378 532 -724 884 -985 466 -346
1025 -562 1609 -624 186 -19 505 -19 694 0 578 61 1138 277 1600 619 421 311
762 716 996 1185 384 764 446 1700 168 2521 -343 1013 -1161 1797 -2187 2096
-154 45 -375 90 -540 109 -129 15 -464 26 -560 19z m85 -995 c403 -37 833
-182 1125 -379 82 -55 99 -84 74 -129 -24 -44 -66 -40 -145 14 -145 97 -401
212 -599 270 -119 34 -306 71 -430 85 -127 14 -425 14 -546 0 -86 -10 -95 -9
-119 8 -35 26 -35 78 0 103 46 34 408 50 640 28z m-80 -455 c211 -30 500 -111
735 -206 134 -54 167 -91 129 -146 -22 -32 -65 -28 -161 12 -190 80 -477 164
-688 202 -127 22 -363 30 -466 15 -180 -27 -314 -89 -424 -197 -176 -172 -162
-379 42 -652 73 -96 149 -173 548 -552 176 -167 465 -445 643 -618 277 -270
322 -318 322 -343 0 -16 -9 -38 -20 -49 -44 -44 -52 -39 -393 293 -177 173
-464 448 -637 612 -408 387 -491 471 -573 580 -168 225 -223 425 -167 607 58
187 275 368 516 428 165 42 369 46 594 14z m-305 -479 c30 -29 31 -50 5 -90
-12 -17 -20 -47 -20 -70 0 -91 52 -146 645 -695 412 -382 630 -593 828 -805
212 -226 271 -323 303 -495 18 -99 17 -155 -2 -248 -30 -149 -118 -304 -249
-440 -133 -139 -266 -216 -605 -349 -348 -137 -1234 -419 -1330 -423 -86 -4
-102 0 -136 34 -27 27 -34 42 -34 73 0 47 157 521 196 594 47 85 88 109 301
174 81 26 335 107 563 182 228 75 425 136 438 136 55 -2 82 -73 43 -110 -17
-16 -742 -258 -1042 -348 -123 -37 -160 -57 -184 -97 -19 -33 -177 -499 -171
-506 6 -5 165 39 446 125 598 182 1045 349 1238 462 175 102 339 310 387 491
43 163 -2 356 -116 496 -139 169 -529 553 -1109 1090 -403 373 -472 445 -513
532 -39 84 -43 174 -9 239 38 74 85 91 127 48z"/>
</g>
</svg>
