<svg width="176" height="265" viewBox="0 0 176 265" fill="none" xmlns="http://www.w3.org/2000/svg">
<path d="M108.45 131.05C107.66 131.05 106.87 130.75 106.26 130.15C87.6099 111.65 65.7199 90.82 50.6399 76.6C49.2599 75.29 46.0599 72.15 45.7499 71.8C40.7399 65.99 31.3999 55.16 32.8499 43.26C33.6399 36.79 37.5199 31.04 44.3899 26.17C69.0999 8.65997 116.19 30.22 118.19 31.14C119.75 31.86 120.42 33.71 119.7 35.27C118.98 36.83 117.13 37.51 115.57 36.78C115.12 36.57 69.7599 15.82 47.9899 31.24C42.6099 35.05 39.5999 39.34 39.0299 44C37.9199 53.14 46.0199 62.57 50.4099 67.67C50.8099 68.08 53.3999 70.65 54.8999 72.06C69.9999 86.31 91.9399 107.18 110.63 125.72C111.85 126.93 111.86 128.9 110.65 130.12C110.05 130.75 109.25 131.05 108.45 131.05Z" fill="#fbfbfb"/>
<path d="M134.8 24.46C134.13 24.46 133.45 24.24 132.88 23.8C132.59 23.58 103.8 1.56 59.6699 7.4C57.9599 7.62 56.3999 6.43 56.1799 4.72C55.9499 3.02 57.1499 1.44999 58.8599 1.22999C105.72 -4.96001 135.49 17.92 136.73 18.9C138.08 19.96 138.32 21.92 137.26 23.27C136.64 24.06 135.72 24.46 134.8 24.46Z" fill="#fbfbfb"/>
<path d="M48.8899 197.76C47.1299 197.76 45.3799 197.35 44.1399 196.1C43.0699 195.01 42.0499 193.02 43.2899 189.66C44.6399 186.01 45.9799 181.82 47.1599 178.11C48.3899 174.27 49.4499 170.95 50.2799 168.96C52.8899 162.69 56.8399 161.54 62.8199 159.81C63.6099 159.58 64.4599 159.33 65.3699 159.06C72.7999 156.82 106.26 145.75 106.59 145.64C108.22 145.1 109.98 145.99 110.52 147.62C111.06 149.25 110.17 151.01 108.54 151.55C107.16 152.01 74.6699 162.75 67.1599 165.02C66.2199 165.3 65.3499 165.56 64.5399 165.79C58.7099 167.48 57.4299 167.95 56.0099 171.35C55.2799 173.09 54.2099 176.45 53.0699 180C51.8999 183.66 50.5699 187.8 49.2199 191.51C50.1699 191.43 51.5199 191.15 52.5999 190.76C52.6699 190.74 52.7299 190.72 52.7999 190.7C53.3499 190.55 107.52 175.32 123.09 165.4C131.04 160.33 139.26 149.43 139.26 139.97C139.26 129.3 134.53 124.41 126.69 116.33C126.07 115.69 125.43 115.03 124.78 114.35C112.25 101.31 98.9199 89.04 87.1599 78.21C79.6699 71.31 73.1999 65.35 68.1299 60.29C59.1899 51.38 61.8499 43.78 64.4999 41C65.6899 39.76 67.6599 39.72 68.8999 40.9C70.1299 42.07 70.1799 44.01 69.0399 45.25C68.6699 45.69 65.9699 49.33 72.5199 55.87C77.4999 60.84 83.9299 66.76 91.3699 73.62C103.19 84.51 116.59 96.85 129.26 110.03C129.91 110.7 130.54 111.35 131.15 111.99C139.15 120.25 145.47 126.77 145.47 139.97C145.47 152.14 135.89 164.62 126.42 170.65C110.27 180.95 57.9599 195.72 54.5599 196.67C53.3199 197.12 51.0899 197.76 48.8899 197.76Z" fill="#fbfbfb"/>
<path d="M4.90997 253.68C3.57997 253.11 2.51997 252.31 1.74997 251.28C0.97997 250.25 0.549971 249.07 0.469971 247.74H4.22997C4.33997 248.83 4.84997 249.73 5.76997 250.42C6.68997 251.11 7.89997 251.46 9.38997 251.46C10.78 251.46 11.87 251.15 12.67 250.54C13.47 249.93 13.87 249.15 13.87 248.22C13.87 247.26 13.44 246.55 12.59 246.08C11.74 245.61 10.42 245.15 8.62997 244.7C6.99997 244.27 5.67997 243.84 4.64997 243.4C3.61997 242.96 2.73997 242.31 2.00997 241.44C1.27997 240.57 0.909969 239.43 0.909969 238.02C0.909969 236.9 1.23997 235.87 1.90997 234.94C2.57997 234.01 3.51997 233.27 4.74997 232.72C5.97997 232.17 7.37997 231.9 8.94997 231.9C11.38 231.9 13.34 232.51 14.83 233.74C16.32 234.97 17.12 236.65 17.23 238.78H13.59C13.51 237.63 13.05 236.71 12.21 236.02C11.37 235.33 10.24 234.98 8.82997 234.98C7.51997 234.98 6.47997 235.26 5.70997 235.82C4.93997 236.38 4.54997 237.11 4.54997 238.02C4.54997 238.74 4.77997 239.33 5.24997 239.8C5.71997 240.27 6.29997 240.64 7.00997 240.92C7.71997 241.2 8.69997 241.51 9.94997 241.86C11.52 242.29 12.8 242.71 13.79 243.12C14.78 243.53 15.62 244.15 16.33 244.98C17.04 245.81 17.4 246.89 17.43 248.22C17.43 249.42 17.1 250.5 16.43 251.46C15.76 252.42 14.82 253.17 13.61 253.72C12.4 254.27 11 254.54 9.42997 254.54C7.74997 254.54 6.23997 254.25 4.90997 253.68Z" fill="#fbfbfb"/>
<path d="M42.23 232.26L29.03 264.5H25.27L29.59 253.94L20.75 232.26H24.79L31.67 250.02L38.47 232.26H42.23Z" fill="#fbfbfb"/>
<path d="M63.83 234.27C65.48 235.88 66.31 238.21 66.31 241.25V254.17H62.71V241.77C62.71 239.58 62.16 237.91 61.07 236.75C59.98 235.59 58.48 235.01 56.59 235.01C54.67 235.01 53.14 235.61 52.01 236.81C50.88 238.01 50.31 239.76 50.31 242.05V254.17H46.67V232.25H50.31V235.37C51.03 234.25 52.01 233.38 53.25 232.77C54.49 232.16 55.86 231.85 57.35 231.85C60.01 231.85 62.17 232.66 63.83 234.27Z" fill="#fbfbfb"/>
<path d="M77.05 253.13C75.38 252.2 74.08 250.87 73.13 249.15C72.18 247.43 71.71 245.44 71.71 243.17C71.71 240.93 72.2 238.95 73.17 237.23C74.14 235.51 75.47 234.19 77.15 233.27C78.83 232.35 80.71 231.89 82.79 231.89C84.87 231.89 86.75 232.35 88.43 233.27C90.11 234.19 91.44 235.5 92.41 237.21C93.38 238.92 93.87 240.9 93.87 243.17C93.87 245.44 93.37 247.43 92.37 249.15C91.37 250.87 90.02 252.2 88.31 253.13C86.6 254.06 84.71 254.53 82.63 254.53C80.57 254.54 78.71 254.07 77.05 253.13ZM86.31 250.42C87.46 249.81 88.38 248.89 89.09 247.66C89.8 246.43 90.15 244.94 90.15 243.18C90.15 241.42 89.8 239.93 89.11 238.7C88.42 237.47 87.51 236.56 86.39 235.96C85.27 235.36 84.06 235.06 82.75 235.06C81.42 235.06 80.2 235.36 79.09 235.96C77.98 236.56 77.1 237.47 76.43 238.7C75.76 239.93 75.43 241.42 75.43 243.18C75.43 244.97 75.76 246.47 76.41 247.7C77.06 248.93 77.94 249.84 79.03 250.44C80.12 251.04 81.32 251.34 82.63 251.34C83.94 251.34 85.16 251.03 86.31 250.42Z" fill="#fbfbfb"/>
<path d="M106.33 233.16C107.76 232.32 109.42 231.9 111.31 231.9C113.26 231.9 115.02 232.37 116.61 233.3C118.2 234.23 119.44 235.55 120.35 237.24C121.26 238.93 121.71 240.9 121.71 243.14C121.71 245.35 121.26 247.33 120.35 249.06C119.44 250.79 118.2 252.14 116.61 253.1C115.02 254.06 113.26 254.54 111.31 254.54C109.44 254.54 107.8 254.12 106.37 253.28C104.94 252.44 103.86 251.39 103.11 250.14V264.58H99.47V232.26H103.11V236.3C103.83 235.04 104.9 234 106.33 233.16ZM116.98 238.81C116.31 237.58 115.41 236.65 114.28 236.01C113.15 235.37 111.9 235.05 110.54 235.05C109.21 235.05 107.97 235.38 106.84 236.03C105.71 236.68 104.8 237.63 104.12 238.87C103.44 240.11 103.1 241.54 103.1 243.17C103.1 244.82 103.44 246.27 104.12 247.51C104.8 248.75 105.71 249.7 106.84 250.35C107.97 251 109.21 251.33 110.54 251.33C111.9 251.33 113.15 251 114.28 250.35C115.41 249.7 116.31 248.75 116.98 247.51C117.65 246.27 117.98 244.81 117.98 243.13C117.98 241.48 117.65 240.04 116.98 238.81Z" fill="#fbfbfb"/>
<path d="M130.55 253.68C129.22 253.11 128.16 252.31 127.39 251.28C126.62 250.25 126.19 249.07 126.11 247.74H129.87C129.98 248.83 130.49 249.73 131.41 250.42C132.33 251.11 133.54 251.46 135.03 251.46C136.42 251.46 137.51 251.15 138.31 250.54C139.11 249.93 139.51 249.15 139.51 248.22C139.51 247.26 139.08 246.55 138.23 246.08C137.38 245.61 136.06 245.15 134.27 244.7C132.64 244.27 131.32 243.84 130.29 243.4C129.26 242.96 128.38 242.31 127.65 241.44C126.92 240.57 126.55 239.43 126.55 238.02C126.55 236.9 126.88 235.87 127.55 234.94C128.22 234.01 129.16 233.27 130.39 232.72C131.62 232.17 133.02 231.9 134.59 231.9C137.02 231.9 138.98 232.51 140.47 233.74C141.96 234.97 142.76 236.65 142.87 238.78H139.23C139.15 237.63 138.69 236.71 137.85 236.02C137.01 235.33 135.88 234.98 134.47 234.98C133.16 234.98 132.12 235.26 131.35 235.82C130.58 236.38 130.19 237.11 130.19 238.02C130.19 238.74 130.42 239.33 130.89 239.8C131.36 240.27 131.94 240.64 132.65 240.92C133.36 241.2 134.34 241.51 135.59 241.86C137.16 242.29 138.44 242.71 139.43 243.12C140.42 243.53 141.26 244.15 141.97 244.98C142.68 245.81 143.04 246.89 143.07 248.22C143.07 249.42 142.74 250.5 142.07 251.46C141.4 252.42 140.46 253.17 139.25 253.72C138.04 254.27 136.64 254.54 135.07 254.54C133.39 254.54 131.88 254.25 130.55 253.68Z" fill="#fbfbfb"/>
<path d="M149.1 227.97C148.62 227.49 148.38 226.9 148.38 226.21C148.38 225.52 148.62 224.93 149.1 224.45C149.58 223.97 150.17 223.73 150.86 223.73C151.53 223.73 152.09 223.97 152.56 224.45C153.03 224.93 153.26 225.52 153.26 226.21C153.26 226.9 153.03 227.49 152.56 227.97C152.09 228.45 151.53 228.69 150.86 228.69C150.17 228.69 149.58 228.46 149.1 227.97ZM152.62 232.26V254.18H148.98V232.26H152.62Z" fill="#fbfbfb"/>
<path d="M162.86 253.68C161.53 253.11 160.47 252.31 159.7 251.28C158.93 250.25 158.5 249.07 158.42 247.74H162.18C162.29 248.83 162.8 249.73 163.72 250.42C164.64 251.11 165.85 251.46 167.34 251.46C168.73 251.46 169.82 251.15 170.62 250.54C171.42 249.93 171.82 249.15 171.82 248.22C171.82 247.26 171.39 246.55 170.54 246.08C169.69 245.61 168.37 245.15 166.58 244.7C164.95 244.27 163.63 243.84 162.6 243.4C161.57 242.96 160.69 242.31 159.96 241.44C159.23 240.57 158.86 239.43 158.86 238.02C158.86 236.9 159.19 235.87 159.86 234.94C160.53 234.01 161.47 233.27 162.7 232.72C163.93 232.17 165.33 231.9 166.9 231.9C169.33 231.9 171.29 232.51 172.78 233.74C174.27 234.97 175.07 236.65 175.18 238.78H171.54C171.46 237.63 171 236.71 170.16 236.02C169.32 235.33 168.19 234.98 166.78 234.98C165.47 234.98 164.43 235.26 163.66 235.82C162.89 236.38 162.5 237.11 162.5 238.02C162.5 238.74 162.73 239.33 163.2 239.8C163.67 240.27 164.25 240.64 164.96 240.92C165.67 241.2 166.65 241.51 167.9 241.86C169.47 242.29 170.75 242.71 171.74 243.12C172.73 243.53 173.57 244.15 174.28 244.98C174.99 245.81 175.35 246.89 175.38 248.22C175.38 249.42 175.05 250.5 174.38 251.46C173.71 252.42 172.77 253.17 171.56 253.72C170.35 254.27 168.95 254.54 167.38 254.54C165.7 254.54 164.2 254.25 162.86 253.68Z" fill="#fbfbfb"/>
</svg>
