<svg width="602" height="198" viewBox="0 0 602 198" fill="none" xmlns="http://www.w3.org/2000/svg">
<path d="M76.47 131.17C75.68 131.17 74.89 130.87 74.28 130.27C55.63 111.77 33.74 90.94 18.66 76.72C17.28 75.41 14.08 72.27 13.77 71.92C8.76002 66.11 -0.57998 55.28 0.87002 43.38C1.66002 36.91 5.54002 31.16 12.41 26.29C37.12 8.77999 84.21 30.34 86.21 31.26C87.77 31.98 88.44 33.83 87.72 35.39C87 36.95 85.15 37.63 83.59 36.9C83.14 36.69 37.78 15.94 16.01 31.36C10.63 35.17 7.62002 39.46 7.05002 44.12C5.94002 53.26 14.04 62.69 18.43 67.79C18.83 68.2 21.42 70.77 22.92 72.18C38.02 86.43 59.96 107.3 78.65 125.84C79.87 127.05 79.88 129.02 78.67 130.24C78.07 130.86 77.27 131.17 76.47 131.17Z" fill="#9B3A89"/>
<path d="M102.82 24.58C102.15 24.58 101.47 24.36 100.9 23.92C100.61 23.7 71.82 1.67999 27.69 7.51999C25.98 7.73999 24.42 6.54999 24.2 4.83999C23.97 3.13999 25.17 1.56999 26.88 1.34999C73.74 -4.84001 103.51 18.04 104.75 19.02C106.1 20.08 106.34 22.04 105.28 23.39C104.66 24.17 103.75 24.58 102.82 24.58Z" fill="#9B3A89"/>
<path d="M16.91 197.88C15.15 197.88 13.4 197.47 12.16 196.22C11.09 195.13 10.07 193.14 11.31 189.78C12.66 186.13 14 181.94 15.18 178.23C16.41 174.39 17.47 171.07 18.3 169.08C20.91 162.81 24.86 161.66 30.84 159.93C31.63 159.7 32.48 159.45 33.39 159.18C40.82 156.94 74.28 145.87 74.61 145.76C76.24 145.22 78 146.11 78.54 147.74C79.08 149.37 78.19 151.13 76.56 151.67C75.18 152.13 42.69 162.87 35.18 165.14C34.24 165.42 33.37 165.68 32.56 165.91C26.73 167.6 25.45 168.07 24.03 171.47C23.3 173.21 22.23 176.57 21.09 180.12C19.92 183.78 18.59 187.92 17.24 191.63C18.19 191.55 19.54 191.27 20.62 190.88C20.69 190.86 20.75 190.84 20.82 190.82C21.37 190.67 75.54 175.44 91.11 165.52C99.06 160.45 107.28 149.55 107.28 140.09C107.28 129.42 102.55 124.53 94.71 116.45C94.09 115.81 93.45 115.15 92.8 114.47C80.27 101.43 66.94 89.16 55.18 78.33C47.69 71.43 41.22 65.47 36.15 60.41C27.21 51.5 29.87 43.9 32.52 41.12C33.71 39.88 35.68 39.84 36.92 41.02C38.15 42.19 38.2 44.13 37.06 45.37C36.69 45.81 33.99 49.45 40.54 55.99C45.52 60.96 51.95 66.88 59.39 73.74C71.21 84.63 84.61 96.97 97.28 110.15C97.93 110.82 98.56 111.47 99.17 112.11C107.17 120.37 113.49 126.89 113.49 140.09C113.49 152.26 103.91 164.74 94.44 170.77C78.29 181.07 25.98 195.84 22.58 196.79C21.34 197.23 19.11 197.88 16.91 197.88Z" fill="#9B3A89"/>
<path d="M181.4 122.56C178.11 121.15 175.51 119.17 173.61 116.64C171.7 114.11 170.65 111.2 170.45 107.91H179.73C179.99 110.61 181.26 112.81 183.53 114.52C185.8 116.23 188.78 117.09 192.46 117.09C195.88 117.09 198.58 116.33 200.55 114.82C202.52 113.31 203.51 111.4 203.51 109.1C203.51 106.73 202.46 104.97 200.35 103.82C198.24 102.67 194.99 101.53 190.58 100.41C186.57 99.36 183.29 98.29 180.76 97.2C178.23 96.12 176.06 94.5 174.25 92.37C172.44 90.23 171.54 87.42 171.54 83.94C171.54 81.18 172.36 78.65 174.01 76.34C175.65 74.04 177.99 72.21 181.01 70.87C184.04 69.52 187.49 68.85 191.37 68.85C197.35 68.85 202.19 70.37 205.87 73.39C209.55 76.42 211.53 80.56 211.79 85.82H202.81C202.61 82.99 201.48 80.73 199.41 79.01C197.34 77.3 194.56 76.44 191.07 76.44C187.85 76.44 185.28 77.13 183.37 78.51C181.46 79.89 180.51 81.7 180.51 83.94C180.51 85.72 181.09 87.18 182.24 88.33C183.39 89.48 184.84 90.4 186.58 91.09C188.32 91.78 190.74 92.55 193.83 93.41C197.71 94.46 200.87 95.5 203.3 96.52C205.73 97.54 207.82 99.07 209.56 101.11C211.3 103.15 212.21 105.81 212.27 109.1C212.27 112.06 211.45 114.72 209.8 117.09C208.15 119.46 205.84 121.32 202.84 122.66C199.85 124.01 196.41 124.68 192.53 124.68C188.41 124.69 184.69 123.98 181.4 122.56Z" fill="#9B3A89"/>
<path d="M273.45 69.73L240.89 149.25H231.62L242.28 123.2L220.48 69.73H230.44L247.41 113.53L264.18 69.73H273.45Z" fill="#9B3A89"/>
<path d="M326.72 74.71C330.8 78.69 332.84 84.43 332.84 91.93V123.8H323.96V93.22C323.96 87.83 322.61 83.7 319.92 80.84C317.22 77.98 313.54 76.55 308.87 76.55C304.13 76.55 300.37 78.03 297.57 80.99C294.77 83.95 293.38 88.26 293.38 93.91V123.8H284.4V69.74H293.38V77.44C295.16 74.68 297.57 72.54 300.63 71.03C303.69 69.52 307.06 68.76 310.74 68.76C317.31 68.75 322.64 70.74 326.72 74.71Z" fill="#9B3A89"/>
<path d="M359.33 121.23C355.22 118.93 352 115.66 349.66 111.41C347.33 107.17 346.16 102.25 346.16 96.66C346.16 91.13 347.36 86.25 349.76 82.01C352.16 77.77 355.43 74.51 359.58 72.24C363.72 69.97 368.36 68.84 373.49 68.84C378.62 68.84 383.26 69.97 387.4 72.24C391.54 74.51 394.81 77.75 397.22 81.96C399.62 86.17 400.82 91.07 400.82 96.66C400.82 102.25 399.59 107.17 397.12 111.41C394.65 115.65 391.32 118.92 387.11 121.23C382.9 123.53 378.23 124.68 373.1 124.68C368.02 124.69 363.44 123.53 359.33 121.23ZM382.17 114.52C385 113.01 387.28 110.74 389.02 107.71C390.76 104.68 391.64 101 391.64 96.66C391.64 92.32 390.78 88.64 389.07 85.61C387.36 82.59 385.12 80.33 382.36 78.85C379.6 77.37 376.6 76.63 373.38 76.63C370.09 76.63 367.08 77.37 364.35 78.85C361.62 80.33 359.43 82.58 357.79 85.61C356.14 88.64 355.32 92.32 355.32 96.66C355.32 101.07 356.12 104.78 357.74 107.81C359.35 110.84 361.5 113.09 364.2 114.57C366.9 116.05 369.86 116.79 373.08 116.79C376.3 116.79 379.34 116.04 382.17 114.52Z" fill="#9B3A89"/>
<path d="M431.54 71.95C435.06 69.88 439.15 68.84 443.82 68.84C448.62 68.84 452.98 69.99 456.89 72.29C460.8 74.59 463.88 77.83 466.11 82.01C468.35 86.19 469.47 91.04 469.47 96.56C469.47 102.02 468.35 106.89 466.11 111.16C463.87 115.44 460.8 118.76 456.89 121.12C452.98 123.49 448.62 124.67 443.82 124.67C439.21 124.67 435.15 123.63 431.64 121.56C428.12 119.49 425.44 116.91 423.6 113.82V149.44H414.62V69.72H423.6V79.68C425.38 76.61 428.02 74.02 431.54 71.95ZM457.83 85.91C456.19 82.89 453.97 80.58 451.17 79C448.37 77.42 445.3 76.63 441.95 76.63C438.66 76.63 435.62 77.44 432.82 79.05C430.02 80.66 427.79 83 426.11 86.05C424.43 89.11 423.59 92.64 423.59 96.66C423.59 100.74 424.43 104.3 426.11 107.36C427.79 110.42 430.02 112.76 432.82 114.36C435.61 115.97 438.66 116.78 441.95 116.78C445.3 116.78 448.38 115.98 451.17 114.36C453.96 112.75 456.18 110.41 457.83 107.36C459.48 104.3 460.3 100.7 460.3 96.56C460.3 92.49 459.48 88.94 457.83 85.91Z" fill="#9B3A89"/>
<path d="M491.28 122.56C487.99 121.15 485.39 119.17 483.49 116.64C481.58 114.11 480.53 111.2 480.33 107.91H489.6C489.86 110.61 491.13 112.81 493.4 114.52C495.67 116.23 498.65 117.09 502.33 117.09C505.75 117.09 508.45 116.33 510.42 114.82C512.39 113.31 513.38 111.4 513.38 109.1C513.38 106.73 512.33 104.97 510.22 103.82C508.11 102.67 504.86 101.53 500.45 100.41C496.44 99.36 493.16 98.29 490.63 97.2C488.1 96.12 485.93 94.5 484.12 92.37C482.31 90.23 481.41 87.42 481.41 83.94C481.41 81.18 482.23 78.65 483.88 76.34C485.52 74.04 487.86 72.21 490.88 70.87C493.91 69.52 497.36 68.85 501.24 68.85C507.22 68.85 512.06 70.37 515.74 73.39C519.42 76.42 521.4 80.56 521.66 85.82H512.68C512.48 82.99 511.35 80.73 509.28 79.01C507.21 77.3 504.43 76.44 500.94 76.44C497.72 76.44 495.15 77.13 493.24 78.51C491.33 79.89 490.38 81.7 490.38 83.94C490.38 85.72 490.96 87.18 492.11 88.33C493.26 89.48 494.71 90.4 496.45 91.09C498.19 91.78 500.61 92.55 503.7 93.41C507.58 94.46 510.74 95.5 513.17 96.52C515.6 97.54 517.69 99.07 519.43 101.11C521.17 103.15 522.08 105.81 522.14 109.1C522.14 112.06 521.32 114.72 519.67 117.09C518.02 119.46 515.71 121.32 512.71 122.66C509.72 124.01 506.28 124.68 502.4 124.68C498.28 124.69 494.57 123.98 491.28 122.56Z" fill="#9B3A89"/>
<path d="M537.05 59.18C535.87 58 535.27 56.55 535.27 54.84C535.27 53.13 535.86 51.68 537.05 50.5C538.23 49.31 539.68 48.72 541.39 48.72C543.03 48.72 544.43 49.31 545.58 50.5C546.73 51.68 547.31 53.13 547.31 54.84C547.31 56.55 546.73 58 545.58 59.18C544.43 60.37 543.03 60.96 541.39 60.96C539.68 60.95 538.24 60.36 537.05 59.18ZM545.74 69.73V123.79H536.76V69.73H545.74Z" fill="#9B3A89"/>
<path d="M570.99 122.56C567.7 121.15 565.1 119.17 563.2 116.64C561.29 114.11 560.24 111.2 560.04 107.91H569.31C569.57 110.61 570.84 112.81 573.11 114.52C575.38 116.23 578.36 117.09 582.04 117.09C585.46 117.09 588.16 116.33 590.13 114.82C592.1 113.31 593.09 111.4 593.09 109.1C593.09 106.73 592.04 104.97 589.93 103.82C587.82 102.67 584.57 101.53 580.16 100.41C576.15 99.36 572.87 98.29 570.34 97.2C567.81 96.12 565.64 94.5 563.83 92.37C562.02 90.23 561.12 87.42 561.12 83.94C561.12 81.18 561.94 78.65 563.59 76.34C565.23 74.04 567.57 72.21 570.59 70.87C573.62 69.52 577.07 68.85 580.95 68.85C586.93 68.85 591.77 70.37 595.45 73.39C599.13 76.42 601.11 80.56 601.37 85.82H592.39C592.19 82.99 591.06 80.73 588.99 79.01C586.92 77.3 584.14 76.44 580.65 76.44C577.43 76.44 574.86 77.13 572.95 78.51C571.04 79.89 570.09 81.7 570.09 83.94C570.09 85.72 570.67 87.18 571.82 88.33C572.97 89.48 574.42 90.4 576.16 91.09C577.9 91.78 580.32 92.55 583.41 93.41C587.29 94.46 590.45 95.5 592.88 96.52C595.31 97.54 597.4 99.07 599.14 101.11C600.88 103.15 601.79 105.81 601.85 109.1C601.85 112.06 601.03 114.72 599.38 117.09C597.73 119.46 595.42 121.32 592.42 122.66C589.43 124.01 585.99 124.68 582.11 124.68C578 124.69 574.28 123.98 570.99 122.56Z" fill="#9B3A89"/>
</svg>
