<svg width="72" height="75" viewBox="0 0 72 75" fill="none" xmlns="http://www.w3.org/2000/svg">
<circle cx="36" cy="38" r="36" fill="#9A3A88"/>
<path d="M40.6216 45.2711C40.4314 45.2711 40.2413 45.1988 40.0944 45.0544C35.6052 40.6007 30.3361 35.5861 26.7063 32.1628C26.3741 31.8474 25.6038 31.0915 25.5292 31.0072C24.3232 29.6085 22.075 27.0013 22.4241 24.1365C22.6142 22.5789 23.5482 21.1947 25.2018 20.0223C31.1497 15.8069 42.4847 20.9973 42.9661 21.2188C43.3416 21.3921 43.5029 21.8375 43.3295 22.213C43.1562 22.5886 42.7109 22.7523 42.3354 22.5765C42.2271 22.526 31.3086 17.5306 26.0684 21.2428C24.7734 22.16 24.0488 23.1928 23.9116 24.3147C23.6445 26.515 25.5942 28.7852 26.6509 30.013C26.7472 30.1117 27.3706 30.7304 27.7317 31.0698C31.3664 34.5004 36.6475 39.5246 41.1463 43.9879C41.44 44.2792 41.4424 44.7535 41.1511 45.0472C41.0067 45.1988 40.8142 45.2711 40.6216 45.2711Z" fill="white"/>
<path d="M46.9645 19.6106C46.8032 19.6106 46.6395 19.5577 46.5023 19.4517C46.4325 19.3988 39.5025 14.0977 28.8801 15.5036C28.4685 15.5566 28.093 15.2701 28.04 14.8584C27.9846 14.4492 28.2735 14.0712 28.6851 14.0182C39.9647 12.5281 47.1306 18.0362 47.429 18.2721C47.754 18.5273 47.8118 18.9991 47.5566 19.3241C47.4074 19.5143 47.1859 19.6106 46.9645 19.6106Z" fill="white"/>
<path d="M26.2847 61.3308C25.861 61.3308 25.4398 61.2321 25.1413 60.9311C24.8837 60.6687 24.6382 60.1897 24.9367 59.3808C25.2617 58.5021 25.5842 57.4934 25.8682 56.6002C26.1643 55.6758 26.4195 54.8765 26.6193 54.3975C27.2475 52.888 28.1983 52.6112 29.6377 52.1947C29.8279 52.1393 30.0325 52.0792 30.2515 52.0142C32.04 51.4749 40.0941 48.8099 40.1735 48.7834C40.5659 48.6534 40.9895 48.8677 41.1195 49.2601C41.2495 49.6525 41.0352 50.0762 40.6429 50.2062C40.3107 50.3169 32.4901 52.9025 30.6824 53.449C30.4561 53.5164 30.2467 53.579 30.0517 53.6343C28.6484 54.0412 28.3403 54.1543 27.9985 54.9728C27.8228 55.3917 27.5652 56.2006 27.2908 57.0552C27.0092 57.9363 26.6891 58.933 26.3641 59.8261C26.5928 59.8069 26.9177 59.7395 27.1777 59.6456C27.1945 59.6408 27.209 59.636 27.2258 59.6311C27.3582 59.595 40.3974 55.9286 44.1452 53.5404C46.0588 52.3199 48.0374 49.6958 48.0374 47.4184C48.0374 44.8497 46.8989 43.6725 45.0117 41.7274C44.8625 41.5733 44.7084 41.4144 44.552 41.2507C41.5359 38.1114 38.3273 35.1576 35.4966 32.5504C33.6937 30.8893 32.1363 29.4545 30.9159 28.2363C28.764 26.0913 29.4042 24.2617 30.0421 23.5924C30.3286 23.2939 30.8028 23.2843 31.1012 23.5684C31.3973 23.85 31.4093 24.3171 31.1349 24.6156C31.0459 24.7215 30.396 25.5978 31.9726 27.1722C33.1713 28.3687 34.7191 29.7939 36.5099 31.4454C39.3551 34.067 42.5806 37.0377 45.6304 40.2107C45.7868 40.372 45.9385 40.5285 46.0853 40.6825C48.011 42.6711 49.5322 44.2407 49.5322 47.4184C49.5322 50.3482 47.2262 53.3527 44.9467 54.8043C41.0593 57.2839 28.4679 60.8397 27.6495 61.0684C27.351 61.1767 26.8142 61.3308 26.2847 61.3308Z" fill="white"/>
</svg>
