<svg width="750" height="500" viewBox="0 0 750 500" fill="none" xmlns="http://www.w3.org/2000/svg">
<path d="M247 60.8313C239.05 54.3213 226.08 55.3613 219.11 62.9013C213.06 68.2313 214.93 83.3513 222.43 90.3613C229.93 97.3713 243.33 96.3613 249.85 88.4213C256.37 80.4813 255 67.3413 247 60.8313Z" fill="#EBEBEB"/>
<path d="M428.23 74.5907C436.51 77.9807 445.44 70.0607 454.34 70.9907C458.88 71.4607 462.83 74.1907 467.07 75.8907C471.31 77.5907 479.68 78.0507 481.38 72.3907C485.23 65.5207 478.92 57.2707 472.78 52.6007C466.64 47.9307 455.63 46.4107 447.93 46.0007C442.41 45.7007 436.71 46.2207 431.71 48.5907C426.71 50.9607 422.51 55.4307 421.45 60.8607C420.39 66.2907 423.11 72.5007 428.23 74.5907Z" fill="#EBEBEB"/>
<path d="M131.117 183.237C157.092 178.816 174.566 154.174 170.144 128.198C165.723 102.222 141.081 84.7485 115.105 89.17C89.129 93.5915 71.6557 118.233 76.0772 144.209C80.4987 170.185 105.141 187.658 131.117 183.237Z" fill="#EBEBEB"/>
<path d="M195.31 359.77C177.2 337.77 157.59 325.69 139.39 324.03C119.84 322.73 98.7 330.81 89.01 347.83C79.32 364.85 85.67 390.44 104.01 397.27C111.55 400.08 120.23 399.73 127.1 403.92C137.81 410.43 139.99 425.05 148.1 434.57C158.1 446.28 176.88 448.28 190.24 440.65C203.6 433.02 211.32 417.38 211.49 401.99C211.66 386.6 205.08 371.66 195.31 359.77Z" fill="#EBEBEB"/>
<path d="M676.565 316.792C703.836 316.187 725.453 293.59 724.848 266.319C724.244 239.049 701.646 217.432 674.376 218.036C647.105 218.641 625.488 241.238 626.093 268.509C626.697 295.779 649.294 317.396 676.565 316.792Z" fill="#EBEBEB"/>
<path d="M538.22 289.8C531.91 254.55 501.64 223.8 465.95 220.86C446.5 219.28 426.95 225.41 407.58 223.07C391.163 221.02 376.057 213.056 365.09 200.67C349.09 182.47 343.68 156.58 326.74 139.26C303.4 115.37 262.67 115 234.27 132.57C205.87 150.14 188.7 181.85 180.84 214.3L180.53 224.17C178.82 257.83 187.68 297 207.21 327C227 357.4 240.01 370 276.07 391.81C306.69 410.37 366.65 418.53 402.45 419.39C438.25 420.25 475.02 409.59 501.95 385.97C528.88 362.35 544.54 325.05 538.22 289.8Z" fill="#9A3A88"/>
<g opacity="0.8">
<path opacity="0.8" d="M538.22 289.8C531.91 254.55 501.64 223.8 465.95 220.86C446.5 219.28 426.95 225.41 407.58 223.07C391.163 221.02 376.057 213.056 365.09 200.67C349.09 182.47 343.68 156.58 326.74 139.26C303.4 115.37 262.67 115 234.27 132.57C205.87 150.14 188.7 181.85 180.84 214.3L180.53 224.17C178.82 257.83 187.68 297 207.21 327C227 357.4 240.01 370 276.07 391.81C306.69 410.37 366.65 418.53 402.45 419.39C438.25 420.25 475.02 409.59 501.95 385.97C528.88 362.35 544.54 325.05 538.22 289.8Z" fill="white"/>
</g>
<path d="M573.315 415.655C574.683 406.227 568.15 397.474 558.722 396.106C549.294 394.737 540.541 401.27 539.173 410.698C537.804 420.127 544.337 428.879 553.765 430.248C563.193 431.616 571.946 425.083 573.315 415.655Z" fill="#9A3A88"/>
<path opacity="0.8" d="M573.315 415.655C574.683 406.227 568.15 397.474 558.722 396.106C549.294 394.737 540.541 401.27 539.173 410.698C537.804 420.127 544.337 428.879 553.765 430.248C563.193 431.616 571.946 425.083 573.315 415.655Z" fill="white"/>
<path d="M435.16 280.451C435.487 314.891 427.98 341.224 412.64 359.451C397.3 377.677 376.3 386.911 349.64 387.151C322.84 387.411 301.537 378.584 285.73 360.671C269.923 342.757 261.85 316.584 261.51 282.151L260.93 221.591C260.597 187.284 268.103 160.951 283.45 142.591C298.797 124.231 319.867 114.937 346.66 114.711C373.327 114.451 394.57 123.341 410.39 141.381C426.21 159.421 434.28 185.591 434.6 219.891L435.16 280.451ZM390.33 213.531C390.11 191.844 386.333 175.831 379 165.491C371.667 155.151 361 150.044 347 150.171C333.047 150.304 322.517 155.614 315.41 166.101C308.303 176.587 304.833 192.671 305 214.351L305.7 287.941C305.907 309.741 309.73 325.844 317.17 336.251C324.61 346.657 335.3 351.794 349.24 351.661C363.18 351.527 373.677 346.217 380.73 335.731C387.783 325.244 391.207 309.041 391 287.121L390.33 213.531Z" fill="#9A3A88"/>
<g opacity="0.4">
<path opacity="0.4" d="M435.16 280.451C435.487 314.891 427.98 341.224 412.64 359.451C397.3 377.677 376.3 386.911 349.64 387.151C322.84 387.411 301.537 378.584 285.73 360.671C269.923 342.757 261.85 316.584 261.51 282.151L260.93 221.591C260.597 187.284 268.103 160.951 283.45 142.591C298.797 124.231 319.867 114.937 346.66 114.711C373.327 114.451 394.57 123.341 410.39 141.381C426.21 159.421 434.28 185.591 434.6 219.891L435.16 280.451ZM390.33 213.531C390.11 191.844 386.333 175.831 379 165.491C371.667 155.151 361 150.044 347 150.171C333.047 150.304 322.517 155.614 315.41 166.101C308.303 176.587 304.833 192.671 305 214.351L305.7 287.941C305.907 309.741 309.73 325.844 317.17 336.251C324.61 346.657 335.3 351.794 349.24 351.661C363.18 351.527 373.677 346.217 380.73 335.731C387.783 325.244 391.207 309.041 391 287.121L390.33 213.531Z" fill="black"/>
</g>
<path d="M460.62 280.211C460.953 314.644 453.447 340.977 438.1 359.211C422.753 377.444 401.753 386.677 375.1 386.911C348.3 387.171 326.997 378.341 311.19 360.421C295.383 342.501 287.32 316.321 287 281.881L286.42 221.321C286.087 187.014 293.593 160.681 308.94 142.321C324.287 123.961 345.357 114.664 372.15 114.431C398.817 114.184 420.06 123.074 435.88 141.101C451.7 159.127 459.74 185.311 460 219.651L460.62 280.211ZM415.79 213.291C415.577 191.611 411.783 175.611 404.41 165.291C397.037 154.971 386.37 149.864 372.41 149.971C358.457 150.111 347.927 155.421 340.82 165.901C333.713 176.381 330.26 192.467 330.46 214.161L331.17 287.741C331.383 309.547 335.207 325.654 342.64 336.061C350.073 346.467 360.763 351.604 374.71 351.471C388.65 351.331 399.147 346.021 406.2 335.541C413.253 325.061 416.673 308.854 416.46 286.921L415.79 213.291Z" fill="#9A3A88"/>
<path d="M286.55 224.921C286.6 225.051 280.69 227.401 273.35 230.161C266.01 232.921 260 235.001 260 234.911C260 234.821 265.86 232.431 273.2 229.671C280.54 226.911 286.5 224.781 286.55 224.921Z" fill="#9A3A88"/>
<path d="M288 248.85C288.05 248.98 282.14 251.33 274.79 254.09C267.44 256.85 261.46 258.97 261.41 258.84C261.36 258.71 267.27 256.36 274.61 253.6C281.95 250.84 288 248.71 288 248.85Z" fill="#9A3A88"/>
<path d="M289.49 272.78C289.54 272.91 283.63 275.26 276.28 278.02C268.93 280.78 263 282.9 262.9 282.77C262.8 282.64 268.76 280.29 276.1 277.53C283.44 274.77 289.44 272.64 289.49 272.78Z" fill="#9A3A88"/>
<path d="M291 296.712C291.05 296.842 285.14 299.192 277.79 301.952C270.44 304.712 264.45 306.832 264.4 306.702C264.35 306.572 270.27 304.222 277.61 301.462C284.95 298.702 290.91 296.572 291 296.712Z" fill="#9A3A88"/>
<path d="M292.43 320.641C292.142 320.826 291.833 320.977 291.51 321.091C290.91 321.351 290.03 321.711 288.95 322.141C286.77 323.011 283.76 324.141 280.42 325.431C277.08 326.721 274.04 327.791 271.83 328.571C270.73 328.961 269.83 329.271 269.21 329.471C268.891 329.605 268.554 329.692 268.21 329.731C268.497 329.543 268.806 329.392 269.13 329.281C269.73 329.021 270.6 328.661 271.69 328.281C273.86 327.411 276.88 326.281 280.22 324.991C283.56 323.701 286.6 322.621 288.81 321.851C289.91 321.461 290.81 321.151 291.43 320.951C291.746 320.797 292.083 320.692 292.43 320.641Z" fill="#9A3A88"/>
<path d="M299.26 342.531C298.295 343.051 297.293 343.495 296.26 343.861C294.36 344.621 291.73 345.641 288.82 346.741C285.91 347.841 283.25 348.801 281.33 349.471C280.305 349.888 279.248 350.222 278.17 350.471C279.133 349.949 280.136 349.504 281.17 349.141C283.06 348.371 285.69 347.351 288.61 346.261C291.53 345.171 294.17 344.201 296.1 343.531C297.123 343.109 298.18 342.775 299.26 342.531Z" fill="#9A3A88"/>
<path d="M313.89 362.611C313.029 363.09 312.129 363.495 311.2 363.821C309.51 364.501 307.2 365.411 304.58 366.391C301.96 367.371 299.58 368.221 297.9 368.811C296.986 369.181 296.043 369.472 295.08 369.681C295.938 369.197 296.839 368.793 297.77 368.471C299.45 367.791 301.77 366.881 304.39 365.901C307.01 364.921 309.39 364.071 311.07 363.471C311.983 363.101 312.926 362.814 313.89 362.611Z" fill="#9A3A88"/>
<path d="M338.2 375.781C337.337 376.254 336.438 376.655 335.51 376.981C333.82 377.671 331.51 378.581 328.89 379.551C326.27 380.521 323.89 381.381 322.21 381.981C321.297 382.351 320.354 382.639 319.39 382.841C320.251 382.362 321.151 381.958 322.08 381.631C323.77 380.951 326.08 380.041 328.7 379.061C331.32 378.081 333.7 377.231 335.38 376.641C336.29 376.265 337.235 375.977 338.2 375.781Z" fill="#9A3A88"/>
<path d="M411.52 324.711C411.58 324.841 403.99 328.381 394.57 332.621C385.15 336.861 377.46 340.181 377.4 340.051C377.34 339.921 384.93 336.381 394.4 332.141C403.87 327.901 411.46 324.581 411.52 324.711Z" fill="#9A3A88"/>
<path d="M416.5 304.211C416.56 304.341 410.29 307.281 402.5 310.781C394.71 314.281 388.35 317.022 388.29 316.892C388.23 316.762 394.49 313.811 402.29 310.311C410.09 306.811 416.44 304.081 416.5 304.211Z" fill="#9A3A88"/>
<path d="M418.79 281.18C418.85 281.31 412.58 284.25 404.79 287.75C397 291.25 390.64 293.99 390.58 293.86C390.52 293.73 396.78 290.78 404.58 287.28C412.38 283.78 418.73 281 418.79 281.18Z" fill="#9A3A88"/>
<path d="M421.08 258.142C421.14 258.272 414.88 261.222 407.08 264.722C399.28 268.222 392.93 270.952 392.87 270.822C392.81 270.692 399.08 267.752 406.87 264.252C414.66 260.752 421 258.002 421.08 258.142Z" fill="#9A3A88"/>
<path d="M423.38 235.111C423.43 235.241 417.17 238.191 409.38 241.691C401.59 245.191 395.23 247.921 395.17 247.791C395.11 247.661 401.38 244.721 409.17 241.211C416.96 237.701 423.32 235.001 423.38 235.111Z" fill="#9A3A88"/>
<path d="M418.79 214.6C418.85 214.73 412.58 217.68 404.79 221.18C397 224.68 390.64 227.41 390.58 227.28C390.52 227.15 396.78 224.2 404.58 220.7C412.38 217.2 418.73 214.47 418.79 214.6Z" fill="#9A3A88"/>
<path d="M418.79 192.52C418.85 192.65 412.58 195.6 404.79 199.1C397 202.6 390.64 205.33 390.58 205.2C390.52 205.07 396.78 202.12 404.58 198.62C412.38 195.12 418.73 192.39 418.79 192.52Z" fill="#9A3A88"/>
<path d="M416.5 171.731C416.56 171.861 410.29 174.801 402.5 178.301C394.71 181.801 388.35 184.541 388.29 184.411C388.23 184.281 394.49 181.331 402.29 177.831C410.09 174.331 416.44 171.601 416.5 171.731Z" fill="#9A3A88"/>
<path d="M396.75 157.24C394.004 158.761 391.176 160.13 388.28 161.34C385.452 162.705 382.551 163.914 379.59 164.96C382.332 163.432 385.16 162.063 388.06 160.86C390.888 159.495 393.789 158.286 396.75 157.24Z" fill="#9A3A88"/>
<path d="M386.19 148.371C383.441 149.884 380.614 151.249 377.72 152.461C374.892 153.826 371.991 155.035 369.03 156.081C371.776 154.567 374.604 153.205 377.5 152.001C380.328 150.632 383.229 149.421 386.19 148.371Z" fill="#9A3A88"/>
<path d="M287.68 195.91C287.73 196.04 281.82 198.39 274.48 201.15C267.14 203.91 261.14 206.04 261.09 205.9C261.04 205.76 266.95 203.42 274.3 200.66C281.65 197.9 287.63 195.78 287.68 195.91Z" fill="#9A3A88"/>
<path d="M295 166.07C295.06 166.2 288.64 168.73 280.69 171.73C272.74 174.73 266.23 177.03 266.18 176.9C266.13 176.77 272.54 174.23 280.5 171.24C288.46 168.25 295 165.93 295 166.07Z" fill="#9A3A88"/>
<path d="M314.27 136.531C314.32 136.671 306.19 139.841 296.11 143.631C286.03 147.421 277.82 150.381 277.77 150.251C277.72 150.121 285.85 146.931 295.93 143.141C306.01 139.351 314.22 136.401 314.27 136.531Z" fill="#9A3A88"/>
<path d="M456.31 325.002L455.89 324.862L454.69 324.392C454.16 324.202 453.47 324.052 452.69 323.832C451.756 323.65 450.81 323.533 449.86 323.482C445.59 323.212 439.19 324.762 433 329.402C429.649 331.941 426.646 334.909 424.07 338.232C421.2 341.742 418.39 345.712 415.2 349.712C411.954 354.002 408.069 357.77 403.68 360.882C398.875 364.123 393.445 366.323 387.74 367.342C382.034 368.369 376.175 368.175 370.55 366.772C365.358 365.41 360.313 363.538 355.49 361.182C350.84 359.032 346.49 356.842 342.35 355.032C338.5 353.331 334.503 351.982 330.41 351.002C327.035 350.204 323.578 349.808 320.11 349.822C317.493 349.842 314.888 350.195 312.36 350.872C310.77 351.338 309.224 351.944 307.74 352.682L306.6 353.282C306.474 353.36 306.34 353.423 306.2 353.472L306.57 353.242L307.69 352.592C309.161 351.807 310.705 351.167 312.3 350.682C314.84 349.965 317.461 349.579 320.1 349.532C323.595 349.487 327.083 349.859 330.49 350.642C334.602 351.61 338.619 352.949 342.49 354.642C346.67 356.442 351.02 358.642 355.66 360.762C360.465 363.093 365.49 364.942 370.66 366.282C376.223 367.671 382.018 367.862 387.66 366.842C393.295 365.834 398.659 363.664 403.41 360.472C407.766 357.395 411.624 353.669 414.85 349.422C418.04 345.422 420.85 341.482 423.76 337.962C426.359 334.63 429.385 331.654 432.76 329.112C439.04 324.472 445.53 322.952 449.85 323.292C450.811 323.355 451.767 323.485 452.71 323.682C453.51 323.932 454.2 324.092 454.71 324.302L455.9 324.822L456.31 325.002Z" fill="white"/>
<path d="M462.62 258.302C462.62 258.352 461.91 258.442 460.67 258.852C458.946 259.483 457.32 260.355 455.84 261.442C453.94 262.772 451.84 264.632 449.43 266.552C446.77 268.626 443.89 270.401 440.84 271.842C435.306 274.495 429.307 276.044 423.18 276.402C422.01 276.502 420.94 276.472 420.01 276.492C419.08 276.512 418.28 276.432 417.63 276.382L416.12 276.232C415.946 276.229 415.774 276.199 415.61 276.142C415.782 276.118 415.957 276.118 416.13 276.142L417.64 276.192H420.01C420.94 276.142 422.01 276.192 423.15 276.032C429.211 275.564 435.134 273.981 440.62 271.362C443.633 269.93 446.489 268.187 449.14 266.162C451.57 264.282 453.68 262.432 455.64 261.162C457.168 260.08 458.855 259.243 460.64 258.682C461.126 258.543 461.62 258.436 462.12 258.362C462.283 258.316 462.451 258.296 462.62 258.302Z" fill="white"/>
<path d="M332 281.471C331.818 281.463 331.637 281.436 331.46 281.391C331.1 281.311 330.57 281.231 329.9 281.041C328.022 280.486 326.221 279.696 324.54 278.691C322.074 277.178 319.733 275.469 317.54 273.581C315.03 271.501 312.35 269.131 309.28 267.011C306.414 264.986 303.196 263.511 299.79 262.661C295.111 261.51 290.219 261.53 285.55 262.721C284.22 263.061 283.5 263.321 283.49 263.271C283.644 263.17 283.813 263.093 283.99 263.041C284.33 262.911 284.83 262.711 285.5 262.521C287.373 261.973 289.302 261.638 291.25 261.521C294.153 261.307 297.071 261.547 299.9 262.231C303.371 263.073 306.651 264.563 309.57 266.621C312.68 268.771 315.36 271.161 317.85 273.251C320.011 275.145 322.31 276.873 324.73 278.421C326.376 279.437 328.13 280.265 329.96 280.891C330.65 281.048 331.331 281.242 332 281.471Z" fill="white"/>
<path d="M332.17 186.942C331.631 187.192 331.073 187.396 330.5 187.552C329.844 187.783 329.176 187.98 328.5 188.142C327.71 188.342 326.82 188.612 325.81 188.792C324.8 188.972 323.71 189.222 322.51 189.372C321.31 189.522 320.04 189.662 318.69 189.782C315.758 189.968 312.816 189.931 309.89 189.672C306.966 189.379 304.068 188.868 301.22 188.142C299.92 187.772 298.67 187.432 297.54 187.022C296.41 186.612 295.35 186.232 294.41 185.842C293.47 185.452 292.63 185.042 291.89 184.702C291.15 184.362 290.54 184.032 290.04 183.752C289.511 183.488 289.003 183.184 288.52 182.842C289.074 183.046 289.612 183.29 290.13 183.572C290.64 183.822 291.27 184.132 292.01 184.442C292.75 184.752 293.59 185.152 294.55 185.492C295.51 185.832 296.55 186.262 297.68 186.612C298.81 186.962 300.04 187.322 301.34 187.672C306.996 189.098 312.837 189.648 318.66 189.302C320 189.192 321.27 189.122 322.46 188.942C323.65 188.762 324.74 188.612 325.74 188.432C326.74 188.252 327.63 188.032 328.42 187.862C329.21 187.692 329.89 187.512 330.42 187.362C330.993 187.18 331.577 187.04 332.17 186.942Z" fill="white"/>
<path d="M456.94 186.691C456.793 186.637 456.652 186.567 456.52 186.481L455.36 185.811C454.758 185.445 454.137 185.111 453.5 184.811C452.678 184.371 451.834 183.973 450.97 183.621L449.47 182.991C448.94 182.781 448.38 182.621 447.8 182.421C446.66 182.001 445.39 181.711 444.06 181.361C438.246 180.039 432.215 179.987 426.38 181.211C425.11 181.48 423.855 181.814 422.62 182.211C422.04 182.401 421.47 182.551 420.94 182.751L419.43 183.351C418.561 183.691 417.71 184.075 416.88 184.501C416.236 184.794 415.611 185.128 415.01 185.501L413.83 186.151C413.56 186.291 413.41 186.361 413.4 186.341C413.514 186.232 413.642 186.138 413.78 186.061L414.9 185.321C415.492 184.927 416.11 184.573 416.75 184.261C417.571 183.8 418.419 183.39 419.29 183.031L420.8 182.391C421.33 182.181 421.91 182.021 422.49 181.821C423.733 181.402 424.998 181.051 426.28 180.771C432.179 179.477 438.295 179.532 444.17 180.931C445.51 181.291 446.79 181.601 447.94 182.041C448.52 182.251 449.09 182.421 449.61 182.651L451.12 183.311C451.981 183.692 452.822 184.116 453.64 184.581C454.27 184.908 454.878 185.276 455.46 185.681L456.58 186.441C456.83 186.571 457 186.671 456.94 186.691Z" fill="white"/>
<path d="M395.8 118.762C395.575 118.932 395.334 119.079 395.08 119.202L393 120.352C391.15 121.352 388.47 122.742 385.11 124.422C378.41 127.732 369 132.262 357.86 135.082C352.623 136.398 347.258 137.143 341.86 137.302C337.454 137.43 333.049 137.051 328.73 136.172C325.819 135.587 322.972 134.72 320.23 133.582C319.23 133.202 318.54 132.802 318.04 132.582C317.781 132.47 317.53 132.34 317.29 132.192C317.563 132.263 317.828 132.363 318.08 132.492C318.6 132.682 319.32 133.052 320.31 133.402C323.062 134.462 325.903 135.271 328.8 135.822C333.099 136.643 337.476 136.978 341.85 136.822C347.205 136.636 352.525 135.882 357.72 134.572C368.79 131.772 378.21 127.322 384.94 124.092L392.94 120.162L395 119.102C395.259 118.971 395.526 118.858 395.8 118.762Z" fill="white"/>
<path d="M195.06 293L228.49 294.46L226.94 329.89L193.51 328.43L190.94 387.3L146.94 385.38L149.51 326.51L36 321.55L36.09 294.55L157.09 120.75L202.51 122.75L195.06 293ZM80.06 288L151.06 291.1L155.74 183.72L154.67 183.31L150.67 190.96L80.06 288Z" fill="#9A3A88"/>
<g opacity="0.4">
<path opacity="0.4" d="M195.06 293L228.49 294.46L226.94 329.89L193.51 328.43L190.94 387.3L146.94 385.38L149.51 326.51L36 321.55L36.09 294.55L157.09 120.75L202.51 122.75L195.06 293ZM80.06 288L151.06 291.1L155.74 183.72L154.67 183.31L150.67 190.96L80.06 288Z" fill="black"/>
</g>
<path d="M223 294.22L256.43 295.68L254.88 331.11L221.45 329.65L218.88 388.52L174.88 386.6L177.45 327.73L63.89 322.73L63.98 295.73L185 122L230.43 124L223 294.22ZM108 289.22L179.05 292.32L183.73 184.94L182.66 184.53L178.66 192.18L108 289.22Z" fill="#9A3A88"/>
<path d="M64.59 300.92C64.2541 301.163 63.8918 301.368 63.51 301.53C62.8 301.89 61.76 302.39 60.51 302.99C57.94 304.2 54.35 305.81 50.34 307.51C46.33 309.21 42.68 310.65 40.02 311.66C38.69 312.16 37.6 312.55 36.85 312.81C36.4661 312.969 36.0675 313.089 35.66 313.17C36.0108 312.944 36.3866 312.759 36.78 312.62L39.88 311.31L50.1 307L60.32 302.63L63.43 301.31C63.8023 301.141 64.191 301.01 64.59 300.92Z" fill="#9A3A88"/>
<path d="M80.87 271C80.3853 271.298 79.8808 271.562 79.36 271.79C78.36 272.27 76.94 272.95 75.16 273.79C71.59 275.41 66.64 277.58 61.16 279.91C55.68 282.24 50.61 284.23 47 285.65C45.18 286.37 43.7 286.93 42.66 287.3C42.1374 287.523 41.595 287.698 41.04 287.82C41.5395 287.547 42.0574 287.31 42.59 287.11L46.86 285.31L60.97 279.38L75.05 273.38L79.32 271.57C79.8177 271.332 80.3367 271.141 80.87 271Z" fill="#9A3A88"/>
<path d="M100.74 244.271C100.237 244.582 99.7083 244.85 99.16 245.071C98.16 245.551 96.63 246.231 94.77 247.071C91.04 248.701 85.87 250.871 80.13 253.201C74.39 255.531 69.13 257.561 65.34 258.991C63.44 259.701 61.89 260.261 60.82 260.631C60.2736 260.856 59.708 261.03 59.13 261.151C59.654 260.88 60.1952 260.643 60.75 260.441L65.21 258.641L79.93 252.711L94.62 246.711L99.08 244.901C99.6163 244.649 100.171 244.438 100.74 244.271Z" fill="#9A3A88"/>
<path d="M180.33 275.111C179.989 275.347 179.624 275.545 179.24 275.701C178.53 276.051 177.49 276.531 176.19 277.111C173.61 278.281 170.01 279.831 166 281.461C161.99 283.091 158.32 284.461 155.66 285.461C154.32 285.941 153.24 286.321 152.49 286.571C152.105 286.719 151.706 286.829 151.3 286.901C151.648 286.685 152.021 286.51 152.41 286.381L155.53 285.121L165.81 281.001L176.05 276.801L179.16 275.531C179.533 275.349 179.926 275.208 180.33 275.111Z" fill="#9A3A88"/>
<path d="M177.09 330.051C176.763 330.286 176.411 330.484 176.04 330.641C175.35 330.981 174.34 331.471 173.09 332.051C170.59 333.221 167.09 334.771 163.22 336.391C159.35 338.011 155.77 339.391 153.22 340.391C151.92 340.871 150.87 341.251 150.14 341.491C149.767 341.646 149.378 341.76 148.98 341.831C149.319 341.614 149.681 341.436 150.06 341.301L153.06 340.041L163.06 335.931L172.98 331.731L175.98 330.471C176.334 330.292 176.706 330.152 177.09 330.051Z" fill="#9A3A88"/>
<path d="M176.63 349.311C176.319 349.541 175.984 349.735 175.63 349.891C174.94 350.241 173.93 350.721 172.63 351.311C170.13 352.471 166.63 354.021 162.75 355.651C158.87 357.281 155.31 358.651 152.75 359.651C151.46 360.131 150.41 360.511 149.67 360.761C149.303 360.92 148.916 361.031 148.52 361.091C148.862 360.882 149.224 360.708 149.6 360.571L152.6 359.311L162.6 355.201L172.53 351.001L175.53 349.741C175.877 349.552 176.247 349.408 176.63 349.311Z" fill="#9A3A88"/>
<path d="M176.17 368.561C175.857 368.79 175.522 368.987 175.17 369.151C174.48 369.501 173.47 369.981 172.17 370.561C169.66 371.731 166.17 373.281 162.29 374.901C158.41 376.521 154.85 377.901 152.29 378.901C151 379.381 149.94 379.761 149.21 380.001C148.84 380.154 148.454 380.268 148.06 380.341C148.399 380.123 148.761 379.945 149.14 379.811L152.14 378.561L162.14 374.441L172.07 370.241L175.07 368.981C175.42 368.801 175.789 368.66 176.17 368.561Z" fill="#9A3A88"/>
<path d="M180.85 254.771C180.506 255.003 180.141 255.2 179.76 255.361C179.05 255.711 178.01 256.191 176.76 256.771C174.18 257.941 170.58 259.491 166.57 261.121C162.56 262.751 158.89 264.121 156.23 265.121C154.89 265.601 153.81 265.981 153.06 266.221C152.676 266.374 152.277 266.488 151.87 266.561C152.216 266.339 152.589 266.161 152.98 266.031L156.1 264.771L166.38 260.661L176.62 256.461L179.73 255.201C180.087 255.019 180.462 254.875 180.85 254.771Z" fill="#9A3A88"/>
<path d="M181.37 234.432C181.026 234.663 180.661 234.86 180.28 235.022C179.57 235.362 178.53 235.852 177.23 236.432C174.65 237.602 171.05 239.152 167.04 240.772C163.03 242.392 159.37 243.772 156.7 244.772C155.36 245.252 154.28 245.622 153.53 245.872C153.146 246.024 152.747 246.138 152.34 246.212C152.689 245.988 153.066 245.81 153.46 245.682L156.57 244.422L166.85 240.312L177.09 236.112L180.2 234.852C180.573 234.669 180.966 234.528 181.37 234.432Z" fill="#9A3A88"/>
<path d="M181.89 214.092C181.576 214.311 181.241 214.499 180.89 214.652C180.22 214.982 179.23 215.442 178 216.002C175.53 217.122 172.11 218.612 168.29 220.152C164.47 221.692 160.97 223.022 158.43 223.932C157.16 224.382 156.13 224.742 155.43 224.932C155.063 225.081 154.681 225.188 154.29 225.252C154.626 225.041 154.985 224.87 155.36 224.742L158.36 223.542L168.15 219.632L177.91 215.632L180.91 214.432C181.223 214.282 181.552 214.168 181.89 214.092Z" fill="#9A3A88"/>
<path d="M184.19 195.08C182.593 195.944 180.919 196.658 179.19 197.21C177.516 197.923 175.778 198.475 174 198.86C175.597 197.993 177.27 197.277 179 196.72C180.673 196.008 182.411 195.458 184.19 195.08Z" fill="#9A3A88"/>
<path d="M120.57 216.592C120.066 216.894 119.541 217.162 119 217.392C118 217.872 116.47 218.542 114.6 219.392C110.88 221.022 105.71 223.192 99.96 225.522C94.21 227.852 88.96 229.892 85.18 231.312C83.28 232.022 81.73 232.582 80.66 232.952C80.1093 233.167 79.5446 233.344 78.97 233.482C79.4883 233.196 80.0303 232.955 80.59 232.762L85.05 230.972L99.77 225.002L114.46 219.002L118.91 217.192C119.449 216.955 120.004 216.755 120.57 216.592Z" fill="#9A3A88"/>
<path d="M140.41 188.9C139.907 189.211 139.378 189.479 138.83 189.7C137.83 190.18 136.3 190.86 134.44 191.7C130.72 193.32 125.54 195.5 119.8 197.82C114.06 200.14 108.8 202.19 105.02 203.61C103.11 204.33 101.57 204.89 100.49 205.26C99.9461 205.482 99.384 205.656 98.81 205.78C99.3286 205.505 99.8667 205.267 100.42 205.07L104.88 203.27L119.6 197.34L134.3 191.34L138.75 189.52C139.287 189.273 139.842 189.066 140.41 188.9Z" fill="#9A3A88"/>
<path d="M158.74 161.221C158.233 161.524 157.705 161.792 157.16 162.021C156.16 162.501 154.63 163.171 152.77 164.021C149.05 165.651 143.87 167.821 138.13 170.151C132.39 172.481 127.13 174.521 123.35 175.941C121.45 176.651 119.9 177.211 118.83 177.581C118.279 177.795 117.715 177.972 117.14 178.111C117.658 177.825 118.2 177.584 118.76 177.391L123.22 175.601L137.94 169.671L152.63 163.671L157.08 161.861C157.613 161.599 158.169 161.385 158.74 161.221Z" fill="#9A3A88"/>
<path d="M177.82 134.602C177.311 134.902 176.784 135.17 176.24 135.402C175.24 135.882 173.71 136.552 171.85 137.402C168.12 139.032 162.95 141.202 157.21 143.532C151.47 145.862 146.21 147.902 142.42 149.322C140.52 150.032 138.98 150.592 137.9 150.962C137.35 151.18 136.786 151.357 136.21 151.492C136.73 151.208 137.271 150.967 137.83 150.772L142.29 148.982L157 143.002L171.69 137.002L176.15 135.192C176.691 134.954 177.25 134.757 177.82 134.602Z" fill="#9A3A88"/>
<path d="M228.44 175.27C228.273 175.512 228.078 175.734 227.86 175.93C227.294 176.552 226.69 177.136 226.05 177.68C223.717 179.717 221.1 181.401 218.28 182.68C214.074 184.57 209.53 185.591 204.92 185.68C202.195 185.731 199.475 185.425 196.83 184.77C194.006 184.047 191.267 183.025 188.66 181.72C183.28 179.1 178.5 176.01 173.83 173.86C169.737 171.854 165.282 170.691 160.73 170.44C157.663 170.283 154.603 170.856 151.8 172.11C151.044 172.465 150.319 172.879 149.63 173.35C149.395 173.525 149.147 173.682 148.89 173.82C149.103 173.621 149.331 173.437 149.57 173.27C150.241 172.76 150.958 172.312 151.71 171.93C154.515 170.591 157.604 169.952 160.71 170.07C165.326 170.289 169.849 171.45 174 173.48C178.72 175.63 183.52 178.71 188.85 181.31C191.432 182.589 194.14 183.594 196.93 184.31C199.529 184.958 202.201 185.268 204.88 185.23C212.557 185.125 219.967 182.397 225.88 177.5C226.73 176.82 227.33 176.22 227.75 175.83C227.965 175.626 228.196 175.439 228.44 175.27Z" fill="white"/>
<path d="M214.52 125.83C214.117 126.11 213.692 126.357 213.25 126.57C212.42 127.02 211.18 127.57 209.62 128.27C207.791 129.039 205.922 129.707 204.02 130.27C199.36 131.661 194.54 132.448 189.68 132.61C187.679 132.683 185.676 132.643 183.68 132.49C181.99 132.36 180.68 132.2 179.68 132.03C179.192 131.975 178.711 131.878 178.24 131.74C178.732 131.723 179.224 131.753 179.71 131.83C180.64 131.94 182 132.04 183.71 132.12C185.42 132.2 187.4 132.22 189.62 132.12C192.025 132.001 194.421 131.754 196.8 131.38C199.159 130.975 201.496 130.447 203.8 129.8C205.93 129.18 207.8 128.54 209.39 127.92C210.98 127.3 212.21 126.77 213.07 126.38C213.535 126.151 214.02 125.967 214.52 125.83Z" fill="white"/>
<path d="M143.52 236.89C143.19 236.585 142.889 236.25 142.62 235.89L140.26 233.07C137.626 230.005 134.829 227.084 131.88 224.32C130.279 222.802 128.519 221.46 126.63 220.32C125.085 219.396 123.394 218.74 121.63 218.38C119.993 218.087 118.317 218.087 116.68 218.38C116.68 218.38 116.79 218.32 117.01 218.25C117.335 218.142 117.67 218.065 118.01 218.02C119.238 217.814 120.492 217.814 121.72 218.02C123.542 218.337 125.293 218.977 126.89 219.91C128.831 221.054 130.633 222.42 132.26 223.98C135.23 226.75 138.003 229.724 140.56 232.88C141.56 234.09 142.3 235.1 142.8 235.8C143.078 236.137 143.319 236.502 143.52 236.89Z" fill="white"/>
<path d="M223.29 267.101C223.29 267.101 223.16 267.221 222.9 267.401C222.64 267.581 222.25 267.871 221.71 268.171C220.209 269.052 218.632 269.798 217 270.401C211.592 272.444 205.716 272.912 200.053 271.753C194.39 270.594 189.171 267.854 185 263.851C183.736 262.664 182.584 261.362 181.56 259.961C181.19 259.471 180.95 259.061 180.77 258.791C180.59 258.521 180.51 258.371 180.53 258.361C180.953 258.833 181.35 259.327 181.72 259.841C182.801 261.175 183.981 262.425 185.25 263.581C189.424 267.439 194.574 270.082 200.143 271.222C205.711 272.362 211.485 271.958 216.84 270.051C218.462 269.489 220.036 268.8 221.55 267.991C222.113 267.663 222.694 267.366 223.29 267.101Z" fill="white"/>
<path d="M252.42 330.42C252.42 330.42 252.32 330.27 252.14 329.95C251.96 329.63 251.68 329.17 251.34 328.57C250.337 326.792 249.193 325.096 247.92 323.5L246.56 321.9L245.83 321.03L244.98 320.2L243.18 318.42L241.08 316.68C237.726 314.015 234.026 311.818 230.08 310.15C225.317 308.136 220.243 306.955 215.08 306.66C209.137 306.341 203.194 307.296 197.65 309.46C191.8 311.76 186.15 315.23 180.17 318.59C177.141 320.34 174.005 321.896 170.78 323.25C167.438 324.657 163.912 325.583 160.31 326C156.705 326.363 153.065 326.143 149.53 325.35C146.108 324.597 142.778 323.474 139.6 322C133.646 319.119 127.98 315.677 122.68 311.72C117.55 308.07 112.68 304.54 107.87 301.72C103.448 299.012 98.6539 296.964 93.64 295.64C89.4853 294.617 85.1831 294.333 80.93 294.8C77.7189 295.133 74.5931 296.038 71.7 297.47C69.89 298.397 68.2091 299.557 66.7 300.92L65.54 302C65.29 302.25 65.15 302.37 65.15 302.37C65.15 302.37 65.26 302.23 65.51 301.96L66.6 300.79C68.0998 299.388 69.7816 298.194 71.6 297.24C74.5071 295.761 77.6578 294.819 80.9 294.46C85.1885 293.957 89.5324 294.217 93.73 295.23C98.784 296.547 103.621 298.588 108.09 301.29C112.96 304.11 117.82 307.63 122.96 311.29C128.24 315.217 133.883 318.632 139.81 321.49C142.951 322.963 146.244 324.086 149.63 324.84C153.116 325.619 156.705 325.836 160.26 325.48C163.806 325.069 167.277 324.16 170.57 322.78C173.775 321.432 176.894 319.889 179.91 318.16C185.91 314.81 191.55 311.33 197.45 309.02C198.905 308.448 200.395 307.967 201.91 307.58C202.66 307.39 203.4 307.16 204.14 307.01L206.38 306.64C209.259 306.211 212.174 306.077 215.08 306.24C220.305 306.551 225.437 307.763 230.25 309.82C234.198 311.529 237.898 313.762 241.25 316.46C241.97 317.07 242.67 317.67 243.35 318.23L245.14 320.04L245.98 320.88C246.23 321.18 246.48 321.47 246.71 321.76C247.19 322.33 247.64 322.87 248.06 323.39C249.323 325.003 250.444 326.723 251.41 328.53C251.737 329.143 251.987 329.613 252.16 329.94C252.35 330.25 252.42 330.42 252.42 330.42Z" fill="white"/>
<path d="M222.2 372.191C222.036 372.256 221.865 372.3 221.69 372.321L220.21 372.601C219.433 372.757 218.649 372.874 217.86 372.951C216.94 373.041 215.86 373.191 214.72 373.221L212.88 373.301C212.25 373.301 211.58 373.301 210.88 373.301C209.51 373.301 208.04 373.171 206.5 373.051C203.162 372.686 199.861 372.044 196.63 371.131C193.414 370.163 190.284 368.932 187.27 367.451C185.91 366.721 184.6 366.051 183.44 365.301C182.86 364.941 182.28 364.611 181.75 364.301L180.25 363.251C179.25 362.601 178.48 361.911 177.75 361.331C177.119 360.847 176.515 360.33 175.94 359.781C175.51 359.361 175.14 359.021 174.85 358.781C174.714 358.666 174.593 358.535 174.49 358.391C174.645 358.477 174.789 358.581 174.92 358.701L176.08 359.701C176.57 360.121 177.18 360.631 177.93 361.171C178.68 361.711 179.48 362.391 180.46 363.021L181.97 364.021C182.5 364.371 183.08 364.691 183.66 365.021C184.82 365.751 186.13 366.401 187.49 367.111C193.471 370.059 199.921 371.937 206.55 372.661C208.08 372.791 209.55 372.951 210.9 372.961C211.58 372.961 212.24 373.021 212.9 372.961H214.72C215.88 372.961 216.93 372.831 217.85 372.771C218.77 372.711 219.56 372.611 220.2 372.511L221.69 372.331C221.852 372.259 222.024 372.212 222.2 372.191Z" fill="white"/>
<path d="M629.32 293.411L662.62 290.161L666.07 325.451L632.77 328.711L638.5 387.351L594.7 391.641L589 333.001L475.84 344.061L472.13 317.331L567.48 128.241L612.73 123.811L629.32 293.411ZM514.74 304.621L585.51 297.701L575.05 190.701L573.93 190.451L571.07 198.591L514.74 304.621Z" fill="#9A3A88"/>
<g opacity="0.4">
<path opacity="0.4" d="M629.32 293.411L662.62 290.161L666.07 325.451L632.77 328.711L638.5 387.351L594.7 391.641L589 333.001L475.84 344.061L472.13 317.331L567.48 128.241L612.73 123.811L629.32 293.411ZM514.74 304.621L585.51 297.701L575.05 190.701L573.93 190.451L571.07 198.591L514.74 304.621Z" fill="black"/>
</g>
<path d="M657.17 290.692L690.47 287.432L693.93 322.732L660.62 326.002L666.36 384.652L622.55 388.932L616.82 330.292L503.69 341.332L500 314.612L595.35 125.522L640.6 121.092L657.17 290.692ZM542.6 301.892L613.37 295.002L602.91 188.002L601.78 187.742L598.93 195.882L542.6 301.892Z" fill="#9A3A88"/>
<path d="M501.26 319.611C500.954 319.895 500.619 320.147 500.26 320.361C499.61 320.821 498.65 321.461 497.46 322.241C495.07 323.801 491.75 325.901 488.02 328.141C484.29 330.381 480.88 332.331 478.38 333.701C477.14 334.381 476.12 334.931 475.38 335.291C475.022 335.503 474.643 335.677 474.25 335.811C474.554 335.539 474.89 335.304 475.25 335.111L478.14 333.381L487.7 327.691L497.2 321.931L500.09 320.191C500.456 319.953 500.849 319.759 501.26 319.611Z" fill="#9A3A88"/>
<path d="M513.16 287.67C512.727 288.039 512.265 288.373 511.78 288.67C510.88 289.28 509.55 290.15 507.9 291.21C504.6 293.32 500 296.21 494.9 299.21C489.8 302.21 485.1 305.02 481.69 306.94C479.99 307.94 478.6 308.67 477.63 309.18C477.139 309.466 476.627 309.717 476.1 309.93C476.551 309.582 477.029 309.271 477.53 309L481.53 306.62L494.66 298.77L507.75 290.86L511.75 288.47C512.199 288.168 512.67 287.9 513.16 287.67Z" fill="#9A3A88"/>
<path d="M529.08 258.441C528.623 258.812 528.138 259.146 527.63 259.441C526.63 260.061 525.29 260.941 523.56 262.011C520.1 264.141 515.28 267.011 509.92 270.131C504.56 273.251 499.67 276.001 496.1 278.001C494.32 279.001 492.87 279.751 491.86 280.271C491.346 280.561 490.811 280.812 490.26 281.021C490.736 280.674 491.237 280.363 491.76 280.091L495.92 277.681L509.66 269.741L523.37 261.741L527.52 259.321C528.017 258.989 528.538 258.695 529.08 258.441Z" fill="#9A3A88"/>
<path d="M612.22 277.781C611.914 278.06 611.579 278.305 611.22 278.511C610.57 278.961 609.6 279.581 608.41 280.341C606.01 281.861 602.67 283.901 598.93 286.081C595.19 288.261 591.75 290.141 589.24 291.461C587.99 292.131 586.97 292.651 586.24 293.001C585.882 293.208 585.503 293.375 585.11 293.501C585.418 293.24 585.754 293.012 586.11 292.821L589.02 291.141L598.61 285.621L608.16 280.031L611.07 278.341C611.431 278.111 611.816 277.923 612.22 277.781Z" fill="#9A3A88"/>
<path d="M616.74 332.621C616.437 332.904 616.102 333.149 615.74 333.351C615.11 333.791 614.18 334.411 613.02 335.171C610.71 336.671 607.48 338.701 603.86 340.861C600.24 343.021 596.91 344.861 594.48 346.201C593.27 346.861 592.28 347.381 591.59 347.731C591.244 347.938 590.875 348.103 590.49 348.221C590.799 347.963 591.134 347.739 591.49 347.551L594.3 345.881L603.59 340.411L612.83 334.851L615.64 333.181C615.983 332.951 616.352 332.763 616.74 332.621Z" fill="#9A3A88"/>
<path d="M619 351.75C618.697 352.033 618.362 352.278 618 352.48C617.37 352.92 616.44 353.54 615.28 354.3C612.97 355.8 609.74 357.83 606.12 359.98C602.5 362.13 599.17 363.98 596.74 365.33C595.53 365.99 594.54 366.51 593.85 366.86C593.504 367.067 593.135 367.232 592.75 367.35C593.059 367.092 593.394 366.868 593.75 366.68L596.56 365.01L605.85 359.54L615.09 353.98L617.9 352.31C618.243 352.08 618.612 351.892 619 351.75Z" fill="#9A3A88"/>
<path d="M621.24 370.881C620.937 371.164 620.602 371.409 620.24 371.611C619.61 372.051 618.68 372.671 617.52 373.421C615.21 374.931 611.98 376.961 608.36 379.111C604.74 381.261 601.41 383.111 598.98 384.461C597.77 385.121 596.78 385.641 596.09 385.991C595.742 386.192 595.373 386.356 594.99 386.481C595.299 386.223 595.634 385.998 595.99 385.811L598.8 384.141L608.09 378.671L617.33 373.111L620.14 371.441C620.483 371.211 620.852 371.023 621.24 370.881Z" fill="#9A3A88"/>
<path d="M609.87 257.561C609.563 257.841 609.228 258.089 608.87 258.301C608.21 258.741 607.25 259.371 606.05 260.131C603.65 261.641 600.31 263.691 596.57 265.861C592.83 268.031 589.39 269.921 586.89 271.251C585.63 271.911 584.61 272.441 583.89 272.791C583.532 272.997 583.153 273.165 582.76 273.291C583.07 273.031 583.405 272.804 583.76 272.611L586.66 270.931L596.26 265.411L605.81 259.811L608.71 258.131C609.076 257.9 609.464 257.709 609.87 257.561Z" fill="#9A3A88"/>
<path d="M607.52 237.352C607.216 237.635 606.88 237.883 606.52 238.092C605.86 238.532 604.9 239.152 603.7 239.912C601.31 241.432 597.97 243.482 594.22 245.652C590.47 247.822 587.05 249.712 584.54 251.042C583.29 251.702 582.27 252.232 581.54 252.582C581.185 252.792 580.806 252.956 580.41 253.072C580.717 252.812 581.053 252.587 581.41 252.402L584.31 250.712L593.91 245.202L603.46 239.602L606.36 237.912C606.727 237.686 607.115 237.498 607.52 237.352Z" fill="#9A3A88"/>
<path d="M605.18 217.141C604.895 217.409 604.579 217.644 604.24 217.841C603.61 218.271 602.69 218.841 601.55 219.591C599.28 221.041 596.1 222.991 592.55 225.061C589 227.131 585.71 228.931 583.32 230.191L580.47 231.651C580.128 231.846 579.766 232.004 579.39 232.121C579.701 231.871 580.036 231.653 580.39 231.471L583.15 229.861L592.3 224.611L601.39 219.271L604.16 217.671C604.479 217.457 604.821 217.279 605.18 217.141Z" fill="#9A3A88"/>
<path d="M604.78 198C603.321 199.088 601.76 200.032 600.12 200.82C598.559 201.757 596.915 202.551 595.21 203.19C596.669 202.102 598.23 201.158 599.87 200.37C601.43 199.431 603.074 198.637 604.78 198Z" fill="#9A3A88"/>
<path d="M544.82 228.24C544.368 228.612 543.886 228.947 543.38 229.24C542.38 229.86 541.03 230.74 539.3 231.81C535.85 233.94 531.03 236.81 525.67 239.93C520.31 243.05 515.42 245.8 511.85 247.74C510.07 248.74 508.61 249.49 507.6 250.01C507.088 250.296 506.557 250.547 506.01 250.76C506.484 250.41 506.986 250.099 507.51 249.83L511.67 247.42L525.41 239.48L539.11 231.48L543.27 229.06C543.766 228.75 544.284 228.476 544.82 228.24Z" fill="#9A3A88"/>
<path d="M560.57 198C560.113 198.37 559.628 198.705 559.12 199C558.12 199.62 556.78 200.5 555.05 201.57C551.59 203.7 546.77 206.57 541.42 209.69C536.07 212.81 531.16 215.56 527.59 217.5C525.81 218.5 524.36 219.25 523.35 219.77C522.836 220.06 522.301 220.311 521.75 220.52C522.226 220.173 522.727 219.862 523.25 219.59L527.41 217.18L541.15 209.24L554.86 201.24L559.02 198.82C559.515 198.507 560.033 198.233 560.57 198Z" fill="#9A3A88"/>
<path d="M574.83 168.051C574.373 168.421 573.888 168.755 573.38 169.051C572.38 169.671 571.04 170.551 569.31 171.621C565.85 173.751 561.03 176.621 555.67 179.741C550.31 182.861 545.42 185.611 541.85 187.551C540.07 188.551 538.62 189.301 537.61 189.821C537.095 190.108 536.56 190.359 536.01 190.571C536.486 190.224 536.987 189.913 537.51 189.641L541.67 187.231L555.41 179.291L569.12 171.291L573.27 168.871C573.767 168.556 574.289 168.282 574.83 168.051Z" fill="#9A3A88"/>
<path d="M590 139C589.543 139.37 589.058 139.705 588.55 140C587.6 140.62 586.21 141.5 584.48 142.57C581.02 144.7 576.2 147.57 570.84 150.7C565.48 153.83 560.59 156.56 557.02 158.51C555.24 159.51 553.79 160.25 552.78 160.77C552.266 161.063 551.732 161.317 551.18 161.53C551.651 161.172 552.153 160.858 552.68 160.59L556.84 158.19L570.58 150.19L584.29 142.19L588.44 139.77C588.94 139.475 589.462 139.218 590 139Z" fill="#9A3A88"/>
<path d="M645.81 172.16C645.672 172.417 645.512 172.662 645.33 172.89C644.857 173.59 644.34 174.258 643.78 174.89C641.757 177.243 639.398 179.285 636.78 180.95C632.889 183.433 628.534 185.1 623.98 185.85C621.292 186.28 618.558 186.357 615.85 186.08C612.952 185.761 610.096 185.134 607.33 184.21C601.63 182.38 596.47 179.99 591.54 178.51C587.205 177.116 582.636 176.602 578.1 177C575.041 177.279 572.091 178.276 569.49 179.91C568.786 180.369 568.117 180.881 567.49 181.44C567.289 181.651 567.068 181.842 566.83 182.01C567.008 181.78 567.205 181.566 567.42 181.37C568.013 180.77 568.659 180.224 569.35 179.74C571.948 178.016 574.928 176.952 578.03 176.64C582.628 176.157 587.277 176.62 591.69 178C596.69 179.47 601.85 181.84 607.49 183.67C610.225 184.578 613.047 185.201 615.91 185.53C618.575 185.803 621.263 185.732 623.91 185.32C628.407 184.605 632.715 182.997 636.58 180.59C639.174 178.963 641.529 176.984 643.58 174.71C644.151 174.1 644.688 173.459 645.19 172.79C645.381 172.566 645.589 172.355 645.81 172.16Z" fill="white"/>
<path d="M625.07 125.17C624.715 125.507 624.33 125.812 623.92 126.08C623.16 126.65 622.02 127.4 620.57 128.27C618.869 129.289 617.113 130.214 615.31 131.04C613.096 132.041 610.825 132.912 608.51 133.65C606.186 134.365 603.822 134.943 601.43 135.38C599.477 135.722 597.508 135.962 595.53 136.1C593.84 136.21 592.47 136.23 591.53 136.2C591.038 136.221 590.546 136.191 590.06 136.11C590.542 136.028 591.031 135.991 591.52 136C592.46 136 593.82 135.88 595.52 135.73C597.22 135.58 599.18 135.31 601.36 134.91C603.721 134.446 606.058 133.862 608.36 133.16C610.657 132.428 612.914 131.573 615.12 130.6C617.12 129.69 618.93 128.79 620.39 127.95C621.85 127.11 623.02 126.42 623.81 125.95C624.207 125.654 624.628 125.393 625.07 125.17Z" fill="white"/>
<path d="M570.4 245.11C570.041 244.847 569.707 244.552 569.4 244.23L566.66 241.78C563.624 239.114 560.446 236.613 557.14 234.29C555.341 232.997 553.406 231.904 551.37 231.03C549.711 230.334 547.946 229.924 546.15 229.82C544.487 229.751 542.825 229.974 541.24 230.48C541.24 230.48 541.34 230.4 541.55 230.3C541.854 230.156 542.168 230.036 542.49 229.94C543.681 229.572 544.925 229.407 546.17 229.45C548.017 229.508 549.838 229.894 551.55 230.59C553.63 231.449 555.603 232.546 557.43 233.86C560.763 236.188 563.93 238.744 566.91 241.51C568.05 242.57 568.91 243.51 569.54 244.09C569.864 244.396 570.153 244.739 570.4 245.11Z" fill="white"/>
<path d="M653.62 263.812C653.62 263.812 653.52 263.942 653.28 264.162C653.04 264.382 652.7 264.712 652.21 265.082C650.858 266.17 649.409 267.13 647.88 267.952C642.814 270.719 637.069 272 631.307 271.646C625.545 271.292 620 269.319 615.31 265.952C613.895 264.953 612.576 263.824 611.37 262.582C610.93 262.152 610.63 261.782 610.37 261.582C610.251 261.464 610.15 261.329 610.07 261.182C610.07 261.182 610.57 261.642 611.46 262.482C612.708 263.653 614.046 264.727 615.46 265.692C620.13 268.931 625.598 270.83 631.271 271.182C636.944 271.535 642.605 270.328 647.64 267.692C649.167 266.906 650.632 266.003 652.02 264.992C652.531 264.569 653.065 264.175 653.62 263.812Z" fill="white"/>
<path d="M691.38 322.391C691.246 322.269 691.119 322.139 691 322.001C690.76 321.711 690.44 321.291 690 320.751C688.753 319.134 687.383 317.616 685.9 316.211L684.32 314.811L683.48 314.061L682.48 313.351L680.48 311.851L678.15 310.421C674.464 308.255 670.501 306.6 666.37 305.501C661.363 304.165 656.165 303.698 651 304.121C645.072 304.645 639.324 306.428 634.14 309.351C628.67 312.451 623.57 316.681 618.14 320.851C615.385 323.004 612.499 324.984 609.5 326.781C606.382 328.644 603.015 330.055 599.5 330.971C595.979 331.83 592.343 332.124 588.73 331.841C585.231 331.553 581.773 330.882 578.42 329.841C572.121 327.834 566.029 325.226 560.23 322.051C554.63 319.151 549.34 316.351 544.16 314.241C539.379 312.19 534.327 310.843 529.16 310.241C524.901 309.828 520.602 310.166 516.46 311.241C513.329 312.022 510.362 313.356 507.7 315.181C506.032 316.359 504.52 317.743 503.2 319.301L502.25 320.581C502.03 320.871 501.91 321.011 501.91 321.011C501.91 321.011 502 320.851 502.2 320.551L503.12 319.241C504.408 317.638 505.908 316.218 507.58 315.021C510.244 313.141 513.23 311.765 516.39 310.961C520.564 309.856 524.901 309.501 529.2 309.911C534.39 310.508 539.467 311.856 544.27 313.911C549.49 316.011 554.8 318.811 560.4 321.691C566.178 324.838 572.242 327.43 578.51 329.431C581.83 330.441 585.25 331.088 588.71 331.361C592.27 331.643 595.852 331.353 599.32 330.501C602.775 329.594 606.084 328.204 609.15 326.371C612.134 324.59 615.003 322.623 617.74 320.481C623.18 316.331 628.31 312.091 633.83 308.971C635.193 308.202 636.603 307.517 638.05 306.921C638.76 306.621 639.45 306.301 640.17 306.041L642.33 305.361C645.121 304.531 647.989 303.985 650.89 303.731C656.106 303.311 661.356 303.792 666.41 305.151C670.566 306.27 674.55 307.952 678.25 310.151L680.58 311.601L682.58 313.141L683.58 313.851L684.42 314.621L685.99 316.041C687.446 317.47 688.784 319.015 689.99 320.661C690.39 321.221 690.71 321.661 690.93 321.951L691.38 322.391Z" fill="white"/>
<path d="M667.32 368.001C667.167 368.083 667.006 368.15 666.84 368.201L665.42 368.691C664.672 368.952 663.911 369.176 663.14 369.361C662.23 369.581 661.22 369.881 660.06 370.071L658.26 370.411C657.63 370.521 656.97 370.581 656.26 370.671C654.9 370.871 653.43 370.941 651.88 371.041C648.538 371.143 645.194 370.972 641.88 370.531C638.56 370.028 635.288 369.245 632.1 368.191C630.64 367.671 629.25 367.191 628 366.611C627.37 366.331 626.75 366.091 626.18 365.811L624.55 364.981C623.49 364.471 622.6 363.901 621.8 363.431C621.111 363.04 620.443 362.613 619.8 362.151L618.57 361.281C618.42 361.189 618.282 361.078 618.16 360.951C618.327 361.009 618.485 361.09 618.63 361.191L619.91 361.981C620.45 362.331 621.13 362.751 621.91 363.181C622.69 363.611 623.61 364.181 624.67 364.651L626.31 365.441C626.88 365.721 627.5 365.951 628.13 366.221C629.38 366.771 630.76 367.221 632.21 367.741C635.407 368.758 638.681 369.513 642 370.001C645.297 370.447 648.624 370.631 651.95 370.551C653.48 370.461 654.95 370.421 656.29 370.231C656.96 370.151 657.62 370.101 658.29 370.001L660.09 369.701C661.24 369.541 662.25 369.261 663.16 369.071C664.07 368.881 664.83 368.671 665.45 368.481L666.9 368.091C667.036 368.046 667.177 368.016 667.32 368.001Z" fill="white"/>
<path d="M459.08 221.541L452.08 220.441L408.71 206.441L383.35 199.111C379.787 197.826 375.996 197.296 372.217 197.554C368.439 197.812 364.755 198.853 361.4 200.611C349.4 206.711 316.34 237.491 316.34 237.491L340.15 262.041L328.94 311.721C341.49 347.401 366.06 351.491 366.06 351.491C378.069 352.004 390.055 350.022 401.26 345.671C424.07 337.001 448 316.591 451 307.821C452.8 302.561 454.29 291.501 455.47 279.011L491.59 264.291L501.38 214.291L459.08 221.541Z" fill="#455A64"/>
<path d="M406.32 310.001C406.32 310.001 406.21 310.121 405.97 310.311C405.73 310.501 405.38 310.791 404.89 311.111C403.525 312.03 402.071 312.811 400.55 313.441C395.489 315.597 389.882 316.126 384.507 314.954C379.132 313.783 374.254 310.968 370.55 306.901C369.422 305.69 368.417 304.37 367.55 302.961C367.24 302.471 367.05 302.061 366.9 301.791C366.821 301.659 366.758 301.518 366.71 301.371C367.073 301.843 367.407 302.338 367.71 302.851C368.624 304.202 369.655 305.47 370.79 306.641C374.491 310.569 379.293 313.288 384.566 314.44C389.839 315.593 395.337 315.126 400.34 313.101C401.857 312.507 403.319 311.781 404.71 310.931C405.77 310.301 406.29 309.941 406.32 310.001Z" fill="#263238"/>
<path d="M392.6 208.512C392.64 208.587 392.667 208.668 392.68 208.752C392.73 208.942 392.79 209.172 392.86 209.462C393.01 210.082 393.22 211.012 393.47 212.202C394.21 215.57 394.688 218.99 394.9 222.432C395.028 224.82 394.89 227.214 394.49 229.572C394.006 232.291 393.041 234.902 391.64 237.282C390.017 239.855 388.018 242.17 385.71 244.152C383.36 246.252 380.76 248.152 378.11 250.212C372.47 254.442 366.99 258.272 362.11 261.752C357.23 265.232 352.88 268.342 349.42 270.962L349.31 271.052L349.2 270.962C346.759 269.025 344.441 266.938 342.26 264.712C341.67 264.113 341.125 263.471 340.63 262.792C340.46 262.562 340.36 262.372 340.28 262.252C340.239 262.188 340.202 262.121 340.17 262.052C340.17 262.052 340.36 262.292 340.71 262.732C341.236 263.378 341.797 263.996 342.39 264.582C344.614 266.74 346.951 268.78 349.39 270.692H349.17C352.61 268.032 356.91 264.862 361.81 261.372C366.71 257.882 372.17 254.032 377.81 249.802C380.45 247.802 383.05 245.852 385.38 243.802C387.656 241.858 389.631 239.586 391.24 237.062C392.627 234.742 393.585 232.191 394.07 229.532C394.484 227.203 394.642 224.835 394.54 222.472C394.361 219.046 393.94 215.638 393.28 212.272C393.06 211.102 392.89 210.182 392.76 209.512C392.707 209.225 392.667 208.985 392.64 208.792C392.609 208.702 392.596 208.607 392.6 208.512Z" fill="#263238"/>
<path d="M580.93 231.001C591.08 222.291 594.52 206.621 588.93 194.471L574.63 193.001C578.229 191.018 581.145 187.994 582.995 184.325C584.846 180.656 585.544 176.514 585 172.441C581.043 176.535 575.906 179.29 570.307 180.321C564.707 181.352 558.925 180.607 553.77 178.191C547.09 174.891 541.67 168.741 534.33 167.451C527.67 166.281 521.12 169.451 514.74 171.671C508.36 173.891 500.64 175.181 495.36 170.951C491.18 167.601 489.88 161.731 490.15 156.371C490.42 151.011 491.97 145.791 492.3 140.441C492.539 135.177 491.626 129.924 489.624 125.05C487.622 120.176 484.58 115.797 480.71 112.221C479.416 107.962 477.106 104.081 473.978 100.913C470.851 97.7449 467 95.3847 462.758 94.0356C458.516 92.6865 454.01 92.3889 449.627 93.1686C445.244 93.9482 441.117 95.7816 437.6 98.5109C434.47 100.931 431.83 104.061 428.28 105.811C424.28 107.811 419.61 107.811 415.28 108.811C410.95 109.811 406.38 112.751 405.92 117.201L404.17 126.311C403.88 126.961 403.57 127.601 403.17 128.231C399.49 134.691 391.95 138.941 390.3 146.231C389.38 150.301 390.52 154.711 389.15 158.651C387.34 163.841 381.74 166.761 379.15 171.591C375.57 178.231 378 189.861 383.73 194.761C389.46 199.661 401.27 204.861 408.65 206.431C410.65 198.761 412.42 190.561 414.13 182.171C417.13 185.061 420.3 187.811 423.44 190.541C431.65 197.681 440.04 204.931 445.74 214.201C456.57 231.831 456.74 255.201 470.39 270.741C473.06 273.791 476.31 276.501 480.19 277.681C484.07 278.861 488.67 278.231 491.54 275.371C494.93 271.991 495.37 266.291 499.12 263.321C504.12 259.371 511.38 262.521 516.73 265.951C520.61 268.431 524.49 271.051 528.88 272.411C533.27 273.771 538.39 273.681 542.13 271.001C545.87 268.321 547.51 262.601 544.81 258.871C543.73 257.381 542.12 256.341 541.05 254.871C539.98 253.401 539.67 251.001 541.14 249.871C542.61 248.741 545.02 249.871 546.77 250.871C551.063 253.394 555.865 254.929 560.825 255.365C565.786 255.801 570.782 255.126 575.449 253.39C580.116 251.654 584.338 248.9 587.808 245.328C591.278 241.756 593.909 237.456 595.51 232.741C590.582 233.479 585.546 232.878 580.93 231.001Z" fill="#263238"/>
<path d="M572 152.551C572.458 152.884 572.889 153.251 573.29 153.651C574.497 154.774 575.511 156.088 576.29 157.541C576.831 158.599 577.203 159.737 577.39 160.911C577.62 162.432 577.407 163.987 576.775 165.39C576.144 166.793 575.121 167.984 573.83 168.821C573.071 169.313 572.208 169.624 571.31 169.731C570.358 169.832 569.396 169.695 568.51 169.331C564.8 167.811 562.93 163.521 558.92 161.611C555.01 159.541 550.01 159.401 545.21 160.501C540.41 161.601 535.72 164.211 530.99 166.871C526.26 169.531 521.23 172.381 515.44 173.371C512.598 173.921 509.674 173.901 506.84 173.311C505.448 172.994 504.103 172.496 502.84 171.831C501.613 171.159 500.483 170.325 499.48 169.351C497.574 167.413 496.107 165.087 495.18 162.531C494.272 160.106 493.674 157.576 493.4 155.001C492.87 150.001 493.29 145.201 493.34 140.771C493.54 136.66 493.132 132.543 492.13 128.551C491.653 126.827 491.014 125.153 490.22 123.551C489.525 122.11 488.713 120.728 487.79 119.421C486.327 117.318 484.611 115.404 482.68 113.721C481.45 112.665 480.143 111.702 478.77 110.841L477.68 110.191L477.32 109.961C477.456 110.011 477.587 110.075 477.71 110.151L478.83 110.751C482.466 112.903 485.602 115.804 488.03 119.261C490.031 122.049 491.536 125.161 492.48 128.461C493.523 132.48 493.958 136.633 493.77 140.781C493.77 145.241 493.34 150.001 493.88 154.951C494.152 157.481 494.74 159.967 495.63 162.351C496.539 164.836 497.971 167.098 499.83 168.981C500.795 169.926 501.885 170.733 503.07 171.381C504.289 172.015 505.582 172.495 506.92 172.811C509.69 173.378 512.544 173.395 515.32 172.861C521 171.861 525.98 169.071 530.71 166.421C535.44 163.771 540.11 161.161 545.07 160.031C547.47 159.465 549.939 159.257 552.4 159.411C553.578 159.494 554.747 159.684 555.89 159.981C556.999 160.281 558.072 160.7 559.09 161.231C563.24 163.231 565.09 167.571 568.62 168.981C569.425 169.324 570.303 169.463 571.175 169.386C572.047 169.31 572.887 169.019 573.62 168.541C574.964 167.693 576.012 166.449 576.62 164.981C577.147 163.718 577.319 162.335 577.12 160.981C576.966 159.831 576.629 158.713 576.12 157.671C575.381 156.229 574.423 154.91 573.28 153.761C572.89 153.361 572.58 153.071 572.37 152.881C572.16 152.691 572 152.551 572 152.551Z" fill="#263238"/>
<path d="M408.55 210.272C408.55 210.272 408.55 210.122 408.47 209.822C408.418 209.378 408.327 208.94 408.2 208.512C407.74 206.855 406.901 205.329 405.75 204.052C403.893 202.061 401.633 200.49 399.12 199.442C396.22 198.112 392.62 197.442 388.68 196.722C384.74 196.002 380.27 195.142 376.25 192.462C374.018 190.954 372.143 188.976 370.757 186.666C369.371 184.356 368.508 181.771 368.227 179.092C367.947 176.413 368.257 173.705 369.135 171.159C370.013 168.612 371.438 166.289 373.31 164.352C377.45 160.102 383.31 157.992 388.09 154.262C389.262 153.322 390.316 152.244 391.23 151.052C392.09 149.836 392.739 148.483 393.15 147.052C393.95 144.212 393.88 141.242 394.15 138.352C394.259 136.903 394.527 135.471 394.95 134.082C395.394 132.706 396.112 131.433 397.06 130.342C399.026 128.371 401.502 126.986 404.21 126.342C406.78 125.592 409.34 125.122 411.75 124.462C414.107 123.86 416.338 122.844 418.34 121.462C420.187 120.154 421.846 118.6 423.27 116.842C424.605 115.266 425.85 113.617 427 111.902C429.21 108.562 431.1 105.432 433.11 102.902C434.774 100.718 436.736 98.7791 438.94 97.1418C440.341 96.114 441.897 95.3173 443.55 94.7818C444.119 94.5821 444.704 94.4348 445.3 94.3418C445.3 94.3418 444.69 94.4818 443.58 94.8818C441.956 95.4528 440.432 96.2725 439.06 97.3118C436.893 98.9588 434.968 100.901 433.34 103.082C431.34 105.582 429.5 108.702 427.34 112.082C426.203 113.858 424.961 115.564 423.62 117.192C422.175 118.985 420.493 120.573 418.62 121.912C416.58 123.297 414.312 124.313 411.92 124.912C409.48 125.592 406.92 126.062 404.39 126.812C401.77 127.425 399.373 128.759 397.47 130.662C396.571 131.702 395.891 132.913 395.47 134.222C395.06 135.576 394.802 136.971 394.7 138.382C394.43 141.242 394.51 144.232 393.7 147.182C393.272 148.659 392.595 150.052 391.7 151.302C390.758 152.529 389.67 153.637 388.46 154.602C386.011 156.405 383.442 158.039 380.77 159.492C378.223 160.898 375.87 162.629 373.77 164.642C371.946 166.528 370.556 168.79 369.698 171.27C368.84 173.75 368.535 176.388 368.803 178.998C369.072 181.608 369.908 184.128 371.253 186.382C372.598 188.635 374.42 190.567 376.59 192.042C380.49 194.672 384.93 195.512 388.84 196.302C392.75 197.092 396.4 197.742 399.32 199.112C401.859 200.192 404.135 201.809 405.99 203.852C407.141 205.163 407.964 206.73 408.39 208.422C408.505 208.857 408.579 209.303 408.61 209.752C408.55 210.122 408.55 210.272 408.55 210.272Z" fill="#263238"/>
<path d="M488.39 120.501C488.128 120.475 487.871 120.407 487.63 120.301C486.947 120.077 486.279 119.81 485.63 119.501C481.3 117.462 477.606 114.285 474.94 110.311C474.54 109.713 474.176 109.092 473.85 108.451C473.707 108.226 473.602 107.979 473.54 107.721C473.61 107.721 474.18 108.641 475.24 110.091C478.016 113.884 481.625 116.991 485.79 119.171C487.38 120.001 488.43 120.421 488.39 120.501Z" fill="#455A64"/>
<path d="M521.64 188.71C521.64 188.71 521.01 188.55 519.88 188.31C518.28 187.972 516.654 187.771 515.02 187.71C512.598 187.644 510.174 187.715 507.76 187.92C505.02 188.11 502 188.39 498.81 188.32C495.789 188.321 492.795 187.758 489.98 186.66C487.694 185.706 485.666 184.226 484.06 182.34C482.982 181.067 482.206 179.566 481.79 177.95C481.681 177.514 481.61 177.069 481.58 176.62C481.558 176.465 481.558 176.306 481.58 176.15C481.64 176.15 481.67 176.79 481.99 177.9C482.477 179.451 483.284 180.882 484.36 182.1C485.955 183.905 487.947 185.316 490.18 186.22C492.945 187.264 495.875 187.799 498.83 187.8C501.98 187.87 504.99 187.61 507.74 187.44C510.172 187.251 512.614 187.218 515.05 187.34C516.701 187.437 518.339 187.695 519.94 188.11C520.373 188.225 520.8 188.362 521.22 188.52C521.369 188.561 521.511 188.625 521.64 188.71Z" fill="#455A64"/>
<path d="M580.57 234.181C580.57 234.181 580.48 234.181 580.28 234.311C579.995 234.441 579.697 234.538 579.39 234.601C578.203 234.855 576.97 234.8 575.81 234.441C573.986 233.855 572.336 232.824 571.01 231.441C569.326 229.548 568.016 227.353 567.15 224.971C566.06 222.411 565.15 219.471 563.36 216.751C562.457 215.343 561.393 214.044 560.19 212.881C558.893 211.666 557.472 210.59 555.95 209.671C549.67 205.881 541.42 204.331 532.95 204.831C524.48 205.331 516.51 206.931 509.14 207.441C502.605 208.142 495.995 207.46 489.74 205.441C485.508 204.066 481.683 201.661 478.61 198.441C478.134 197.94 477.689 197.409 477.28 196.851C476.96 196.458 476.673 196.04 476.42 195.601C476.22 195.271 476.06 195.001 475.93 194.801C475.868 194.715 475.817 194.621 475.78 194.521C475.78 194.521 475.86 194.601 475.98 194.771L476.5 195.541C476.774 195.963 477.075 196.367 477.4 196.751C477.819 197.297 478.274 197.815 478.76 198.301C481.854 201.42 485.66 203.74 489.85 205.061C496.068 207.01 502.622 207.65 509.1 206.941C516.43 206.401 524.39 204.721 532.92 204.281C541.45 203.841 549.77 205.351 556.15 209.231C557.698 210.174 559.143 211.277 560.46 212.521C561.685 213.725 562.765 215.068 563.68 216.521C565.49 219.311 566.38 222.281 567.45 224.831C568.273 227.184 569.536 229.359 571.17 231.241C572.45 232.609 574.047 233.639 575.82 234.241C576.946 234.621 578.151 234.707 579.32 234.491C580.17 234.351 580.56 234.141 580.57 234.181Z" fill="#455A64"/>
<path d="M423.29 120.49C421.418 120.443 419.597 121.101 418.186 122.332C416.775 123.563 415.877 125.279 415.67 127.14L407.58 211.35C406.18 223.19 421.67 248.58 434.36 249.98C447.17 251.39 448.43 245.18 450.09 233.98C452.87 215.24 453.8 208.18 453.79 208.29C453.78 208.4 470.29 207.74 476.41 187.11C479.41 176.85 481.19 159.6 482.16 145.44C483.03 132.69 476.7 116.08 463.92 115.75L423.29 120.49Z" fill="#FFBE9D"/>
<path d="M476.58 156.59C476.497 157.303 476.135 157.954 475.572 158.401C475.01 158.847 474.293 159.052 473.58 158.97C473.233 158.952 472.892 158.865 472.579 158.714C472.266 158.563 471.986 158.351 471.756 158.09C471.525 157.829 471.35 157.525 471.239 157.195C471.128 156.865 471.084 156.517 471.11 156.17C471.198 155.458 471.561 154.809 472.122 154.363C472.683 153.916 473.397 153.707 474.11 153.78C474.458 153.798 474.8 153.885 475.114 154.037C475.428 154.188 475.708 154.402 475.938 154.664C476.168 154.926 476.344 155.231 476.454 155.562C476.564 155.893 476.607 156.242 476.58 156.59Z" fill="#263238"/>
<path d="M477.73 151.141C477.41 151.521 475.25 150.141 472.32 150.351C469.39 150.561 467.32 152.171 467.01 151.841C466.85 151.691 467.14 151.031 468.01 150.281C469.215 149.316 470.689 148.747 472.23 148.651C473.75 148.537 475.267 148.912 476.56 149.721C477.53 150.351 477.88 151.001 477.73 151.141Z" fill="#263238"/>
<path d="M450.85 158.111C450.5 158.461 448.48 156.871 445.55 156.801C442.62 156.731 440.43 158.131 440.12 157.801C439.97 157.631 440.33 157.001 441.29 156.351C442.582 155.503 444.106 155.079 445.65 155.141C447.173 155.179 448.643 155.701 449.85 156.631C450.73 157.311 451 158.001 450.85 158.111Z" fill="#263238"/>
<path d="M456.31 173.601C456.31 173.431 458.17 173.361 461.15 173.371C461.9 173.371 462.62 173.371 462.82 172.841C462.981 172.084 462.908 171.296 462.61 170.581C462.15 168.688 461.667 166.688 461.16 164.581C459.16 156.131 457.83 149.221 458.16 149.141C458.49 149.061 460.39 155.861 462.38 164.311C462.86 166.391 463.31 168.371 463.74 170.311C464.098 171.279 464.098 172.343 463.74 173.311C463.598 173.558 463.402 173.769 463.166 173.929C462.931 174.088 462.662 174.192 462.38 174.231C461.952 174.286 461.518 174.286 461.09 174.231C458.13 174.001 456.3 173.761 456.31 173.601Z" fill="#263238"/>
<path d="M453.79 208.27C443.844 207.111 434.416 203.209 426.56 197C426.56 197 431.77 212.42 453.12 213.23L453.79 208.27Z" fill="#EB996E"/>
<path d="M451.26 153.1C450.8 153.81 448.03 152.77 444.59 152.39C441.15 152.01 438.22 152.29 437.94 151.49C437.82 151.11 438.46 150.49 439.73 150C441.397 149.399 443.184 149.207 444.94 149.44C446.705 149.633 448.398 150.244 449.88 151.22C451 152 451.47 152.76 451.26 153.1Z" fill="#263238"/>
<path d="M477.29 147.211C476.81 147.901 474.76 147.321 472.29 147.411C469.82 147.501 467.83 148.081 467.29 147.411C467.07 147.081 467.36 146.411 468.22 145.731C469.383 144.887 470.783 144.432 472.22 144.431C473.638 144.388 475.034 144.783 476.22 145.561C477.19 146.201 477.5 146.881 477.29 147.211Z" fill="#263238"/>
<path d="M449.23 178.911C450.572 177.994 452.218 177.636 453.82 177.911C454.637 178.024 455.389 178.416 455.95 179.021C456.556 179.915 456.822 180.997 456.7 182.071C456.705 182.719 456.607 183.363 456.41 183.981C456.205 184.598 455.767 185.111 455.19 185.411C454.548 185.642 453.852 185.677 453.19 185.511C452.09 185.37 451.035 184.987 450.1 184.391C449.635 184.092 449.24 183.696 448.943 183.23C448.646 182.764 448.454 182.239 448.38 181.691C448.318 181.14 448.436 180.583 448.715 180.104C448.994 179.625 449.42 179.249 449.93 179.031" fill="#EB996E"/>
<path d="M457.12 185.33C456.91 185.41 456.52 184.77 455.82 183.9C454.95 182.758 453.859 181.803 452.611 181.092C451.364 180.38 449.986 179.928 448.56 179.76C447.45 179.6 446.71 179.59 446.66 179.37C446.61 179.15 447.31 178.78 448.58 178.65C450.255 178.519 451.931 178.896 453.39 179.73C454.853 180.556 456.028 181.809 456.76 183.321C457.3 184.471 457.31 185.27 457.12 185.33Z" fill="#263238"/>
<path d="M406.45 205.56C413.4 204.17 418.76 198.2 421.15 191.56C423.54 184.92 423.41 177.61 422.78 170.56C422.798 170.104 422.723 169.649 422.56 169.223C422.396 168.797 422.148 168.408 421.83 168.08C420.78 167.27 419.27 167.93 418.13 168.62C413.748 171.285 409.549 174.238 405.56 177.46C401.84 180.46 398.16 183.91 396.73 188.46C394.54 195.46 399.17 203.81 406.26 205.65" fill="#263238"/>
<path d="M566.2 203.931L533.43 151.251L524.37 132.711C524.37 132.711 521.48 128.881 518.48 125.611C513.56 120.241 508.69 124.411 508.69 124.411C508.417 123.777 507.954 123.244 507.364 122.886C506.775 122.527 506.088 122.361 505.4 122.411C504.516 122.411 503.645 122.62 502.857 123.021C502.07 123.423 501.389 124.005 500.87 124.721C500.87 124.721 499.53 123.231 495.81 123.001C494.965 122.991 494.139 123.258 493.46 123.761C492.24 122.691 490 121.151 487.85 121.931C486.17 122.541 475.98 130.291 473.47 134.191C472.23 136.121 474.53 138.621 477.63 137.451C478.905 137.039 480.148 136.534 481.35 135.941C482.291 135.412 483.141 134.737 483.87 133.941C483.87 133.941 481.3 138.441 483.87 139.231C484.712 139.4 485.58 139.383 486.414 139.181C487.249 138.978 488.029 138.596 488.7 138.061C489.7 137.241 490.8 136.171 491.87 135.121L491.75 135.301C490.33 137.401 494.03 140.511 495.82 139.251C496.652 138.664 497.45 138.03 498.21 137.351C502.37 140.351 496.6 144.241 494.16 144.041C490.405 143.757 486.635 143.757 482.88 144.041C480.76 144.211 478.88 144.721 477.72 145.891C476.34 147.311 477.79 150.291 479.72 150.591C483.31 151.151 487.89 151.941 492.65 153.171C498.25 154.611 512.92 159.381 512.92 159.381L514.35 160.541L534.28 209.151L500.16 216.381L492.54 259.621L554.14 242.901C568 235.601 574.61 217.131 566.2 203.931Z" fill="#FFBE9D"/>
<path d="M512.93 159.291C512.664 159.253 512.403 159.189 512.15 159.101L509.94 158.471L501.83 156.061L496.24 154.371C494.24 153.751 492.09 153.111 489.81 152.531C487.435 151.89 485.024 151.393 482.59 151.041C481.254 151.018 479.93 150.778 478.67 150.331C478.334 150.179 478.034 149.958 477.79 149.681C477.657 149.522 477.555 149.339 477.49 149.141L477.42 148.611C477.314 147.903 477.358 147.181 477.55 146.491C477.795 145.783 478.304 145.195 478.97 144.851C479.577 144.537 480.213 144.282 480.87 144.091C482.169 143.719 483.519 143.554 484.87 143.601C487.47 143.601 489.92 144.001 492.26 143.901C493.397 143.875 494.53 143.764 495.65 143.571C496.74 143.371 497.78 143.091 498.8 142.831C500.684 142.242 502.658 141.988 504.63 142.081C506.249 142.236 507.835 142.641 509.33 143.281C510.455 143.75 511.551 144.288 512.61 144.891C513.48 145.381 514.14 145.791 514.61 146.061C514.841 146.195 515.062 146.345 515.27 146.511C515.019 146.415 514.778 146.295 514.55 146.151L512.55 145.071C511.483 144.503 510.384 143.996 509.26 143.551C507.785 142.951 506.227 142.58 504.64 142.451C502.712 142.381 500.786 142.649 498.95 143.241C497.95 143.511 496.89 143.811 495.78 144.021C494.634 144.229 493.474 144.35 492.31 144.381C489.93 144.491 487.45 144.141 484.91 144.111C483.627 144.073 482.345 144.231 481.11 144.581C479.89 144.981 478.5 145.411 478.11 146.651C477.948 147.271 477.91 147.917 478 148.551L478.07 149.011C478.106 149.135 478.171 149.248 478.26 149.341C478.461 149.561 478.702 149.741 478.97 149.871C480.179 150.282 481.444 150.505 482.72 150.531C485.176 150.896 487.607 151.41 490 152.071C492.29 152.661 494.43 153.321 496.43 153.961L502.01 155.711L510.07 158.281L512.25 159.001C512.485 159.077 512.713 159.174 512.93 159.291Z" fill="#EB996E"/>
<path d="M487.66 122C487.72 122.08 486.12 123 483.76 124.79C482.383 125.84 481.074 126.975 479.84 128.19C478.44 129.55 476.97 131.19 475.23 132.64C474.359 133.236 473.711 134.105 473.39 135.11C473.267 135.553 473.324 136.027 473.549 136.427C473.773 136.828 474.148 137.124 474.59 137.25C475.451 137.491 476.36 137.508 477.23 137.3C478.016 137.154 478.786 136.933 479.53 136.64C480.991 136.019 482.356 135.191 483.58 134.18C483.335 134.541 483.03 134.859 482.68 135.12C481.776 135.885 480.765 136.515 479.68 136.99C478.922 137.312 478.135 137.56 477.33 137.73C476.386 137.975 475.394 137.975 474.45 137.73C473.887 137.573 473.408 137.201 473.118 136.693C472.828 136.186 472.75 135.585 472.9 135.02C473.241 133.903 473.945 132.932 474.9 132.26C476.61 130.8 478.08 129.26 479.52 127.86C480.769 126.65 482.106 125.533 483.52 124.52C484.74 123.65 485.77 123.03 486.52 122.61C486.88 122.371 487.261 122.166 487.66 122Z" fill="#EB996E"/>
<path d="M500.17 126.121C499.814 126.603 499.426 127.06 499.01 127.491L495.72 131.111L490.79 136.441C489.805 137.522 488.633 138.417 487.33 139.081C486.616 139.441 485.83 139.636 485.03 139.651C484.605 139.659 484.182 139.581 483.787 139.423C483.392 139.265 483.033 139.03 482.73 138.731C482.419 138.385 482.229 137.946 482.19 137.481C482.156 137.05 482.2 136.617 482.32 136.201C482.548 135.417 482.906 134.677 483.38 134.011C485.15 132.141 486.79 130.381 488.26 128.761C489.73 127.141 491.2 125.871 492.38 124.761C492.887 124.231 493.462 123.77 494.09 123.391C494.598 123.167 495.145 123.044 495.7 123.031C496.59 122.971 497.11 123.031 497.06 123.151C496.613 123.098 496.16 123.118 495.72 123.211C495.197 123.256 494.686 123.392 494.21 123.611C493.621 124.011 493.081 124.477 492.6 125.001C491.46 126.141 490.05 127.461 488.6 129.061C487.15 130.661 485.52 132.481 483.76 134.371C483.322 134.98 482.984 135.655 482.76 136.371C482.657 136.728 482.616 137.101 482.64 137.471C482.681 137.823 482.827 138.154 483.06 138.421C483.576 138.914 484.266 139.184 484.98 139.171C485.699 139.158 486.407 138.983 487.05 138.661C488.3 138.029 489.427 137.179 490.38 136.151L495.38 130.901L498.79 127.401L499.74 126.461C500.007 126.221 500.15 126.108 500.17 126.121Z" fill="#EB996E"/>
<path d="M515.49 130.941C515.49 130.941 515.49 131.251 515.09 131.531C514.857 131.712 514.589 131.843 514.303 131.915C514.017 131.987 513.719 131.998 513.428 131.948C513.137 131.899 512.86 131.788 512.614 131.625C512.368 131.462 512.159 131.249 512 131.001C511.77 130.621 511.77 130.331 511.83 130.321C511.89 130.311 512.03 130.511 512.29 130.771C512.621 131.109 513.046 131.339 513.51 131.431C513.981 131.5 514.461 131.427 514.89 131.221C515.23 131.061 515.43 130.891 515.49 130.941Z" fill="#EB996E"/>
<path d="M516.69 135.531C516.58 135.621 515.83 134.871 515.17 133.741C514.689 133.105 514.401 132.345 514.34 131.551C514.47 131.501 514.97 132.401 515.62 133.481C516.076 134.107 516.437 134.798 516.69 135.531Z" fill="#EB996E"/>
<path d="M518.9 153.411C518.462 152.78 518.14 152.076 517.95 151.331C517.38 149.565 517.103 147.717 517.13 145.861C517.167 144.006 517.504 142.169 518.13 140.421C518.337 139.68 518.676 138.982 519.13 138.361C518.287 140.782 517.799 143.311 517.68 145.871C517.718 148.431 518.129 150.971 518.9 153.411Z" fill="#EB996E"/>
<path d="M545.82 222.7C545.72 222.7 545.62 221.64 545.1 220.01C544.789 219.061 544.394 218.14 543.92 217.26C542.74 215.113 541.101 213.252 539.12 211.81C538.312 211.223 537.452 210.711 536.55 210.28C535.01 209.55 533.96 209.28 533.98 209.22C534.234 209.21 534.488 209.244 534.73 209.32C535.414 209.466 536.083 209.674 536.73 209.94C537.679 210.339 538.584 210.835 539.43 211.42C541.513 212.86 543.21 214.79 544.37 217.04C544.842 217.954 545.214 218.917 545.48 219.91C545.663 220.565 545.787 221.234 545.85 221.91C545.882 222.174 545.872 222.44 545.82 222.7Z" fill="#EB996E"/>
<path d="M431.44 319.001C428.62 318.508 425.717 318.877 423.11 320.061C418.66 318.061 413.17 321.491 413.17 321.491C411.56 320.721 401.86 327.061 401.86 327.061L389.78 332.761L325.25 284.811L343.54 265.811L317.91 239.141L287.91 270.041C284.235 274.018 282.106 279.179 281.91 284.591C281.622 290.351 283.023 296.07 285.942 301.045C288.861 306.02 293.17 310.033 298.34 312.591L374.34 351.591C380.178 351.266 385.969 350.365 391.63 348.901C398.19 347.191 409.4 342.211 409.4 342.211C409.4 342.211 409.4 342.551 411.4 346.441C415.01 353.441 420.3 345.881 420.3 345.881C420.826 347.11 421.519 348.261 422.36 349.301C426.93 353.731 430.1 347.781 430.1 347.781C430.1 347.781 431.47 350.171 435.55 348.391C439.63 346.611 434.96 334.331 434.96 334.331C434.96 334.331 436.33 337.001 438.96 333.621C441.59 330.241 435.81 319.921 431.44 319.001Z" fill="#FFBE9D"/>
<path d="M422.31 320.691C422.56 320.516 422.848 320.403 423.15 320.361C423.961 320.184 424.803 320.212 425.6 320.441C426.774 320.775 427.871 321.336 428.83 322.091C429.407 322.52 429.946 322.999 430.44 323.521C430.938 324.135 431.361 324.807 431.7 325.521C432.885 327.906 433.871 330.385 434.65 332.931C434.95 333.931 435.15 334.701 435.28 335.261C435.373 335.545 435.417 335.843 435.41 336.141C435.34 336.141 434.98 334.951 434.3 333.041C433.418 330.554 432.393 328.12 431.23 325.751C430.915 325.088 430.518 324.467 430.05 323.901C429.584 323.399 429.079 322.934 428.54 322.511C427.646 321.781 426.63 321.212 425.54 320.831C424.491 320.521 423.382 320.473 422.31 320.691Z" fill="#EB996E"/>
<path d="M430.08 347.81C429.85 347.462 429.658 347.09 429.51 346.7L428.1 343.64C426.91 341.05 425.17 337.51 423.51 333.48C422.842 331.564 421.959 329.729 420.88 328.01C419.948 326.662 418.665 325.593 417.17 324.92C416.176 324.439 415.069 324.242 413.97 324.35C413.19 324.45 412.79 324.66 412.77 324.61C412.75 324.56 412.86 324.54 413.05 324.44C413.328 324.301 413.624 324.204 413.93 324.15C415.078 323.954 416.258 324.104 417.32 324.58C418.907 325.242 420.276 326.337 421.27 327.74C422.393 329.472 423.306 331.332 423.99 333.28C425.64 337.28 427.33 340.86 428.44 343.49C428.99 344.8 429.44 345.88 429.7 346.62C429.87 347.002 429.997 347.401 430.08 347.81Z" fill="#EB996E"/>
<path d="M400.46 332.382C400.773 332.158 401.108 331.967 401.46 331.812L404.34 330.422C404.96 330.132 405.61 329.812 406.34 329.492C407.162 329.164 408.049 329.034 408.93 329.112C409.911 329.19 410.852 329.536 411.65 330.112C412.455 330.77 413.133 331.57 413.65 332.472C414.2 333.372 414.65 334.302 415.05 335.162C415.45 336.022 415.92 336.852 416.36 337.632C417.23 339.182 418.05 340.572 418.65 341.792C419.144 342.744 419.571 343.73 419.93 344.742C420.09 345.101 420.198 345.482 420.25 345.872C420.17 345.872 419.63 344.322 418.33 341.962C417.68 340.782 416.84 339.422 415.94 337.872C415.49 337.092 415.04 336.262 414.6 335.392C414.16 334.522 413.74 333.612 413.21 332.742C412.725 331.898 412.1 331.144 411.36 330.512C410.647 329.966 409.801 329.621 408.91 329.512C408.101 329.424 407.282 329.527 406.52 329.812C405.8 330.102 405.11 330.422 404.52 330.672L401.57 332.002C401.217 332.173 400.844 332.3 400.46 332.382Z" fill="#EB996E"/>
<path d="M401.86 327.07C401.593 327.292 401.297 327.477 400.98 327.62C400.4 327.95 399.55 328.41 398.49 328.97C396.38 330.09 393.44 331.61 390.18 333.25C386.92 334.89 383.96 336.35 381.8 337.39L379.24 338.59C378.925 338.758 378.588 338.882 378.24 338.96C378.513 338.738 378.812 338.55 379.13 338.4C379.71 338.08 380.56 337.62 381.62 337.06C383.73 335.94 386.67 334.43 389.93 332.78C393.19 331.13 396.15 329.68 398.3 328.65C399.38 328.13 400.3 327.72 400.87 327.44C401.18 327.27 401.514 327.145 401.86 327.07Z" fill="#EB996E"/>
<path d="M326.11 284.931C323.588 284.55 321.031 284.466 318.49 284.681C315.968 285.061 313.498 285.732 311.13 286.681C311.732 286.202 312.407 285.823 313.13 285.561C314.819 284.835 316.604 284.357 318.43 284.141C320.261 283.925 322.113 283.972 323.93 284.281C324.687 284.378 325.423 284.597 326.11 284.931Z" fill="#EB996E"/>
<path d="M468.62 111.71C452.638 111.481 436.685 113.16 421.1 116.71C417.49 117.54 413.67 118.6 411.23 121.38C408.64 124.32 408.23 128.51 407.85 132.38C407.437 137.133 407.023 141.883 406.61 146.63C405.924 147.806 405.166 148.938 404.34 150.02C400.58 154.93 395.79 159.02 392.34 164.18C388.89 169.34 387.03 176.18 389.81 181.7C391.5 185.04 394.62 187.4 396.9 190.36C400.77 195.36 402.03 201.87 404.29 207.8C406.55 213.73 410.63 219.8 416.86 220.96C419.86 221.53 422.92 220.9 425.91 221.34C430.38 221.99 434.14 224.92 437.69 227.71C441.24 230.5 445.1 233.34 449.6 233.79C454.1 234.24 459.25 231.19 459.34 226.67C457.671 227.611 455.778 228.08 453.863 228.027C451.949 227.974 450.084 227.401 448.47 226.37C445.85 224.64 444.16 221.84 441.91 219.66C436.38 214.3 427.48 212.6 423.63 205.93C420.63 200.66 421.8 194.05 423.18 188.12C424.37 182.98 425.59 177.41 424.1 172.47C424.218 171.675 424.282 170.873 424.29 170.07C424.29 164.81 422.24 159.17 424.69 154.52C427.93 148.36 437.27 147.58 440.54 141.45C442.45 137.88 441.78 133.32 443.86 129.85C445.81 126.59 449.72 125.09 453.44 124.28C457.16 123.47 461.07 123.1 464.35 121.18C467.63 119.26 470.11 115.2 468.62 111.71Z" fill="#263238"/>
<path d="M480.74 219C480.702 219.09 480.652 219.175 480.59 219.25L480.1 219.94C479.428 220.805 478.656 221.587 477.8 222.27C476.425 223.337 474.88 224.165 473.23 224.72C471.048 225.478 468.727 225.747 466.43 225.51C463.624 225.237 460.96 224.145 458.77 222.37C456.39 220.54 454.27 218.11 451.58 216.18C450.232 215.175 448.66 214.513 447 214.25C445.248 214.106 443.489 214.427 441.9 215.18C440.209 215.978 438.435 216.589 436.61 217C434.652 217.282 432.655 216.932 430.91 216C429.203 215.101 427.592 214.032 426.1 212.81C424.607 211.689 423.197 210.463 421.88 209.14C420.578 207.858 419.556 206.318 418.88 204.62C418.277 202.954 418.159 201.151 418.54 199.42C418.906 197.816 419.411 196.246 420.05 194.73C420.63 193.26 421.13 191.81 421.57 190.39C422.374 187.77 422.992 185.097 423.42 182.39C424.039 178.446 424.256 174.448 424.07 170.46C424.01 169.05 423.92 167.95 423.84 167.21C423.84 166.86 423.84 166.59 423.77 166.37C423.754 166.274 423.754 166.176 423.77 166.08C423.805 166.17 423.825 166.264 423.83 166.36L423.95 167.2C424.06 167.94 424.19 169.03 424.28 170.45C424.544 174.456 424.383 178.478 423.8 182.45C423.392 185.192 422.79 187.903 422 190.56C421.56 191.98 421.06 193.45 420.49 194.94C419.864 196.415 419.366 197.94 419 199.5C418.638 201.145 418.756 202.86 419.34 204.44C419.996 206.072 420.984 207.549 422.24 208.78C423.542 210.082 424.935 211.288 426.41 212.39C427.874 213.589 429.456 214.638 431.13 215.52C432.773 216.423 434.663 216.773 436.52 216.52C438.306 216.112 440.043 215.512 441.7 214.73C443.371 213.956 445.215 213.632 447.05 213.79C448.788 214.058 450.436 214.744 451.85 215.79C454.59 217.79 456.69 220.23 459.03 222.04C461.146 223.786 463.731 224.868 466.46 225.15C470.437 225.586 474.433 224.515 477.66 222.15C478.809 221.227 479.843 220.169 480.74 219Z" fill="#263238"/>
<path d="M380.83 187.202C380.542 186.848 380.274 186.477 380.03 186.092C379.349 184.97 378.869 183.738 378.61 182.452C378.216 180.407 378.25 178.302 378.71 176.272C379.31 173.576 380.491 171.044 382.17 168.852C384.236 166.243 386.668 163.946 389.39 162.032C392.26 159.892 395.52 157.902 398.77 155.592C402.236 153.271 405.252 150.34 407.67 146.942C408.862 145.086 409.772 143.064 410.37 140.942C411.01 138.802 411.45 136.562 411.97 134.302C412.421 132.048 413.091 129.845 413.97 127.722C414.849 125.636 416.194 123.779 417.9 122.292C419.567 120.888 421.494 119.824 423.57 119.162C425.542 118.523 427.583 118.12 429.65 117.962C433.453 117.769 437.266 117.889 441.05 118.322C444.325 118.672 447.626 118.715 450.91 118.452C453.611 118.192 456.236 117.41 458.64 116.152C460.456 115.207 462.064 113.908 463.37 112.332C464.194 111.331 464.844 110.199 465.29 108.982C465.57 108.142 465.68 107.682 465.7 107.692C465.628 108.142 465.524 108.586 465.39 109.022C464.975 110.268 464.345 111.432 463.53 112.462C462.232 114.101 460.616 115.462 458.78 116.462C456.351 117.766 453.692 118.584 450.95 118.872C447.642 119.162 444.314 119.139 441.01 118.802C437.251 118.393 433.465 118.289 429.69 118.492C427.649 118.651 425.635 119.053 423.69 119.692C421.679 120.326 419.811 121.344 418.19 122.692C416.544 124.135 415.248 125.934 414.4 127.952C413.521 130.044 412.851 132.218 412.4 134.442C411.88 136.692 411.4 138.942 410.78 141.112C410.171 143.273 409.237 145.33 408.01 147.212C405.567 150.654 402.518 153.623 399.01 155.972C395.73 158.292 392.47 160.262 389.61 162.372C386.907 164.248 384.489 166.505 382.43 169.072C380.754 171.204 379.569 173.679 378.96 176.322C378.475 178.313 378.41 180.384 378.77 182.402C379.117 184.127 379.819 185.761 380.83 187.202Z" fill="#455A64"/>
<path d="M383.76 192.45C382.644 191.568 381.616 190.58 380.69 189.5C379.549 188.266 378.644 186.832 378.02 185.27C377.627 184.277 377.47 183.205 377.56 182.14C377.683 180.943 378.152 179.807 378.91 178.87C380.53 176.87 383.21 175.81 386.02 175.22C387.43 174.93 388.91 174.7 390.38 174.33C391.898 174.012 393.343 173.412 394.64 172.56C395.949 171.599 397.011 170.341 397.74 168.89C398.501 167.352 399.142 165.757 399.66 164.12C400.193 162.403 400.861 160.731 401.66 159.12C402.516 157.426 403.811 155.993 405.41 154.97C407.035 154.043 408.792 153.369 410.62 152.97C412.39 152.51 414.14 152.14 415.79 151.58C418.965 150.473 421.732 148.434 423.73 145.73C425.58 143.283 427.241 140.699 428.7 138C429.985 135.648 431.488 133.422 433.19 131.35C434.61 129.632 436.353 128.209 438.32 127.16C439.807 126.37 441.434 125.878 443.11 125.71C444.17 125.609 445.24 125.697 446.27 125.97C446.613 126.062 446.948 126.182 447.27 126.33C447.27 126.33 446.9 126.23 446.2 126.07C445.178 125.852 444.129 125.798 443.09 125.91C441.453 126.112 439.868 126.621 438.42 127.41C436.5 128.465 434.802 129.881 433.42 131.58C431.756 133.657 430.284 135.879 429.02 138.22C427.581 140.939 425.936 143.543 424.1 146.01C423.071 147.338 421.886 148.537 420.57 149.58C419.194 150.64 417.649 151.458 416 152C414.32 152.58 412.55 152.95 410.8 153.41C409.021 153.813 407.314 154.488 405.74 155.41C404.208 156.397 402.971 157.779 402.16 159.41C401.363 160.998 400.694 162.646 400.16 164.34C399.62 166 398.952 167.615 398.16 169.17C397.385 170.685 396.269 172 394.9 173.01C393.546 173.881 392.045 174.498 390.47 174.83C388.97 175.19 387.47 175.41 386.09 175.7C383.32 176.26 380.71 177.29 379.18 179.15C378.454 180.029 377.999 181.099 377.87 182.23C377.772 183.248 377.909 184.274 378.27 185.23C378.87 186.768 379.733 188.189 380.82 189.43C381.7 190.43 382.45 191.22 382.96 191.73L383.55 192.3C383.7 192.37 383.77 192.44 383.76 192.45Z" fill="#455A64"/>
<path d="M506.86 127.852C506.721 128.13 506.546 128.389 506.34 128.622C505.98 129.102 505.45 129.782 504.76 130.622C503.4 132.262 501.44 134.462 499.14 136.772C498 137.892 496.93 139.152 495.46 139.612C494.776 139.847 494.034 139.847 493.35 139.612C492.764 139.368 492.282 138.925 491.99 138.362C491.596 137.577 491.466 136.686 491.62 135.822C491.637 135.509 491.715 135.204 491.85 134.922C491.883 135.227 491.883 135.536 491.85 135.842C491.777 136.653 491.948 137.468 492.34 138.182C492.609 138.642 493.03 138.996 493.53 139.182C494.116 139.386 494.754 139.386 495.34 139.182C496.62 138.772 497.65 137.572 498.8 136.432C501.09 134.142 503.08 131.982 504.52 130.432C505.241 129.52 506.023 128.658 506.86 127.852Z" fill="#EB996E"/>
<path d="M514.5 127.852C514.336 128.14 514.13 128.403 513.89 128.632C513.48 129.112 512.89 129.792 512.11 130.632L509.42 133.542L507.82 135.242C507.267 135.881 506.658 136.47 506 137.002C505.298 137.56 504.452 137.907 503.56 138.002C503.127 138.047 502.69 137.978 502.292 137.803C501.894 137.628 501.549 137.351 501.29 137.002C501.049 136.663 500.92 136.257 500.92 135.842C500.943 135.462 501.06 135.094 501.26 134.772C501.63 134.172 502.01 133.712 502.34 133.252C503 132.342 503.55 131.612 503.94 131.112C504.12 130.835 504.339 130.586 504.59 130.372C504.465 130.676 504.304 130.965 504.11 131.232C503.77 131.762 503.27 132.522 502.64 133.462C502.33 133.932 501.95 134.462 501.64 134.982C501.458 135.235 501.36 135.539 501.36 135.852C501.36 136.164 501.458 136.468 501.64 136.722C501.855 136.999 502.138 137.216 502.463 137.349C502.788 137.483 503.142 137.528 503.49 137.482C504.278 137.397 505.027 137.092 505.65 136.602C506.304 136.107 506.91 135.551 507.46 134.942L509.09 133.262L511.86 130.422C512.65 129.622 513.3 128.982 513.76 128.542C513.974 128.278 514.223 128.046 514.5 127.852Z" fill="#EB996E"/>
<path d="M618.91 434C619.769 432.131 621.069 430.499 622.699 429.245C624.329 427.99 626.24 427.151 628.266 426.8C630.293 426.448 632.374 426.595 634.331 427.228C636.288 427.86 638.062 428.959 639.5 430.43C637.393 433.831 634.118 436.348 630.29 437.51C628.267 438.222 626.07 438.266 624.021 437.634C621.971 437.002 620.18 435.728 618.91 434Z" fill="#9A3A88"/>
<path d="M611.81 435.64C612.728 435.229 613.691 434.927 614.68 434.74C616.49 434.3 619.01 433.81 621.8 433.35C624.59 432.89 627.13 432.54 628.98 432.35C629.971 432.186 630.975 432.109 631.98 432.12C631.019 432.403 630.035 432.603 629.04 432.72L621.89 433.89C619.11 434.35 616.59 434.79 614.77 435.13C613.794 435.356 612.806 435.526 611.81 435.64Z" fill="#263238"/>
<path d="M261.48 370.691C263.612 372.448 265.274 374.706 266.317 377.264C267.359 379.822 267.749 382.6 267.452 385.346C267.154 388.092 266.179 390.721 264.612 392.997C263.046 395.272 260.939 397.123 258.48 398.381C254.81 388.971 253.4 378.841 261.48 370.691Z" fill="#9A3A88"/>
<path d="M275.39 377.911C275.587 381.478 276.667 384.94 278.534 387.986C280.401 391.031 282.996 393.565 286.085 395.359C289.174 397.153 292.661 398.151 296.231 398.263C299.802 398.375 303.344 397.598 306.54 396.001C299.54 385.001 290.07 375.731 275.39 377.891" fill="#9A3A88"/>
<path d="M243.52 343.131C243.696 343.278 243.854 343.446 243.99 343.631L245.24 345.121C246.3 346.431 247.85 348.321 249.81 350.611C253.71 355.211 259.22 361.471 265.71 368.001C268.96 371.261 272.15 374.271 275.11 376.931C278.07 379.591 280.87 381.861 283.27 383.681C285.155 385.126 287.122 386.461 289.16 387.681C290.61 388.541 291.47 388.901 291.45 388.951C291.227 388.9 291.012 388.819 290.81 388.711C290.209 388.465 289.625 388.181 289.06 387.861C286.975 386.7 284.971 385.4 283.06 383.971C280.62 382.171 277.82 379.901 274.81 377.281C271.8 374.661 268.61 371.621 265.35 368.361C258.85 361.821 253.35 355.511 249.54 350.841C247.61 348.511 246.11 346.581 245.09 345.241L243.91 343.681C243.763 343.51 243.633 343.326 243.52 343.131Z" fill="#263238"/>
<path d="M260.71 384.911C260.62 384.911 260.95 383.511 261.24 381.241C261.982 375.304 261.353 369.276 259.4 363.621C258.65 361.461 258.04 360.171 258.12 360.131C258.328 360.393 258.499 360.683 258.63 360.991C259.047 361.804 259.421 362.638 259.75 363.491C260.828 366.314 261.534 369.265 261.85 372.271C262.161 375.269 262.077 378.295 261.6 381.271C261.452 382.191 261.251 383.103 261 384.001C260.939 384.314 260.842 384.62 260.71 384.911Z" fill="#263238"/>
<path d="M702 182.54C700.762 180.899 699.941 178.981 699.61 176.952C699.278 174.923 699.446 172.844 700.097 170.893C700.749 168.943 701.865 167.181 703.35 165.759C704.835 164.337 706.644 163.297 708.62 162.73C710.616 166.192 711.281 170.263 710.49 174.18C710.159 176.3 709.155 178.258 707.626 179.763C706.097 181.268 704.125 182.242 702 182.54Z" fill="#9A3A88"/>
<path d="M700.1 189.571C700.17 188.568 700.361 187.578 700.67 186.621C701.14 184.821 701.9 182.371 702.82 179.691C703.74 177.011 704.64 174.611 705.32 172.881C705.64 171.928 706.049 171.008 706.54 170.131C706.33 171.113 706.039 172.077 705.67 173.011C705.01 174.921 704.2 177.261 703.31 179.861C702.42 182.461 701.58 184.961 701.02 186.721C700.762 187.686 700.455 188.637 700.1 189.571Z" fill="#263238"/>
<path d="M658 256.94C656.965 253.1 656.881 249.066 657.755 245.186C658.628 241.306 660.433 237.697 663.013 234.671C665.594 231.644 668.872 229.292 672.565 227.816C676.258 226.34 680.255 225.785 684.21 226.2C685.6 233.76 683.21 241.52 679.26 248.09C674.55 255.84 665.19 259.09 658 256.94Z" fill="#9A3A88"/>
<path d="M628.41 286.541C628.535 286.347 628.679 286.166 628.84 286.001L630.13 284.531C631.28 283.271 632.96 281.471 635.05 279.271C639.25 274.871 645.11 268.861 651.63 262.271C658.15 255.681 664.08 249.731 668.4 245.461L673.54 240.411L674.96 239.061C675.28 238.761 675.46 238.601 675.48 238.621C675.347 238.808 675.196 238.982 675.03 239.141L673.68 240.561L668.68 245.711L652 262.631L635.32 279.531L630.32 284.671L628.96 286.071C628.795 286.248 628.611 286.406 628.41 286.541Z" fill="#263238"/>
<g opacity="0.3">
<path opacity="0.3" d="M658 256.94C656.965 253.1 656.881 249.066 657.755 245.186C658.628 241.306 660.433 237.697 663.013 234.671C665.594 231.644 668.872 229.292 672.565 227.816C676.258 226.34 680.255 225.785 684.21 226.2C685.6 233.76 683.21 241.52 679.26 248.09C674.55 255.84 665.19 259.09 658 256.94Z" fill="black"/>
</g>
<path d="M644.29 259.911C642.112 258.801 640.238 257.175 638.831 255.176C637.424 253.176 636.528 250.864 636.219 248.438C635.91 246.013 636.199 243.549 637.06 241.261C637.922 238.973 639.329 236.93 641.16 235.311C645.16 237.811 647.72 242.081 649.05 246.601C650.63 251.941 648.25 257.601 644.29 259.911Z" fill="#9A3A88"/>
<g opacity="0.3">
<path opacity="0.3" d="M644.29 259.911C642.112 258.801 640.238 257.175 638.831 255.176C637.424 253.176 636.528 250.864 636.219 248.438C635.91 246.013 636.199 243.549 637.06 241.261C637.922 238.973 639.329 236.93 641.16 235.311C645.16 237.811 647.72 242.081 649.05 246.601C650.63 251.941 648.25 257.601 644.29 259.911Z" fill="black"/>
</g>
<path d="M645.85 268.43C645.712 268.137 645.611 267.828 645.55 267.51C645.38 266.92 645.19 266.05 644.98 264.96C644.56 262.8 644.12 259.78 643.72 256.45C643.32 253.12 643.04 250.08 642.87 247.88C642.726 246.699 642.679 245.509 642.73 244.32C642.98 245.484 643.15 246.663 643.24 247.85C643.51 250.17 643.86 253.12 644.24 256.39C644.62 259.66 645.02 262.73 645.34 264.9C645.66 267.07 645.93 268.41 645.85 268.43Z" fill="#263238"/>
<path d="M457 375.81C458.528 372.184 460.936 368.997 464.007 366.536C467.077 364.074 470.712 362.417 474.584 361.715C478.455 361.012 482.441 361.285 486.18 362.51C489.92 363.735 493.295 365.873 496 368.73C484.66 377.52 471.43 383.52 457.08 375.81" fill="#9A3A88"/>
<g opacity="0.3">
<path opacity="0.3" d="M457 375.81C458.528 372.184 460.936 368.997 464.007 366.536C467.077 364.074 470.712 362.417 474.584 361.715C478.455 361.012 482.441 361.285 486.18 362.51C489.92 363.735 493.295 365.873 496 368.73C484.66 377.52 471.43 383.52 457.08 375.81" fill="black"/>
</g>
<path d="M450.63 379.331C450.9 379.062 451.202 378.826 451.53 378.631C452.13 378.201 453.02 377.631 454.16 376.971C460.103 373.536 466.69 371.36 473.51 370.581C474.81 370.441 475.87 370.371 476.6 370.361C476.978 370.309 477.362 370.309 477.74 370.361C477.74 370.441 476.13 370.541 473.55 370.921C470.193 371.412 466.885 372.189 463.66 373.241C460.444 374.305 457.326 375.643 454.34 377.241C452 378.521 450.68 379.401 450.63 379.331Z" fill="#263238"/>
<path d="M193.43 245.51C196.176 244.23 199.198 243.651 202.222 243.828C205.247 244.005 208.181 244.93 210.759 246.522C213.338 248.114 215.48 250.321 216.994 252.946C218.507 255.571 219.344 258.532 219.43 261.56C208.38 260.74 197.69 257.35 193.43 245.51Z" fill="#9A3A88"/>
<g opacity="0.3">
<path opacity="0.3" d="M193.43 245.51C196.176 244.23 199.198 243.651 202.222 243.828C205.247 244.005 208.181 244.93 210.759 246.522C213.338 248.114 215.48 250.321 216.994 252.946C218.507 255.571 219.344 258.532 219.43 261.56C208.38 260.74 197.69 257.35 193.43 245.51Z" fill="black"/>
</g>
<path d="M187.94 244.22C188.231 244.172 188.529 244.172 188.82 244.22C189.616 244.305 190.407 244.432 191.19 244.6C193.78 245.14 196.307 245.948 198.73 247.01C201.151 248.082 203.457 249.399 205.61 250.94C206.43 251.54 207.07 252.05 207.49 252.43C207.726 252.608 207.938 252.816 208.12 253.05C208.06 253.12 207.12 252.35 205.4 251.25C201.029 248.365 196.195 246.251 191.11 245C189.16 244.51 187.93 244.3 187.94 244.22Z" fill="#263238"/>
<path d="M551.76 363.561C551.434 360.869 551.783 358.139 552.774 355.616C553.766 353.093 555.369 350.856 557.44 349.107C559.511 347.357 561.984 346.15 564.638 345.594C567.291 345.038 570.041 345.15 572.64 345.921C568.87 355.091 563.01 363.241 551.76 363.561Z" fill="#9A3A88"/>
<path d="M549.13 367.87C549.435 366.935 549.855 366.041 550.38 365.21C552.74 361.084 555.947 357.506 559.79 354.71C560.561 354.099 561.404 353.585 562.3 353.18C561.566 353.827 560.799 354.435 560 355C556.329 357.912 553.177 361.425 550.68 365.39C550.211 366.245 549.694 367.073 549.13 367.87Z" fill="#263238"/>
<path d="M630.45 311.611C629.624 309.029 629.454 306.283 629.953 303.618C630.453 300.954 631.607 298.456 633.312 296.348C635.016 294.241 637.218 292.59 639.72 291.545C642.221 290.5 644.943 290.093 647.64 290.361C645.64 300.081 641.44 309.181 630.45 311.611Z" fill="#9A3A88"/>
<g opacity="0.3">
<path opacity="0.3" d="M630.45 311.611C629.624 309.029 629.454 306.283 629.953 303.618C630.453 300.954 631.607 298.456 633.312 296.348C635.016 294.241 637.218 292.59 639.72 291.545C642.221 290.5 644.943 290.093 647.64 290.361C645.64 300.081 641.44 309.181 630.45 311.611Z" fill="black"/>
</g>
<path d="M628.68 316.34C628.801 315.366 629.047 314.412 629.41 313.5C630.175 311.255 631.181 309.099 632.41 307.07C633.627 305.036 635.062 303.142 636.69 301.42C637.328 300.667 638.057 299.995 638.86 299.42C638.266 300.193 637.632 300.934 636.96 301.64C635.44 303.42 634.066 305.32 632.85 307.32C631.657 309.329 630.624 311.429 629.76 313.6C629.453 314.533 629.092 315.448 628.68 316.34Z" fill="#263238"/>
<path d="M37.28 240.101C37.8679 237.455 39.1047 234.996 40.8792 232.946C42.6536 230.896 44.9099 229.32 47.445 228.359C49.9801 227.398 52.7144 227.082 55.4018 227.44C58.0892 227.799 60.6452 228.82 62.84 230.411C56.24 237.801 48 243.541 37.28 240.101Z" fill="#9A3A88"/>
<path d="M33.37 243.291C33.9715 242.516 34.663 241.814 35.43 241.201C37.2231 239.666 39.174 238.325 41.25 237.201C43.3278 236.056 45.524 235.141 47.8 234.471C48.7263 234.145 49.691 233.94 50.67 233.861C49.7688 234.244 48.8474 234.578 47.91 234.861C43.4786 236.382 39.3392 238.648 35.67 241.561C34.938 242.183 34.17 242.76 33.37 243.291Z" fill="#263238"/>
</svg>
