<svg width="18" height="10" viewBox="0 0 18 10" fill="none" xmlns="http://www.w3.org/2000/svg">
<path d="M0.666992 5.41732C0.666992 2.88398 2.71699 0.833984 5.25033 0.833984H14.0003C15.842 0.833984 17.3337 2.32565 17.3337 4.16732C17.3337 6.00898 15.842 7.50065 14.0003 7.50065H6.91699C5.76699 7.50065 4.83366 6.56732 4.83366 5.41732C4.83366 4.26732 5.76699 3.33398 6.91699 3.33398H13.167V5.00065H6.84199C6.38366 5.00065 6.38366 5.83398 6.84199 5.83398H14.0003C14.917 5.83398 15.667 5.08398 15.667 4.16732C15.667 3.25065 14.917 2.50065 14.0003 2.50065H5.25033C3.64199 2.50065 2.33366 3.80898 2.33366 5.41732C2.33366 7.02565 3.64199 8.33398 5.25033 8.33398H13.167V10.0007H5.25033C2.71699 10.0007 0.666992 7.95065 0.666992 5.41732Z" fill="#7D7D7D"/>
</svg>
