<svg width="89" height="89" viewBox="0 0 89 89" fill="none" xmlns="http://www.w3.org/2000/svg">
<mask id="mask0_1348_83" style="mask-type:alpha" maskUnits="userSpaceOnUse" x="0" y="0" width="89" height="89">
<circle cx="44.5" cy="44.5" r="44.5" fill="#D4C5D2"/>
</mask>
<g mask="url(#mask0_1348_83)">
<circle cx="44.5" cy="44.5" r="44.5" fill="#D4C5D2"/>
<path d="M74 50.5L32 25L0 41.5C-0.999996 83 37 93.5 53.5 88L74 50.5Z" fill="#BB9FB7"/>
<path fill-rule="evenodd" clip-rule="evenodd" d="M61.7838 30.2067C65.0975 30.2067 67.7838 32.893 67.7838 36.2068V56.5401C67.7838 59.8538 65.0975 62.5401 61.7838 62.5401H46.2283H44.432H44.4319C43.434 62.7397 41.3184 63.3784 40.8394 64.3364C40.3985 65.218 40.6068 66.4243 40.7474 67.2382C40.7977 67.5298 40.8394 67.771 40.8394 67.929C40.8394 68.5277 40.2406 69.1265 39.0431 68.5277C38.3947 68.2036 37.5709 67.5284 36.6666 66.7873C35.9006 66.1595 35.0768 65.4843 34.2529 64.9351C33.9148 64.7097 33.619 64.4842 33.3338 64.2668C32.1061 63.3308 31.0725 62.5429 27.6848 62.5401H27.6665H27.0801C23.7664 62.5401 21.0801 59.8538 21.0801 56.5401V36.2067C21.0801 32.893 23.7664 30.2067 27.0801 30.2067H61.7838Z" fill="#4B2244"/>
<g filter="url(#filter0_d_1348_83)">
<path fill-rule="evenodd" clip-rule="evenodd" d="M35.4628 20.6264C32.1491 20.6264 29.4628 23.3127 29.4628 26.6264V46.9598C29.4628 50.2735 32.1491 52.9598 35.4628 52.9598H51.0183H52.8146C53.8126 53.1594 55.9282 53.798 56.4072 54.7561C56.8481 55.6377 56.6398 56.844 56.4992 57.6579C56.4489 57.9495 56.4072 58.1907 56.4072 58.3487C56.4072 58.9474 57.006 59.5462 58.2035 58.9474C58.8519 58.6233 59.6757 57.9481 60.58 57.207C61.346 56.5792 62.1698 55.904 62.9937 55.3548C63.3318 55.1294 63.6276 54.9039 63.9128 54.6865C65.1427 53.7488 66.1778 52.9598 69.5801 52.9598L70.1665 52.9598C73.4802 52.9598 76.1665 50.2735 76.1665 46.9598V26.6264C76.1665 23.3127 73.4802 20.6264 70.1665 20.6264H35.4628Z" fill="#FBFBFB"/>
</g>
<path d="M52.766 36.4891C52.766 31.0727 49.2818 28.1587 44.8791 28.1587C40.4446 28.1587 36.9921 31.0727 36.9921 36.4891C36.9921 41.8738 40.4446 44.8195 44.8791 44.8195C49.2818 44.8195 52.766 41.9054 52.766 36.4891ZM48.2366 36.4891C48.2366 39.4031 47.0646 40.9869 44.8791 40.9869C42.6935 40.9869 41.5216 39.4031 41.5216 36.4891C41.5216 33.575 42.6935 31.9913 44.8791 31.9913C47.0646 31.9913 48.2366 33.575 48.2366 36.4891Z" fill="#9A3A88"/>
<path d="M59.2059 28.3804H54.8031V44.5978H59.2059V28.3804Z" fill="#9A3A88"/>
<path d="M66.4237 28.3804H61.9892L62.401 39.5298H66.0119L66.4237 28.3804ZM64.2065 44.8512C65.3705 44.8512 66.4078 43.8692 66.4237 42.6339C66.4078 41.4303 65.3705 40.4484 64.2065 40.4484C62.9791 40.4484 61.9734 41.4303 61.9892 42.6339C61.9734 43.8692 62.9791 44.8512 64.2065 44.8512Z" fill="#9A3A88"/>
</g>
<defs>
<filter id="filter0_d_1348_83" x="26.4628" y="20.6264" width="50.7037" height="42.569" filterUnits="userSpaceOnUse" color-interpolation-filters="sRGB">
<feFlood flood-opacity="0" result="BackgroundImageFix"/>
<feColorMatrix in="SourceAlpha" type="matrix" values="0 0 0 0 0 0 0 0 0 0 0 0 0 0 0 0 0 0 127 0" result="hardAlpha"/>
<feOffset dx="-1" dy="2"/>
<feGaussianBlur stdDeviation="1"/>
<feComposite in2="hardAlpha" operator="out"/>
<feColorMatrix type="matrix" values="0 0 0 0 0.2375 0 0 0 0 0.0653125 0 0 0 0 0.205215 0 0 0 0.5 0"/>
<feBlend mode="normal" in2="BackgroundImageFix" result="effect1_dropShadow_1348_83"/>
<feBlend mode="normal" in="SourceGraphic" in2="effect1_dropShadow_1348_83" result="shape"/>
</filter>
</defs>
</svg>
