<svg width="48" height="48" viewBox="0 0 48 48" fill="none" xmlns="http://www.w3.org/2000/svg">
<path d="M24.6954 0.00988049C24.4644 0.00330844 24.2326 0 24 0C10.7452 0 0 10.7452 0 24C0 37.2548 10.7452 48 24 48C37.2548 48 48 37.2548 48 24C48 23.7674 47.9967 23.5356 47.9901 23.3046C47.1636 23.5356 46.3142 23.7118 45.4461 23.829C45.4466 23.886 45.4468 23.943 45.4468 24C45.4468 35.8447 35.8447 45.4468 24 45.4468C12.1553 45.4468 2.55319 35.8447 2.55319 24C2.55319 12.1553 12.1553 2.55319 24 2.55319C24.057 2.55319 24.114 2.55341 24.171 2.55386C24.2882 1.68577 24.4644 0.83639 24.6954 0.00988049Z" fill="#9A3A88"/>
<path fill-rule="evenodd" clip-rule="evenodd" d="M24.0662 2.55319H23.4894V0H26.2979C26.8354 0 27.3153 0.33664 27.4982 0.84201C27.6812 1.34738 27.528 1.91322 27.1151 2.2573C26.8404 2.48626 26.2641 3.28221 26.5151 4.28613C26.6892 4.98237 27.0374 5.41104 27.4745 5.83501C27.5335 5.89227 27.6213 5.97388 27.7194 6.06514C27.8939 6.22747 28.1013 6.42033 28.2383 6.56101C28.5044 6.83425 28.8183 7.20405 29.0151 7.6961C29.2783 8.35412 29.2163 8.96952 29.0979 9.45442C29.0213 9.76812 28.8886 10.1321 28.7815 10.4258C28.7454 10.5248 28.7123 10.6158 28.6851 10.6942C28.4414 11.3983 28.262 12.1372 28.5508 13.196C28.9172 14.5396 29.2535 15.3385 29.7092 15.9968C30.1703 16.6629 30.8112 17.2689 31.9327 18.1413C32.6826 18.7245 33.9785 18.8938 35.4736 18.8004C36.1785 18.7563 36.8493 18.6601 37.4104 18.5705C37.524 18.5524 37.6418 18.533 37.7552 18.5144C37.9036 18.4901 38.0446 18.467 38.1589 18.4493C38.3426 18.4209 38.5973 18.383 38.8085 18.383C39.0096 18.383 39.3874 18.3965 39.7608 18.62C40.1044 18.8257 40.2901 19.1249 40.3512 19.2234C40.3542 19.2283 40.3569 19.2326 40.3594 19.2365C40.3715 19.2558 40.3837 19.2757 40.3962 19.2961C40.4992 19.4637 40.6285 19.6742 40.9878 20.0335C41.804 20.8496 42.7671 21.1915 43.4043 21.1915C43.5104 21.1915 43.7093 21.1651 44.0163 21.0947C44.2685 21.0369 44.5303 20.965 44.8066 20.8892C44.8539 20.8762 44.9016 20.8631 44.9498 20.85C45.2459 20.7691 45.6072 20.6715 45.9083 20.6267C46.0454 20.6064 46.2894 20.5767 46.5505 20.6176C46.7808 20.6536 47.5049 20.8412 47.7066 21.6478C47.9979 22.8129 48 23.3555 48 24.2553H45.4468V24.2321C45.4468 23.879 45.4468 23.6218 45.4271 23.3666C45.1685 23.4376 44.8727 23.5178 44.5867 23.5834C44.2373 23.6635 43.8088 23.7447 43.4043 23.7447C41.9988 23.7447 40.4088 23.0653 39.1824 21.8389C38.8836 21.5401 38.6691 21.2836 38.5059 21.0611C38.4876 21.0361 38.4699 21.0116 38.4529 20.9876C38.371 21.0007 38.2852 21.0148 38.1908 21.0303C38.0794 21.0486 37.9561 21.0689 37.8131 21.0917C37.2252 21.1856 36.4598 21.2969 35.6328 21.3486C34.0641 21.4466 31.9132 21.3606 30.3652 20.1566C29.1889 19.2417 28.2978 18.4435 27.61 17.4501C26.9168 16.4488 26.4871 15.3327 26.0876 13.8678C25.6104 12.1181 25.9416 10.8144 26.2724 9.85901C26.337 9.6724 26.3913 9.52382 26.4375 9.39765C26.5197 9.17315 26.5759 9.01956 26.6176 8.84877C26.643 8.74473 26.6467 8.68914 26.6465 8.66368C26.6464 8.65214 26.6455 8.6473 26.6454 8.64698C26.6454 8.64693 26.6454 8.6466 26.6445 8.64433C26.6293 8.60629 26.5818 8.51957 26.4092 8.34235C26.2898 8.21975 26.1971 8.13484 26.0827 8.03014C25.9819 7.93784 25.8643 7.83017 25.6969 7.66774C25.0911 7.08016 24.3747 6.25168 24.0381 4.90536C23.8192 4.02956 23.8738 3.2347 24.0662 2.55319ZM38.828 20.9368C38.8277 20.937 38.8224 20.937 38.8128 20.9362C38.8234 20.9363 38.8282 20.9367 38.828 20.9368ZM38.1887 20.5811C38.1793 20.5687 38.1745 20.5613 38.1745 20.5607C38.1744 20.5601 38.1791 20.5662 38.1887 20.5811ZM46.3143 23.1486C46.3141 23.1487 46.3103 23.1492 46.3033 23.1495C46.3111 23.1486 46.3146 23.1484 46.3143 23.1486Z" fill="#9A3A88"/>
<circle cx="12.5107" cy="21.702" r="3.31915" fill="#9A3A88"/>
<circle cx="30.383" cy="34.4687" r="2.80851" fill="#9A3A88"/>
<circle cx="15.064" cy="32.9365" r="2.29787" fill="#9A3A88"/>
<circle cx="23.4893" cy="24.5113" r="2.04255" fill="#9A3A88"/>
<circle cx="38.5534" cy="2.29787" r="2.29787" fill="#9A3A88"/>
<circle cx="37.0211" cy="10.9786" r="1.78723" fill="#9A3A88"/>
<circle cx="46.7234" cy="13.5325" r="1.2766" fill="#9A3A88"/>
<circle cx="20.1702" cy="14.0431" r="1.78723" fill="#9A3A88"/>
</svg>
