<svg width="24" height="24" viewBox="0 0 24 24" fill="none" xmlns="http://www.w3.org/2000/svg">
<path d="M21.3333 0H2.66667C1.19333 0 0 1.19333 0 2.66667V21.3333C0 22.8067 1.19333 24 2.66667 24H12.828V14.7187H9.704V11.0853H12.828V8.412C12.828 5.31333 14.7227 3.624 17.488 3.624C18.42 3.62133 19.3507 3.66933 20.2773 3.764V7.004H18.3733C16.8667 7.004 16.5733 7.716 16.5733 8.76667V11.08H20.1733L19.7053 14.7133H16.552V24H21.3333C22.8067 24 24 22.8067 24 21.3333V2.66667C24 1.19333 22.8067 0 21.3333 0Z" fill="#3B5998"/>
</svg>
