<svg width="40" height="40" viewBox="0 0 40 40" fill="none" xmlns="http://www.w3.org/2000/svg">
<circle cx="20" cy="20" r="20" fill="#D5C5D2"/>
<path d="M20 10C14.48 10 10 14.48 10 20C10 25.52 14.48 30 20 30C25.52 30 30 25.52 30 20C30 14.48 25.52 10 20 10ZM20 13C21.66 13 23 14.34 23 16C23 17.66 21.66 19 20 19C18.34 19 17 17.66 17 16C17 14.34 18.34 13 20 13ZM20 27.2C17.5 27.2 15.29 25.92 14 23.98C14.03 21.99 18 20.9 20 20.9C21.99 20.9 25.97 21.99 26 23.98C24.71 25.92 22.5 27.2 20 27.2Z" fill="#4B2244"/>
</svg>
