<svg width="40" height="40" viewBox="0 0 40 40" fill="none" xmlns="http://www.w3.org/2000/svg">
<circle cx="20" cy="20" r="20" fill="#D5C5D2"/>
<path d="M30 13.86L25.4 10L24.11 11.53L28.71 15.39L30 13.86ZM15.88 11.53L14.6 10L10 13.85L11.29 15.38L15.88 11.53ZM20 12.14C15.03 12.14 11 16.17 11 21.14C11 26.11 15.02 30.14 20 30.14C24.97 30.14 29 26.11 29 21.14C29 16.17 24.97 12.14 20 12.14ZM20 28.14C16.13 28.14 13 25.01 13 21.14C13 17.27 16.13 14.14 20 14.14C23.87 14.14 27 17.27 27 21.14C27 25.01 23.87 28.14 20 28.14ZM18.54 22.67L16.41 20.54L15.35 21.6L18.53 24.78L24.53 18.78L23.47 17.72L18.54 22.67Z" fill="#4B2244"/>
</svg>
