<svg width="40" height="40" viewBox="0 0 40 40" fill="none" xmlns="http://www.w3.org/2000/svg">
<circle cx="20" cy="20" r="20" fill="#BB9FB7"/>
<path d="M20.0245 8.46353C20.1741 8.00287 20.8259 8.00287 20.9755 8.46353L23.4187 15.9828C23.4856 16.1888 23.6776 16.3283 23.8942 16.3283H31.8004C32.2848 16.3283 32.4862 16.9481 32.0943 17.2328L25.6981 21.8799C25.5228 22.0073 25.4495 22.2329 25.5164 22.439L27.9596 29.9582C28.1092 30.4189 27.582 30.8019 27.1902 30.5172L20.7939 25.8701C20.6186 25.7427 20.3814 25.7427 20.2061 25.8701L13.8098 30.5172C13.418 30.8019 12.8908 30.4189 13.0404 29.9582L15.4836 22.439C15.5505 22.2329 15.4772 22.0073 15.3019 21.8799L8.90569 17.2328C8.51383 16.9481 8.71522 16.3283 9.19958 16.3283H17.1058C17.3224 16.3283 17.5144 16.1888 17.5813 15.9828L20.0245 8.46353Z" fill="#F0EBEF"/>
</svg>
