<svg width="89" height="89" viewBox="0 0 89 89" fill="none" xmlns="http://www.w3.org/2000/svg">
<circle cx="44.5" cy="44.5" r="44.5" fill="#D4C5D2"/>
<mask id="mask0_1312_131" style="mask-type:alpha" maskUnits="userSpaceOnUse" x="0" y="0" width="89" height="89">
<circle cx="44.5" cy="44.5" r="44.5" fill="#D4C5D2"/>
</mask>
<g mask="url(#mask0_1312_131)">
<rect x="56" y="24" width="18" height="75" rx="7" fill="#7D3A71"/>
<rect x="45" y="24" width="27" height="75" rx="7" fill="#E0E0E0"/>
<rect x="14" y="22" width="54" height="75" rx="7" fill="#9A3A88"/>
<path d="M14 29C14 25.134 17.134 22 21 22H25V91.5C25 94.5376 22.5376 97 19.5 97V97C16.4624 97 14 94.5376 14 91.5V29Z" fill="#7D3A71"/>
</g>
<path d="M46.4207 57.5853C46.3447 57.5853 46.2688 57.5564 46.2101 57.4987C44.4168 55.7198 42.3119 53.7168 40.8618 52.3494C40.7291 52.2235 40.4214 51.9215 40.3916 51.8879C39.9098 51.3292 39.0117 50.2878 39.1511 49.1435C39.2271 48.5214 39.6002 47.9685 40.2608 47.5002C42.6369 45.8164 47.165 47.8896 47.3573 47.9781C47.5073 48.0473 47.5717 48.2252 47.5025 48.3752C47.4332 48.5252 47.2554 48.5906 47.1053 48.5204C47.0621 48.5002 42.7003 46.5049 40.607 47.9877C40.0896 48.3541 39.8002 48.7666 39.7454 49.2147C39.6386 50.0936 40.4175 51.0003 40.8397 51.4907C40.8781 51.5302 41.1272 51.7773 41.2714 51.9129C42.7234 53.2831 44.8331 55.29 46.6303 57.0727C46.7476 57.1891 46.7486 57.3785 46.6322 57.4958C46.5745 57.5564 46.4976 57.5853 46.4207 57.5853Z" fill="#FBFBFB"/>
<path d="M48.9545 47.3358C48.89 47.3358 48.8247 47.3146 48.7698 47.2723C48.742 47.2511 45.9736 45.1337 41.7301 45.6953C41.5657 45.7165 41.4157 45.602 41.3945 45.4376C41.3724 45.2741 41.4878 45.1232 41.6522 45.102C46.1582 44.5068 49.0208 46.7069 49.1401 46.8011C49.2699 46.903 49.2929 47.0915 49.191 47.2213C49.1314 47.2973 49.0429 47.3358 48.9545 47.3358Z" fill="#FBFBFB"/>
<path d="M40.6935 64C40.5243 64 40.356 63.9606 40.2368 63.8404C40.1339 63.7356 40.0358 63.5442 40.155 63.2211C40.2848 62.8701 40.4137 62.4672 40.5272 62.1105C40.6454 61.7412 40.7474 61.422 40.8272 61.2306C41.0782 60.6277 41.458 60.5171 42.033 60.3508C42.109 60.3287 42.1907 60.3046 42.2782 60.2787C42.9927 60.0633 46.2101 58.9988 46.2419 58.9882C46.3986 58.9363 46.5678 59.0219 46.6198 59.1786C46.6717 59.3354 46.5861 59.5046 46.4294 59.5565C46.2967 59.6008 43.1725 60.6335 42.4503 60.8518C42.3599 60.8787 42.2763 60.9037 42.1984 60.9258C41.6378 61.0883 41.5147 61.1335 41.3782 61.4605C41.308 61.6278 41.2051 61.9509 41.0955 62.2922C40.983 62.6442 40.8551 63.0423 40.7252 63.399C40.8166 63.3913 40.9464 63.3644 41.0503 63.3269C41.057 63.325 41.0628 63.323 41.0695 63.3211C41.1224 63.3067 46.3313 61.8422 47.8285 60.8883C48.5929 60.4008 49.3833 59.3527 49.3833 58.443C49.3833 57.417 48.9285 56.9468 48.1746 56.1698C48.115 56.1083 48.0535 56.0448 47.991 55.9794C46.7861 54.7255 45.5043 53.5457 44.3735 52.5043C43.6533 51.8408 43.0311 51.2677 42.5436 50.7811C41.6839 49.9243 41.9397 49.1935 42.1945 48.9262C42.309 48.807 42.4984 48.8031 42.6176 48.9166C42.7359 49.0291 42.7407 49.2157 42.6311 49.3349C42.5955 49.3772 42.3359 49.7272 42.9657 50.3561C43.4446 50.834 44.0629 51.4033 44.7783 52.0629C45.9149 53.1101 47.2034 54.2967 48.4218 55.564C48.4843 55.6285 48.5448 55.691 48.6035 55.7525C49.3728 56.5468 49.9805 57.1737 49.9805 58.443C49.9805 59.6133 49.0593 60.8133 48.1487 61.3932C46.5957 62.3836 41.5657 63.8038 41.2387 63.8952C41.1195 63.9385 40.9051 64 40.6935 64Z" fill="#FBFBFB"/>
</svg>
