<svg width="114" height="198" viewBox="0 0 114 198" fill="none" xmlns="http://www.w3.org/2000/svg">
<path d="M76.45 131.05C75.66 131.05 74.87 130.75 74.26 130.15C55.61 111.65 33.72 90.8201 18.64 76.6001C17.26 75.2901 14.06 72.1501 13.75 71.8001C8.74 65.9901 -0.599999 55.1601 0.850001 43.2601C1.64 36.7901 5.52 31.0401 12.39 26.1701C37.1 8.66009 84.19 30.2201 86.19 31.1401C87.75 31.8601 88.42 33.7101 87.7 35.2701C86.98 36.8301 85.13 37.5101 83.57 36.7801C83.12 36.5701 37.76 15.8201 15.99 31.2401C10.61 35.0501 7.6 39.3401 7.03 44.0001C5.92 53.1401 14.02 62.5701 18.41 67.6701C18.81 68.0801 21.4 70.6501 22.9 72.0601C38 86.3101 59.94 107.18 78.63 125.72C79.85 126.93 79.86 128.9 78.65 130.12C78.05 130.75 77.25 131.05 76.45 131.05Z" fill="#9B3A89"/>
<path d="M102.8 24.4601C102.13 24.4601 101.45 24.2401 100.88 23.8001C100.59 23.5801 71.8 1.56006 27.67 7.40006C25.96 7.62006 24.4 6.43006 24.18 4.72006C23.95 3.02006 25.15 1.45005 26.86 1.23005C73.72 -4.95995 103.49 17.9201 104.73 18.9001C106.08 19.9601 106.32 21.9201 105.26 23.2701C104.64 24.0601 103.72 24.4601 102.8 24.4601Z" fill="#9B3A89"/>
<path d="M16.89 197.76C15.13 197.76 13.38 197.35 12.14 196.1C11.07 195.01 10.05 193.02 11.29 189.66C12.64 186.01 13.98 181.82 15.16 178.11C16.39 174.27 17.45 170.95 18.28 168.96C20.89 162.69 24.84 161.54 30.82 159.81C31.61 159.58 32.46 159.33 33.37 159.06C40.8 156.82 74.26 145.75 74.59 145.64C76.22 145.1 77.98 145.99 78.52 147.62C79.06 149.25 78.17 151.01 76.54 151.55C75.16 152.01 42.67 162.75 35.16 165.02C34.22 165.3 33.35 165.56 32.54 165.79C26.71 167.48 25.43 167.95 24.01 171.35C23.28 173.09 22.21 176.45 21.07 180C19.9 183.66 18.57 187.8 17.22 191.51C18.17 191.43 19.52 191.15 20.6 190.76C20.67 190.74 20.73 190.72 20.8 190.7C21.35 190.55 75.52 175.32 91.09 165.4C99.04 160.33 107.26 149.43 107.26 139.97C107.26 129.3 102.53 124.41 94.69 116.33C94.07 115.69 93.43 115.03 92.78 114.35C80.25 101.31 66.92 89.04 55.16 78.21C47.67 71.31 41.2 65.35 36.13 60.29C27.19 51.38 29.85 43.78 32.5 41C33.69 39.76 35.66 39.72 36.9 40.9C38.13 42.07 38.18 44.01 37.04 45.25C36.67 45.69 33.97 49.33 40.52 55.87C45.5 60.84 51.93 66.76 59.37 73.62C71.19 84.51 84.59 96.85 97.26 110.03C97.91 110.7 98.54 111.35 99.15 111.99C107.15 120.25 113.47 126.77 113.47 139.97C113.47 152.14 103.89 164.62 94.42 170.65C78.27 180.95 25.96 195.72 22.56 196.67C21.32 197.12 19.09 197.76 16.89 197.76Z" fill="#9B3A89"/>
</svg>
