<svg width="697" height="1000" viewBox="0 0 697 1000" fill="none" xmlns="http://www.w3.org/2000/svg">
<rect width="697" height="1000" fill="url(#paint0_radial)"/>
<path d="M377.806 498.056C376.659 498.056 375.511 497.616 374.626 496.736C347.543 469.588 315.754 439.022 293.856 418.156C291.852 416.233 287.205 411.626 286.755 411.112C279.479 402.586 265.916 386.694 268.021 369.232C269.169 359.738 274.803 351.3 284.78 344.154C320.663 318.459 389.046 350.097 391.95 351.447C394.215 352.503 395.188 355.218 394.143 357.507C393.097 359.796 390.411 360.794 388.145 359.723C387.492 359.415 321.621 328.966 290.007 351.594C282.195 357.184 277.824 363.48 276.996 370.318C275.384 383.73 287.147 397.568 293.522 405.052C294.103 405.653 297.864 409.424 300.042 411.493C321.97 432.404 353.83 463.029 380.972 490.235C382.743 492.01 382.758 494.901 381.001 496.692C380.129 497.616 378.968 498.056 377.806 498.056Z" fill="#FBFBFB"/>
<path d="M416.071 341.645C415.098 341.645 414.11 341.322 413.283 340.676C412.861 340.353 371.053 308.041 306.969 316.61C304.486 316.933 302.22 315.187 301.901 312.678C301.567 310.183 303.309 307.879 305.793 307.557C373.841 298.473 417.073 332.048 418.873 333.486C420.834 335.041 421.182 337.917 419.643 339.898C418.743 341.058 417.407 341.645 416.071 341.645Z" fill="#FBFBFB"/>
<path d="M291.314 595.947C288.758 595.947 286.217 595.346 284.416 593.512C282.863 591.912 281.381 588.992 283.182 584.061C285.143 578.705 287.089 572.557 288.802 567.113C290.588 561.478 292.128 556.606 293.333 553.686C297.123 544.485 302.859 542.798 311.543 540.259C312.69 539.922 313.925 539.555 315.246 539.158C326.036 535.871 374.626 519.627 375.105 519.466C377.472 518.673 380.028 519.979 380.812 522.371C381.596 524.763 380.304 527.346 377.937 528.138C375.933 528.813 328.751 544.573 317.846 547.904C316.481 548.315 315.217 548.697 314.041 549.034C305.575 551.514 303.716 552.204 301.654 557.193C300.594 559.746 299.04 564.677 297.384 569.886C295.685 575.257 293.754 581.332 291.794 586.776C293.173 586.659 295.134 586.248 296.702 585.675C296.804 585.646 296.891 585.617 296.992 585.587C297.791 585.367 376.455 563.019 399.066 548.462C410.611 541.022 422.547 525.027 422.547 511.146C422.547 495.488 415.679 488.313 404.294 476.456C403.393 475.517 402.464 474.548 401.52 473.55C383.324 454.415 363.967 436.41 346.889 420.518C336.012 410.393 326.617 401.647 319.254 394.222C306.272 381.147 310.135 369.995 313.983 365.916C315.711 364.096 318.572 364.037 320.372 365.769C322.159 367.486 322.231 370.333 320.576 372.152C320.038 372.798 316.117 378.139 325.629 387.736C332.861 395.029 342.199 403.716 353.003 413.783C370.167 429.763 389.627 447.871 408.026 467.211C408.97 468.194 409.884 469.148 410.77 470.087C422.388 482.208 431.565 491.776 431.565 511.146C431.565 529.004 417.654 547.317 403.901 556.166C380.449 571.28 304.486 592.954 299.548 594.348C297.747 595.008 294.509 595.947 291.314 595.947Z" fill="#FBFBFB"/>
<path d="M227.448 678.005C225.516 677.169 223.977 675.995 222.859 674.483C221.741 672.972 221.116 671.24 221 669.289H226.46C226.62 670.888 227.361 672.209 228.697 673.221C230.033 674.234 231.79 674.748 233.953 674.748C235.972 674.748 237.555 674.293 238.717 673.398C239.878 672.502 240.459 671.358 240.459 669.993C240.459 668.584 239.835 667.543 238.6 666.853C237.366 666.163 235.449 665.488 232.85 664.828C230.483 664.197 228.566 663.566 227.07 662.92C225.574 662.275 224.296 661.321 223.236 660.044C222.176 658.767 221.639 657.095 221.639 655.025C221.639 653.382 222.118 651.871 223.091 650.506C224.064 649.141 225.429 648.055 227.215 647.248C229.001 646.441 231.035 646.045 233.314 646.045C236.843 646.045 239.689 646.94 241.853 648.745C244.017 650.55 245.179 653.015 245.338 656.141H240.053C239.936 654.453 239.268 653.103 238.049 652.091C236.829 651.078 235.188 650.565 233.14 650.565C231.238 650.565 229.728 650.975 228.609 651.797C227.491 652.619 226.925 653.69 226.925 655.025C226.925 656.082 227.259 656.948 227.941 657.637C228.624 658.327 229.466 658.87 230.497 659.281C231.528 659.692 232.951 660.147 234.767 660.66C237.047 661.291 238.905 661.908 240.343 662.509C241.781 663.111 243 664.021 244.032 665.239C245.063 666.457 245.585 668.041 245.629 669.993C245.629 671.754 245.15 673.339 244.177 674.748C243.204 676.156 241.839 677.257 240.082 678.064C238.324 678.871 236.291 679.267 234.011 679.267C231.572 679.267 229.379 678.842 227.448 678.005Z" fill="#FBFBFB"/>
<path d="M281.643 646.573L262.474 693.883H257.014L263.287 678.387L250.45 646.573H256.317L266.308 672.634L276.183 646.573H281.643Z" fill="#FBFBFB"/>
<path d="M313.01 649.523C315.406 651.885 316.611 655.304 316.611 659.765V678.724H311.383V660.528C311.383 657.315 310.585 654.864 309.002 653.162C307.419 651.46 305.241 650.609 302.496 650.609C299.708 650.609 297.486 651.489 295.845 653.25C294.204 655.011 293.376 657.579 293.376 660.939V678.724H288.09V646.559H293.376V651.137C294.422 649.493 295.845 648.217 297.646 647.322C299.447 646.426 301.436 645.972 303.6 645.972C307.463 645.972 310.599 647.16 313.01 649.523Z" fill="#FBFBFB"/>
<path d="M332.208 677.198C329.782 675.833 327.895 673.882 326.515 671.358C325.135 668.834 324.453 665.914 324.453 662.583C324.453 659.296 325.165 656.39 326.573 653.866C327.982 651.342 329.913 649.405 332.353 648.055C334.792 646.705 337.523 646.03 340.543 646.03C343.564 646.03 346.294 646.705 348.733 648.055C351.173 649.405 353.104 651.328 354.513 653.837C355.922 656.346 356.633 659.252 356.633 662.583C356.633 665.914 355.907 668.834 354.455 671.358C353.003 673.882 351.042 675.833 348.559 677.198C346.076 678.563 343.331 679.253 340.311 679.253C337.319 679.267 334.618 678.577 332.208 677.198ZM345.655 673.221C347.325 672.326 348.661 670.976 349.692 669.171C350.723 667.366 351.231 665.18 351.231 662.597C351.231 660.015 350.723 657.828 349.721 656.023C348.719 654.218 347.397 652.883 345.771 652.003C344.144 651.122 342.387 650.682 340.485 650.682C338.554 650.682 336.782 651.122 335.17 652.003C333.558 652.883 332.28 654.218 331.307 656.023C330.334 657.828 329.855 660.015 329.855 662.597C329.855 665.224 330.334 667.425 331.278 669.23C332.222 671.035 333.5 672.37 335.083 673.251C336.666 674.131 338.408 674.571 340.311 674.571C342.213 674.571 343.985 674.117 345.655 673.221Z" fill="#FBFBFB"/>
<path d="M374.727 647.894C376.804 646.661 379.215 646.045 381.959 646.045C384.791 646.045 387.347 646.735 389.656 648.099C391.965 649.464 393.765 651.401 395.087 653.881C396.408 656.361 397.062 659.252 397.062 662.539C397.062 665.782 396.408 668.687 395.087 671.226C393.765 673.764 391.965 675.745 389.656 677.154C387.347 678.563 384.791 679.267 381.959 679.267C379.244 679.267 376.862 678.651 374.785 677.418C372.709 676.186 371.14 674.645 370.051 672.811V694H364.765V646.573H370.051V652.502C371.097 650.653 372.651 649.126 374.727 647.894ZM390.193 656.185C389.22 654.38 387.913 653.015 386.272 652.076C384.631 651.137 382.816 650.667 380.841 650.667C378.91 650.667 377.109 651.152 375.468 652.105C373.827 653.059 372.505 654.453 371.518 656.273C370.53 658.092 370.037 660.191 370.037 662.583C370.037 665.004 370.53 667.132 371.518 668.951C372.505 670.771 373.827 672.165 375.468 673.119C377.109 674.073 378.91 674.557 380.841 674.557C382.816 674.557 384.631 674.073 386.272 673.119C387.913 672.165 389.22 670.771 390.193 668.951C391.166 667.132 391.645 664.989 391.645 662.524C391.645 660.103 391.166 657.99 390.193 656.185Z" fill="#FBFBFB"/>
<path d="M409.899 678.005C407.968 677.169 406.428 675.995 405.31 674.483C404.192 672.972 403.567 671.24 403.451 669.289H408.911C409.071 670.888 409.812 672.209 411.148 673.221C412.484 674.234 414.241 674.748 416.405 674.748C418.423 674.748 420.006 674.293 421.168 673.398C422.33 672.502 422.91 671.358 422.91 669.993C422.91 668.584 422.286 667.543 421.052 666.853C419.817 666.163 417.9 665.488 415.301 664.828C412.934 664.197 411.017 663.566 409.521 662.92C408.026 662.275 406.748 661.321 405.688 660.044C404.628 658.767 404.09 657.095 404.09 655.025C404.09 653.382 404.569 651.871 405.542 650.506C406.515 649.141 407.88 648.055 409.667 647.248C411.453 646.441 413.486 646.045 415.766 646.045C419.295 646.045 422.141 646.94 424.305 648.745C426.468 650.55 427.63 653.015 427.79 656.141H422.504C422.388 654.453 421.72 653.103 420.5 652.091C419.28 651.078 417.639 650.565 415.592 650.565C413.689 650.565 412.179 650.975 411.061 651.797C409.943 652.619 409.376 653.69 409.376 655.025C409.376 656.082 409.71 656.948 410.393 657.637C411.075 658.327 411.917 658.87 412.949 659.281C413.98 659.692 415.403 660.147 417.218 660.66C419.498 661.291 421.357 661.908 422.794 662.509C424.232 663.111 425.452 664.021 426.483 665.239C427.514 666.457 428.037 668.041 428.08 669.993C428.08 671.754 427.601 673.339 426.628 674.748C425.655 676.156 424.29 677.257 422.533 678.064C420.776 678.871 418.743 679.267 416.463 679.267C414.023 679.267 411.83 678.842 409.899 678.005Z" fill="#FBFBFB"/>
<path d="M436.837 640.278C436.14 639.574 435.791 638.708 435.791 637.695C435.791 636.683 436.14 635.817 436.837 635.113C437.534 634.408 438.391 634.056 439.393 634.056C440.366 634.056 441.179 634.408 441.861 635.113C442.544 635.817 442.878 636.683 442.878 637.695C442.878 638.708 442.544 639.574 441.861 640.278C441.179 640.982 440.366 641.335 439.393 641.335C438.391 641.335 437.534 640.997 436.837 640.278ZM441.948 646.573V678.739H436.663V646.573H441.948Z" fill="#FBFBFB"/>
<path d="M456.819 678.005C454.887 677.169 453.348 675.995 452.23 674.483C451.112 672.972 450.487 671.24 450.371 669.289H455.831C455.991 670.888 456.732 672.209 458.068 673.221C459.404 674.234 461.161 674.748 463.324 674.748C465.343 674.748 466.926 674.293 468.088 673.398C469.249 672.502 469.83 671.358 469.83 669.993C469.83 668.584 469.206 667.543 467.971 666.853C466.737 666.163 464.82 665.488 462.221 664.828C459.854 664.197 457.937 663.566 456.441 662.92C454.945 662.275 453.668 661.321 452.607 660.044C451.547 658.767 451.01 657.095 451.01 655.025C451.01 653.382 451.489 651.871 452.462 650.506C453.435 649.141 454.8 648.055 456.586 647.248C458.373 646.441 460.406 646.045 462.686 646.045C466.214 646.045 469.061 646.94 471.224 648.745C473.388 650.55 474.55 653.015 474.71 656.141H469.424C469.307 654.453 468.639 653.103 467.42 652.091C466.2 651.078 464.559 650.565 462.511 650.565C460.609 650.565 459.099 650.975 457.98 651.797C456.862 652.619 456.296 653.69 456.296 655.025C456.296 656.082 456.63 656.948 457.312 657.637C457.995 658.327 458.837 658.87 459.868 659.281C460.899 659.692 462.322 660.147 464.138 660.66C466.418 661.291 468.276 661.908 469.714 662.509C471.152 663.111 472.372 664.021 473.403 665.239C474.434 666.457 474.956 668.041 475 669.993C475 671.754 474.521 673.339 473.548 674.748C472.575 676.156 471.21 677.257 469.453 678.064C467.696 678.871 465.663 679.267 463.383 679.267C460.943 679.267 458.765 678.842 456.819 678.005Z" fill="#FBFBFB"/>
<defs>
<radialGradient id="paint0_radial" cx="0" cy="0" r="1" gradientUnits="userSpaceOnUse" gradientTransform="translate(349 510) rotate(90.0585) scale(490 341.53)">
<stop offset="0.0572917" stop-color="#9A3A88" stop-opacity="0.98"/>
<stop offset="1" stop-color="#9A3A88"/>
</radialGradient>
</defs>
</svg>
